<?xml version="1.0" encoding="UTF-8" standalone="no"?>
<!DOCTYPE svg PUBLIC "-//W3C//DTD SVG 1.1//EN" "http://www.w3.org/Graphics/SVG/1.1/DTD/svg11.dtd">
<svg xmlns="http://www.w3.org/2000/svg" version="1.1" viewBox="0.00 0.00 1773.00 1773.00">
<path fill="#d9ae5b" d="
  M 560.96 1401.69
  Q 561.61 1401.59 562.20 1401.28
  Q 563.31 1400.70 564.81 1400.39
  Q 573.71 1398.56 580.12 1397.28
  Q 599.19 1393.48 601.19 1393.41
  Q 603.65 1393.32 606.12 1393.15
  Q 606.44 1393.13 606.60 1392.85
  L 606.86 1392.40
  Q 606.93 1392.28 607.07 1392.25
  L 612.29 1390.97
  Q 614.20 1390.51 614.24 1388.53
  Q 614.30 1385.76 614.35 1370.51
  Q 614.36 1366.30 613.89 1364.10
  Q 613.52 1362.37 612.29 1361.71
  Q 610.51 1360.77 609.36 1361.64
  A 1.82 1.81 24.9 0 1 608.37 1362.00
  Q 607.13 1362.07 599.97 1362.09
  C 599.19 1362.09 598.44 1362.76 598.04 1362.77
  C 595.42 1362.79 593.85 1363.80 591.28 1364.24
  Q 590.81 1364.32 582.02 1365.85
  Q 564.24 1368.95 534.82 1375.24
  Q 517.65 1378.92 514.31 1380.17
  Q 513.75 1380.39 508.98 1381.30
  Q 506.57 1381.76 503.75 1382.59
  Q 494.99 1385.18 487.01 1387.24
  Q 469.00 1391.90 445.46 1399.49
  Q 386.70 1418.44 325.82 1444.61
  Q 308.36 1452.11 285.45 1463.22
  C 283.20 1464.30 280.93 1464.80 280.00 1462.25
  C 277.26 1454.76 275.51 1445.66 273.63 1439.02
  Q 269.00 1422.67 266.88 1410.79
  Q 266.40 1408.13 265.14 1403.98
  Q 264.43 1401.68 263.36 1397.18
  Q 259.58 1381.40 248.77 1338.54
  Q 248.17 1336.18 232.78 1274.14
  Q 228.82 1258.22 225.92 1247.00
  Q 224.19 1240.34 221.15 1227.59
  C 218.85 1217.91 215.87 1206.92 213.77 1198.38
  Q 206.19 1167.60 198.26 1135.58
  Q 197.16 1131.15 189.61 1101.85
  Q 187.21 1092.52 184.83 1082.43
  Q 182.17 1071.12 177.04 1050.49
  Q 169.18 1018.87 162.07 990.83
  Q 159.91 982.28 159.45 979.75
  Q 158.77 975.91 157.60 972.40
  Q 157.22 971.24 155.70 965.04
  Q 153.94 957.81 151.30 947.82
  Q 149.15 939.70 147.15 930.56
  Q 145.04 920.99 142.24 911.15
  Q 140.37 904.56 139.72 901.16
  C 138.78 896.25 137.20 892.24 136.29 887.84
  Q 133.27 873.25 129.41 859.65
  Q 127.51 852.93 127.02 850.14
  C 126.28 845.93 124.99 842.14 123.85 837.45
  Q 118.91 817.21 113.67 796.71
  C 110.99 786.22 107.57 771.43 104.14 758.87
  C 103.38 756.12 102.35 750.99 101.09 746.97
  C 99.25 741.15 98.09 733.16 96.23 726.28
  C 93.01 714.37 90.34 702.35 87.22 690.42
  Q 86.08 686.08 84.79 679.98
  C 83.44 673.58 79.77 662.94 78.16 654.79
  C 77.22 649.97 75.69 645.41 74.64 640.46
  Q 72.36 629.75 69.18 618.76
  Q 68.53 616.51 70.28 615.34
  Q 70.70 615.06 71.21 615.12
  C 73.28 615.37 74.27 614.49 76.29 614.34
  Q 80.83 613.99 84.38 612.75
  Q 87.26 611.75 88.77 611.85
  Q 91.63 612.04 93.64 611.59
  C 96.81 610.87 100.02 611.33 103.33 610.67
  Q 105.17 610.31 107.29 610.12
  C 122.42 608.77 136.14 606.63 149.36 606.81
  A 2.38 2.37 -6.4 0 1 151.65 608.63
  L 160.62 645.38
  A 1.74 1.74 0.0 0 1 159.29 647.50
  Q 142.21 651.08 132.30 652.97
  Q 131.39 653.14 126.40 654.36
  C 124.26 654.88 119.81 655.32 118.22 656.96
  Q 117.48 657.72 117.57 659.19
  Q 117.83 663.84 119.06 668.26
  Q 121.48 676.96 123.55 685.62
  Q 129.27 709.58 165.41 847.00
  Q 168.96 860.50 174.66 883.41
  Q 176.63 891.34 178.78 899.26
  C 181.95 910.98 184.05 920.64 187.76 934.51
  Q 190.67 945.38 193.71 957.63
  C 196.78 969.98 202.25 988.87 206.05 1004.85
  C 209.33 1018.63 212.75 1031.01 216.05 1044.11
  Q 219.69 1058.58 220.98 1063.48
  Q 236.70 1123.11 247.41 1165.19
  Q 251.75 1182.24 263.36 1226.43
  Q 265.23 1233.53 268.15 1245.88
  C 270.94 1257.69 274.41 1270.03 277.32 1281.66
  Q 281.68 1299.14 286.52 1317.04
  C 288.24 1323.41 289.69 1330.27 291.59 1337.31
  Q 298.76 1363.98 299.59 1367.42
  C 302.64 1380.05 306.05 1392.58 309.15 1405.20
  Q 310.46 1410.54 313.09 1417.43
  Q 313.28 1417.93 313.81 1418.05
  C 316.45 1418.65 319.61 1416.60 323.75 1414.68
  Q 327.46 1412.95 330.55 1411.70
  Q 344.50 1406.07 358.48 1400.50
  Q 361.20 1399.42 369.29 1397.15
  C 370.47 1396.81 371.35 1395.73 372.44 1395.42
  Q 379.92 1393.30 380.69 1392.96
  Q 383.74 1391.61 385.76 1391.05
  Q 388.58 1390.28 388.61 1390.27
  Q 433.62 1375.28 480.39 1365.22
  C 484.35 1364.36 489.62 1363.02 494.74 1362.23
  Q 500.41 1361.37 512.01 1358.90
  C 518.80 1357.46 526.76 1356.81 532.62 1355.65
  Q 540.56 1354.07 547.00 1353.53
  Q 548.18 1353.43 561.49 1351.98
  C 563.27 1351.78 564.79 1350.82 566.63 1350.75
  Q 571.69 1350.56 573.97 1350.43
  C 576.16 1350.30 580.01 1349.55 583.00 1349.79
  Q 584.64 1349.93 585.91 1349.47
  Q 587.38 1348.93 588.68 1348.93
  Q 593.96 1348.89 597.50 1348.91
  C 598.43 1348.92 599.26 1348.09 600.53 1348.09
  Q 606.00 1348.12 611.45 1348.07
  Q 611.85 1348.06 611.87 1347.67
  L 611.90 1347.35
  Q 611.93 1346.92 612.30 1346.70
  Q 614.04 1345.65 614.14 1344.14
  C 614.32 1341.47 613.84 1336.48 615.07 1333.10
  Q 616.08 1330.32 616.12 1329.12
  Q 616.14 1328.69 616.49 1328.43
  L 616.80 1328.21
  Q 617.10 1328.00 617.20 1327.64
  Q 618.52 1323.03 622.33 1319.31
  Q 625.33 1316.38 626.08 1315.88
  A 1.25 1.25 0.0 0 0 626.62 1315.10
  Q 627.10 1313.03 629.05 1312.34
  Q 629.65 1312.13 629.10 1311.81
  Q 627.73 1311.01 627.23 1311.00
  Q 617.70 1310.88 579.27 1311.06
  Q 578.76 1311.06 578.32 1311.31
  C 576.62 1312.25 573.28 1311.83 570.99 1311.86
  Q 570.49 1311.86 570.06 1312.12
  Q 569.50 1312.44 569.45 1312.47
  Q 569.14 1312.64 568.78 1312.64
  Q 561.50 1312.69 553.50 1312.66
  Q 551.21 1312.65 541.74 1314.24
  Q 536.52 1315.12 532.71 1315.55
  C 526.62 1316.24 516.69 1316.67 511.40 1317.81
  C 506.02 1318.97 500.11 1320.02 495.22 1320.62
  Q 484.96 1321.87 474.03 1324.32
  C 471.39 1324.91 467.18 1325.34 463.82 1326.25
  C 459.14 1327.51 454.12 1328.38 449.88 1329.38
  Q 416.63 1337.28 384.36 1347.49
  C 372.02 1351.39 357.76 1356.88 345.29 1361.00
  Q 343.33 1361.65 342.55 1359.74
  C 341.18 1356.41 340.06 1353.37 339.32 1349.84
  Q 336.97 1338.68 336.60 1337.37
  Q 333.82 1327.54 331.23 1316.16
  Q 328.59 1304.52 328.58 1304.46
  C 323.53 1283.42 317.44 1259.95 312.27 1237.04
  Q 308.39 1219.89 303.34 1199.82
  Q 300.50 1188.55 298.57 1180.41
  Q 290.45 1146.25 282.31 1113.64
  C 280.97 1108.24 279.63 1100.18 277.79 1094.38
  C 276.08 1088.98 275.50 1083.38 274.04 1078.01
  Q 270.07 1063.39 268.16 1053.99
  Q 266.17 1044.21 263.64 1034.49
  C 259.96 1020.39 256.04 1002.54 252.71 990.37
  C 251.33 985.33 250.70 980.67 249.19 975.55
  Q 248.37 972.75 247.72 969.65
  Q 244.37 953.70 239.84 936.53
  C 239.03 933.47 238.64 930.46 237.88 927.62
  Q 233.80 912.28 230.24 896.68
  Q 228.14 887.51 225.74 878.26
  Q 223.16 868.37 221.38 859.77
  C 219.97 853.02 218.02 846.36 215.95 837.38
  Q 215.41 835.03 214.90 832.69
  Q 214.15 829.17 212.24 822.39
  C 209.95 814.24 208.61 805.45 206.13 797.31
  C 205.04 793.73 204.51 789.52 203.33 785.23
  Q 200.87 776.29 200.09 772.54
  Q 199.84 771.32 199.52 769.85
  Q 196.65 756.67 191.88 738.59
  Q 190.01 731.53 189.00 726.79
  C 187.89 721.58 186.42 716.86 185.09 711.05
  Q 181.35 694.76 179.77 687.64
  C 179.21 685.10 177.92 682.13 177.53 679.95
  Q 176.55 674.48 175.54 670.43
  Q 173.49 662.17 173.24 660.98
  Q 171.69 653.46 170.96 650.55
  Q 166.64 633.37 157.73 596.70
  C 155.20 586.28 152.59 575.55 149.64 564.37
  Q 148.72 560.87 146.93 551.82
  Q 146.53 549.79 144.55 541.91
  Q 142.92 535.45 142.37 531.93
  C 142.04 529.82 140.50 527.13 140.09 524.40
  Q 139.46 520.24 138.19 512.85
  Q 137.85 510.88 139.81 510.49
  Q 142.03 510.05 145.50 508.91
  Q 147.23 508.34 151.57 508.00
  Q 166.36 506.85 181.04 504.76
  C 186.90 503.93 193.56 503.76 198.51 503.97
  Q 200.05 504.04 201.24 503.73
  Q 203.23 503.21 203.85 503.20
  Q 207.55 503.15 211.24 503.15
  A 1.84 1.79 -60.9 0 0 212.17 502.87
  Q 212.94 502.38 213.25 502.38
  Q 226.86 502.31 229.28 502.32
  Q 232.93 502.34 233.55 505.50
  C 235.14 513.69 237.24 519.81 238.63 527.52
  Q 239.33 531.41 241.11 538.05
  C 242.67 543.87 227.50 544.09 224.24 544.55
  Q 206.28 547.07 188.66 550.66
  Q 187.33 550.93 186.09 552.12
  C 184.16 553.96 185.61 559.91 186.23 562.04
  Q 190.58 576.91 193.08 587.93
  C 195.79 599.85 200.36 616.70 203.27 628.53
  Q 215.47 678.21 227.21 724.10
  Q 229.08 731.39 232.04 743.52
  Q 244.27 793.48 258.60 849.00
  Q 261.57 860.53 263.51 868.39
  Q 272.65 905.56 282.09 943.67
  Q 285.14 955.99 286.41 961.17
  Q 288.33 968.97 299.20 1012.20
  Q 304.44 1033.01 309.43 1051.83
  Q 310.41 1055.57 314.13 1071.08
  Q 319.86 1095.02 325.06 1115.11
  Q 325.27 1115.92 327.67 1125.47
  Q 355.15 1235.04 371.80 1301.98
  Q 372.57 1305.04 373.52 1308.19
  C 374.67 1311.94 374.83 1314.18 379.29 1313.62
  Q 388.19 1312.51 391.82 1311.51
  Q 393.44 1311.06 395.25 1311.02
  Q 398.01 1310.96 398.72 1310.68
  Q 403.49 1308.82 408.75 1308.22
  Q 417.07 1307.27 422.41 1306.18
  C 432.49 1304.14 438.50 1303.92 451.28 1302.41
  Q 452.19 1302.30 453.12 1301.77
  Q 454.26 1301.10 455.02 1301.12
  C 460.20 1301.26 466.01 1300.43 469.32 1300.18
  C 476.48 1299.65 481.71 1298.61 487.91 1298.69
  Q 494.43 1298.76 502.72 1298.15
  Q 504.10 1298.04 505.71 1297.58
  C 508.87 1296.67 512.26 1297.32 515.13 1296.76
  Q 518.62 1296.06 521.42 1296.18
  Q 521.71 1296.19 548.22 1296.19
  Q 548.75 1296.19 549.14 1295.83
  Q 549.35 1295.65 549.62 1295.52
  Q 549.85 1295.40 550.38 1295.40
  Q 558.71 1295.32 561.00 1295.45
  Q 561.40 1295.48 561.91 1295.89
  Q 562.29 1296.19 562.78 1296.19
  Q 581.66 1296.18 586.62 1296.21
  C 588.08 1296.22 589.24 1296.91 590.61 1296.92
  Q 597.48 1297.00 603.54 1297.14
  Q 604.93 1297.17 605.59 1298.03
  Q 605.88 1298.39 606.34 1298.42
  Q 610.93 1298.71 619.49 1298.68
  Q 621.74 1298.67 623.98 1299.18
  C 626.43 1299.75 629.79 1299.27 632.51 1299.90
  Q 633.84 1300.21 636.59 1300.27
  Q 638.64 1300.32 641.62 1300.91
  Q 643.86 1301.36 646.77 1301.09
  Q 649.53 1300.84 651.09 1302.20
  Q 651.47 1302.53 651.97 1302.59
  C 654.09 1302.84 655.64 1302.78 657.74 1303.26
  Q 660.93 1304.00 663.83 1303.53
  A 1.86 1.86 0.0 0 0 665.39 1301.68
  Q 665.35 1298.10 665.47 1269.50
  Q 665.49 1266.69 664.54 1264.54
  A 2.05 2.04 -9.0 0 0 662.88 1263.34
  Q 661.11 1263.17 659.72 1262.76
  C 658.03 1262.27 655.97 1262.77 654.71 1262.06
  Q 653.93 1261.61 652.73 1261.62
  Q 649.27 1261.64 645.36 1261.45
  Q 644.93 1261.43 644.86 1261.00
  Q 644.83 1260.82 644.79 1260.66
  A 0.71 0.69 -3.6 0 0 644.20 1260.15
  C 641.34 1259.80 638.23 1260.30 635.20 1259.39
  Q 633.81 1258.98 631.77 1259.12
  Q 629.46 1259.28 627.55 1258.89
  Q 625.85 1258.54 623.42 1258.40
  Q 612.43 1257.74 601.10 1257.16
  C 597.19 1256.96 592.54 1255.86 588.09 1255.84
  C 586.32 1255.83 584.82 1255.05 583.17 1255.05
  Q 554.50 1254.92 525.83 1255.03
  C 524.36 1255.04 523.54 1255.75 522.21 1255.78
  C 515.84 1255.90 509.53 1256.87 503.25 1257.23
  Q 500.27 1257.40 481.45 1258.67
  C 468.53 1259.54 454.22 1261.93 441.78 1263.36
  C 434.07 1264.24 426.49 1266.35 418.49 1267.31
  A 1.37 1.37 0.0 0 1 417.04 1266.42
  Q 414.19 1258.64 412.64 1250.59
  Q 411.04 1242.29 409.59 1236.55
  Q 407.65 1228.86 402.90 1208.54
  C 402.16 1205.37 401.32 1202.92 400.85 1200.21
  Q 399.31 1191.31 397.21 1183.37
  Q 396.00 1178.78 395.70 1176.83
  C 395.29 1174.22 394.92 1171.05 393.87 1168.15
  C 392.01 1163.00 391.84 1157.59 390.13 1152.17
  C 388.12 1145.81 387.50 1139.26 385.79 1132.79
  Q 381.34 1115.95 378.47 1100.24
  C 377.71 1096.04 376.21 1092.11 375.46 1087.91
  Q 374.36 1081.79 373.22 1077.90
  C 371.49 1071.94 370.87 1067.24 369.11 1060.93
  Q 368.05 1057.11 367.03 1051.28
  C 366.18 1046.45 364.53 1042.57 363.88 1038.47
  Q 362.88 1032.15 360.56 1023.39
  Q 359.01 1017.53 358.34 1013.02
  C 357.69 1008.60 356.05 1004.25 355.17 999.20
  C 354.11 993.12 351.76 985.32 350.45 979.18
  Q 347.64 965.96 344.66 953.79
  C 342.87 946.47 341.58 939.23 339.92 933.05
  C 338.63 928.25 337.58 922.23 336.52 917.91
  Q 334.57 910.00 333.99 907.29
  Q 332.58 900.75 331.56 896.67
  Q 331.32 895.69 329.96 889.51
  Q 329.17 885.93 321.53 852.81
  Q 317.65 836.04 312.73 813.28
  C 310.66 803.68 307.63 792.17 305.54 782.43
  C 303.94 774.96 301.16 764.97 299.73 756.03
  C 299.39 753.90 298.23 750.92 297.68 748.47
  Q 293.89 731.26 289.82 714.12
  Q 289.43 712.51 287.80 704.36
  C 286.93 699.99 285.49 695.32 284.64 691.42
  Q 281.47 676.84 278.11 662.36
  Q 277.41 659.31 275.50 650.14
  Q 274.54 645.54 272.61 638.00
  Q 268.39 621.59 266.44 609.82
  C 265.82 606.06 264.16 601.29 263.36 596.85
  Q 262.77 593.58 262.27 591.59
  Q 259.39 580.17 255.04 560.19
  C 253.92 555.08 251.64 547.74 250.77 541.81
  C 250.21 538.01 249.00 534.49 248.23 530.85
  Q 245.52 518.10 240.57 497.60
  Q 240.20 496.06 238.54 488.08
  C 237.65 483.81 236.27 479.33 235.44 475.45
  Q 230.67 453.03 223.31 422.24
  Q 222.09 417.12 222.35 411.84
  Q 222.38 411.33 222.72 410.96
  Q 223.32 410.32 223.31 409.83
  A 0.56 0.55 -2.7 0 1 223.83 409.27
  L 251.36 407.50
  A 0.25 0.24 -64.5 0 0 251.52 407.44
  Q 252.35 406.88 255.00 406.87
  Q 264.70 406.82 265.26 406.82
  A 0.68 0.41 2.1 0 0 265.91 406.46
  L 266.03 405.75
  Q 266.12 405.16 266.72 405.16
  Q 288.05 405.18 309.36 405.15
  Q 310.06 405.15 310.25 404.97
  Q 310.37 404.86 310.50 404.73
  Q 310.85 404.41 311.32 404.40
  C 315.30 404.31 319.81 403.88 322.31 404.94
  Q 324.31 405.79 325.75 404.42
  Q 326.17 404.02 326.52 404.48
  L 326.71 404.75
  Q 327.01 405.16 327.52 405.16
  Q 338.53 405.16 366.50 405.18
  C 371.23 405.18 376.42 406.30 380.53 406.56
  Q 401.82 407.90 419.22 409.56
  C 422.98 409.92 427.44 411.06 431.05 411.31
  Q 439.18 411.86 449.80 413.50
  Q 475.45 417.47 498.62 421.83
  A 18.11 18.02 59.9 0 1 501.19 422.52
  Q 506.09 424.25 513.23 424.70
  C 515.14 424.82 517.06 423.11 518.30 421.40
  Q 526.94 409.52 537.11 400.94
  C 542.81 396.14 550.78 390.99 557.46 386.21
  Q 561.76 383.13 569.78 374.54
  Q 590.11 352.80 599.52 343.27
  C 602.63 340.11 599.88 332.57 599.29 328.79
  C 598.14 321.42 596.31 313.64 595.32 306.85
  Q 593.77 296.21 592.39 285.56
  C 592.06 283.05 591.23 279.95 590.90 277.15
  Q 589.40 264.32 588.67 253.90
  Q 588.50 251.49 587.49 247.14
  Q 586.65 243.47 586.55 240.25
  Q 586.23 229.57 585.66 218.25
  C 585.23 209.62 584.83 200.68 592.68 195.15
  C 598.90 190.77 610.90 195.27 619.35 198.08
  Q 625.75 200.21 630.97 202.81
  Q 644.49 209.54 653.47 215.20
  Q 673.31 227.73 691.63 243.63
  Q 693.00 244.82 698.47 248.32
  Q 705.25 252.67 711.93 247.92
  Q 716.57 244.61 724.42 237.18
  C 731.83 230.16 741.92 219.72 752.51 211.26
  Q 755.35 208.99 761.73 206.95
  Q 765.11 205.87 769.42 205.87
  Q 774.11 205.86 774.65 205.86
  Q 777.29 205.88 779.72 206.71
  Q 788.58 209.76 799.48 215.00
  Q 804.04 217.20 818.03 223.61
  Q 824.28 226.47 835.55 231.95
  Q 844.77 236.43 853.19 240.19
  Q 856.51 241.67 877.43 251.05
  Q 879.14 251.82 882.56 253.61
  Q 885.01 254.89 887.62 256.02
  Q 910.65 266.03 933.77 280.85
  C 942.61 286.53 952.53 293.15 961.76 300.35
  Q 979.85 314.44 992.90 326.14
  Q 1001.83 334.15 1018.21 350.81
  Q 1024.99 357.71 1030.57 364.26
  Q 1050.68 387.87 1065.75 410.03
  Q 1086.64 440.75 1103.37 477.03
  Q 1103.58 477.48 1104.06 477.55
  Q 1107.61 478.11 1111.30 476.31
  C 1120.67 471.76 1126.46 468.81 1134.41 465.57
  C 1141.63 462.62 1148.50 459.30 1155.60 456.69
  Q 1189.67 444.20 1196.39 442.17
  Q 1212.31 437.35 1218.60 435.46
  C 1223.48 433.99 1228.78 432.87 1233.67 431.64
  Q 1233.77 431.61 1237.52 430.35
  C 1239.25 429.77 1241.25 429.75 1242.89 429.24
  C 1246.56 428.08 1251.25 427.64 1255.32 426.31
  C 1260.23 424.71 1267.05 423.94 1273.06 422.39
  Q 1274.35 422.06 1295.75 417.85
  Q 1299.37 417.13 1310.59 415.70
  Q 1316.74 414.91 1324.48 413.43
  Q 1333.70 411.67 1342.54 411.65
  Q 1343.49 411.65 1345.44 411.14
  Q 1346.92 410.76 1348.45 410.96
  A 2.95 2.36 -60.9 0 0 1350.72 410.03
  Q 1351.38 409.33 1352.89 409.35
  Q 1357.20 409.38 1359.83 409.01
  C 1364.88 408.31 1369.02 408.73 1373.55 407.94
  Q 1375.65 407.57 1380.31 407.62
  C 1382.30 407.65 1383.93 406.85 1385.87 406.85
  Q 1389.73 406.83 1396.59 406.81
  A 0.88 0.74 -1.0 0 0 1397.46 406.05
  Q 1397.45 405.64 1397.90 405.34
  Q 1398.14 405.19 1398.66 405.19
  Q 1427.37 405.12 1503.00 405.22
  Q 1505.44 405.23 1507.10 405.48
  Q 1507.63 405.56 1507.89 406.03
  Q 1507.97 406.16 1508.09 406.25
  A 0.70 0.67 65.0 0 0 1508.42 406.38
  L 1549.92 409.34
  Q 1550.38 409.37 1550.54 409.81
  Q 1550.77 410.48 1551.17 411.01
  Q 1551.47 411.41 1551.49 411.90
  Q 1551.66 416.33 1551.20 418.23
  Q 1548.97 427.47 1547.03 436.77
  C 1546.58 438.92 1545.73 441.09 1545.32 443.02
  Q 1542.80 454.87 1535.35 487.11
  C 1533.62 494.60 1532.05 499.94 1530.91 506.15
  Q 1530.00 511.12 1526.89 523.40
  C 1526.37 525.45 1526.08 527.73 1525.59 529.87
  Q 1518.91 558.71 1512.47 587.60
  Q 1507.78 608.63 1490.32 684.95
  Q 1490.25 685.25 1488.39 694.15
  Q 1487.92 696.39 1486.31 703.31
  Q 1478.15 738.48 1478.04 738.97
  Q 1472.77 762.29 1467.41 785.05
  Q 1465.18 794.50 1463.31 803.49
  Q 1460.92 814.98 1459.11 821.93
  C 1456.88 830.42 1455.61 837.38 1453.38 846.52
  C 1452.13 851.66 1451.10 857.33 1450.06 861.78
  C 1445.25 882.51 1441.71 897.49 1439.07 908.94
  Q 1432.93 935.54 1425.55 969.09
  C 1422.64 982.33 1418.25 998.04 1415.72 1010.95
  Q 1413.59 1021.82 1410.22 1035.88
  Q 1405.78 1054.45 1405.75 1054.54
  Q 1404.44 1060.36 1374.31 1192.36
  Q 1371.22 1205.92 1368.15 1219.49
  Q 1361.53 1248.82 1361.05 1250.97
  Q 1360.20 1254.83 1359.13 1258.48
  Q 1357.13 1265.35 1357.00 1265.93
  Q 1356.88 1266.48 1356.43 1266.52
  C 1352.02 1266.89 1347.27 1266.11 1342.25 1265.21
  Q 1331.99 1263.38 1331.11 1263.27
  Q 1302.48 1259.44 1298.12 1259.11
  Q 1284.39 1258.07 1270.65 1257.08
  C 1266.38 1256.78 1258.90 1255.85 1253.07 1255.80
  C 1251.48 1255.79 1249.91 1255.03 1248.00 1255.02
  Q 1218.53 1254.93 1189.06 1255.03
  C 1187.49 1255.03 1186.28 1255.81 1185.00 1255.81
  Q 1181.33 1255.81 1176.73 1256.34
  Q 1169.87 1257.14 1168.51 1257.24
  Q 1159.25 1257.94 1149.99 1258.55
  Q 1140.56 1259.17 1131.56 1260.39
  Q 1110.35 1263.28 1108.85 1263.43
  C 1100.65 1264.27 1092.05 1266.75 1083.62 1267.42
  Q 1079.55 1267.74 1077.77 1269.06
  C 1075.17 1270.99 1075.45 1273.19 1075.45 1276.32
  Q 1075.46 1296.32 1075.44 1305.22
  Q 1075.43 1307.88 1078.08 1307.89
  Q 1083.10 1307.92 1089.58 1307.66
  C 1093.70 1307.49 1097.64 1305.63 1101.55 1305.05
  Q 1108.73 1304.00 1116.04 1303.01
  Q 1118.70 1302.65 1121.19 1302.07
  Q 1124.65 1301.26 1126.38 1301.21
  Q 1129.18 1301.14 1133.17 1300.57
  Q 1136.17 1300.14 1140.04 1300.38
  Q 1141.58 1300.47 1142.33 1299.85
  Q 1142.75 1299.49 1143.30 1299.49
  L 1149.08 1299.49
  A 0.39 0.37 11.8 0 0 1149.43 1299.27
  Q 1149.74 1298.60 1151.75 1298.67
  Q 1153.56 1298.74 1166.76 1298.60
  Q 1167.24 1298.59 1167.48 1298.17
  L 1167.78 1297.66
  Q 1168.08 1297.14 1168.68 1297.12
  C 1174.76 1297.00 1178.92 1297.45 1182.71 1296.71
  Q 1185.18 1296.23 1186.35 1296.22
  Q 1200.80 1296.16 1215.02 1296.21
  Q 1215.52 1296.21 1215.96 1295.97
  Q 1218.35 1294.65 1220.80 1295.95
  A 1.96 1.94 -30.7 0 0 1221.72 1296.18
  Q 1240.31 1296.20 1255.75 1296.19
  C 1256.67 1296.19 1257.73 1296.78 1258.78 1296.84
  C 1266.44 1297.24 1276.53 1298.40 1285.80 1298.88
  Q 1306.03 1299.91 1321.76 1302.09
  C 1330.71 1303.33 1341.68 1304.50 1350.84 1306.14
  C 1357.46 1307.32 1365.18 1307.88 1372.11 1309.82
  Q 1375.30 1310.70 1379.58 1311.16
  Q 1381.56 1311.36 1389.23 1313.08
  Q 1391.68 1313.63 1396.51 1313.66
  C 1398.37 1313.68 1398.99 1312.73 1399.25 1311.01
  C 1399.58 1308.74 1401.10 1306.42 1401.47 1303.97
  Q 1402.41 1297.86 1403.59 1293.69
  Q 1404.40 1290.81 1404.52 1290.36
  Q 1406.59 1282.68 1407.33 1279.26
  C 1408.62 1273.22 1410.46 1268.04 1411.63 1262.30
  C 1412.17 1259.63 1413.24 1257.63 1413.66 1255.14
  Q 1414.68 1249.06 1416.45 1243.17
  Q 1417.84 1238.59 1418.46 1235.60
  C 1419.95 1228.39 1422.41 1221.45 1423.53 1215.38
  Q 1424.33 1211.04 1425.27 1208.20
  C 1426.20 1205.40 1426.86 1201.44 1427.58 1198.59
  Q 1440.88 1146.20 1445.01 1129.40
  Q 1446.10 1124.97 1446.71 1122.85
  C 1447.90 1118.65 1448.41 1114.85 1449.67 1111.05
  C 1451.79 1104.69 1452.37 1098.73 1454.13 1092.74
  Q 1456.00 1086.37 1456.94 1080.75
  Q 1457.37 1078.15 1457.95 1076.88
  C 1459.87 1072.61 1460.35 1067.88 1461.51 1063.65
  C 1463.80 1055.33 1465.14 1047.04 1467.71 1038.81
  C 1468.99 1034.70 1469.55 1030.83 1470.80 1026.00
  Q 1481.56 984.13 1481.80 983.17
  Q 1485.17 969.53 1506.27 884.82
  Q 1506.64 883.32 1507.04 881.85
  Q 1508.08 878.07 1510.30 868.14
  C 1512.79 857.02 1515.86 845.42 1517.97 837.73
  C 1519.11 833.60 1519.67 830.03 1521.01 825.30
  Q 1522.75 819.21 1524.77 810.04
  C 1525.21 808.05 1526.50 805.22 1526.89 802.91
  Q 1527.99 796.34 1530.21 790.06
  Q 1530.54 789.15 1530.81 787.52
  Q 1531.03 786.21 1531.33 784.96
  Q 1537.15 761.02 1537.16 760.99
  Q 1537.19 760.06 1540.47 747.40
  Q 1540.63 746.80 1542.37 740.80
  C 1543.22 737.85 1543.71 734.55 1544.44 731.83
  Q 1548.29 717.62 1548.56 716.31
  Q 1549.49 711.81 1550.63 707.21
  Q 1553.14 697.05 1555.44 688.52
  C 1559.33 674.09 1561.86 661.19 1565.93 647.17
  C 1567.85 640.57 1568.36 636.06 1570.23 629.69
  Q 1570.88 627.46 1572.13 621.37
  Q 1572.40 620.06 1575.25 609.54
  Q 1576.71 604.13 1577.05 601.95
  C 1577.58 598.47 1578.91 595.68 1579.80 591.87
  Q 1582.56 580.15 1585.61 568.49
  C 1586.23 566.11 1585.74 563.35 1587.05 561.51
  C 1588.74 559.13 1588.81 555.77 1588.46 553.27
  Q 1588.39 552.77 1587.99 552.45
  L 1585.85 550.71
  Q 1585.50 550.42 1585.05 550.35
  Q 1579.47 549.53 1566.38 547.25
  Q 1559.56 546.06 1552.06 545.10
  Q 1540.57 543.63 1537.71 543.14
  Q 1535.23 542.72 1533.41 541.22
  A 1.32 1.31 15.7 0 1 1532.93 540.37
  C 1532.47 537.36 1533.96 533.75 1534.37 531.45
  C 1535.96 522.47 1538.10 513.59 1540.49 503.72
  A 1.93 1.93 0.0 0 1 1542.38 502.24
  Q 1546.14 502.27 1558.41 502.36
  C 1559.51 502.37 1559.98 503.16 1560.97 503.16
  Q 1564.14 503.16 1567.30 503.16
  C 1568.93 503.16 1570.13 503.97 1571.64 503.95
  Q 1574.03 503.93 1585.39 504.02
  Q 1589.00 504.05 1591.55 504.59
  C 1594.01 505.10 1596.52 504.89 1599.81 505.43
  Q 1610.47 507.18 1622.77 508.13
  Q 1628.79 508.59 1634.44 510.91
  Q 1635.83 511.48 1635.61 512.97
  Q 1634.74 519.01 1632.80 527.05
  Q 1628.14 546.40 1623.06 566.80
  Q 1619.34 581.74 1618.63 585.19
  C 1616.22 596.91 1612.94 607.60 1610.03 620.44
  Q 1606.63 635.41 1606.14 637.42
  Q 1599.87 663.50 1597.27 674.57
  Q 1596.49 677.92 1595.27 682.16
  Q 1594.04 686.45 1593.31 689.77
  Q 1589.05 709.08 1588.15 712.43
  Q 1585.29 723.09 1582.28 736.04
  Q 1578.71 751.40 1577.66 755.54
  Q 1574.42 768.31 1570.41 784.81
  C 1568.81 791.35 1567.87 796.74 1566.32 802.70
  Q 1562.91 815.80 1553.90 853.68
  Q 1549.85 870.75 1537.84 919.52
  Q 1535.30 929.86 1533.16 938.96
  Q 1524.19 977.26 1513.19 1021.83
  Q 1511.85 1027.25 1501.56 1070.65
  Q 1497.09 1089.53 1490.17 1117.93
  Q 1479.10 1163.44 1468.37 1207.49
  Q 1465.19 1220.53 1463.79 1226.97
  C 1460.89 1240.29 1457.95 1251.32 1454.93 1264.12
  Q 1447.72 1294.63 1443.44 1311.02
  Q 1441.61 1318.03 1438.87 1330.48
  Q 1435.39 1346.21 1431.06 1360.89
  Q 1430.92 1361.37 1430.43 1361.38
  Q 1428.26 1361.45 1425.52 1360.40
  Q 1397.39 1349.65 1385.34 1346.21
  C 1379.98 1344.68 1371.47 1341.80 1366.21 1340.37
  Q 1332.22 1331.11 1325.77 1329.71
  Q 1316.24 1327.64 1314.61 1327.26
  Q 1307.35 1325.56 1303.44 1324.97
  C 1296.20 1323.87 1289.96 1322.28 1281.43 1321.10
  Q 1274.42 1320.13 1267.27 1318.72
  C 1259.55 1317.18 1253.02 1316.50 1244.76 1315.83
  Q 1237.33 1315.23 1230.57 1313.87
  Q 1229.84 1313.72 1223.92 1313.40
  Q 1223.42 1313.38 1222.99 1313.13
  Q 1222.73 1312.98 1222.51 1312.87
  Q 1222.27 1312.75 1221.99 1312.74
  Q 1216.06 1312.62 1206.13 1312.67
  C 1205.50 1312.67 1205.17 1312.51 1204.71 1312.19
  Q 1204.29 1311.89 1203.78 1311.88
  Q 1200.44 1311.82 1197.11 1311.81
  C 1196.11 1311.80 1195.42 1311.06 1194.47 1311.05
  Q 1163.23 1310.89 1131.55 1311.01
  C 1126.92 1311.03 1122.68 1311.78 1118.39 1312.12
  Q 1117.56 1312.18 1115.80 1312.99
  A 1.42 1.42 0.0 0 0 1115.49 1315.38
  Q 1128.08 1325.83 1127.32 1342.78
  Q 1127.16 1346.27 1130.34 1346.39
  Q 1136.87 1346.65 1137.97 1346.73
  Q 1159.81 1348.31 1169.79 1348.16
  Q 1173.35 1348.11 1176.26 1348.69
  C 1179.04 1349.24 1182.06 1348.59 1184.91 1349.18
  C 1188.64 1349.95 1195.14 1349.74 1199.46 1350.24
  Q 1222.82 1352.97 1229.51 1353.96
  Q 1272.69 1360.34 1302.02 1366.98
  Q 1314.72 1369.86 1348.23 1378.82
  Q 1348.79 1378.97 1353.55 1380.59
  C 1355.91 1381.40 1358.68 1381.76 1360.83 1382.45
  Q 1375.12 1386.99 1386.36 1390.67
  C 1387.32 1390.98 1388.54 1390.98 1389.66 1391.47
  C 1393.89 1393.31 1399.43 1394.87 1402.62 1396.00
  Q 1423.91 1403.56 1448.29 1413.98
  Q 1452.93 1415.96 1457.55 1418.46
  A 2.10 2.10 0.0 0 0 1460.28 1417.80
  C 1461.36 1416.22 1463.02 1413.32 1463.26 1411.05
  C 1463.52 1408.59 1464.10 1405.59 1464.94 1403.09
  Q 1465.80 1400.55 1465.81 1399.21
  Q 1465.82 1397.26 1466.77 1395.48
  Q 1468.11 1392.99 1468.78 1388.88
  Q 1469.49 1384.58 1470.21 1382.21
  Q 1471.44 1378.13 1474.79 1365.10
  Q 1484.98 1325.41 1486.59 1320.25
  C 1486.87 1319.33 1487.33 1318.38 1487.46 1317.59
  Q 1489.10 1307.42 1492.52 1296.78
  Q 1493.18 1294.71 1493.76 1291.71
  C 1494.25 1289.19 1495.09 1286.83 1495.58 1284.92
  Q 1500.59 1265.27 1505.59 1245.63
  Q 1505.76 1244.97 1507.48 1237.47
  C 1508.22 1234.23 1509.51 1230.15 1510.28 1226.67
  C 1512.16 1218.14 1515.16 1207.73 1516.67 1201.85
  Q 1519.64 1190.31 1526.64 1162.98
  Q 1528.00 1157.66 1528.02 1157.59
  C 1528.69 1153.95 1530.32 1150.31 1531.03 1146.54
  C 1531.88 1142.07 1533.50 1137.70 1534.48 1133.01
  Q 1535.20 1129.57 1535.74 1127.57
  Q 1542.52 1101.92 1548.12 1080.09
  Q 1549.91 1073.12 1552.80 1062.71
  Q 1553.69 1059.52 1557.46 1045.31
  Q 1558.43 1041.63 1558.46 1041.50
  Q 1561.68 1026.83 1564.92 1015.24
  Q 1566.98 1007.87 1569.96 995.86
  C 1572.36 986.14 1574.80 977.36 1576.87 968.46
  C 1577.85 964.27 1579.39 960.41 1580.21 956.50
  C 1581.52 950.31 1583.51 944.35 1584.98 938.10
  Q 1586.55 931.38 1588.23 925.36
  C 1590.96 915.55 1592.73 907.22 1594.71 899.80
  Q 1596.97 891.26 1603.34 866.86
  Q 1607.18 852.19 1610.49 838.11
  Q 1611.70 832.99 1612.58 830.23
  C 1613.69 826.75 1614.27 823.51 1615.34 819.71
  Q 1620.69 800.75 1626.95 775.16
  C 1627.61 772.46 1628.61 769.87 1629.18 767.20
  C 1630.62 760.40 1633.15 752.00 1634.41 747.07
  Q 1636.52 738.85 1638.56 730.60
  Q 1638.86 729.37 1640.79 722.58
  C 1641.81 719.01 1642.52 715.01 1643.40 711.78
  Q 1645.32 704.70 1651.20 681.47
  Q 1652.17 677.63 1653.84 671.92
  Q 1656.06 664.31 1656.10 662.26
  C 1656.15 659.69 1656.64 656.67 1654.07 655.95
  Q 1645.22 653.48 1633.61 651.43
  C 1627.71 650.39 1621.88 649.01 1614.85 647.65
  A 1.80 1.80 0.0 0 1 1613.40 645.80
  Q 1613.48 644.02 1613.98 641.73
  Q 1615.08 636.67 1620.24 615.70
  Q 1621.03 612.46 1622.01 609.28
  C 1622.86 606.48 1624.78 606.76 1627.57 606.80
  Q 1639.14 606.97 1649.98 608.32
  Q 1658.23 609.34 1666.32 610.11
  Q 1668.55 610.32 1670.68 610.74
  Q 1673.02 611.20 1675.06 611.06
  Q 1676.84 610.95 1680.40 611.63
  Q 1682.59 612.04 1686.28 611.85
  C 1687.24 611.80 1688.62 612.92 1689.80 613.09
  Q 1696.13 614.05 1703.38 615.37
  A 1.54 1.54 0.0 0 1 1704.60 617.26
  Q 1703.46 621.76 1703.04 623.44
  Q 1689.48 677.59 1677.44 726.68
  Q 1670.41 755.35 1663.16 783.92
  Q 1655.06 815.88 1640.24 875.76
  Q 1633.37 903.52 1619.54 959.11
  Q 1602.82 1026.32 1596.87 1049.85
  Q 1594.87 1057.73 1592.26 1068.14
  Q 1569.51 1158.80 1560.72 1195.17
  Q 1558.28 1205.25 1555.85 1214.57
  Q 1551.07 1232.87 1547.68 1246.71
  Q 1532.87 1307.18 1515.39 1376.24
  Q 1513.28 1384.55 1510.61 1395.66
  Q 1504.47 1421.19 1497.07 1450.47
  C 1495.88 1455.16 1495.03 1459.28 1492.81 1463.66
  A 1.15 1.15 0.0 0 1 1491.38 1464.21
  Q 1486.14 1462.27 1479.83 1459.32
  Q 1450.92 1445.78 1444.28 1443.12
  Q 1430.96 1437.78 1422.79 1434.21
  Q 1401.58 1424.94 1354.34 1408.25
  Q 1343.70 1404.49 1326.82 1399.00
  C 1308.81 1393.15 1297.29 1390.18 1272.26 1383.08
  Q 1267.77 1381.81 1263.80 1381.09
  C 1259.97 1380.40 1256.59 1379.16 1252.46 1378.29
  Q 1243.50 1376.40 1234.64 1374.09
  C 1232.40 1373.51 1229.30 1373.31 1226.68 1372.64
  C 1218.61 1370.56 1210.27 1369.50 1203.21 1367.95
  Q 1194.10 1365.94 1187.35 1365.16
  C 1182.12 1364.55 1177.41 1362.80 1172.02 1362.32
  C 1166.84 1361.86 1158.70 1361.12 1152.15 1359.72
  Q 1149.84 1359.22 1146.80 1358.94
  C 1143.47 1358.62 1140.90 1357.74 1137.85 1357.95
  Q 1136.42 1358.05 1134.34 1357.40
  Q 1132.33 1356.77 1129.13 1357.35
  A 2.18 2.16 84.9 0 0 1127.35 1359.49
  L 1127.35 1385.04
  Q 1127.35 1385.58 1127.85 1385.75
  Q 1129.17 1386.20 1129.74 1388.26
  Q 1129.86 1388.70 1129.60 1389.07
  Q 1128.99 1389.93 1127.86 1390.24
  Q 1127.34 1390.39 1127.34 1390.92
  Q 1127.38 1416.21 1127.35 1436.00
  C 1127.34 1445.99 1125.12 1455.17 1117.66 1462.41
  C 1114.68 1465.31 1110.05 1466.88 1105.94 1468.90
  Q 1104.98 1469.37 1101.67 1469.77
  Q 1099.19 1470.07 1097.37 1470.48
  Q 1082.36 1473.85 1067.40 1477.39
  Q 1064.86 1478.00 1058.85 1479.24
  Q 1055.37 1479.97 1050.32 1481.08
  Q 1035.82 1484.27 1013.79 1487.94
  Q 1011.37 1488.35 1010.37 1488.50
  Q 1005.83 1489.19 994.03 1490.73
  Q 989.23 1491.36 980.85 1492.81
  Q 978.04 1493.30 967.60 1494.26
  Q 966.68 1494.34 966.24 1494.37
  Q 952.81 1495.18 943.86 1496.64
  C 940.29 1497.23 936.69 1496.69 933.50 1497.48
  Q 931.81 1497.90 929.35 1497.91
  Q 920.94 1497.93 910.23 1497.94
  C 909.77 1497.94 909.35 1498.13 908.98 1498.42
  A 1.53 1.49 25.0 0 1 908.09 1498.73
  Q 894.07 1498.80 879.00 1498.77
  Q 878.48 1498.77 878.08 1499.02
  Q 878.03 1499.05 877.66 1499.31
  Q 877.25 1499.59 876.76 1499.59
  L 871.52 1499.59
  Q 870.98 1499.59 870.52 1499.31
  Q 870.21 1499.11 869.90 1498.86
  Q 869.79 1498.77 869.11 1498.77
  Q 854.88 1498.78 838.23 1498.74
  C 836.99 1498.74 836.24 1497.92 835.02 1497.92
  Q 820.94 1497.99 816.18 1497.86
  Q 815.48 1497.84 813.38 1497.41
  C 810.41 1496.78 806.95 1497.20 804.16 1496.82
  C 794.16 1495.47 784.94 1494.65 774.05 1493.83
  Q 765.10 1493.15 756.27 1491.49
  C 749.35 1490.19 738.22 1489.57 729.90 1487.97
  C 720.13 1486.09 713.10 1485.23 704.07 1483.29
  Q 700.98 1482.62 690.81 1480.71
  Q 690.63 1480.67 686.35 1479.77
  Q 667.32 1475.78 665.50 1475.32
  Q 651.39 1471.73 642.38 1470.13
  Q 633.52 1468.56 630.04 1466.62
  C 622.63 1462.48 616.85 1455.03 614.98 1446.63
  Q 614.30 1443.57 614.32 1436.85
  Q 614.34 1419.80 614.27 1402.75
  Q 614.26 1400.20 613.33 1398.05
  A 1.15 1.15 0.0 0 0 612.12 1397.38
  Q 608.35 1397.94 603.66 1399.25
  Q 548.99 1414.47 494.90 1434.43
  C 483.71 1438.56 474.29 1441.81 465.76 1445.42
  Q 442.87 1455.10 417.26 1466.32
  C 403.60 1472.31 390.55 1478.97 377.63 1485.38
  C 349.22 1499.48 322.25 1515.49 295.08 1532.27
  Q 287.61 1536.88 278.37 1543.26
  Q 252.39 1561.19 227.87 1579.42
  A 0.78 0.77 55.2 0 1 226.76 1579.22
  Q 224.08 1575.08 223.07 1570.46
  Q 219.73 1555.22 215.79 1541.25
  Q 214.63 1537.11 213.74 1532.62
  C 213.01 1528.95 211.87 1525.58 210.79 1521.12
  C 205.48 1499.31 199.65 1476.85 194.21 1454.52
  C 191.09 1441.68 187.41 1428.75 184.49 1416.13
  C 180.35 1398.24 175.48 1380.54 171.16 1362.69
  Q 171.11 1362.49 169.11 1355.41
  C 168.21 1352.20 167.76 1348.49 166.94 1345.55
  C 163.10 1331.62 160.04 1317.73 156.25 1303.65
  Q 154.00 1295.30 151.77 1286.03
  C 150.54 1280.90 147.70 1270.83 146.53 1263.63
  Q 146.18 1261.48 145.32 1259.42
  C 143.57 1255.18 143.21 1250.79 141.88 1246.39
  Q 140.04 1240.32 139.78 1237.86
  Q 139.58 1235.88 138.10 1231.51
  C 136.38 1226.41 135.55 1221.59 134.25 1215.34
  C 133.26 1210.55 131.20 1205.01 130.74 1199.59
  C 130.61 1197.94 130.09 1195.97 129.27 1194.45
  Q 127.68 1191.46 127.43 1187.78
  Q 127.28 1185.54 125.85 1181.84
  Q 124.61 1178.63 124.22 1175.99
  Q 123.88 1173.70 122.83 1169.77
  Q 122.60 1168.93 121.75 1164.43
  C 121.29 1162.00 120.11 1159.65 119.58 1157.43
  C 118.02 1150.88 116.13 1145.12 115.22 1139.98
  C 114.29 1134.68 112.46 1130.12 111.15 1124.28
  Q 108.69 1113.28 107.02 1106.98
  Q 106.43 1104.74 106.40 1104.65
  Q 103.68 1094.90 102.36 1088.13
  C 101.98 1086.17 101.00 1083.59 100.42 1081.19
  Q 93.80 1053.46 87.56 1029.73
  Q 85.79 1022.97 81.25 1003.09
  C 80.46 999.65 79.07 996.82 78.55 993.87
  Q 78.03 990.89 76.61 985.77
  C 74.73 979.02 73.33 972.09 71.53 965.35
  Q 69.10 956.26 68.32 953.04
  Q 61.19 923.61 58.80 914.40
  Q 54.22 896.80 52.87 890.88
  C 51.89 886.56 50.32 881.22 49.50 877.64
  Q 46.99 866.72 44.02 855.66
  Q 42.45 849.83 40.95 843.10
  C 39.84 838.13 37.84 831.78 36.66 826.39
  Q 35.09 819.22 31.82 806.21
  Q 31.60 805.33 29.88 799.53
  C 29.00 796.54 28.40 793.13 27.71 790.50
  C 25.48 781.95 23.57 773.16 21.50 765.35
  Q 17.02 748.38 12.61 730.21
  Q 9.12 715.83 4.95 699.61
  Q 4.11 696.36 4.36 693.31
  Q 4.40 692.80 4.89 692.65
  Q 5.87 692.37 13.67 690.57
  Q 17.75 689.64 22.54 689.26
  Q 31.49 688.55 40.18 687.10
  Q 41.99 686.80 42.74 686.31
  Q 43.13 686.05 43.60 686.04
  Q 47.31 685.97 55.57 685.95
  C 56.71 685.95 57.33 685.11 58.44 685.17
  C 63.03 685.43 68.61 684.12 74.06 684.33
  Q 76.58 684.43 77.32 687.19
  Q 81.77 703.72 85.71 720.28
  C 86.39 723.11 87.02 725.40 83.45 726.47
  Q 76.42 728.58 62.33 730.87
  Q 58.34 731.52 53.86 733.33
  Q 51.46 734.31 51.87 736.95
  C 52.87 743.42 55.39 751.58 56.52 756.15
  Q 65.77 793.31 69.80 808.21
  Q 72.19 817.01 74.80 827.59
  C 77.52 838.66 81.25 851.82 84.25 864.21
  Q 86.66 874.19 90.21 887.32
  C 96.27 909.74 102.33 935.80 106.90 951.84
  Q 108.89 958.82 111.75 971.23
  Q 113.14 977.20 117.39 992.87
  Q 123.32 1014.65 135.75 1064.00
  Q 142.44 1090.53 164.31 1174.28
  Q 164.33 1174.36 166.06 1180.40
  C 167.16 1184.28 167.88 1188.84 168.61 1191.65
  Q 186.61 1260.78 204.22 1329.67
  Q 211.31 1357.37 213.75 1366.28
  Q 215.05 1371.01 218.68 1385.50
  Q 226.93 1418.48 238.63 1462.65
  Q 241.05 1471.78 243.57 1482.04
  Q 245.69 1490.68 251.37 1512.88
  C 251.90 1514.99 252.76 1516.43 253.96 1517.98
  A 1.81 1.81 0.0 0 0 256.29 1518.45
  Q 274.65 1507.83 290.83 1499.61
  Q 333.03 1478.19 361.65 1466.19
  Q 394.83 1452.28 411.55 1445.80
  C 417.55 1443.48 426.44 1440.65 435.28 1437.34
  C 437.61 1436.47 440.19 1435.91 442.23 1435.21
  Q 444.96 1434.27 460.46 1428.94
  Q 468.44 1426.19 476.56 1423.94
  C 484.35 1421.78 491.48 1419.27 499.52 1417.04
  C 513.92 1413.06 525.39 1409.56 538.54 1406.51
  Q 556.15 1402.42 560.96 1401.69
  Z
  M 650.71 246.92
  Q 651.48 247.52 652.40 247.93
  Q 653.45 248.40 654.90 249.40
  Q 667.03 257.78 674.85 263.15
  C 678.35 265.55 681.76 268.53 685.60 270.89
  Q 689.71 273.43 694.49 277.56
  Q 695.28 278.25 697.07 279.13
  Q 697.39 279.29 697.37 278.93
  Q 697.35 278.52 696.24 277.76
  Q 694.81 276.77 694.55 276.53
  Q 691.05 273.18 687.30 270.49
  Q 682.06 266.71 679.90 264.96
  Q 672.13 258.65 664.75 253.68
  Q 663.26 252.68 661.72 251.44
  Q 659.84 249.92 658.70 249.14
  Q 644.64 239.45 634.11 232.97
  Q 624.39 226.98 618.01 224.82
  C 609.30 221.86 608.85 233.22 609.11 238.65
  Q 609.28 242.13 611.14 248.44
  Q 614.25 259.03 615.39 263.03
  C 620.86 282.27 623.22 302.61 624.12 323.14
  Q 624.26 326.36 627.74 325.38
  Q 627.76 325.38 627.88 325.35
  Q 630.97 324.61 631.27 320.37
  Q 632.69 300.93 629.30 281.38
  Q 628.08 274.39 624.26 264.12
  Q 618.72 249.26 617.84 247.19
  Q 614.68 239.80 614.19 231.45
  A 2.17 2.16 88.3 0 1 616.35 229.15
  Q 619.14 229.15 622.48 230.58
  Q 630.84 234.16 638.81 239.25
  Q 644.47 242.86 649.15 245.75
  Q 649.49 245.96 650.71 246.92
  Z
  M 1201.48 912.68
  Q 1202.13 913.56 1202.39 913.62
  Q 1205.55 914.27 1203.80 912.11
  Q 1199.13 906.34 1193.89 898.92
  Q 1193.49 898.35 1188.91 892.45
  Q 1177.89 878.22 1170.51 867.85
  Q 1152.66 842.75 1138.00 813.81
  Q 1128.85 795.77 1123.82 778.19
  Q 1118.73 760.39 1115.79 741.75
  Q 1111.52 714.66 1108.55 687.27
  Q 1108.08 682.94 1107.51 679.17
  C 1105.84 668.13 1104.89 655.31 1104.10 649.68
  Q 1102.51 638.29 1102.21 635.79
  Q 1101.10 626.50 1100.19 621.94
  C 1099.05 616.24 1098.27 609.30 1096.83 603.38
  C 1093.42 589.46 1089.99 574.63 1084.42 559.83
  C 1076.46 538.68 1067.08 518.61 1055.36 500.52
  Q 1054.16 498.66 1047.81 488.46
  Q 1027.48 455.83 1001.81 426.56
  Q 995.86 419.77 988.64 412.67
  C 968.73 393.07 948.91 376.59 928.18 360.44
  Q 902.12 340.15 872.86 323.90
  Q 845.34 308.61 837.10 304.59
  C 831.76 301.98 822.12 296.34 814.36 292.96
  Q 814.17 292.87 814.13 293.04
  L 814.13 293.05
  Q 814.09 293.22 814.20 293.28
  Q 819.35 296.08 834.41 304.81
  Q 862.86 321.30 873.01 327.89
  C 888.05 337.66 905.35 349.91 918.03 359.03
  Q 941.80 376.11 962.73 394.69
  C 981.79 411.61 998.50 430.53 1015.26 452.06
  Q 1033.37 475.34 1052.75 505.32
  Q 1063.65 522.18 1071.55 541.22
  C 1075.94 551.80 1082.25 567.41 1085.72 579.82
  Q 1093.66 608.26 1097.14 634.03
  Q 1100.36 657.83 1103.18 687.81
  C 1104.28 699.54 1106.06 710.39 1107.40 722.49
  C 1107.87 726.74 1108.97 730.49 1109.29 734.48
  Q 1109.57 738.02 1110.59 743.48
  C 1111.61 748.94 1113.20 759.01 1115.04 766.21
  C 1120.00 785.56 1126.56 803.85 1135.53 821.14
  Q 1147.87 844.95 1163.94 866.07
  Q 1167.32 870.51 1183.06 889.76
  Q 1186.18 893.58 1188.81 897.13
  Q 1191.17 900.32 1194.48 904.08
  Q 1198.60 908.76 1201.48 912.68
  Z
  M 542.33 417.84
  C 540.37 416.18 537.83 417.00 536.44 419.25
  C 528.23 432.52 522.31 449.29 519.28 463.82
  C 518.78 466.24 517.69 473.63 519.88 476.13
  Q 521.95 478.50 524.85 478.90
  C 533.46 480.08 544.66 478.78 551.51 477.71
  Q 568.30 475.10 584.73 470.79
  C 587.35 470.10 590.55 469.82 593.03 469.31
  Q 594.16 469.08 594.45 468.58
  Q 594.88 467.83 594.02 467.80
  Q 590.35 467.68 579.27 467.71
  Q 573.43 467.72 564.75 465.48
  C 556.07 463.24 548.95 457.56 545.29 449.14
  Q 542.41 442.54 542.24 438.05
  Q 541.87 428.41 542.46 424.30
  Q 543.04 420.28 542.82 418.72
  A 1.41 1.36 16.8 0 0 542.33 417.84
  Z
  M 665.79 1235.38
  L 666.16 1235.38
  Q 666.49 1235.38 666.65 1235.10
  L 667.73 1233.23
  Q 667.97 1232.82 668.44 1232.82
  L 1073.22 1232.82
  A 0.77 0.75 68.7 0 1 1073.79 1233.08
  Q 1074.24 1233.61 1074.93 1233.68
  Q 1075.46 1233.74 1075.46 1234.26
  L 1075.46 1252.39
  A 1.83 1.83 0.0 0 0 1077.29 1254.22
  L 1081.03 1254.22
  A 1.42 1.39 25.4 0 0 1081.90 1253.92
  Q 1082.75 1253.27 1083.73 1253.31
  Q 1084.08 1253.33 1084.24 1253.23
  Q 1084.47 1253.08 1084.56 1252.70
  Q 1084.66 1252.24 1085.11 1252.11
  Q 1085.84 1251.92 1090.76 1250.99
  Q 1094.76 1250.23 1098.64 1249.00
  Q 1104.79 1247.07 1106.38 1246.64
  Q 1113.75 1244.67 1115.63 1244.05
  Q 1119.08 1242.93 1124.22 1242.34
  Q 1127.98 1241.91 1132.88 1240.67
  C 1133.84 1240.43 1134.33 1239.75 1135.25 1239.63
  Q 1141.00 1238.88 1146.31 1237.50
  Q 1148.36 1236.97 1150.77 1236.89
  C 1154.92 1236.75 1157.77 1235.28 1161.75 1234.68
  Q 1169.59 1233.51 1179.94 1232.22
  Q 1180.43 1232.16 1180.83 1231.87
  C 1182.42 1230.72 1184.88 1231.27 1186.82 1230.83
  C 1190.83 1229.93 1194.39 1230.36 1199.75 1230.29
  Q 1200.14 1230.28 1200.96 1229.75
  Q 1201.38 1229.48 1201.88 1229.48
  L 1207.65 1229.48
  Q 1208.14 1229.48 1208.56 1229.23
  C 1210.36 1228.18 1214.79 1228.67 1217.02 1228.60
  Q 1217.49 1228.58 1217.73 1228.17
  L 1218.13 1227.47
  Q 1218.36 1227.07 1218.82 1227.07
  Q 1227.03 1227.02 1240.97 1227.02
  C 1242.29 1227.01 1243.17 1226.23 1244.57 1226.22
  Q 1261.05 1226.19 1286.25 1226.20
  Q 1288.04 1226.21 1289.12 1226.81
  A 1.80 1.80 0.0 0 0 1290.00 1227.04
  L 1314.26 1227.04
  Q 1314.79 1227.04 1315.05 1227.50
  L 1315.34 1228.04
  Q 1315.59 1228.50 1316.12 1228.55
  C 1317.64 1228.71 1319.65 1229.14 1320.89 1227.93
  C 1322.81 1226.05 1323.97 1225.15 1324.19 1222.07
  Q 1324.48 1218.02 1325.49 1214.53
  Q 1327.42 1207.83 1327.45 1207.71
  Q 1333.71 1180.82 1333.94 1179.80
  Q 1337.02 1166.42 1338.96 1159.27
  Q 1339.80 1156.16 1340.51 1152.31
  Q 1340.70 1151.25 1342.23 1145.39
  Q 1343.90 1139.02 1344.77 1134.98
  C 1346.24 1128.25 1348.06 1122.01 1349.89 1113.97
  Q 1354.12 1095.48 1357.30 1082.61
  Q 1357.49 1081.87 1358.72 1076.82
  Q 1361.30 1066.31 1365.18 1049.37
  Q 1367.33 1039.96 1369.87 1029.94
  Q 1373.48 1015.69 1375.59 1006.73
  Q 1376.20 1004.15 1376.23 1004.01
  Q 1380.83 983.61 1384.95 966.76
  Q 1391.98 937.96 1394.06 928.48
  Q 1395.94 919.88 1398.69 909.49
  Q 1400.43 902.94 1404.10 885.92
  Q 1404.72 883.08 1405.62 880.15
  C 1407.08 875.41 1407.80 870.32 1409.11 865.68
  Q 1411.36 857.64 1413.76 846.07
  Q 1415.45 837.94 1418.34 826.61
  Q 1423.47 806.54 1424.08 803.87
  Q 1425.32 798.50 1425.75 796.88
  C 1427.22 791.28 1428.18 785.26 1429.69 779.61
  Q 1431.19 774.01 1432.12 769.37
  C 1433.52 762.37 1437.06 749.93 1439.45 739.07
  C 1441.08 731.60 1442.85 725.94 1443.97 719.87
  Q 1444.89 714.84 1446.38 709.70
  C 1447.53 705.74 1448.08 700.55 1449.78 696.06
  C 1451.04 692.72 1451.47 688.91 1452.15 685.48
  C 1453.32 679.60 1455.20 674.37 1456.19 668.89
  Q 1456.97 664.61 1458.40 659.39
  Q 1461.45 648.28 1465.08 630.98
  C 1466.40 624.71 1468.77 617.03 1469.93 609.88
  C 1470.07 609.03 1470.63 607.97 1470.88 606.96
  Q 1484.12 551.31 1486.93 541.80
  Q 1487.33 540.45 1487.58 539.06
  Q 1489.76 527.17 1492.43 517.72
  Q 1493.28 514.72 1494.07 510.18
  Q 1494.89 505.44 1496.18 502.74
  Q 1497.17 500.68 1497.14 498.21
  Q 1497.11 495.86 1498.30 492.20
  Q 1499.71 487.83 1500.26 485.10
  Q 1502.45 474.26 1505.56 462.86
  C 1506.37 459.91 1506.27 457.25 1506.13 454.36
  A 1.16 1.15 -83.8 0 0 1505.28 453.30
  C 1501.81 452.33 1497.83 452.06 1494.67 451.32
  Q 1486.05 449.31 1476.13 448.32
  C 1467.74 447.48 1460.80 445.56 1452.73 444.96
  Q 1446.39 444.49 1435.51 442.84
  Q 1429.47 441.92 1420.76 442.15
  C 1419.82 442.18 1418.63 441.67 1417.81 441.63
  C 1399.41 440.67 1381.77 439.40 1362.57 439.80
  C 1361.44 439.83 1360.73 440.57 1359.58 440.57
  Q 1347.20 440.54 1336.49 440.66
  C 1334.71 440.68 1333.43 441.35 1331.40 441.33
  C 1328.33 441.31 1325.03 442.08 1322.20 442.11
  Q 1312.13 442.20 1302.39 443.66
  C 1295.45 444.70 1288.31 444.98 1281.91 446.04
  Q 1276.00 447.03 1273.49 447.49
  C 1267.10 448.67 1261.02 449.01 1254.98 450.42
  C 1246.73 452.35 1237.32 453.68 1230.24 455.03
  C 1227.65 455.52 1225.00 456.50 1222.28 457.04
  Q 1217.70 457.94 1216.29 458.32
  Q 1201.58 462.32 1188.37 465.85
  C 1179.28 468.28 1169.24 471.77 1160.18 474.42
  Q 1150.12 477.36 1116.30 490.77
  C 1111.38 492.72 1111.75 496.13 1113.33 500.32
  Q 1127.15 537.06 1132.32 558.89
  Q 1139.10 587.58 1141.40 601.33
  Q 1143.44 613.58 1147.87 648.35
  Q 1149.24 659.16 1150.57 668.17
  Q 1160.15 733.00 1164.35 757.48
  C 1167.08 773.42 1169.70 786.03 1174.75 805.54
  Q 1177.47 816.02 1180.69 824.63
  Q 1186.16 839.23 1191.03 849.73
  Q 1201.26 871.74 1203.99 877.77
  Q 1206.25 882.78 1211.72 900.55
  Q 1212.93 904.48 1213.36 907.54
  Q 1213.90 911.42 1214.53 914.66
  Q 1215.10 917.56 1213.38 921.68
  Q 1212.62 923.49 1210.62 924.41
  Q 1207.85 925.68 1206.75 925.83
  Q 1206.24 925.89 1205.86 926.24
  Q 1204.79 927.19 1203.69 927.20
  Q 1199.64 927.21 1145.75 927.23
  Q 1144.80 927.23 1143.37 927.93
  A 1.82 1.75 33.1 0 1 1142.43 928.11
  Q 1140.27 927.92 1139.37 928.90
  C 1138.06 930.31 1135.69 932.88 1134.79 935.07
  C 1133.24 938.87 1134.15 943.94 1135.12 948.17
  Q 1140.11 969.95 1144.77 994.24
  C 1147.11 1006.43 1149.29 1022.37 1150.79 1033.41
  C 1151.26 1036.88 1151.03 1040.04 1151.63 1042.77
  C 1152.33 1045.95 1151.93 1049.98 1152.57 1053.00
  Q 1154.84 1063.64 1154.60 1074.63
  C 1154.55 1076.88 1155.33 1078.67 1155.34 1081.17
  Q 1155.41 1107.37 1155.33 1132.57
  C 1155.32 1135.43 1154.57 1137.91 1154.63 1140.76
  C 1154.83 1149.51 1153.41 1160.30 1148.61 1167.37
  C 1144.59 1173.30 1137.95 1177.56 1131.61 1180.08
  Q 1110.97 1188.27 1088.64 1192.11
  Q 1080.44 1193.52 1069.01 1193.21
  Q 1067.76 1193.17 1065.07 1193.72
  Q 1063.38 1194.06 1061.00 1194.06
  Q 868.70 1194.07 676.40 1194.06
  C 675.82 1194.06 675.47 1193.78 674.94 1193.47
  Q 674.50 1193.23 674.00 1193.23
  Q 662.17 1193.34 656.41 1192.95
  Q 653.22 1192.74 644.26 1190.98
  Q 621.28 1186.46 612.74 1184.15
  Q 602.90 1181.49 600.28 1180.29
  Q 588.71 1174.99 581.91 1164.35
  C 577.02 1156.70 575.82 1148.12 576.65 1139.28
  Q 577.77 1127.31 581.61 1114.50
  C 582.38 1111.96 582.73 1108.71 583.50 1106.02
  Q 587.78 1091.07 591.61 1077.39
  Q 595.55 1063.31 599.88 1051.63
  Q 601.61 1046.95 605.63 1035.51
  Q 608.63 1026.95 611.77 1019.55
  Q 617.99 1004.88 618.46 1003.77
  Q 620.15 999.78 621.92 996.42
  C 625.21 990.16 628.13 983.39 631.02 978.28
  Q 642.04 958.76 648.69 949.42
  Q 658.97 934.98 670.87 922.62
  Q 689.91 902.86 706.13 882.38
  Q 719.35 865.68 738.08 839.10
  Q 752.89 818.08 769.02 787.18
  Q 772.93 779.69 777.16 768.92
  Q 778.61 765.22 785.67 747.46
  Q 786.61 745.11 788.56 736.43
  Q 789.51 732.23 790.47 729.30
  Q 791.73 725.51 792.22 722.10
  C 792.85 717.72 794.99 713.12 795.33 708.27
  Q 796.53 690.72 798.37 676.73
  Q 798.66 674.60 797.51 667.87
  C 796.20 660.23 795.83 652.77 795.06 645.39
  C 794.60 640.95 793.10 636.35 792.46 633.27
  Q 791.59 629.09 789.73 626.75
  Q 785.54 621.52 779.50 619.36
  Q 776.26 618.20 772.02 618.53
  Q 765.50 619.04 764.45 619.44
  Q 758.86 621.56 754.73 623.50
  Q 737.72 631.53 720.16 638.99
  C 711.72 642.57 702.48 645.23 694.15 647.38
  Q 683.38 650.15 673.62 651.31
  Q 665.19 652.31 653.64 652.22
  Q 634.13 652.07 615.80 652.29
  Q 600.08 652.48 586.74 660.50
  Q 540.67 688.22 505.84 708.57
  Q 495.54 714.59 486.60 717.44
  C 484.86 717.99 482.86 718.14 481.38 718.51
  Q 479.76 718.91 477.45 718.91
  Q 466.63 718.88 464.64 718.93
  Q 462.36 718.99 459.51 718.38
  Q 456.97 717.83 454.26 717.70
  Q 450.31 717.50 446.32 716.66
  Q 431.63 713.58 427.49 712.68
  C 423.45 711.81 420.02 710.52 416.59 709.96
  Q 413.15 709.39 408.39 707.81
  C 398.88 704.65 390.62 702.11 382.68 696.94
  C 377.68 693.68 374.61 687.41 377.09 681.60
  Q 379.60 675.71 382.96 670.09
  Q 386.91 663.49 386.93 663.44
  C 394.98 649.03 407.37 628.81 417.52 611.35
  Q 438.32 575.60 475.61 511.87
  Q 482.45 500.18 485.50 491.27
  Q 490.21 477.48 494.16 466.46
  C 495.81 461.88 498.16 457.73 499.63 453.38
  Q 500.11 451.96 499.84 449.05
  A 1.46 1.41 -71.1 0 0 499.43 448.17
  Q 497.63 446.35 494.38 446.09
  Q 480.26 444.93 460.74 442.39
  C 458.13 442.05 454.88 442.32 451.92 442.03
  Q 433.01 440.19 417.10 440.60
  C 414.51 440.66 412.09 439.83 409.56 439.79
  Q 398.59 439.62 388.93 439.79
  Q 388.43 439.80 388.03 440.09
  Q 387.40 440.56 387.00 440.56
  Q 377.75 440.55 371.17 440.64
  Q 369.16 440.67 364.36 441.16
  C 360.99 441.50 357.52 441.16 354.17 441.79
  Q 352.33 442.13 350.83 442.13
  Q 342.13 442.13 332.58 443.60
  Q 326.09 444.60 322.13 444.96
  Q 314.54 445.65 311.66 446.13
  C 305.90 447.08 300.83 448.01 294.41 448.72
  Q 287.65 449.47 280.98 450.80
  C 280.13 450.97 279.93 451.24 279.38 451.84
  A 0.98 0.97 -65.4 0 1 278.54 452.16
  C 275.05 451.77 266.02 452.04 267.10 457.56
  Q 269.28 468.75 274.15 487.92
  Q 279.00 507.04 282.98 524.59
  Q 287.09 542.72 300.12 595.98
  Q 300.61 598.00 301.40 601.92
  C 302.29 606.36 303.97 612.41 304.63 615.14
  Q 317.00 666.73 321.78 686.59
  Q 324.77 698.98 326.34 706.08
  Q 330.48 724.87 335.15 743.10
  C 337.55 752.48 339.56 762.70 342.28 772.81
  C 346.14 787.14 349.36 802.76 353.24 818.50
  C 357.63 836.33 364.82 867.86 372.24 897.89
  Q 376.24 914.08 379.57 928.51
  Q 386.90 960.27 393.20 985.61
  Q 394.95 992.64 395.43 994.81
  Q 400.19 1016.15 407.28 1044.42
  Q 409.93 1054.99 411.99 1063.85
  Q 421.33 1104.08 427.85 1130.99
  Q 429.19 1136.53 430.67 1142.61
  Q 432.59 1150.48 441.21 1185.96
  Q 445.92 1205.31 450.09 1224.21
  C 450.31 1225.22 450.61 1226.15 451.51 1226.76
  Q 455.54 1229.52 460.21 1228.31
  Q 460.70 1228.19 461.08 1227.86
  C 461.75 1227.29 462.11 1227.07 463.04 1227.07
  Q 473.27 1227.03 484.75 1227.01
  Q 485.26 1227.01 485.69 1226.75
  Q 486.56 1226.23 487.01 1226.23
  Q 508.23 1226.17 526.60 1226.22
  Q 527.12 1226.22 527.57 1226.48
  L 528.33 1226.92
  Q 528.54 1227.04 528.78 1227.04
  L 552.54 1227.04
  Q 553.21 1227.04 553.37 1227.68
  L 553.45 1227.98
  Q 553.57 1228.48 554.09 1228.50
  C 556.97 1228.61 561.07 1228.61 564.59 1228.96
  Q 575.51 1230.05 578.54 1230.23
  Q 585.80 1230.64 592.41 1231.84
  Q 595.49 1232.40 613.99 1235.14
  C 616.90 1235.57 619.33 1237.03 621.98 1236.88
  Q 623.98 1236.77 627.45 1237.59
  Q 633.43 1239.00 639.09 1239.64
  Q 639.62 1239.70 639.77 1240.21
  Q 639.82 1240.36 639.95 1240.48
  A 0.98 0.15 44.2 0 0 640.60 1240.94
  L 643.81 1241.10
  Q 644.32 1241.12 644.75 1241.40
  Q 645.72 1242.04 647.09 1241.88
  A 1.07 1.06 -27.0 0 1 647.91 1242.14
  L 648.26 1242.44
  A 0.74 0.72 65.7 0 0 648.75 1242.63
  C 651.61 1242.66 653.10 1242.36 655.22 1243.27
  Q 656.18 1243.68 658.05 1243.57
  Q 658.73 1243.53 658.73 1244.21
  L 658.73 1244.58
  Q 658.73 1245.13 659.28 1245.13
  L 663.09 1245.13
  A 2.29 2.29 0.0 0 0 665.38 1242.84
  L 665.38 1235.79
  Q 665.38 1235.38 665.79 1235.38
  Z
  M 399.99 677.45
  C 399.24 678.84 398.03 681.39 398.83 683.06
  Q 399.10 683.62 399.55 683.18
  Q 402.76 680.03 404.21 677.96
  Q 414.96 662.66 426.87 642.66
  C 442.70 616.06 459.34 584.19 477.43 549.72
  Q 477.62 549.35 479.07 546.04
  Q 479.85 544.25 480.98 542.49
  Q 485.07 536.11 487.41 529.43
  Q 488.70 525.75 486.65 529.07
  C 483.70 533.87 481.27 537.53 478.85 541.90
  Q 477.32 544.67 475.58 547.37
  Q 475.12 548.09 472.29 552.85
  Q 438.93 608.89 414.85 650.83
  Q 406.09 666.09 399.99 677.45
  Z
  M 587.19 620.28
  Q 581.86 621.60 576.26 622.28
  Q 573.50 622.61 576.27 622.86
  Q 578.20 623.04 580.76 622.69
  Q 591.11 621.27 595.27 620.79
  C 604.47 619.74 613.33 617.96 623.58 616.62
  C 633.21 615.37 639.89 613.93 651.68 611.92
  C 659.14 610.65 666.34 608.88 673.65 607.20
  Q 676.28 606.59 686.13 602.52
  Q 691.59 600.26 696.21 597.60
  C 704.31 592.93 709.04 589.78 720.33 582.57
  Q 721.68 581.71 722.39 580.87
  Q 723.39 579.70 722.00 580.36
  Q 704.20 588.70 686.71 595.92
  Q 668.42 603.48 660.13 605.63
  Q 650.63 608.10 613.67 615.62
  C 607.37 616.90 602.24 617.59 594.59 618.79
  Q 590.85 619.38 587.19 620.28
  Z
  M 647.24 1146.36
  C 641.04 1139.96 636.77 1134.39 635.90 1125.65
  Q 635.45 1121.13 637.13 1112.94
  Q 639.78 1100.03 644.93 1086.66
  Q 653.16 1065.26 655.90 1058.91
  C 672.72 1019.86 690.26 982.38 708.78 944.99
  Q 713.68 935.09 715.89 930.17
  C 716.83 928.07 718.91 924.70 719.72 921.88
  Q 719.76 921.73 719.69 921.65
  Q 719.63 921.59 719.57 921.57
  Q 719.38 921.51 719.23 921.75
  Q 713.17 931.36 695.10 959.60
  Q 680.13 982.99 659.53 1017.28
  Q 645.42 1040.77 636.35 1062.83
  Q 634.49 1067.35 633.15 1073.14
  Q 627.78 1096.38 629.25 1119.11
  Q 629.99 1130.66 635.71 1138.55
  Q 642.89 1148.46 655.36 1155.13
  Q 655.56 1155.24 655.77 1155.15
  L 656.32 1154.92
  Q 656.65 1154.78 656.37 1154.57
  Q 651.79 1151.06 647.24 1146.36
  Z
  M 1076.38 954.75
  Q 1076.38 954.72 1076.37 954.64
  L 1076.38 954.64
  Q 1076.35 957.13 1076.40 957.44
  Q 1080.65 985.49 1083.75 1006.94
  Q 1084.44 1011.73 1084.88 1016.26
  C 1085.65 1024.15 1087.08 1032.17 1087.89 1039.49
  Q 1089.16 1050.91 1089.79 1056.27
  Q 1091.10 1067.41 1092.61 1079.63
  C 1094.56 1095.44 1095.70 1111.92 1096.76 1128.35
  Q 1097.54 1140.51 1096.57 1149.77
  Q 1095.32 1161.72 1089.64 1172.57
  A 0.45 0.45 0.0 0 0 1090.13 1173.22
  C 1093.72 1172.52 1099.03 1160.78 1100.36 1157.29
  Q 1102.36 1152.06 1102.55 1143.30
  Q 1102.80 1131.29 1101.76 1120.26
  Q 1100.00 1101.78 1100.00 1101.69
  Q 1099.61 1096.53 1098.54 1079.79
  Q 1097.87 1069.29 1096.48 1059.91
  Q 1091.27 1024.68 1084.10 990.33
  Q 1080.68 973.95 1080.44 972.62
  C 1079.30 966.28 1077.67 960.77 1076.38 954.75
  Z
  M 754.52 1259.80
  Q 762.46 1259.90 769.98 1261.44
  Q 773.61 1262.18 786.86 1262.98
  C 791.03 1263.24 795.30 1263.88 798.42 1263.96
  Q 801.61 1264.05 807.03 1265.02
  C 815.89 1266.61 827.60 1267.09 835.32 1267.99
  Q 856.52 1270.48 873.57 1272.35
  C 887.58 1273.89 903.47 1276.41 916.32 1277.93
  C 934.06 1280.03 943.40 1281.80 968.91 1285.86
  Q 969.00 1285.87 974.41 1286.98
  Q 978.26 1287.78 982.24 1287.65
  Q 983.59 1287.60 986.83 1288.77
  Q 986.96 1288.81 987.02 1288.68
  Q 987.11 1288.49 986.96 1288.43
  C 985.61 1287.97 983.33 1287.13 981.99 1287.04
  Q 977.44 1286.75 973.43 1285.34
  Q 969.95 1284.11 965.02 1283.10
  Q 953.32 1280.70 940.29 1277.73
  Q 933.70 1276.24 929.64 1275.62
  C 920.01 1274.15 911.57 1272.34 902.78 1271.28
  Q 875.10 1267.95 839.75 1264.75
  C 833.29 1264.16 823.47 1263.64 818.72 1263.19
  Q 814.72 1262.81 807.61 1262.30
  Q 805.49 1262.15 797.37 1261.18
  Q 794.93 1260.90 781.77 1260.87
  Q 781.28 1260.87 779.76 1260.70
  Q 778.28 1260.55 777.75 1260.52
  Q 770.86 1260.11 769.65 1259.85
  Q 766.28 1259.12 762.64 1259.18
  Q 756.13 1259.29 749.63 1259.34
  Q 749.63 1259.36 749.63 1259.37
  L 749.65 1259.37
  Q 749.66 1259.37 749.83 1259.40
  Q 752.16 1259.78 754.52 1259.80
  Z
  M 1088.80 1340.08
  Q 1087.06 1360.59 1086.43 1367.79
  Q 1085.50 1378.39 1084.99 1387.74
  Q 1083.98 1406.18 1082.94 1430.00
  Q 1082.83 1432.61 1082.95 1433.04
  Q 1084.24 1437.49 1085.68 1433.06
  Q 1086.40 1430.83 1086.85 1427.43
  Q 1088.39 1415.76 1089.42 1400.75
  Q 1090.59 1383.71 1089.78 1346.86
  Q 1089.68 1342.43 1089.08 1340.06
  Q 1088.87 1339.26 1088.80 1340.08
  Z
  M 656.10 1344.62
  Q 649.29 1360.88 649.20 1379.53
  Q 649.19 1380.42 649.55 1391.25
  C 649.67 1395.06 649.88 1401.84 651.14 1403.58
  Q 652.54 1405.53 652.93 1403.16
  C 654.79 1391.94 656.17 1380.04 656.75 1368.90
  Q 657.25 1359.31 658.59 1343.77
  Q 658.78 1341.53 658.45 1340.18
  Q 657.96 1338.19 657.23 1340.15
  C 656.75 1341.41 656.80 1342.95 656.10 1344.62
  Z
  M 724.69 1448.65
  C 729.26 1448.87 733.40 1448.83 737.10 1449.19
  Q 745.47 1450.01 767.01 1451.18
  Q 830.71 1454.66 874.15 1456.11
  C 897.56 1456.89 920.40 1456.88 943.79 1454.24
  Q 966.98 1451.62 987.13 1441.64
  Q 988.68 1440.88 989.66 1439.50
  A 0.46 0.46 0.0 0 0 989.25 1438.77
  Q 937.31 1442.73 884.50 1443.75
  Q 808.51 1445.20 732.31 1443.73
  Q 726.03 1443.61 710.34 1443.54
  Q 705.44 1443.52 693.81 1443.14
  C 685.38 1442.86 677.74 1443.25 669.81 1442.81
  Q 665.57 1442.58 662.25 1443.04
  Q 656.05 1443.90 650.83 1443.59
  Q 650.71 1443.58 650.70 1443.69
  L 650.68 1443.99
  A 0.31 0.31 0.0 0 0 650.97 1444.32
  C 655.22 1444.57 659.27 1444.05 663.64 1444.27
  C 673.93 1444.77 678.32 1444.89 686.76 1445.78
  Q 706.03 1447.79 724.69 1448.65
  Z"
/>
<path fill="#d9ae5b" d="
  M 1140.02 1388.24
  Q 1141.09 1388.44 1141.37 1388.61
  Q 1141.93 1388.96 1142.27 1389.02
  Q 1149.44 1390.21 1155.07 1390.71
  Q 1161.64 1391.29 1167.82 1392.46
  Q 1178.17 1394.41 1200.07 1398.70
  Q 1209.68 1400.59 1219.63 1402.91
  Q 1228.41 1404.97 1234.02 1406.24
  Q 1242.76 1408.23 1248.31 1409.86
  Q 1259.39 1413.10 1274.57 1417.16
  Q 1274.81 1417.23 1294.26 1423.00
  C 1308.73 1427.29 1328.88 1434.43 1338.29 1437.74
  C 1343.22 1439.48 1349.79 1441.27 1355.16 1443.30
  Q 1383.99 1454.18 1412.99 1466.79
  C 1427.33 1473.02 1437.87 1477.52 1449.52 1483.11
  Q 1478.66 1497.07 1507.19 1512.64
  Q 1509.33 1513.80 1517.11 1518.51
  A 2.22 2.21 33.2 0 0 1520.07 1517.90
  Q 1521.12 1516.40 1521.69 1514.28
  Q 1524.60 1503.29 1525.09 1501.60
  C 1526.74 1495.84 1527.58 1489.99 1529.32 1485.11
  C 1530.83 1480.88 1531.18 1476.69 1532.56 1472.17
  Q 1533.48 1469.18 1533.98 1467.02
  Q 1535.82 1459.05 1539.36 1445.89
  Q 1543.32 1431.13 1544.50 1426.56
  Q 1555.35 1384.26 1564.81 1346.79
  C 1565.71 1343.23 1567.24 1340.21 1567.74 1336.76
  C 1568.39 1332.33 1570.20 1327.46 1571.01 1324.02
  Q 1572.34 1318.42 1573.57 1312.81
  C 1574.42 1308.94 1576.26 1304.17 1576.93 1299.84
  C 1577.39 1296.90 1578.61 1294.15 1579.22 1291.74
  Q 1584.02 1272.77 1585.50 1267.26
  C 1586.16 1264.84 1585.84 1262.61 1586.78 1260.43
  C 1588.83 1255.67 1589.45 1250.56 1590.98 1246.10
  C 1592.36 1242.07 1592.92 1237.66 1594.14 1233.38
  Q 1596.40 1225.45 1598.48 1215.97
  C 1599.11 1213.08 1600.48 1210.65 1600.95 1207.75
  Q 1601.98 1201.33 1604.22 1195.67
  C 1605.04 1193.61 1604.78 1191.66 1605.39 1189.61
  Q 1608.63 1178.58 1611.03 1167.34
  C 1611.57 1164.81 1612.58 1162.12 1613.14 1159.89
  Q 1615.39 1150.98 1620.86 1129.45
  C 1623.95 1117.32 1628.07 1102.61 1631.17 1089.85
  Q 1633.22 1081.46 1637.98 1063.83
  Q 1639.37 1058.67 1639.58 1057.93
  Q 1640.53 1054.65 1642.04 1048.19
  Q 1643.72 1040.95 1644.36 1038.48
  Q 1654.97 997.71 1655.59 995.53
  Q 1657.98 987.09 1659.84 978.52
  Q 1660.30 976.40 1663.67 963.36
  Q 1663.74 963.09 1666.00 955.20
  C 1666.99 951.75 1667.65 947.58 1668.65 944.16
  Q 1670.54 937.69 1672.93 927.45
  C 1673.33 925.72 1674.26 923.59 1674.73 921.64
  C 1681.36 893.72 1688.97 866.60 1695.99 838.18
  C 1697.22 833.17 1698.91 827.54 1700.23 822.28
  Q 1700.54 821.03 1702.66 813.31
  C 1703.53 810.15 1704.49 804.98 1705.52 801.23
  Q 1710.34 783.65 1712.14 775.68
  Q 1713.11 771.37 1714.03 768.26
  C 1716.18 761.00 1717.18 754.33 1719.58 747.02
  Q 1720.76 743.41 1721.74 738.00
  C 1722.11 735.92 1721.70 734.16 1719.61 733.22
  C 1714.85 731.08 1709.80 730.41 1704.03 729.56
  C 1698.30 728.70 1694.02 727.42 1688.54 725.64
  Q 1687.34 725.24 1687.38 723.97
  Q 1687.47 721.69 1688.24 718.62
  Q 1693.68 697.12 1695.97 688.79
  Q 1696.63 686.38 1697.43 684.97
  Q 1697.69 684.51 1698.22 684.41
  Q 1700.15 684.06 1702.04 684.23
  C 1710.94 685.02 1717.11 685.77 1724.03 685.95
  Q 1726.80 686.02 1730.11 686.65
  Q 1733.54 687.31 1755.12 689.79
  C 1760.02 690.36 1763.85 691.53 1768.42 692.63
  Q 1770.17 693.05 1769.73 694.79
  C 1767.51 703.51 1765.58 712.47 1763.35 720.76
  Q 1760.64 730.87 1759.08 737.35
  Q 1755.82 750.88 1755.04 753.99
  Q 1744.96 794.05 1741.52 808.42
  C 1737.93 823.44 1733.59 838.06 1730.16 852.69
  Q 1727.93 862.22 1725.38 872.11
  Q 1723.69 878.70 1718.40 900.27
  Q 1707.62 944.23 1693.14 1001.53
  Q 1691.97 1006.17 1690.84 1010.48
  Q 1687.09 1024.85 1684.41 1036.06
  Q 1683.92 1038.09 1681.50 1047.09
  C 1680.21 1051.87 1679.19 1057.48 1678.03 1061.93
  C 1671.75 1086.00 1666.24 1108.83 1660.24 1132.23
  Q 1658.99 1137.07 1631.14 1248.55
  Q 1627.19 1264.36 1624.72 1273.78
  Q 1621.02 1287.96 1619.74 1293.15
  Q 1604.04 1356.98 1600.09 1372.37
  Q 1594.89 1392.57 1591.69 1405.40
  Q 1579.89 1452.65 1573.49 1478.38
  Q 1573.47 1478.48 1570.55 1489.67
  C 1568.91 1495.97 1567.41 1503.51 1565.86 1509.59
  Q 1555.62 1549.71 1554.77 1553.15
  Q 1554.09 1555.84 1553.54 1558.21
  Q 1551.48 1567.08 1547.66 1579.53
  A 0.67 0.67 0.0 0 1 1546.74 1579.95
  Q 1545.24 1579.27 1543.62 1578.13
  C 1534.78 1571.93 1514.45 1556.37 1499.97 1546.50
  Q 1476.87 1530.76 1451.76 1515.91
  Q 1443.61 1511.09 1436.35 1507.17
  C 1430.33 1503.91 1422.42 1499.12 1415.68 1495.57
  Q 1391.12 1482.64 1365.78 1470.53
  Q 1358.71 1467.15 1347.52 1462.34
  Q 1319.27 1450.21 1309.36 1446.16
  Q 1303.81 1443.88 1285.07 1436.70
  Q 1278.35 1434.12 1270.06 1431.41
  Q 1265.19 1429.81 1260.07 1427.79
  Q 1254.67 1425.66 1250.08 1424.19
  C 1240.43 1421.12 1227.21 1416.40 1217.14 1413.19
  Q 1186.77 1403.52 1150.25 1393.77
  C 1147.13 1392.94 1142.85 1391.45 1139.32 1390.33
  C 1137.96 1389.91 1136.74 1390.07 1135.06 1390.08
  A 1.43 1.43 0.0 0 1 1134.17 1389.77
  Q 1133.02 1388.86 1131.40 1389.29
  Q 1130.67 1389.49 1130.67 1388.73
  L 1130.67 1388.10
  A 0.49 0.49 0.0 0 1 1131.16 1387.61
  L 1139.69 1387.61
  Q 1139.84 1387.61 1139.84 1387.76
  L 1139.84 1388.01
  Q 1139.84 1388.20 1140.02 1388.24
  Z"
/>
</svg>
