<?xml version="1.0" encoding="UTF-8" standalone="no"?>
<!DOCTYPE svg PUBLIC "-//W3C//DTD SVG 1.1//EN" "http://www.w3.org/Graphics/SVG/1.1/DTD/svg11.dtd">
<svg xmlns="http://www.w3.org/2000/svg" version="1.1" viewBox="0.00 0.00 1067.00 1064.00">
<path fill="#d9ae5c" d="
  M 506.72 0.00
  Q 505.42 4.23 509.55 4.89
  Q 510.08 4.98 510.39 5.42
  Q 512.10 7.92 515.88 6.39
  Q 517.71 5.66 516.45 7.15
  Q 516.01 7.67 514.42 7.86
  C 508.85 8.55 506.12 5.63 500.66 1.81
  A 1.16 1.12 -26.8 0 0 500.01 1.61
  L 468.00 1.35
  A 0.50 0.50 0.0 0 0 467.50 1.85
  L 467.50 34.12
  Q 467.50 34.66 467.83 35.09
  C 472.18 40.73 476.03 44.65 472.98 50.83
  A 1.58 1.55 2.3 0 1 472.13 51.60
  Q 469.72 52.52 469.78 49.60
  Q 469.79 49.27 470.12 49.27
  L 470.48 49.27
  Q 470.93 49.27 470.89 49.71
  Q 470.80 50.91 471.45 51.22
  Q 471.96 51.48 471.98 50.90
  Q 472.06 48.47 470.58 48.24
  A 1.75 1.72 82.8 0 0 468.75 50.65
  C 469.94 53.55 472.52 53.37 473.88 50.97
  Q 475.46 48.18 474.73 44.18
  Q 474.61 43.54 475.12 43.95
  Q 478.34 46.56 478.87 51.05
  Q 478.90 51.29 479.13 51.32
  Q 479.49 51.38 479.58 51.02
  Q 480.24 48.46 479.76 45.56
  A 1.03 1.02 -21.8 0 1 480.20 44.54
  Q 481.39 43.75 481.54 42.94
  Q 481.65 42.33 481.05 42.46
  C 475.89 43.60 472.94 40.74 470.19 36.97
  C 467.91 33.84 468.06 28.07 468.46 24.48
  Q 468.56 23.55 468.84 24.44
  Q 469.27 25.76 469.77 26.37
  Q 470.11 26.79 469.71 27.16
  Q 469.18 27.66 468.97 28.65
  Q 468.63 30.26 470.27 30.44
  Q 470.74 30.49 470.99 30.29
  Q 471.49 29.90 470.94 29.59
  L 470.32 29.23
  Q 469.84 28.95 470.02 28.41
  Q 470.18 27.93 470.78 27.67
  Q 471.26 27.45 471.74 27.67
  Q 473.82 28.61 473.97 31.05
  Q 474.00 31.58 473.58 31.89
  Q 473.06 32.28 472.22 32.17
  Q 471.90 32.13 471.95 32.45
  L 472.00 32.75
  Q 472.03 32.90 472.18 32.94
  Q 474.23 33.41 474.80 31.73
  Q 475.43 29.86 473.67 27.81
  Q 473.29 27.38 473.82 27.14
  C 476.22 26.06 478.35 22.95 476.59 20.43
  A 1.66 1.59 -39.3 0 0 474.13 20.23
  Q 474.00 20.35 474.10 20.63
  Q 474.21 20.96 474.56 20.89
  Q 475.30 20.74 475.72 21.08
  Q 476.11 21.40 476.13 22.01
  C 476.33 27.07 468.96 27.94 469.70 22.75
  Q 469.95 20.97 469.90 20.78
  Q 469.71 20.09 469.46 20.65
  Q 468.88 21.91 468.82 22.49
  Q 468.81 22.65 468.60 22.68
  L 468.59 22.69
  Q 468.39 22.72 468.39 22.43
  L 468.61 3.12
  Q 468.61 2.49 469.24 2.49
  L 488.91 2.49
  Q 489.89 2.49 488.94 2.74
  Q 487.92 3.01 486.35 3.09
  Q 486.13 3.10 486.16 3.32
  L 486.21 3.61
  Q 486.22 3.67 486.28 3.67
  Q 487.58 3.78 488.79 3.69
  C 494.49 3.26 492.48 10.87 487.57 10.09
  Q 487.05 10.01 486.89 9.51
  Q 486.77 9.14 486.87 8.61
  Q 486.93 8.29 486.69 8.07
  Q 486.53 7.90 486.40 8.00
  A 1.70 1.59 -55.8 0 0 486.85 10.92
  Q 491.02 11.98 492.99 7.99
  Q 493.34 7.28 493.96 7.78
  Q 496.37 9.72 498.40 8.36
  Q 499.03 7.94 499.13 7.31
  Q 499.24 6.55 498.41 5.96
  Q 497.94 5.64 498.07 6.19
  Q 498.32 7.21 497.91 7.60
  C 496.63 8.83 494.15 7.02 493.65 5.90
  Q 493.24 5.01 494.01 4.41
  L 494.49 4.04
  Q 495.17 3.52 495.32 4.36
  Q 495.41 4.82 495.61 5.04
  Q 495.88 5.34 496.14 5.03
  Q 496.55 4.54 496.22 3.49
  Q 496.06 2.98 495.52 2.94
  Q 493.93 2.83 493.05 3.78
  Q 492.76 4.09 492.39 3.88
  L 490.70 2.90
  Q 490.11 2.56 490.78 2.50
  Q 497.46 1.91 500.74 3.15
  Q 505.14 4.81 507.69 9.10
  C 508.80 10.96 508.85 12.38 508.52 14.67
  Q 508.26 16.45 509.59 15.24
  Q 510.02 14.85 510.45 14.14
  Q 510.73 13.69 511.25 13.78
  Q 513.70 14.24 517.00 13.64
  Q 517.26 13.59 517.28 13.34
  Q 517.32 12.92 516.90 12.87
  Q 512.65 12.42 509.83 9.06
  Q 509.39 8.54 510.06 8.67
  Q 515.15 9.70 518.22 6.97
  A 1.77 1.76 19.5 0 1 519.13 6.54
  Q 520.76 6.28 525.25 6.75
  Q 530.16 7.25 552.06 6.42
  Q 552.81 6.39 553.54 7.36
  A 2.03 1.94 86.8 0 0 553.98 7.77
  Q 556.91 9.65 561.07 8.64
  Q 561.69 8.49 561.29 8.98
  Q 558.56 12.38 554.26 12.85
  Q 554.06 12.87 553.97 13.05
  Q 553.87 13.27 554.02 13.51
  Q 554.24 13.87 554.66 13.87
  L 560.20 13.87
  Q 560.58 13.87 560.78 14.19
  Q 561.44 15.21 561.63 15.37
  Q 563.14 16.66 562.63 14.74
  C 561.50 10.47 564.36 7.12 567.92 4.41
  C 572.05 1.29 578.97 2.54 583.86 2.49
  Q 591.04 2.42 602.07 2.68
  Q 602.68 2.70 602.68 3.30
  L 602.68 22.46
  Q 602.68 22.67 602.48 22.62
  L 602.20 22.55
  A 0.12 0.11 -80.2 0 1 602.11 22.41
  Q 602.33 20.57 601.51 19.90
  Q 600.99 19.49 601.09 20.14
  L 601.65 23.61
  A 1.11 1.09 -35.8 0 1 601.52 24.35
  C 599.34 28.27 594.91 25.52 594.96 21.90
  Q 594.97 21.34 595.47 21.11
  Q 595.95 20.90 596.73 20.88
  Q 597.08 20.87 597.09 20.52
  Q 597.09 20.21 596.98 20.14
  A 1.89 1.78 32.8 0 0 594.44 20.61
  C 592.89 23.01 595.07 26.06 597.27 27.12
  Q 597.74 27.35 597.45 27.79
  C 596.18 29.70 595.26 32.04 597.82 33.13
  Q 598.62 33.47 599.33 32.58
  Q 599.56 32.29 599.19 32.21
  Q 598.96 32.17 598.86 32.20
  A 1.25 1.20 83.3 0 1 597.22 30.85
  Q 597.52 28.69 599.11 27.74
  Q 599.95 27.25 600.67 27.91
  L 600.89 28.12
  Q 601.45 28.65 600.78 29.03
  Q 600.15 29.38 600.09 29.81
  Q 600.01 30.40 600.61 30.46
  Q 601.60 30.55 601.98 29.42
  Q 602.46 28.04 601.45 27.15
  A 0.57 0.57 0.0 0 1 601.33 26.43
  L 602.27 24.80
  Q 602.77 23.94 602.92 24.92
  Q 603.05 25.77 602.94 29.51
  Q 602.77 35.46 598.92 39.56
  Q 595.18 43.54 590.03 42.46
  A 0.41 0.40 84.1 0 0 589.58 43.02
  Q 590.01 44.00 591.10 44.52
  Q 591.56 44.73 591.47 45.23
  Q 590.90 48.52 591.52 50.41
  Q 592.26 52.64 592.49 50.30
  Q 592.84 46.83 596.02 44.01
  Q 596.86 43.27 596.53 44.34
  Q 595.33 48.26 597.50 51.28
  C 600.32 55.21 604.62 50.30 601.49 48.21
  A 0.96 0.94 -40.3 0 0 600.54 48.14
  Q 599.03 48.88 599.10 50.57
  Q 599.11 50.81 599.21 50.94
  Q 599.31 51.07 599.53 51.09
  A 0.61 0.60 8.9 0 0 600.17 50.63
  L 600.43 49.53
  Q 600.57 48.93 601.11 49.24
  L 601.40 49.40
  A 0.57 0.56 30.4 0 1 601.61 50.17
  L 601.28 50.74
  A 1.90 1.90 0.0 0 1 597.88 50.51
  Q 596.01 45.90 598.63 41.81
  Q 598.92 41.37 602.90 35.09
  Q 602.94 35.02 603.00 35.07
  Q 603.16 35.18 603.18 35.24
  A 0.17 0.12 -60.8 0 0 603.44 35.12
  Q 603.94 19.44 603.83 2.36
  Q 603.82 1.33 602.80 1.34
  L 570.25 1.65
  Q 570.04 1.65 569.86 1.99
  C 569.39 2.87 566.18 4.79 563.78 6.47
  C 561.58 8.02 556.51 8.92 554.36 6.79
  Q 553.83 6.26 554.58 6.26
  C 556.51 6.26 557.12 7.70 559.25 6.73
  Q 559.26 6.72 560.64 5.63
  Q 561.35 5.05 562.62 4.63
  Q 566.11 3.46 564.27 0.00
  L 606.96 0.00
  L 607.03 152.31
  A 0.71 0.71 0.0 0 1 606.32 153.02
  L 564.00 153.02
  Q 563.33 153.02 563.67 152.44
  L 564.19 151.54
  Q 564.44 151.10 564.38 150.59
  Q 564.03 147.93 561.32 147.69
  A 1.07 1.03 -14.2 0 1 560.58 147.27
  C 559.54 145.89 557.30 144.36 555.92 146.00
  A 1.10 1.10 0.0 0 1 555.07 146.40
  Q 554.59 146.40 554.44 146.29
  Q 553.33 145.50 554.68 145.04
  C 560.93 142.92 565.19 147.08 569.46 150.34
  A 3.13 3.11 -26.5 0 0 571.33 150.96
  L 602.53 150.96
  A 0.83 0.82 0.7 0 0 603.36 150.16
  Q 603.61 138.16 603.04 125.92
  Q 603.03 125.78 603.12 121.47
  C 603.17 119.17 603.16 117.66 601.81 115.95
  Q 599.20 112.61 598.26 111.08
  Q 595.19 106.14 598.09 101.10
  A 0.32 0.31 27.4 0 1 598.49 100.98
  L 598.84 101.14
  Q 599.03 101.23 598.95 101.43
  Q 598.07 103.64 600.27 104.18
  Q 601.29 104.43 601.54 104.10
  A 3.07 2.74 46.4 0 0 601.43 100.61
  Q 600.53 99.39 598.78 99.86
  C 595.82 100.64 595.52 105.69 596.08 108.19
  A 0.32 0.32 0.0 0 1 595.54 108.49
  Q 592.44 105.49 592.05 102.45
  Q 591.70 99.62 590.98 102.32
  Q 590.63 103.64 591.05 107.04
  Q 591.11 107.53 590.72 107.84
  Q 589.79 108.57 589.67 108.71
  Q 588.03 110.66 590.43 109.87
  Q 592.62 109.15 595.10 110.46
  C 599.33 112.69 602.67 117.16 602.22 122.20
  Q 602.17 122.74 601.67 122.53
  Q 600.77 122.17 600.61 122.13
  Q 600.20 122.05 600.04 122.18
  Q 599.84 122.33 599.73 122.57
  A 0.46 0.46 0.0 0 0 600.15 123.23
  L 600.69 123.22
  Q 601.21 123.21 600.97 123.68
  Q 600.65 124.30 599.92 124.80
  Q 599.51 125.08 599.03 124.92
  Q 597.20 124.30 596.73 121.33
  A 1.05 1.04 -85.7 0 1 598.07 120.17
  L 598.43 120.28
  A 0.36 0.35 -82.7 0 0 598.89 119.92
  Q 598.84 119.01 597.07 119.50
  A 1.53 1.51 -0.1 0 0 596.00 120.56
  Q 595.42 122.62 597.05 124.75
  Q 597.38 125.18 596.89 125.40
  C 594.46 126.49 591.91 130.42 594.68 132.42
  A 1.35 1.25 25.6 0 0 596.74 131.78
  Q 596.76 131.67 596.65 131.53
  Q 596.46 131.30 596.20 131.44
  Q 595.70 131.71 595.47 131.69
  Q 594.91 131.67 594.75 131.13
  Q 594.06 128.82 596.15 127.06
  Q 598.64 124.96 600.73 127.48
  Q 601.05 127.85 601.06 128.34
  Q 601.11 130.06 601.54 131.34
  Q 602.15 133.11 602.13 134.30
  Q 602.05 138.97 602.16 149.45
  A 0.43 0.43 0.0 0 1 601.74 149.88
  Q 586.41 150.11 585.60 150.05
  Q 582.76 149.83 580.64 148.87
  C 575.28 146.43 581.30 140.44 583.67 142.71
  Q 584.05 143.06 584.12 144.09
  Q 584.14 144.38 584.42 144.40
  Q 584.64 144.42 584.69 144.34
  A 1.88 1.75 -53.7 0 0 584.42 142.00
  C 582.08 139.98 578.75 142.17 577.83 144.56
  Q 577.64 145.05 577.20 144.76
  C 575.46 143.58 571.65 142.63 571.61 145.65
  Q 571.60 146.24 572.25 146.56
  Q 572.81 146.82 572.60 146.24
  L 572.41 145.73
  Q 572.19 145.13 572.74 144.80
  Q 574.27 143.92 576.69 145.89
  A 1.37 1.30 54.7 0 1 576.36 148.21
  Q 576.06 148.30 575.29 147.51
  Q 574.91 147.11 574.55 147.53
  Q 574.25 147.88 574.36 148.41
  Q 574.45 148.83 574.91 149.00
  Q 576.15 149.45 577.32 148.85
  Q 577.78 148.61 578.29 148.69
  Q 579.20 148.83 579.79 149.47
  Q 580.16 149.88 579.62 149.91
  Q 572.48 150.31 571.01 149.78
  C 566.46 148.13 560.54 143.12 562.27 137.78
  Q 562.74 136.34 561.43 137.09
  Q 560.87 137.42 560.13 138.42
  Q 559.84 138.81 559.37 138.72
  Q 556.12 138.13 554.27 138.87
  Q 552.30 139.66 554.43 139.77
  Q 557.97 139.95 560.90 143.47
  A 0.28 0.28 0.0 0 1 560.61 143.91
  Q 555.64 142.42 552.38 145.78
  Q 552.02 146.16 551.49 146.17
  C 547.64 146.24 543.82 145.72 539.49 145.70
  C 534.49 145.67 529.52 145.57 524.48 145.97
  Q 520.82 146.26 519.00 146.21
  Q 518.51 146.20 518.15 145.85
  Q 514.74 142.51 510.03 143.78
  Q 508.88 144.08 509.69 143.21
  Q 512.72 139.94 515.45 139.78
  Q 518.90 139.59 515.55 138.73
  Q 514.00 138.33 510.77 138.70
  Q 510.28 138.76 510.06 138.32
  Q 509.62 137.45 509.53 137.39
  Q 507.42 135.93 508.13 138.32
  Q 508.94 141.00 506.94 143.95
  C 504.01 148.29 500.03 150.30 494.91 150.06
  Q 492.19 149.94 490.60 149.91
  Q 489.79 149.90 490.49 149.50
  L 492.10 148.57
  Q 492.61 148.27 492.99 148.72
  Q 494.28 150.21 495.67 148.96
  Q 496.28 148.42 495.83 147.73
  Q 495.50 147.22 494.94 147.45
  Q 494.51 147.63 494.62 148.44
  Q 494.70 148.99 494.31 148.71
  Q 494.26 148.68 493.32 147.63
  Q 492.96 147.23 493.18 146.74
  Q 494.18 144.53 496.97 144.58
  A 1.04 1.04 0.0 0 1 497.89 146.09
  Q 497.74 146.38 497.73 146.49
  Q 497.65 147.21 498.16 146.67
  L 498.43 146.38
  A 1.44 1.44 0.0 0 0 498.18 144.18
  Q 495.95 142.71 493.48 144.68
  Q 492.83 145.21 492.52 144.42
  Q 491.32 141.37 487.62 141.24
  A 2.20 2.16 87.3 0 0 485.41 143.71
  Q 485.46 144.11 486.03 144.49
  Q 486.50 144.81 486.42 144.24
  Q 486.29 143.34 486.51 142.87
  Q 486.73 142.38 487.28 142.33
  Q 490.65 142.06 491.74 145.26
  C 493.08 149.21 486.05 150.09 483.50 150.05
  Q 473.50 149.88 468.67 149.86
  A 0.46 0.45 -0.0 0 1 468.21 149.41
  Q 468.05 134.72 468.07 132.29
  Q 468.07 130.71 468.63 129.83
  C 469.25 128.86 469.13 127.55 470.23 126.77
  C 472.62 125.08 475.59 127.37 475.78 129.58
  Q 475.98 131.88 473.99 131.65
  Q 473.34 131.57 473.69 132.13
  Q 474.22 132.99 475.30 132.49
  C 478.76 130.90 475.97 126.65 473.66 125.55
  Q 473.21 125.33 473.40 124.87
  Q 474.27 122.81 474.31 122.67
  C 474.66 121.41 474.18 118.92 472.42 119.24
  Q 471.84 119.35 471.52 119.74
  Q 471.01 120.35 471.78 120.14
  Q 473.26 119.74 473.40 120.99
  Q 473.72 123.81 470.98 125.03
  A 0.58 0.58 0.0 0 1 470.20 124.71
  Q 469.88 123.89 470.52 123.07
  Q 471.43 121.90 469.97 122.11
  Q 468.80 122.28 468.62 122.98
  Q 468.49 123.48 468.99 123.36
  L 469.51 123.23
  Q 470.47 122.99 469.62 123.53
  Q 468.58 124.19 469.35 125.15
  Q 469.66 125.54 469.41 125.97
  L 468.43 127.62
  Q 467.85 128.60 468.05 127.51
  Q 468.06 127.49 468.00 120.51
  C 467.97 117.31 471.12 113.17 473.68 111.29
  Q 476.52 109.21 480.75 110.03
  Q 481.28 110.13 481.21 109.60
  Q 481.08 108.62 479.75 108.06
  Q 479.23 107.84 479.33 107.28
  Q 479.89 104.17 479.03 101.43
  Q 478.95 101.16 478.67 101.16
  Q 478.52 101.16 478.41 101.26
  Q 478.36 101.31 478.35 101.39
  Q 478.10 105.62 474.75 108.42
  Q 473.95 109.09 474.22 108.08
  Q 475.12 104.80 473.83 102.09
  C 472.69 99.68 469.97 98.74 468.42 101.15
  A 2.03 1.96 -70.3 0 0 469.82 104.26
  Q 470.63 104.34 471.66 102.83
  Q 472.05 102.26 471.37 102.13
  Q 470.78 102.01 470.23 102.79
  Q 469.93 103.21 469.50 102.93
  Q 469.20 102.74 469.00 102.31
  A 0.56 0.56 0.0 0 1 469.32 101.55
  Q 470.92 100.98 471.87 101.26
  Q 472.40 101.41 472.66 101.89
  C 475.52 106.94 472.06 111.61 468.61 115.75
  Q 467.57 116.99 467.35 118.53
  Q 467.15 119.91 467.14 121.68
  Q 467.06 135.97 467.02 150.01
  Q 467.02 151.12 468.12 151.10
  L 503.09 150.39
  Q 503.11 150.39 503.11 150.37
  Q 503.31 150.02 503.12 150.36
  Q 503.11 150.37 503.10 150.37
  Q 502.41 150.33 501.95 150.10
  A 0.33 0.33 0.0 0 1 501.90 149.54
  C 505.76 146.65 510.09 142.80 515.74 145.14
  Q 517.63 145.92 515.73 146.40
  Q 515.08 146.56 513.88 145.60
  Q 513.49 145.28 512.99 145.32
  Q 511.09 145.45 510.02 147.02
  A 1.36 1.33 -78.9 0 1 509.25 147.55
  C 506.66 148.14 505.01 149.55 506.57 152.46
  Q 506.87 153.01 506.25 153.01
  L 463.68 153.01
  Q 463.09 153.01 463.09 152.42
  L 462.99 0.00
  L 506.72 0.00
  Z
  M 503.6562 2.0299
  A 0.93 0.30 9.9 0 0 502.7916 1.5745
  A 0.93 0.30 9.9 0 0 501.8238 1.7101
  A 0.93 0.30 9.9 0 0 502.6884 2.1655
  A 0.93 0.30 9.9 0 0 503.6562 2.0299
  Z
  M 569.0448 1.8133
  A 0.91 0.29 -6.1 0 0 568.1092 1.6216
  A 0.91 0.29 -6.1 0 0 567.2352 2.0067
  A 0.91 0.29 -6.1 0 0 568.1708 2.1984
  A 0.91 0.29 -6.1 0 0 569.0448 1.8133
  Z
  M 584.00 9.77
  Q 582.87 10.55 581.38 9.84
  Q 578.06 8.27 579.29 4.87
  Q 579.47 4.37 579.96 4.16
  Q 582.00 3.30 584.66 3.93
  A 0.19 0.18 3.4 0 0 584.89 3.73
  L 584.86 3.38
  Q 584.86 3.36 584.84 3.35
  Q 581.47 2.05 578.79 3.78
  Q 578.33 4.08 577.98 3.65
  Q 577.06 2.50 575.57 3.11
  Q 575.05 3.32 574.87 3.76
  Q 574.53 4.60 574.81 4.90
  Q 575.31 5.43 575.67 4.80
  L 576.01 4.22
  Q 576.36 3.60 576.92 4.04
  Q 577.28 4.32 577.52 4.83
  Q 577.80 5.44 577.45 6.01
  Q 576.32 7.88 574.11 7.94
  Q 573.58 7.96 573.25 7.55
  Q 573.03 7.27 572.84 6.44
  Q 572.71 5.87 572.33 6.32
  Q 571.73 7.04 572.20 7.70
  C 573.87 10.10 575.62 8.57 577.55 7.65
  Q 577.99 7.44 578.16 7.90
  C 579.00 10.20 583.08 12.77 585.01 10.26
  Q 585.81 9.22 585.00 8.10
  A 0.43 0.40 -51.5 0 0 584.29 8.21
  Q 584.19 8.43 584.30 9.04
  A 0.73 0.72 -23.0 0 1 584.00 9.77
  Z
  M 476.07 10.15
  Q 477.30 8.91 474.67 6.52
  Q 474.00 5.90 474.91 5.91
  Q 480.50 5.91 486.33 5.65
  C 487.55 5.60 488.11 6.12 488.63 7.18
  A 0.91 0.89 78.5 0 0 489.39 7.69
  Q 490.49 7.76 491.19 6.92
  A 1.20 1.20 0.0 0 0 490.26 4.95
  L 471.32 5.02
  Q 471.17 5.02 471.12 5.06
  Q 471.10 5.08 471.09 5.09
  Q 471.03 5.15 471.01 5.18
  Q 470.97 5.22 470.97 5.37
  L 471.03 24.31
  A 1.20 1.20 0.0 0 0 473.00 25.23
  Q 473.84 24.52 473.77 23.42
  A 0.91 0.89 11.1 0 0 473.25 22.66
  C 472.18 22.16 471.66 21.60 471.71 20.38
  Q 471.92 14.55 471.88 8.95
  Q 471.87 8.04 472.49 8.71
  Q 474.90 11.33 476.07 10.15
  Z
  M 595.16 10.12
  Q 596.32 11.29 598.72 8.67
  Q 599.34 8.00 599.33 8.91
  Q 599.31 14.50 599.54 20.32
  C 599.59 21.54 599.07 22.10 598.01 22.61
  A 0.91 0.89 -11.3 0 0 597.49 23.37
  Q 597.42 24.47 598.26 25.17
  A 1.20 1.20 0.0 0 0 600.23 24.25
  L 600.23 5.33
  Q 600.23 5.18 600.19 5.13
  Q 600.18 5.11 600.11 5.05
  Q 600.10 5.04 600.08 5.02
  Q 600.03 4.98 599.88 4.98
  L 580.96 4.96
  A 1.20 1.20 0.0 0 0 580.04 6.93
  Q 580.74 7.77 581.84 7.70
  A 0.91 0.89 -78.7 0 0 582.60 7.18
  C 583.11 6.13 583.67 5.61 584.89 5.66
  Q 590.71 5.89 596.30 5.88
  Q 597.21 5.87 596.54 6.49
  Q 593.92 8.88 595.16 10.12
  Z
  M 476.70 10.72
  Q 476.65 10.77 476.48 10.82
  Q 472.96 11.69 473.56 15.54
  C 473.81 17.15 474.39 17.50 475.89 18.40
  Q 477.16 19.17 477.94 20.11
  C 480.51 23.20 486.76 22.53 489.79 24.62
  Q 491.40 25.73 491.60 25.53
  Q 491.76 25.37 490.65 23.76
  C 488.55 20.74 489.20 14.48 486.10 11.92
  Q 485.16 11.15 484.39 9.88
  C 483.48 8.38 483.13 7.80 481.52 7.56
  Q 477.67 6.97 476.81 10.49
  Q 476.77 10.66 476.70 10.72
  Z
  M 594.45 10.72
  Q 594.38 10.65 594.34 10.48
  Q 593.47 6.97 589.62 7.56
  C 588.02 7.81 587.67 8.39 586.76 9.89
  Q 585.99 11.15 585.05 11.93
  C 581.97 14.50 582.63 20.74 580.54 23.77
  Q 579.43 25.37 579.59 25.54
  Q 579.79 25.73 581.39 24.62
  C 584.42 22.53 590.66 23.19 593.22 20.10
  Q 594.00 19.16 595.27 18.38
  C 596.77 17.48 597.34 17.13 597.59 15.52
  Q 598.18 11.68 594.67 10.81
  Q 594.50 10.77 594.45 10.72
  Z
  M 603.14 36.14
  Q 603.06 36.58 603.34 37.17
  Q 603.64 37.80 603.73 37.11
  Q 603.83 36.32 603.67 36.05
  Q 603.28 35.37 603.14 36.14
  Z
  M 468.76 98.53
  Q 466.08 100.92 465.99 104.12
  Q 465.98 104.73 466.42 106.03
  Q 467.04 107.86 467.05 107.88
  Q 467.30 108.48 466.96 108.79
  Q 466.05 109.64 465.52 109.42
  Q 463.64 108.65 464.77 110.36
  Q 466.43 112.88 468.70 111.76
  C 469.82 111.21 470.15 109.95 470.51 108.71
  Q 470.66 108.24 471.05 107.93
  Q 472.76 106.56 472.89 104.51
  Q 472.95 103.56 472.28 104.23
  L 471.13 105.38
  A 1.87 1.87 0.0 0 1 468.63 105.51
  C 465.12 102.63 468.82 99.37 470.84 97.31
  Q 472.06 96.06 472.31 91.18
  Q 472.71 83.55 472.65 59.93
  Q 472.64 56.47 469.36 53.01
  C 467.93 51.50 467.19 50.22 467.99 48.29
  Q 468.97 45.93 471.07 46.76
  Q 471.52 46.94 471.76 47.36
  L 472.34 48.36
  Q 472.57 48.75 472.78 48.35
  C 473.50 46.97 472.46 45.24 471.26 44.28
  A 1.45 1.43 -76.2 0 1 470.75 43.43
  C 470.23 40.45 467.32 39.08 465.41 41.85
  Q 464.17 43.65 466.28 43.04
  Q 467.04 42.82 467.52 44.03
  Q 467.71 44.52 467.45 44.97
  C 463.31 52.02 471.97 53.47 471.64 59.62
  Q 470.84 74.30 471.42 90.87
  Q 471.60 95.98 468.76 98.53
  Z
  M 598.15 76.23
  Q 598.07 89.66 598.04 90.58
  Q 597.92 96.00 601.92 100.06
  C 605.53 103.72 600.08 108.78 598.35 104.15
  Q 598.22 103.81 597.97 104.07
  L 597.76 104.27
  Q 597.47 104.57 597.53 104.98
  Q 597.82 106.89 599.61 108.30
  Q 599.99 108.60 600.04 109.08
  C 600.41 112.37 603.62 113.19 605.61 110.48
  Q 606.52 109.26 604.99 109.26
  L 604.13 109.26
  A 1.05 1.05 0.0 0 1 603.23 107.66
  Q 605.36 104.17 603.50 100.87
  C 602.36 98.82 599.09 96.66 599.16 93.48
  Q 599.37 84.31 599.43 76.24
  Q 599.48 68.18 599.39 59.00
  C 599.36 55.82 602.66 53.71 603.82 51.67
  Q 605.73 48.40 603.64 44.88
  A 1.05 1.05 0.0 0 1 604.56 43.29
  L 605.42 43.30
  Q 606.95 43.32 606.06 42.09
  C 604.10 39.35 600.88 40.13 600.47 43.42
  Q 600.41 43.90 600.03 44.19
  Q 598.22 45.58 597.91 47.48
  Q 597.84 47.89 598.13 48.20
  L 598.34 48.40
  Q 598.58 48.66 598.72 48.32
  C 600.51 43.72 605.89 48.85 602.23 52.46
  Q 598.18 56.47 598.23 61.89
  Q 598.24 62.81 598.15 76.23
  Z
  M 522.97 69.76
  C 519.56 70.37 515.52 74.42 520.02 77.29
  Q 523.31 79.39 528.58 77.54
  Q 529.04 77.38 528.70 77.04
  L 527.74 76.08
  A 1.80 1.80 0.0 0 1 528.77 73.02
  Q 533.93 72.30 538.68 74.50
  A 0.59 0.56 27.3 0 1 538.96 75.30
  L 535.90 80.61
  Q 535.68 80.98 535.26 80.90
  Q 523.95 78.64 516.26 82.77
  C 505.51 88.55 502.68 101.18 510.93 110.27
  A 0.40 0.39 49.4 0 1 510.89 110.84
  Q 506.77 114.16 502.21 116.45
  C 499.79 117.67 494.83 119.21 492.29 117.65
  C 490.54 116.56 491.65 114.97 492.79 114.05
  Q 493.44 113.53 492.63 113.32
  Q 489.24 112.42 487.00 112.98
  C 483.40 113.87 480.97 117.24 483.31 120.68
  C 485.85 124.39 492.95 123.87 496.66 122.59
  Q 505.44 119.54 512.80 112.78
  Q 513.20 112.41 513.66 112.70
  Q 524.50 119.61 537.94 117.63
  C 549.40 115.95 558.97 109.34 560.29 97.38
  C 561.54 86.01 554.71 76.09 544.20 71.67
  A 0.40 0.40 0.0 0 1 543.99 71.15
  Q 549.54 57.54 554.87 48.27
  A 0.34 0.34 0.0 0 0 554.43 47.80
  Q 551.55 49.21 548.47 47.95
  Q 542.63 45.56 539.43 44.77
  C 531.83 42.89 519.75 44.64 515.97 52.72
  C 512.92 59.24 516.77 66.56 523.04 69.05
  Q 524.24 69.53 522.97 69.76
  Z
  M 466.86 54.47
  Q 466.73 54.60 466.73 54.61
  Q 466.95 75.66 467.24 96.73
  Q 467.24 97.01 467.36 97.21
  Q 467.59 97.62 467.65 97.15
  C 467.86 95.18 468.51 93.09 468.55 91.26
  Q 468.88 77.16 468.83 60.55
  A 1.94 1.91 -60.2 0 0 468.58 59.60
  Q 467.23 57.26 467.01 54.59
  Q 466.99 54.34 466.87 54.46
  L 466.86 54.47
  Z
  M 603.83 97.75
  Q 603.96 97.62 603.96 97.61
  Q 603.86 76.38 603.69 55.13
  Q 603.69 54.85 603.57 54.64
  Q 603.34 54.23 603.28 54.70
  C 603.06 56.69 602.39 58.79 602.34 60.64
  Q 601.92 74.86 601.88 91.61
  A 1.95 1.92 -59.9 0 0 602.12 92.57
  Q 603.47 94.94 603.68 97.63
  Q 603.69 97.88 603.82 97.76
  L 603.83 97.75
  Z
  M 475.40 141.93
  Q 473.21 142.36 472.29 143.63
  Q 471.41 144.85 471.38 143.35
  Q 471.23 135.79 471.09 132.28
  C 471.04 131.03 471.57 130.44 472.65 129.88
  Q 473.11 129.64 473.15 129.12
  Q 473.34 126.78 471.51 127.03
  A 1.02 1.02 0.0 0 0 470.62 128.01
  L 470.43 132.37
  Q 470.42 132.61 470.24 132.47
  L 470.02 132.31
  Q 470.00 132.29 470.00 132.27
  Q 469.95 131.22 469.41 130.46
  Q 468.91 129.77 469.10 130.59
  L 469.55 132.54
  Q 469.65 132.99 470.11 133.05
  Q 470.63 133.12 470.63 134.00
  Q 470.57 141.00 470.51 146.94
  A 0.53 0.53 0.0 0 0 471.05 147.48
  Q 480.49 147.37 485.90 147.59
  Q 485.94 147.59 487.12 147.73
  Q 488.64 147.90 490.44 147.07
  A 1.12 1.12 0.0 0 0 490.86 145.37
  Q 490.39 144.76 488.89 144.89
  Q 488.38 144.94 488.13 145.39
  C 487.56 146.45 487.10 146.95 485.83 146.90
  Q 482.74 146.77 474.37 146.68
  A 0.36 0.35 -64.5 0 1 474.15 146.05
  Q 475.99 144.50 476.24 142.22
  Q 476.27 142.01 476.48 142.04
  Q 476.58 142.05 476.70 142.16
  Q 476.80 142.25 476.82 142.47
  C 477.10 145.52 480.97 145.44 482.89 144.15
  C 483.98 143.42 483.96 141.89 485.00 141.13
  C 486.91 139.75 488.15 136.62 488.33 135.02
  Q 488.90 130.14 490.97 127.25
  Q 491.40 126.66 490.78 127.04
  L 488.44 128.46
  Q 488.05 128.69 487.61 128.79
  C 483.71 129.64 479.38 129.98 476.72 133.26
  A 1.77 1.76 9.1 0 1 475.94 133.82
  Q 472.23 135.25 473.30 139.46
  Q 473.50 140.27 475.47 141.53
  Q 475.92 141.82 475.40 141.93
  Z
  M 594.02 141.77
  Q 594.08 141.70 594.26 141.66
  Q 597.76 140.80 597.17 136.96
  C 596.92 135.36 596.34 135.01 594.85 134.11
  Q 593.59 133.34 592.81 132.41
  C 590.25 129.33 584.03 129.99 581.01 127.90
  Q 579.41 126.80 579.25 126.96
  Q 579.05 127.15 580.16 128.75
  C 582.25 131.77 581.59 137.99 584.67 140.55
  Q 585.61 141.32 586.38 142.59
  C 587.28 144.08 587.63 144.66 589.23 144.90
  Q 593.06 145.49 593.93 141.99
  Q 593.97 141.82 594.02 141.77
  Z
  M 584.38 148.02
  Q 583.41 148.36 583.25 148.51
  Q 582.78 148.98 583.42 148.92
  C 585.41 148.75 585.89 147.07 588.31 147.35
  Q 590.48 147.60 599.22 147.51
  A 0.65 0.64 -89.5 0 0 599.85 146.88
  Q 599.96 142.53 599.81 137.66
  Q 599.81 137.58 600.12 132.86
  Q 600.29 130.21 599.41 127.52
  A 0.96 0.95 57.2 0 0 597.80 127.17
  Q 597.10 127.92 597.07 128.99
  Q 597.05 129.51 597.51 129.74
  Q 599.27 130.64 599.24 131.77
  Q 598.91 141.65 598.96 144.02
  Q 598.98 144.70 598.55 144.17
  Q 597.19 142.46 595.66 141.95
  A 0.90 0.90 0.0 0 0 594.75 142.16
  Q 594.05 142.85 594.73 144.21
  Q 595.11 144.96 596.39 146.32
  Q 596.69 146.63 596.26 146.65
  Q 590.73 146.85 586.23 146.84
  Q 585.30 146.84 585.02 147.43
  Q 584.83 147.86 584.38 148.02
  Z
  M 583.31 146.70
  Q 582.29 145.53 581.95 145.18
  Q 581.32 144.52 580.49 144.91
  Q 580.06 145.11 579.55 145.66
  Q 578.92 146.33 579.67 146.87
  Q 581.39 148.09 583.69 147.49
  Q 584.30 147.34 583.83 146.91
  Q 583.64 146.73 583.31 146.70
  Z
  M 486.9665 148.4976
  A 0.93 0.30 12.9 0 0 486.1270 147.9976
  A 0.93 0.30 12.9 0 0 485.1535 148.0824
  A 0.93 0.30 12.9 0 0 485.9930 148.5824
  A 0.93 0.30 12.9 0 0 486.9665 148.4976
  Z"
/>
<path fill="#d9ae5c" d="
  M 511.90 0.00
  Q 514.50 0.94 517.01 0.00
  L 553.73 0.00
  Q 556.45 0.91 559.17 0.00
  L 561.63 0.00
  Q 562.62 1.47 560.74 1.29
  Q 556.71 0.91 554.15 1.07
  Q 550.91 1.27 550.83 1.27
  C 539.31 1.39 527.59 1.72 516.10 0.97
  Q 513.12 0.78 510.02 1.35
  A 0.79 0.78 -0.3 0 1 509.11 0.45
  Q 509.13 0.29 509.42 0.00
  L 511.90 0.00
  Z"
/>
<path fill="#d9ae5c" d="
  M 514.33 4.71
  L 514.75 5.44
  A 0.42 0.42 0.0 0 1 514.46 6.06
  Q 513.03 6.31 512.60 4.70
  A 1.99 1.98 71.4 0 1 513.76 2.34
  Q 515.06 1.82 517.36 2.30
  C 518.86 2.61 520.00 4.21 521.39 5.57
  Q 521.69 5.86 521.27 5.86
  L 519.66 5.86
  Q 519.02 5.86 518.93 5.22
  Q 518.52 2.57 515.38 2.75
  A 1.31 1.30 73.3 0 0 514.33 4.71
  Z"
/>
<path fill="#d9ae5c" d="
  M 556.85 4.66
  A 1.28 1.28 0.0 0 0 555.85 2.72
  Q 552.76 2.50 552.33 5.10
  Q 552.23 5.72 551.60 5.72
  L 550.02 5.69
  Q 549.61 5.69 549.90 5.41
  C 551.29 4.09 552.43 2.53 553.91 2.25
  Q 556.17 1.81 557.44 2.34
  A 1.96 1.94 -70.6 0 1 558.55 4.67
  Q 558.11 6.25 556.70 5.98
  A 0.41 0.41 0.0 0 1 556.43 5.37
  L 556.85 4.66
  Z"
/>
<path fill="#d9ae5c" d="
  M 535.59 3.02
  Q 546.34 3.02 551.38 2.19
  Q 551.90 2.10 551.62 2.54
  Q 549.71 5.59 545.95 5.61
  Q 538.03 5.64 535.59 5.64
  Q 533.15 5.64 525.23 5.60
  Q 521.47 5.58 519.56 2.53
  Q 519.28 2.09 519.80 2.17
  Q 524.84 3.01 535.59 3.02
  Z"
/>
<path fill="#d9ae5c" d="
  M 516.70 4.95
  L 515.53 4.95
  Q 515.05 4.95 515.12 4.47
  L 515.17 4.17
  Q 515.22 3.85 515.55 3.82
  Q 517.45 3.64 517.89 5.40
  Q 518.13 6.38 517.36 5.75
  Q 517.29 5.69 517.24 5.41
  Q 517.16 4.95 516.70 4.95
  Z"
/>
<path fill="#d9ae5c" d="
  M 554.32 5.10
  Q 554.13 5.22 553.89 5.27
  Q 553.37 5.37 553.57 4.88
  Q 554.01 3.78 555.12 3.68
  Q 555.69 3.62 555.87 3.93
  Q 555.97 4.09 555.99 4.29
  Q 556.03 4.78 555.55 4.91
  Q 554.95 5.08 554.32 5.10
  Z"
/>
<path fill="#d9ae5c" d="
  M 480.66 10.01
  Q 479.90 10.51 480.05 11.70
  A 0.36 0.36 0.0 0 1 479.58 12.08
  Q 477.96 11.55 477.94 10.19
  Q 477.93 9.67 478.32 9.32
  Q 480.22 7.53 482.69 9.12
  A 1.46 1.45 47.1 0 1 482.60 11.62
  Q 482.07 11.90 481.46 11.85
  Q 480.90 11.81 480.98 11.25
  L 481.12 10.31
  Q 481.22 9.64 480.66 10.01
  Z"
/>
<path fill="#d9ae5c" d="
  M 590.42 10.17
  Q 589.86 9.79 589.96 10.46
  L 590.10 11.41
  Q 590.19 11.97 589.63 12.01
  Q 589.01 12.07 588.49 11.79
  A 1.46 1.46 0.0 0 1 588.38 9.28
  Q 590.85 7.68 592.77 9.46
  Q 593.15 9.81 593.15 10.33
  Q 593.14 11.69 591.51 12.24
  A 0.36 0.36 0.0 0 1 591.05 11.85
  Q 591.19 10.66 590.42 10.17
  Z"
/>
<path fill="#d9ae5c" d="
  M 475.97 14.72
  Q 475.62 15.29 476.28 15.17
  L 477.22 15.00
  Q 477.77 14.90 477.83 15.46
  Q 477.90 16.07 477.64 16.60
  A 1.45 1.45 0.0 0 1 475.15 16.77
  Q 473.48 14.37 475.20 12.41
  Q 475.54 12.01 476.05 12.00
  Q 477.41 11.97 478.00 13.58
  A 0.36 0.35 -7.5 0 1 477.63 14.05
  Q 476.44 13.95 475.97 14.72
  Z"
/>
<path fill="#d9ae5c" d="
  M 488.45 22.47
  Q 488.39 22.52 487.87 22.40
  C 483.28 21.32 480.98 21.30 478.33 18.69
  Q 477.92 18.29 478.24 17.82
  Q 479.02 16.65 479.05 15.78
  Q 479.07 15.17 479.64 15.42
  Q 480.04 15.60 480.55 16.31
  Q 480.87 16.74 480.35 16.87
  Q 479.20 17.16 479.77 17.90
  Q 480.16 18.41 480.65 17.99
  Q 481.03 17.67 481.50 16.84
  A 0.18 0.18 0.0 0 1 481.77 16.79
  Q 484.29 18.91 484.59 18.61
  Q 484.88 18.32 482.76 15.80
  A 0.18 0.18 0.0 0 1 482.81 15.53
  Q 483.64 15.06 483.96 14.68
  Q 484.38 14.18 483.87 13.80
  Q 483.13 13.23 482.84 14.38
  Q 482.71 14.90 482.28 14.58
  Q 481.57 14.07 481.39 13.67
  Q 481.13 13.10 481.74 13.08
  Q 482.61 13.05 483.78 12.27
  Q 484.25 11.94 484.65 12.35
  C 487.27 15.00 487.29 17.30 488.38 21.89
  Q 488.51 22.41 488.45 22.47
  Z"
/>
<path fill="#d9ae5c" d="
  M 595.19 14.71
  Q 594.71 13.94 593.52 14.06
  A 0.36 0.35 6.6 0 1 593.15 13.60
  Q 593.71 11.99 595.07 12.00
  Q 595.58 12.00 595.92 12.39
  Q 597.66 14.31 596.04 16.74
  A 1.45 1.45 0.0 0 1 593.56 16.60
  Q 593.28 16.08 593.35 15.47
  Q 593.40 14.91 593.95 15.00
  L 594.89 15.16
  Q 595.55 15.27 595.19 14.71
  Z"
/>
<path fill="#d9ae5c" d="
  M 587.13 18.41
  Q 589.53 17.05 592.01 14.98
  A 0.25 0.25 0.0 0 1 592.39 15.28
  Q 592.28 15.50 592.27 16.28
  Q 592.27 16.78 592.59 17.16
  Q 592.98 17.61 593.03 18.06
  A 0.95 0.95 0.0 0 1 592.71 18.89
  C 589.62 21.56 586.65 21.52 583.12 22.56
  Q 582.64 22.70 582.75 22.21
  C 583.83 17.56 583.82 14.94 586.64 12.39
  Q 587.07 12.00 587.54 12.33
  Q 588.33 12.87 589.53 13.07
  Q 590.16 13.17 589.92 13.76
  Q 589.82 14.00 589.26 14.34
  Q 588.82 14.62 588.52 14.19
  Q 588.09 13.56 587.60 13.69
  Q 587.02 13.85 587.13 14.43
  Q 587.25 15.06 588.19 15.12
  Q 588.85 15.15 588.45 15.69
  Q 586.99 17.63 586.85 18.02
  Q 586.58 18.73 587.13 18.41
  Z
  M 590.83 16.86
  Q 590.03 16.71 590.05 17.41
  A 0.53 0.53 0.0 0 0 590.27 17.82
  Q 590.85 18.25 591.47 17.88
  A 0.59 0.54 -43.9 0 0 591.53 16.90
  Q 591.43 16.84 591.18 16.87
  Q 591.00 16.89 590.83 16.86
  Z"
/>
<path fill="#d9ae5c" d="
  M 538.15 64.83
  Q 537.88 64.84 536.77 65.35
  Q 535.87 65.76 535.46 65.84
  C 523.32 68.32 520.31 51.62 530.90 48.65
  C 538.24 46.59 543.84 51.77 543.62 59.05
  Q 543.45 64.64 541.08 70.17
  Q 540.97 70.42 540.70 70.36
  L 536.28 69.30
  A 0.17 0.16 -67.8 0 1 536.18 69.05
  L 538.52 65.35
  Q 538.86 64.81 538.15 64.83
  Z"
/>
<path fill="#d9ae5c" d="
  M 467.41 59.39
  A 0.17 0.17 0.0 0 1 467.70 59.31
  Q 468.00 59.66 467.85 60.35
  Q 467.67 61.14 467.39 60.36
  Q 467.29 60.11 467.41 59.39
  Z"
/>
<path fill="#d9ae5c" d="
  M 531.83 96.00
  C 533.84 107.51 549.83 103.02 547.15 91.58
  C 546.19 87.50 542.95 83.96 539.00 82.31
  Q 538.10 81.93 538.59 81.09
  L 541.00 76.92
  Q 541.47 76.10 542.18 76.71
  Q 550.94 84.25 550.75 95.03
  Q 550.45 111.58 534.56 113.54
  Q 525.68 114.63 519.06 107.88
  A 0.65 0.65 0.0 0 1 519.03 107.01
  C 522.05 103.39 526.00 99.30 528.79 95.52
  Q 532.32 90.73 534.58 87.42
  Q 535.73 85.74 536.75 87.51
  L 537.88 89.46
  Q 539.39 92.09 537.83 94.69
  Q 535.87 97.97 532.48 95.59
  Q 531.66 95.02 531.83 96.00
  Z"
/>
<path fill="#d9ae5c" d="
  M 517.65 104.72
  Q 517.30 105.09 517.08 104.63
  C 514.75 99.78 514.82 93.58 518.01 89.17
  Q 523.02 82.25 532.93 84.71
  A 0.26 0.26 0.0 0 1 533.08 85.10
  Q 526.16 95.89 517.65 104.72
  Z"
/>
<path fill="#d9ae5c" d="
  M 599.59 101.23
  Q 599.29 101.04 599.28 100.91
  Q 599.26 100.78 599.40 100.79
  Q 601.25 100.98 601.08 102.70
  Q 601.04 103.05 600.74 103.24
  Q 600.53 103.37 600.22 103.20
  Q 599.85 103.00 599.84 102.58
  L 599.82 101.65
  Q 599.82 101.38 599.59 101.23
  Z"
/>
<path fill="#d9ae5c" d="
  M 601.46 126.92
  Q 601.40 126.60 601.05 126.27
  Q 600.52 125.76 600.98 125.19
  L 601.41 124.66
  Q 601.92 124.04 602.15 124.80
  Q 602.59 126.22 601.73 127.01
  Q 601.51 127.21 601.46 126.92
  Z"
/>
<path fill="#d9ae5c" d="
  M 586.79 134.06
  Q 586.09 133.79 586.40 134.34
  Q 587.74 136.73 589.79 139.20
  A 0.25 0.25 0.0 0 1 589.49 139.58
  Q 589.27 139.47 588.49 139.45
  Q 588.00 139.45 587.62 139.77
  Q 587.17 140.15 586.72 140.20
  A 0.94 0.94 0.0 0 1 585.90 139.88
  C 583.26 136.80 583.32 133.85 582.30 130.33
  Q 582.16 129.86 582.65 129.97
  C 587.26 131.06 589.87 131.07 592.39 133.88
  Q 592.77 134.31 592.44 134.78
  Q 591.90 135.56 591.70 136.75
  Q 591.59 137.37 591.01 137.13
  Q 590.77 137.03 590.44 136.47
  Q 590.16 136.04 590.59 135.74
  Q 591.22 135.32 591.09 134.83
  Q 590.93 134.25 590.36 134.36
  Q 589.73 134.47 589.67 135.41
  Q 589.63 136.06 589.10 135.66
  Q 587.18 134.20 586.79 134.06
  Z
  M 587.31 137.40
  Q 586.42 137.63 586.71 138.49
  A 0.75 0.75 0.0 0 0 588.00 138.73
  Q 588.14 138.56 588.10 137.96
  A 0.63 0.63 0.0 0 0 587.31 137.40
  Z"
/>
<path fill="#d9ae5c" d="
  M 481.51 139.42
  L 480.92 139.68
  Q 480.10 140.03 480.61 139.30
  L 483.90 134.61
  Q 484.04 134.40 483.90 134.19
  Q 483.82 134.07 483.64 134.06
  Q 483.59 134.05 483.43 134.16
  L 480.92 135.88
  Q 480.34 136.27 480.37 135.57
  L 480.39 134.99
  Q 480.44 133.75 479.52 134.56
  Q 479.29 134.76 479.27 135.17
  Q 479.25 135.49 479.47 135.71
  Q 479.64 135.88 479.80 135.97
  Q 480.07 136.13 479.90 136.40
  Q 479.56 136.92 478.90 137.37
  Q 478.11 137.91 478.30 137.09
  Q 478.33 136.98 478.51 136.67
  A 0.67 0.65 44.2 0 0 478.49 135.97
  Q 476.88 133.60 479.96 132.16
  Q 482.51 130.97 487.64 130.08
  Q 488.19 129.99 488.03 130.52
  C 487.18 133.43 487.09 136.93 484.58 139.76
  C 483.91 140.51 482.87 140.29 482.30 139.61
  Q 481.97 139.22 481.51 139.42
  Z
  M 483.6894 137.8810
  A 0.84 0.60 -25.3 0 0 482.6736 137.6976
  A 0.84 0.60 -25.3 0 0 482.1706 138.5990
  A 0.84 0.60 -25.3 0 0 483.1864 138.7824
  A 0.84 0.60 -25.3 0 0 483.6894 137.8810
  Z"
/>
<path fill="#d9ae5c" d="
  M 475.70 137.76
  Q 476.19 138.53 477.39 138.39
  A 0.36 0.36 0.0 0 1 477.78 138.86
  Q 477.22 140.50 475.85 140.50
  Q 475.33 140.50 474.98 140.11
  Q 473.20 138.17 474.82 135.71
  A 1.47 1.46 -42.3 0 1 477.34 135.82
  Q 477.62 136.35 477.56 136.97
  Q 477.51 137.53 476.95 137.45
  L 476.00 137.30
  Q 475.33 137.19 475.70 137.76
  Z"
/>
<path fill="#d9ae5c" d="
  M 594.46 137.29
  L 593.51 137.44
  Q 592.95 137.53 592.90 136.97
  Q 592.84 136.35 593.12 135.82
  A 1.47 1.46 42.2 0 1 595.63 135.70
  Q 597.26 138.16 595.49 140.10
  Q 595.14 140.49 594.62 140.49
  Q 593.25 140.49 592.69 138.86
  A 0.36 0.36 0.0 0 1 593.07 138.39
  Q 594.27 138.52 594.76 137.75
  Q 595.13 137.18 594.46 137.29
  Z"
/>
<path fill="#d9ae5c" d="
  M 480.26 142.30
  Q 480.82 142.68 480.73 142.01
  L 480.61 141.05
  Q 480.53 140.49 481.09 140.45
  Q 481.72 140.41 482.24 140.70
  A 1.47 1.47 0.0 0 1 482.29 143.22
  Q 479.78 144.79 477.89 142.96
  Q 477.51 142.60 477.52 142.08
  Q 477.56 140.71 479.21 140.19
  A 0.36 0.36 0.0 0 1 479.67 140.58
  Q 479.50 141.78 480.26 142.30
  Z"
/>
<path fill="#d9ae5c" d="
  M 590.10 142.33
  Q 590.86 141.82 590.71 140.61
  A 0.36 0.36 0.0 0 1 591.17 140.22
  Q 592.83 140.75 592.86 142.13
  Q 592.87 142.65 592.48 143.01
  Q 590.57 144.84 588.05 143.25
  A 1.48 1.48 0.0 0 1 588.12 140.72
  Q 588.64 140.43 589.27 140.47
  Q 589.84 140.51 589.76 141.08
  L 589.63 142.04
  Q 589.53 142.72 590.10 142.33
  Z"
/>
<path fill="#d9ae5c" d="
  M 513.79 147.85
  A 1.23 1.23 0.0 0 0 514.70 149.74
  Q 517.65 150.04 518.15 147.56
  Q 518.26 146.96 518.86 146.99
  L 520.38 147.05
  Q 520.77 147.07 520.48 147.33
  C 519.11 148.56 517.97 150.02 516.55 150.25
  Q 514.36 150.60 513.16 150.06
  A 1.88 1.86 -68.9 0 1 512.17 147.79
  Q 512.64 146.29 513.97 146.59
  A 0.39 0.39 0.0 0 1 514.22 147.18
  L 513.79 147.85
  Z"
/>
<path fill="#d9ae5c" d="
  M 556.54 148.16
  Q 555.96 147.35 556.37 146.74
  A 0.64 0.63 34.6 0 1 557.26 146.58
  C 559.00 147.78 558.39 149.91 556.21 150.30
  Q 555.53 150.42 555.73 149.76
  Q 555.89 149.23 556.40 148.91
  A 0.53 0.52 56.3 0 0 556.54 148.16
  Z"
/>
<path fill="#d9ae5c" d="
  M 535.13 146.79
  Q 537.58 146.79 545.50 146.82
  Q 549.26 146.84 551.17 149.89
  Q 551.45 150.33 550.94 150.25
  Q 545.89 149.41 535.13 149.42
  Q 524.37 149.42 519.33 150.26
  Q 518.82 150.35 519.10 149.91
  Q 521.01 146.85 524.76 146.83
  Q 532.69 146.79 535.13 146.79
  Z"
/>
<path fill="#d9ae5c" d="
  M 551.94 147.35
  C 552.54 148.99 553.35 149.71 554.70 150.04
  Q 556.56 150.49 554.65 150.34
  Q 554.07 150.30 552.86 150.06
  Q 552.38 149.96 552.03 149.62
  L 549.90 147.49
  Q 549.30 146.89 550.15 146.88
  L 551.22 146.85
  A 0.75 0.75 0.0 0 1 551.94 147.35
  Z"
/>
<path fill="#d9ae5c" d="
  M 554.48 147.63
  Q 554.91 147.96 555.26 148.18
  Q 556.13 148.75 555.10 148.87
  Q 554.55 148.94 553.87 148.44
  Q 553.20 147.93 553.11 147.37
  Q 552.95 146.35 553.73 147.03
  Q 554.05 147.30 554.48 147.63
  Z"
/>
<ellipse fill="#d9ae5c" cx="0.00" cy="0.00" transform="translate(515.92,148.10) rotate(-40.1)" rx="1.04" ry="0.69"/>
<path fill="#d9ae5c" d="
  M 535.18 150.94
  Q 542.49 150.95 549.80 151.21
  Q 549.85 151.21 554.65 151.83
  Q 557.32 152.18 560.20 151.37
  A 1.27 1.25 -37.8 0 1 561.13 151.48
  Q 561.86 151.88 561.64 152.66
  A 0.44 0.43 7.1 0 1 561.24 152.96
  Q 559.49 153.04 535.18 153.03
  Q 510.88 153.03 509.13 152.96
  A 0.44 0.43 -7.1 0 1 508.73 152.65
  Q 508.51 151.87 509.24 151.47
  A 1.27 1.25 37.8 0 1 510.17 151.37
  Q 513.05 152.18 515.72 151.83
  Q 520.52 151.21 520.57 151.21
  Q 527.88 150.94 535.18 150.94
  Z"
/>
<path fill="#d9ae5c" d="
  M 606.47 551.14
  Q 611.28 554.12 611.13 560.90
  Q 611.11 561.60 611.81 561.61
  Q 666.95 562.49 718.79 585.02
  A 0.46 0.45 19.0 0 0 719.42 584.72
  L 782.88 338.38
  A 0.58 0.58 0.0 0 0 782.45 337.68
  L 768.85 334.57
  Q 768.52 334.50 768.60 334.18
  L 771.68 321.44
  Q 771.77 321.06 772.16 321.10
  L 798.65 323.51
  A 0.50 0.49 10.1 0 1 799.08 324.12
  L 729.92 600.30
  A 0.33 0.33 0.0 0 1 729.45 600.52
  C 692.39 582.41 652.46 569.75 611.34 565.32
  Q 611.12 565.30 611.12 565.52
  L 611.12 574.29
  Q 611.12 574.60 611.43 574.64
  Q 626.27 576.60 636.59 578.90
  Q 690.08 590.81 738.05 617.67
  A 0.50 0.50 0.0 0 0 738.77 617.36
  L 804.18 363.41
  A 0.60 0.60 0.0 0 0 803.73 362.67
  L 792.72 360.16
  A 0.24 0.24 0.0 0 1 792.55 359.87
  L 795.84 346.74
  A 0.81 0.80 -79.8 0 1 796.71 346.13
  L 819.41 348.76
  Q 820.19 348.85 820.00 349.62
  L 747.88 637.63
  A 0.46 0.46 0.0 0 1 747.15 637.88
  Q 711.57 610.78 669.56 594.13
  Q 641.10 582.85 612.12 575.79
  A 0.80 0.79 6.9 0 0 611.13 576.56
  Q 611.14 590.89 611.09 592.45
  Q 610.93 597.33 607.38 600.01
  Q 605.35 601.53 600.28 602.65
  Q 592.94 604.26 585.65 605.77
  Q 529.20 617.43 471.02 605.98
  Q 470.15 605.80 454.59 602.47
  Q 449.02 601.27 447.06 599.37
  Q 443.83 596.24 444.02 591.04
  Q 444.07 589.53 444.11 578.63
  A 0.33 0.32 -7.6 0 0 443.70 578.32
  C 398.40 590.39 355.34 609.40 318.57 637.86
  A 0.56 0.56 0.0 0 1 317.69 637.56
  L 245.56 349.51
  Q 245.33 348.57 246.29 348.49
  L 269.24 346.37
  A 0.42 0.41 -8.8 0 1 269.68 346.69
  L 273.06 359.80
  A 0.30 0.30 0.0 0 1 272.84 360.17
  L 261.87 362.68
  Q 261.25 362.82 261.41 363.44
  L 326.79 617.20
  A 0.63 0.62 -21.6 0 0 327.70 617.59
  Q 382.41 586.96 443.82 576.00
  Q 444.06 575.96 444.06 575.71
  L 444.06 566.79
  Q 444.06 566.56 443.83 566.59
  C 406.74 571.83 370.13 584.01 336.15 600.50
  A 0.34 0.34 0.0 0 1 335.67 600.28
  L 266.59 324.42
  Q 266.38 323.58 267.24 323.50
  L 293.32 321.10
  A 0.52 0.51 80.0 0 1 293.86 321.49
  L 297.00 334.01
  A 0.49 0.48 -13.3 0 1 296.63 334.60
  L 282.99 337.72
  A 0.42 0.41 -14.2 0 0 282.68 338.23
  L 346.24 584.94
  A 0.26 0.25 70.4 0 0 346.59 585.11
  Q 392.90 564.86 443.45 561.89
  A 0.67 0.66 -3.8 0 0 444.08 561.18
  Q 443.54 554.05 449.43 550.66
  Q 450.01 550.33 449.35 550.32
  Q 401.43 549.51 356.42 566.92
  A 0.54 0.53 72.0 0 1 355.70 566.55
  L 288.92 290.12
  A 0.43 0.43 0.0 0 1 289.30 289.59
  L 319.56 286.80
  Q 320.10 286.75 320.23 287.27
  L 323.31 299.59
  A 0.75 0.74 78.3 0 1 322.71 300.51
  L 305.03 303.37
  A 0.46 0.46 0.0 0 0 304.66 303.93
  L 366.42 550.59
  Q 366.57 551.16 367.15 551.06
  Q 372.14 550.22 378.75 549.08
  Q 419.64 542.03 460.39 547.66
  Q 460.82 547.72 460.82 547.28
  L 460.82 535.46
  A 0.54 0.53 -85.6 0 0 460.37 534.93
  Q 420.04 529.04 380.20 536.32
  Q 379.86 536.38 379.78 536.04
  L 316.24 257.96
  A 0.60 0.60 0.0 0 1 316.75 257.23
  Q 364.34 252.03 411.27 262.09
  A 1.03 1.03 0.0 0 0 412.30 261.70
  Q 415.85 256.95 419.06 254.30
  C 422.12 251.76 426.05 249.75 428.98 246.51
  Q 433.34 241.67 439.25 235.87
  A 1.89 1.88 -27.8 0 0 439.78 234.17
  Q 437.31 221.10 435.64 206.91
  Q 434.44 196.61 434.93 191.27
  C 435.48 185.35 441.36 186.80 445.51 188.30
  C 454.83 191.67 462.84 197.80 470.98 204.48
  A 4.13 4.13 0.0 0 0 476.38 204.34
  Q 482.94 198.36 485.12 196.23
  C 490.00 191.45 494.26 189.13 500.60 192.11
  Q 533.42 207.50 537.85 209.55
  Q 550.92 215.59 565.88 228.78
  Q 590.02 250.05 603.48 279.44
  A 0.33 0.31 -24.6 0 0 603.91 279.59
  C 648.31 258.02 700.21 251.90 749.02 257.25
  Q 749.51 257.31 749.40 257.78
  L 685.85 535.86
  A 0.55 0.54 11.0 0 1 685.22 536.28
  Q 639.70 528.07 594.74 536.74
  Q 594.27 536.83 594.27 537.31
  L 594.27 548.93
  A 0.43 0.43 0.0 0 0 594.78 549.35
  Q 646.83 540.15 698.56 551.27
  Q 698.98 551.36 699.09 550.94
  L 760.88 304.19
  A 0.73 0.73 0.0 0 0 760.29 303.29
  L 742.63 300.51
  A 0.40 0.39 11.6 0 1 742.31 300.03
  L 745.20 287.38
  Q 745.34 286.75 745.98 286.81
  L 776.45 289.59
  Q 776.80 289.62 776.72 289.97
  L 709.88 566.64
  A 0.46 0.45 -72.1 0 1 709.27 566.96
  Q 659.35 547.63 606.57 550.74
  A 0.22 0.22 0.0 0 0 606.47 551.14
  Z
  M 444.21 199.61
  A 0.99 0.98 8.8 0 1 445.50 198.67
  Q 449.15 199.84 452.54 202.02
  Q 460.64 207.23 467.38 212.14
  Q 467.46 212.20 467.53 212.18
  Q 467.66 212.14 467.60 212.09
  Q 457.48 203.75 446.01 197.35
  A 2.11 2.11 0.0 0 0 443.01 198.45
  C 442.22 200.54 442.61 203.12 443.35 205.37
  Q 447.13 216.74 447.43 229.14
  Q 447.45 229.67 447.91 229.94
  Q 448.29 230.16 448.73 230.01
  Q 449.20 229.84 449.39 229.38
  Q 449.82 228.32 449.85 226.51
  C 449.97 220.47 449.43 215.72 447.42 209.89
  C 446.76 207.96 444.25 203.18 444.21 199.61
  Z
  M 511.17 220.51
  Q 530.95 231.65 548.32 244.83
  C 562.46 255.55 572.80 268.06 582.95 282.63
  Q 596.91 302.64 600.58 326.83
  Q 601.61 333.63 604.39 357.79
  Q 605.64 368.61 608.01 376.78
  C 612.91 393.65 623.37 407.49 635.39 420.75
  Q 635.52 420.90 635.66 420.75
  L 635.67 420.75
  Q 635.79 420.63 635.67 420.48
  Q 629.64 413.00 622.02 402.00
  Q 609.01 383.21 606.32 360.32
  C 604.38 343.85 603.28 328.28 599.42 313.82
  C 595.67 299.76 588.45 287.25 579.76 274.90
  Q 571.90 263.74 561.75 254.30
  Q 539.11 233.24 510.89 220.43
  Q 510.86 220.42 510.88 220.40
  Q 510.88 220.39 510.88 220.38
  L 510.89 220.38
  Q 510.96 220.41 511.00 220.42
  Q 511.08 220.46 511.17 220.51
  Z
  M 428.79 275.61
  C 421.27 274.00 420.10 267.36 420.95 260.72
  A 0.85 0.83 22.1 0 0 420.60 259.92
  Q 419.69 259.27 419.11 260.20
  Q 414.17 268.17 413.06 277.24
  A 2.20 2.20 0.0 0 0 414.68 279.64
  Q 416.58 280.15 419.20 279.91
  Q 427.85 279.12 437.25 276.61
  Q 437.40 276.57 437.37 276.42
  L 437.33 276.14
  Q 437.31 276.02 437.19 276.03
  Q 432.61 276.43 428.79 275.61
  Z
  M 594.27 525.04
  L 594.27 531.46
  Q 594.27 532.02 594.81 531.85
  Q 633.49 519.86 673.73 523.28
  A 0.60 0.60 0.0 0 0 674.36 522.82
  L 734.24 272.20
  A 0.48 0.47 12.5 0 0 733.87 271.63
  Q 668.12 258.85 606.20 284.28
  A 0.60 0.59 -22.6 0 0 605.88 285.05
  Q 610.92 297.51 613.94 310.91
  Q 615.23 316.66 617.20 330.63
  Q 620.03 350.72 622.59 367.45
  Q 624.77 381.66 628.54 392.54
  Q 629.65 395.74 632.78 402.39
  C 636.08 409.39 638.44 414.86 639.63 421.54
  A 3.42 3.42 0.0 0 1 636.26 425.56
  L 617.18 425.56
  A 4.04 4.03 83.6 0 0 613.25 430.49
  C 617.81 450.60 620.91 470.63 620.25 490.62
  C 620.11 494.98 620.06 500.10 618.45 503.00
  Q 616.73 506.09 613.04 507.60
  C 599.85 513.00 590.57 512.51 572.75 512.52
  Q 518.37 512.56 464.00 512.54
  Q 456.99 512.54 443.89 509.24
  C 437.76 507.70 433.53 504.84 432.04 499.00
  Q 431.24 495.86 433.09 488.00
  Q 437.05 471.23 442.86 456.59
  C 447.32 445.36 453.25 433.71 461.30 425.30
  C 475.08 410.91 487.81 394.14 496.25 375.78
  Q 503.28 360.48 503.68 343.75
  Q 503.73 341.59 502.56 332.75
  C 502.04 328.77 500.58 325.96 496.69 325.31
  Q 494.49 324.93 490.24 326.87
  Q 482.19 330.54 477.30 332.52
  C 467.31 336.57 456.76 336.77 445.58 336.32
  C 442.97 336.22 438.93 336.94 436.76 338.23
  Q 415.27 351.00 407.66 355.38
  Q 401.01 359.22 393.05 357.78
  Q 382.25 355.84 377.13 354.34
  C 373.31 353.22 364.02 350.29 367.26 344.78
  Q 379.19 324.44 398.03 292.19
  C 401.40 286.42 402.86 282.01 404.78 276.28
  Q 405.32 274.66 407.26 270.36
  A 0.50 0.50 0.0 0 0 406.88 269.66
  Q 369.08 264.18 331.55 271.71
  A 0.29 0.29 0.0 0 0 331.33 272.06
  L 391.24 522.82
  A 0.59 0.59 0.0 0 0 391.86 523.27
  Q 426.65 520.37 460.22 528.83
  A 0.50 0.50 0.0 0 0 460.84 528.35
  L 460.84 525.08
  Q 460.84 524.59 461.33 524.59
  L 593.83 524.59
  Q 594.27 524.59 594.27 525.04
  Z
  M 401.48 299.12
  Q 403.39 295.29 401.17 298.95
  Q 387.13 322.12 374.24 345.16
  A 0.41 0.41 0.0 0 0 374.74 345.75
  Q 374.80 345.72 375.09 345.35
  Q 379.26 339.90 383.33 332.84
  Q 393.08 315.95 401.48 299.12
  Z
  M 433.72 326.35
  Q 433.68 326.36 433.64 326.38
  Q 445.86 325.01 458.78 322.59
  C 466.57 321.13 471.96 318.01 478.80 313.48
  Q 478.94 313.39 478.87 313.24
  L 478.86 313.23
  Q 478.78 313.06 478.61 313.14
  C 467.39 318.37 459.20 321.63 447.79 323.53
  Q 440.51 324.74 433.72 326.35
  Z
  M 457.46 499.20
  C 453.44 494.85 450.17 493.01 451.61 486.06
  Q 452.85 480.07 456.32 471.82
  Q 465.92 448.95 478.25 424.68
  Q 478.31 424.55 478.17 424.43
  Q 478.03 424.31 477.92 424.49
  Q 467.06 441.14 458.45 455.71
  Q 453.70 463.76 451.70 468.95
  Q 448.26 477.87 449.30 489.01
  C 449.75 493.84 453.38 497.24 457.26 499.46
  Q 458.20 500.00 457.46 499.20
  Z
  M 594.63 436.20
  Q 594.63 436.18 594.63 436.15
  Q 594.63 436.14 594.62 436.14
  Q 594.61 436.14 594.60 436.14
  Q 594.58 436.14 594.58 436.16
  C 597.31 454.63 599.58 470.15 600.65 486.04
  C 601.17 493.71 601.70 498.03 599.40 503.82
  Q 598.18 506.90 600.11 504.20
  C 603.31 499.74 603.01 495.95 602.68 489.84
  Q 601.24 463.23 594.96 437.21
  Q 594.80 436.53 594.66 436.29
  Q 594.63 436.24 594.63 436.20
  Z
  M 498.6688 534.4516
  A 2.02 0.14 8.3 0 0 496.6902 534.0215
  A 2.02 0.14 8.3 0 0 494.6712 533.8684
  A 2.02 0.14 8.3 0 0 496.6498 534.2985
  A 2.02 0.14 8.3 0 0 498.6688 534.4516
  Z
  M 530.68 537.83
  Q 548.59 540.00 561.51 542.14
  A 0.03 0.03 0.0 0 0 561.52 542.09
  Q 559.62 541.47 557.49 541.03
  Q 545.04 538.44 530.81 536.71
  Q 516.58 534.99 503.88 534.53
  Q 501.70 534.45 499.71 534.60
  A 0.03 0.03 0.0 0 0 499.71 534.65
  Q 512.76 535.65 530.68 537.83
  Z
  M 575.9710 545.3822
  A 0.97 0.14 16.3 0 0 575.0793 544.9756
  A 0.97 0.14 16.3 0 0 574.1090 544.8378
  A 0.97 0.14 16.3 0 0 575.0007 545.2444
  A 0.97 0.14 16.3 0 0 575.9710 545.3822
  Z
  M 580.2799 546.4157
  A 1.61 0.19 15.7 0 0 578.7814 545.7971
  A 1.61 0.19 15.7 0 0 577.1801 545.5443
  A 1.61 0.19 15.7 0 0 578.6786 546.1629
  A 1.61 0.19 15.7 0 0 580.2799 546.4157
  Z
  M 456.94 580.17
  L 458.80 560.11
  A 0.23 0.23 0.0 0 0 458.59 559.86
  L 458.41 559.85
  A 10.14 1.53 -84.7 0 0 455.95 569.80
  L 455.92 570.12
  A 10.14 1.53 -84.7 0 0 456.51 580.36
  L 456.69 580.37
  A 0.23 0.23 0.0 0 0 456.94 580.17
  Z
  M 597.1419 590.6225
  A 14.70 0.68 92.8 0 0 598.5392 575.9732
  A 14.70 0.68 92.8 0 0 598.5781 561.2575
  A 14.70 0.68 92.8 0 0 597.1808 575.9068
  A 14.70 0.68 92.8 0 0 597.1419 590.6225
  Z
  M 460.53 593.56
  Q 462.94 593.77 475.17 594.59
  Q 503.33 596.49 529.25 597.48
  C 540.79 597.92 554.20 598.02 565.17 592.89
  Q 567.31 591.89 564.95 592.03
  Q 517.36 594.82 465.03 593.10
  Q 463.92 593.07 460.53 593.27
  Q 458.64 593.39 460.53 593.56
  Z"
/>
<path fill="#d9ae5c" d="
  M 959.47 382.80
  Q 950.32 388.51 939.20 390.86
  C 935.47 391.65 929.39 391.90 930.16 386.30
  Q 930.22 385.82 930.25 385.08
  Q 930.27 384.60 929.86 384.39
  C 926.68 382.72 926.98 380.38 928.05 377.29
  Q 929.35 373.57 930.04 371.68
  A 0.44 0.44 0.0 0 0 929.68 371.09
  C 925.42 370.58 925.66 366.72 928.14 364.31
  Q 928.47 363.99 928.53 363.53
  C 929.28 357.40 928.90 350.73 925.47 345.39
  A 1.23 1.23 0.0 0 0 924.06 344.88
  C 921.12 345.80 916.61 345.87 915.92 342.04
  Q 915.69 340.71 916.62 339.12
  Q 917.62 337.44 917.96 334.83
  A 1.51 1.50 9.9 0 0 916.79 333.16
  C 914.58 332.67 911.22 332.53 912.52 329.02
  Q 912.70 328.56 912.26 328.33
  C 911.37 327.88 910.06 327.42 909.33 326.86
  Q 899.45 319.33 905.53 308.28
  Q 906.92 305.76 910.13 303.75
  Q 913.34 301.75 916.21 301.61
  Q 928.81 301.01 931.24 313.19
  C 931.42 314.09 931.26 315.47 931.27 316.46
  Q 931.28 316.95 931.78 317.00
  C 935.50 317.37 934.15 320.46 933.62 322.66
  A 1.51 1.50 -73.8 0 0 934.60 324.44
  Q 937.10 325.28 939.05 325.13
  Q 940.88 324.98 941.98 325.78
  C 945.12 328.08 943.07 332.10 940.95 334.34
  A 1.23 1.23 0.0 0 0 940.79 335.82
  C 944.08 341.25 949.90 344.53 955.75 346.54
  Q 956.18 346.69 956.61 346.54
  C 959.88 345.37 963.45 346.85 962.02 350.90
  A 0.44 0.44 0.0 0 0 962.40 351.48
  Q 964.40 351.69 968.32 352.16
  C 971.57 352.55 973.80 353.31 973.90 356.90
  Q 973.91 357.36 974.35 357.56
  Q 975.03 357.86 975.48 358.01
  C 980.85 359.78 977.96 365.13 975.61 368.13
  Q 968.61 377.10 959.47 382.80
  Z
  M 924.3256 326.0385
  A 12.80 12.45 54.1 0 0 926.9050 308.3697
  A 12.80 12.45 54.1 0 0 909.3144 305.3015
  A 12.80 12.45 54.1 0 0 906.7350 322.9703
  A 12.80 12.45 54.1 0 0 924.3256 326.0385
  Z
  M 932.89 325.78
  A 1.79 1.78 -76.9 0 1 931.74 323.91
  L 932.15 320.20
  A 1.37 1.36 29.6 0 0 931.88 319.25
  L 931.62 318.89
  Q 931.14 318.25 930.85 318.99
  Q 926.32 330.49 914.36 329.00
  Q 913.03 328.83 913.23 330.15
  L 913.31 330.64
  Q 913.49 331.83 914.68 331.96
  L 917.15 332.23
  A 1.90 1.90 0.0 0 1 918.82 334.33
  L 918.52 337.00
  A 1.60 1.60 0.0 0 0 920.20 338.77
  C 925.23 338.49 934.34 332.93 935.98 329.23
  Q 937.04 326.86 934.69 326.30
  Q 933.53 326.01 932.89 325.78
  Z
  M 916.99 340.54
  L 916.89 341.60
  A 2.45 2.45 0.0 0 0 918.78 344.20
  C 925.29 345.72 934.46 339.45 938.93 335.11
  Q 940.86 333.24 941.61 330.14
  A 2.40 2.39 25.1 0 0 940.70 327.64
  L 939.76 326.95
  Q 938.56 326.07 938.23 327.51
  Q 937.80 329.38 936.53 330.68
  C 933.57 333.71 923.70 341.23 918.95 339.33
  Q 917.16 338.61 916.99 340.54
  Z
  M 932.71 341.06
  Q 929.76 342.89 926.57 344.14
  A 0.50 0.50 0.0 0 0 926.33 344.87
  C 930.06 350.71 930.31 358.46 929.15 365.13
  A 1.26 1.25 -83.7 0 0 930.33 366.60
  C 935.15 366.82 941.15 363.76 945.22 361.25
  C 949.28 358.73 954.69 354.72 956.64 350.31
  A 1.26 1.25 20.2 0 0 955.85 348.59
  C 949.36 346.66 942.54 342.98 938.97 337.04
  A 0.50 0.50 0.0 0 0 938.20 336.93
  Q 935.67 339.23 932.71 341.06
  Z
  M 958.74 349.18
  Q 957.84 351.46 956.71 352.75
  Q 947.20 363.62 933.21 367.27
  Q 929.98 368.12 928.58 366.45
  Q 927.61 365.27 927.48 366.79
  L 927.38 367.90
  Q 927.26 369.23 928.48 369.78
  Q 930.01 370.47 931.74 370.22
  Q 945.56 368.29 955.98 357.78
  C 957.86 355.89 961.34 351.65 960.00 348.72
  Q 959.67 348.02 959.02 348.03
  Q 958.75 348.04 958.68 348.28
  Q 958.60 348.50 958.72 348.74
  A 0.54 0.54 0.0 0 1 958.74 349.18
  Z
  M 947.96 365.28
  Q 940.17 370.08 931.63 371.29
  Q 931.10 371.36 930.92 371.86
  Q 929.22 376.55 928.60 378.39
  C 927.18 382.61 930.85 384.45 934.49 383.89
  Q 946.21 382.10 954.99 376.69
  Q 963.77 371.27 970.64 361.60
  C 972.77 358.61 972.78 354.50 968.37 353.87
  Q 966.44 353.60 961.49 353.01
  Q 960.96 352.95 960.66 353.39
  Q 955.74 360.48 947.96 365.28
  Z
  M 939.68 383.85
  Q 935.50 384.90 932.97 384.91
  Q 930.41 384.92 931.00 387.42
  L 931.08 387.76
  Q 931.69 390.29 934.29 390.33
  Q 937.72 390.37 941.59 389.40
  Q 961.45 384.39 973.86 368.70
  Q 975.05 367.18 976.26 364.48
  Q 977.25 362.26 975.67 360.43
  L 975.48 360.22
  Q 973.94 358.41 972.65 360.42
  Q 961.05 378.45 939.68 383.85
  Z"
/>
<path fill="#d9ae5c" d="
  M 1028.12 351.24
  C 1035.54 354.82 1039.92 361.93 1039.51 369.81
  Q 1038.97 380.44 1028.50 386.52
  Q 1028.03 386.78 1028.28 387.26
  C 1030.71 392.01 1026.23 392.82 1022.96 393.89
  A 2.09 2.09 0.0 0 0 1021.58 396.37
  Q 1021.85 397.45 1022.38 399.41
  Q 1022.68 400.53 1023.83 402.09
  C 1026.59 405.82 1025.78 410.21 1021.02 411.56
  Q 1017.61 412.53 1014.20 411.74
  A 1.45 1.44 -70.2 0 0 1012.59 412.50
  C 1008.45 420.77 1008.91 430.16 1010.83 439.04
  Q 1010.93 439.53 1011.32 439.85
  Q 1012.81 441.05 1013.20 441.55
  C 1015.93 445.12 1014.36 449.04 1010.09 449.98
  A 0.44 0.44 0.0 0 0 1009.78 450.58
  Q 1009.99 451.10 1013.25 458.04
  C 1015.44 462.71 1016.17 466.04 1011.59 469.00
  Q 1011.17 469.27 1011.36 469.74
  C 1014.01 476.30 1009.19 479.79 1003.00 479.58
  Q 990.71 479.15 979.50 475.25
  Q 977.57 474.58 970.30 471.07
  Q 963.03 467.56 961.31 466.47
  Q 951.28 460.13 943.29 450.77
  C 939.28 446.06 939.01 440.11 945.79 438.11
  Q 946.28 437.96 946.23 437.47
  C 945.69 432.04 948.75 430.54 953.77 429.34
  Q 961.23 427.58 961.77 427.42
  A 0.44 0.44 0.0 0 0 962.05 426.80
  C 960.13 422.87 962.22 419.21 966.71 419.12
  Q 967.35 419.12 969.21 419.53
  Q 969.71 419.64 970.15 419.41
  C 978.30 415.39 985.93 409.91 989.83 401.52
  A 1.45 1.44 -58.3 0 0 989.42 399.79
  Q 986.68 397.61 985.32 394.34
  C 983.41 389.77 986.34 386.40 990.98 386.24
  Q 992.92 386.17 993.98 385.71
  Q 995.85 384.90 996.86 384.44
  A 2.09 2.09 0.0 0 0 997.94 381.82
  C 996.74 378.59 994.59 374.58 999.82 373.53
  Q 1000.35 373.43 1000.26 372.90
  Q 998.51 360.92 1006.49 353.88
  C 1012.41 348.66 1020.69 347.65 1028.12 351.24
  Z
  M 1011.1514 385.0896
  A 18.33 17.53 114.8 0 0 1034.7533 375.8030
  A 18.33 17.53 114.8 0 0 1026.5286 351.8104
  A 18.33 17.53 114.8 0 0 1002.9267 361.0970
  A 18.33 17.53 114.8 0 0 1011.1514 385.0896
  Z
  M 1019.62 398.91
  C 1017.43 393.74 1018.54 392.48 1024.28 390.96
  Q 1025.43 390.66 1025.70 389.49
  L 1025.93 388.49
  Q 1026.12 387.66 1025.28 387.83
  Q 1008.30 391.24 1001.17 375.89
  Q 1000.37 374.17 998.83 375.23
  Q 998.71 375.32 998.70 375.32
  Q 997.12 376.41 997.86 378.15
  Q 999.15 381.19 999.24 381.98
  C 999.59 385.39 997.12 385.80 994.41 386.87
  A 2.05 2.04 65.2 0 0 993.36 389.74
  C 996.74 396.03 1008.89 400.93 1014.67 402.06
  Q 1018.30 402.77 1019.61 399.84
  Q 1019.82 399.38 1019.62 398.91
  Z
  M 1015.79 403.75
  C 1009.76 402.46 991.70 395.79 991.96 388.22
  Q 991.99 387.29 991.06 387.38
  C 983.89 388.01 985.59 394.42 989.14 397.89
  Q 995.45 404.04 1004.16 407.51
  C 1009.23 409.53 1015.58 411.98 1020.65 408.82
  Q 1022.40 407.74 1022.40 405.69
  L 1022.40 404.27
  Q 1022.40 402.33 1020.72 403.30
  Q 1018.81 404.40 1015.79 403.75
  Z
  M 991.40 401.59
  A 0.13 0.13 0.0 0 0 991.21 401.64
  C 986.21 411.77 978.01 417.08 968.15 421.98
  A 1.12 1.12 0.0 0 0 967.70 423.59
  Q 970.14 427.34 973.76 430.18
  Q 986.87 440.47 1001.42 443.09
  Q 1004.09 443.57 1007.51 442.81
  A 1.36 1.35 76.9 0 0 1008.53 441.16
  Q 1007.86 438.39 1006.89 431.74
  Q 1005.29 420.82 1009.59 411.39
  Q 1009.82 410.89 1009.29 410.72
  Q 999.39 407.61 991.40 401.59
  Z
  M 965.79 420.54
  L 964.40 421.07
  A 2.48 2.44 6.2 0 0 963.21 422.01
  C 960.91 425.46 966.95 431.40 969.39 433.60
  C 978.50 441.80 991.52 448.46 1004.02 448.55
  Q 1007.71 448.57 1009.79 447.48
  Q 1011.04 446.83 1011.35 445.45
  L 1011.66 444.14
  Q 1011.85 443.30 1011.14 443.80
  Q 1008.64 445.56 1004.52 444.97
  Q 986.97 442.47 972.92 431.18
  C 970.63 429.34 965.19 424.78 966.70 421.51
  Q 967.44 419.91 965.79 420.54
  Z
  M 961.45 428.91
  C 958.57 429.50 950.51 430.76 948.66 432.87
  C 942.07 440.36 966.14 456.74 970.97 459.55
  Q 981.62 465.77 996.36 467.86
  C 1000.58 468.46 1007.25 469.19 1010.38 466.20
  Q 1013.36 463.36 1011.19 458.87
  C 1009.84 456.06 1008.73 453.44 1007.35 450.83
  Q 1007.12 450.39 1006.62 450.36
  Q 983.91 449.02 967.43 433.52
  C 965.96 432.13 964.30 429.79 963.33 428.76
  Q 962.99 428.41 962.62 428.48
  C 962.26 428.54 961.91 428.82 961.45 428.91
  Z
  M 994.46 468.97
  C 976.87 466.06 963.14 457.94 951.26 445.45
  Q 948.51 442.56 947.03 439.69
  Q 946.77 439.20 946.23 439.35
  C 941.37 440.75 940.35 444.84 943.36 448.65
  C 956.14 464.85 977.06 476.23 997.85 477.69
  Q 1002.30 478.00 1005.65 477.04
  Q 1008.21 476.31 1008.83 473.71
  L 1009.15 472.37
  Q 1009.74 469.92 1007.23 470.13
  Q 1003.40 470.44 994.46 468.97
  Z"
/>
<path fill="#d9ae5c" d="
  M 877.67 371.09
  C 891.24 371.09 903.80 380.18 906.08 394.25
  Q 907.91 405.56 900.06 416.12
  Q 899.74 416.55 900.20 416.81
  C 903.84 418.90 904.13 422.67 901.20 425.58
  C 899.13 427.63 894.52 429.74 898.21 433.51
  Q 900.08 435.41 901.60 437.27
  Q 901.91 437.65 902.37 437.82
  Q 908.08 439.86 909.22 444.19
  C 911.08 451.24 902.74 455.59 896.96 457.00
  A 1.22 1.22 0.0 0 0 896.03 458.16
  C 895.78 471.67 902.39 484.07 910.73 494.06
  Q 911.03 494.43 911.51 494.47
  Q 914.67 494.77 916.10 495.90
  Q 923.38 501.65 916.13 508.24
  A 0.92 0.45 40.3 0 0 916.56 509.24
  Q 916.88 509.49 928.07 518.16
  Q 934.75 523.33 930.08 531.24
  Q 929.81 531.70 930.16 532.10
  C 931.15 533.24 932.93 534.85 933.57 536.43
  Q 936.14 542.75 930.59 546.87
  Q 926.26 550.09 919.79 552.38
  Q 899.09 559.70 877.69 559.70
  Q 856.29 559.71 835.58 552.39
  Q 829.12 550.10 824.78 546.88
  Q 819.23 542.76 821.80 536.44
  C 822.44 534.86 824.22 533.25 825.21 532.11
  Q 825.56 531.71 825.29 531.25
  Q 820.62 523.34 827.30 518.17
  Q 838.49 509.50 838.81 509.25
  A 0.92 0.45 -40.3 0 0 839.24 508.25
  Q 831.98 501.66 839.26 495.91
  Q 840.69 494.78 843.85 494.48
  Q 844.33 494.44 844.63 494.07
  C 852.97 484.08 859.58 471.67 859.32 458.16
  A 1.22 1.22 0.0 0 0 858.39 457.00
  C 852.61 455.60 844.27 451.25 846.13 444.20
  Q 847.27 439.87 852.98 437.83
  Q 853.44 437.66 853.75 437.28
  Q 855.27 435.42 857.14 433.51
  C 860.83 429.74 856.22 427.64 854.15 425.59
  C 851.22 422.68 851.50 418.91 855.14 416.82
  Q 855.60 416.56 855.28 416.13
  Q 847.43 405.57 849.26 394.26
  C 851.54 380.19 864.09 371.09 877.67 371.09
  Z
  M 851.00 397.54
  C 850.61 411.60 860.51 422.37 874.49 424.74
  C 888.08 427.05 900.25 414.15 901.64 401.27
  Q 903.13 387.55 892.26 378.49
  Q 882.41 370.28 869.83 374.10
  C 859.16 377.33 851.31 386.15 851.00 397.54
  Z
  M 855.35 424.19
  C 860.82 428.48 862.39 431.03 857.18 436.09
  Q 855.67 437.56 855.49 438.49
  C 853.99 446.40 879.98 445.85 883.96 445.51
  C 887.95 445.16 895.36 444.78 897.04 440.33
  C 898.11 437.48 895.12 435.30 893.22 433.25
  C 890.32 430.11 894.49 426.89 897.17 424.76
  A 3.99 3.98 68.3 0 0 898.67 421.26
  L 898.59 420.42
  Q 898.38 418.14 896.62 419.60
  C 885.02 429.25 869.38 429.07 858.24 419.03
  Q 856.16 417.16 854.77 419.58
  L 854.54 419.97
  Q 853.12 422.43 855.35 424.19
  Z
  M 863.49 446.21
  C 860.74 445.69 853.93 443.62 853.86 440.08
  A 0.52 0.51 -10.8 0 0 853.16 439.61
  Q 848.81 441.27 847.99 444.53
  C 846.49 450.42 853.71 453.73 858.31 455.06
  Q 869.62 458.34 882.07 457.53
  C 887.35 457.18 891.93 456.66 896.63 454.92
  Q 901.93 452.96 904.40 448.71
  A 4.85 4.83 48.2 0 0 904.64 444.30
  L 903.57 441.89
  Q 902.48 439.43 900.96 441.65
  Q 899.12 444.33 895.46 445.30
  Q 880.05 449.39 863.49 446.21
  Z
  M 850.02 503.04
  C 864.92 507.97 881.01 508.57 896.51 505.54
  C 900.05 504.85 906.08 503.14 908.58 500.17
  A 2.15 2.15 0.0 0 0 908.61 497.43
  C 899.32 485.97 891.49 473.83 891.38 458.73
  A 0.39 0.38 -4.0 0 0 890.94 458.36
  Q 876.04 460.62 861.62 457.95
  A 0.37 0.36 3.9 0 0 861.19 458.32
  C 861.80 473.25 853.65 486.36 844.32 497.44
  A 1.98 1.97 -51.9 0 0 844.66 500.32
  Q 847.03 502.05 850.02 503.04
  Z
  M 841.90 498.62
  L 842.24 497.19
  Q 842.42 496.47 841.73 496.75
  C 837.73 498.40 835.93 502.63 839.72 505.87
  Q 842.42 508.20 847.40 510.04
  Q 871.29 518.87 896.79 513.44
  C 901.79 512.38 907.46 510.16 911.83 507.35
  Q 916.29 504.47 914.77 499.70
  Q 914.21 497.95 913.41 499.61
  Q 911.91 502.68 907.85 504.15
  C 891.22 510.17 871.57 510.89 854.93 506.60
  C 851.16 505.62 843.18 503.52 841.93 499.54
  Q 841.79 499.09 841.90 498.62
  Z
  M 913.05 510.32
  Q 912.82 510.13 912.55 510.25
  Q 882.30 522.84 851.08 513.38
  Q 846.35 511.95 842.23 509.88
  Q 841.37 509.45 840.63 510.05
  Q 829.98 518.64 828.71 519.73
  C 821.14 526.23 828.04 532.81 834.48 535.35
  C 849.83 541.40 867.03 545.34 883.49 544.17
  Q 900.23 542.99 916.42 536.67
  C 922.23 534.41 929.90 529.48 926.97 522.92
  Q 925.86 520.43 921.41 516.96
  Q 917.52 513.93 913.05 510.32
  Z
  M 827.94 533.75
  Q 826.95 533.09 826.09 533.91
  C 816.78 542.82 829.79 548.31 836.34 550.63
  C 863.95 560.43 895.09 560.90 921.93 548.89
  C 928.03 546.16 933.18 540.55 927.51 534.41
  Q 927.15 534.02 926.69 534.29
  Q 921.50 537.44 913.69 539.91
  Q 898.75 544.62 884.52 545.92
  C 870.31 547.21 854.08 543.98 839.58 539.22
  Q 832.86 537.01 827.94 533.75
  Z"
/>
<path fill="#d9ae5c" d="
  M 198.86 401.84
  Q 202.73 403.37 204.74 405.82
  Q 213.51 416.57 204.32 426.68
  C 203.64 427.43 202.32 428.19 201.45 428.85
  Q 201.02 429.18 201.30 429.65
  C 203.41 433.18 199.80 434.01 197.51 434.98
  A 1.66 1.65 -20.3 0 0 196.57 437.01
  Q 197.46 439.77 198.87 441.39
  Q 200.20 442.92 200.21 444.41
  C 200.23 448.69 195.33 449.51 191.97 449.10
  A 1.35 1.35 0.0 0 0 190.55 449.93
  C 187.90 456.39 188.81 463.68 190.85 470.17
  Q 191.00 470.65 191.42 470.93
  C 194.59 473.05 195.61 477.18 191.10 478.57
  A 0.48 0.48 0.0 0 0 190.83 479.28
  Q 191.96 481.19 194.10 484.96
  C 195.88 488.09 196.67 490.56 193.56 493.00
  Q 193.16 493.31 193.27 493.82
  Q 193.45 494.62 193.61 495.12
  C 195.56 501.03 188.93 501.97 184.74 501.86
  Q 172.24 501.52 161.21 497.17
  Q 150.18 492.81 140.83 484.51
  C 137.69 481.73 133.49 476.52 138.96 473.53
  Q 139.42 473.28 140.09 472.82
  Q 140.52 472.52 140.44 472.02
  C 139.84 468.11 142.10 466.85 145.54 465.78
  Q 149.68 464.49 151.81 463.87
  A 0.48 0.48 0.0 0 0 152.10 463.17
  C 149.76 459.07 153.32 456.75 157.09 457.37
  Q 157.58 457.45 158.02 457.20
  C 163.94 453.86 169.59 449.16 172.07 442.63
  A 1.35 1.35 0.0 0 0 171.60 441.05
  C 168.87 439.06 165.85 435.11 168.79 432.00
  Q 169.81 430.92 171.83 430.71
  Q 173.97 430.49 176.50 429.08
  A 1.66 1.65 63.4 0 0 177.20 426.96
  C 176.19 424.69 174.13 421.61 178.08 420.48
  Q 178.60 420.33 178.52 419.79
  C 178.33 418.72 177.89 417.26 177.90 416.25
  Q 178.10 402.59 191.85 400.73
  Q 195.00 400.31 198.86 401.84
  Z
  M 187.9040 428.8482
  A 14.07 13.82 109.8 0 0 205.6730 420.2914
  A 14.07 13.82 109.8 0 0 197.4360 402.3718
  A 14.07 13.82 109.8 0 0 179.6670 410.9286
  A 14.07 13.82 109.8 0 0 187.9040 428.8482
  Z
  M 194.32 436.44
  A 1.98 1.97 -23.2 0 1 195.23 434.18
  L 198.81 432.12
  A 1.51 1.50 83.2 0 0 199.49 431.25
  L 199.64 430.78
  Q 199.89 429.94 199.04 430.16
  Q 185.80 433.67 179.27 422.01
  Q 178.55 420.71 177.50 421.76
  L 177.11 422.15
  Q 176.17 423.09 176.83 424.24
  L 178.21 426.62
  A 2.10 2.10 0.0 0 1 177.44 429.49
  L 174.86 430.98
  A 1.77 1.77 0.0 0 0 174.38 433.64
  C 177.93 437.95 188.88 442.43 193.27 441.47
  Q 196.08 440.86 195.04 438.39
  Q 194.53 437.16 194.32 436.44
  Z
  M 170.77 431.92
  L 169.76 432.53
  A 2.72 2.72 0.0 0 0 168.68 435.93
  C 171.61 442.72 183.22 446.78 190.03 447.91
  Q 192.96 448.40 196.21 447.03
  A 2.66 2.65 78.7 0 0 197.84 444.58
  L 197.84 443.28
  Q 197.84 441.64 196.33 442.29
  Q 194.39 443.13 192.39 442.86
  C 187.75 442.21 174.56 438.36 173.14 432.88
  Q 172.60 430.81 170.77 431.92
  Z
  M 156.34 459.23
  A 0.59 0.58 -28.5 0 0 156.10 460.02
  Q 157.34 462.31 159.49 463.89
  Q 171.56 472.79 185.19 473.91
  Q 186.99 474.06 188.85 473.23
  A 0.94 0.93 -21.5 0 0 189.36 472.07
  C 186.80 464.55 185.46 457.05 188.17 449.14
  A 0.51 0.50 16.5 0 0 187.81 448.48
  Q 179.80 446.65 173.59 442.54
  A 0.40 0.39 -64.5 0 0 173.00 442.75
  C 170.63 450.14 163.33 455.44 156.34 459.23
  Z
  M 190.58 474.55
  Q 187.96 475.24 186.06 475.08
  Q 170.12 473.73 157.68 463.65
  Q 154.80 461.32 155.38 458.98
  Q 155.79 457.34 154.35 458.22
  L 153.29 458.86
  Q 152.03 459.63 152.34 461.08
  Q 152.73 462.89 154.08 464.27
  Q 164.88 475.33 181.10 477.73
  C 184.02 478.17 190.09 478.49 191.82 475.37
  Q 192.23 474.62 191.79 474.04
  Q 191.61 473.81 191.34 473.90
  Q 191.10 473.98 190.96 474.24
  A 0.60 0.60 0.0 0 1 190.58 474.55
  Z
  M 152.36 464.59
  C 147.96 465.95 144.71 466.88 143.80 467.30
  C 138.39 469.84 142.76 475.09 145.52 477.50
  C 156.79 487.31 169.24 492.92 184.48 493.24
  C 189.32 493.35 196.18 492.02 192.40 485.20
  Q 190.34 481.48 189.17 479.60
  Q 188.90 479.16 188.38 479.16
  Q 167.65 479.16 153.14 464.78
  Q 152.81 464.45 152.36 464.59
  Z
  M 147.30 480.21
  Q 143.61 477.18 141.93 474.93
  Q 140.24 472.66 138.41 474.83
  L 138.16 475.12
  Q 136.30 477.33 137.98 479.67
  Q 140.20 482.75 143.61 485.56
  Q 161.13 499.95 183.26 500.67
  Q 185.40 500.74 188.60 500.04
  Q 191.22 499.46 191.81 496.85
  L 191.88 496.54
  Q 192.47 493.98 189.84 494.15
  Q 166.16 495.68 147.30 480.21
  Z"
/>
<path fill="#d9ae5c" d="
  M 224.38 482.23
  Q 218.87 486.77 212.72 483.62
  Q 208.85 481.65 207.98 477.81
  Q 205.99 469.01 214.35 465.74
  C 218.58 464.08 223.45 465.98 225.97 469.70
  Q 229.32 474.66 225.69 480.90
  Q 225.42 481.36 225.79 481.75
  Q 226.19 482.16 226.41 482.62
  Q 226.63 483.10 226.37 483.55
  Q 225.62 484.86 224.53 485.69
  Q 223.96 486.12 224.34 486.72
  Q 225.42 488.47 227.30 489.38
  Q 227.76 489.60 228.04 490.03
  C 230.14 493.25 226.46 494.65 224.25 495.84
  Q 223.81 496.07 223.84 496.57
  Q 224.35 503.23 229.10 508.55
  Q 229.42 508.91 229.90 509.01
  Q 232.48 509.53 232.16 512.01
  Q 232.10 512.50 231.75 512.85
  L 231.24 513.37
  Q 230.77 513.84 231.31 514.23
  Q 232.37 515.01 235.16 517.35
  Q 237.31 519.16 236.09 521.59
  Q 235.87 522.04 236.21 522.40
  C 240.65 527.04 232.23 529.59 228.37 530.54
  Q 217.82 533.14 207.36 530.68
  Q 202.56 529.55 199.27 527.52
  Q 198.10 526.80 198.22 525.80
  Q 198.31 524.99 198.59 525.75
  Q 199.21 527.35 202.45 528.53
  Q 218.21 534.22 232.99 528.22
  Q 235.22 527.32 235.89 524.98
  A 1.36 1.36 0.0 0 0 234.02 523.36
  Q 216.79 531.16 199.88 522.67
  A 0.67 0.66 -77.3 0 0 198.92 523.28
  Q 198.94 523.77 198.60 524.45
  Q 198.41 524.84 198.33 524.41
  Q 198.18 523.62 198.94 522.45
  A 0.98 0.95 52.0 0 0 199.03 521.59
  C 197.68 518.05 200.90 516.61 203.59 514.35
  Q 204.07 513.95 203.70 513.44
  Q 202.58 511.88 203.18 510.49
  Q 203.31 510.18 205.21 508.94
  Q 206.80 507.90 207.90 506.19
  Q 210.57 502.02 211.25 497.32
  Q 211.46 495.85 210.06 495.37
  C 207.66 494.55 204.27 491.54 207.90 489.39
  C 209.19 488.62 209.85 487.90 210.72 486.90
  Q 211.05 486.51 210.78 486.08
  C 210.14 485.08 207.85 483.88 208.89 482.16
  Q 209.38 481.35 209.38 482.30
  L 209.38 483.19
  Q 209.38 483.64 209.70 483.95
  L 211.31 485.57
  A 1.15 1.15 0.0 0 1 211.31 487.20
  L 210.18 488.33
  A 1.31 1.31 0.0 0 0 210.71 490.50
  Q 217.09 492.58 223.33 490.78
  A 1.54 1.54 0.0 0 0 223.99 488.21
  L 222.86 487.08
  Q 222.39 486.61 222.73 486.03
  Q 223.44 484.84 224.65 483.85
  Q 224.92 483.63 224.92 483.28
  L 224.92 482.49
  A 0.33 0.33 0.0 0 0 224.38 482.23
  Z
  M 216.8140 484.1538
  A 9.17 8.89 92.1 0 0 226.0340 475.3158
  A 9.17 8.89 92.1 0 0 217.4860 465.8262
  A 9.17 8.89 92.1 0 0 208.2660 474.6642
  A 9.17 8.89 92.1 0 0 216.8140 484.1538
  Z
  M 217.10 495.88
  C 219.97 495.93 224.80 495.52 226.89 493.05
  Q 227.66 492.14 227.06 491.10
  L 226.91 490.84
  Q 226.13 489.48 225.00 490.57
  C 223.28 492.25 219.26 492.23 217.16 492.20
  C 215.06 492.16 211.04 492.04 209.37 490.30
  Q 208.29 489.17 207.46 490.50
  L 207.30 490.76
  Q 206.67 491.78 207.41 492.71
  C 209.41 495.25 214.22 495.83 217.10 495.88
  Z
  M 217.10 513.33
  C 220.43 513.34 225.32 513.17 228.11 511.08
  A 0.97 0.97 0.0 0 0 228.25 509.65
  Q 222.93 503.78 222.36 496.46
  Q 222.32 495.93 221.79 496.03
  Q 219.45 496.47 217.18 496.46
  Q 214.91 496.45 212.58 495.98
  Q 212.05 495.88 212.01 496.41
  Q 211.36 503.72 205.98 509.54
  A 0.97 0.97 0.0 0 0 206.10 510.97
  C 208.87 513.09 213.76 513.31 217.10 513.33
  Z
  M 205.23 510.58
  Q 205.19 510.20 205.09 510.11
  A 0.93 0.86 -71.2 0 0 203.63 510.91
  Q 203.74 513.05 205.19 513.68
  Q 216.17 518.46 227.41 514.64
  Q 228.20 514.37 229.02 513.78
  Q 230.16 512.97 230.38 512.51
  Q 231.81 509.53 229.32 511.67
  Q 228.62 512.27 226.67 512.80
  C 221.77 514.12 210.22 515.09 205.72 511.46
  A 1.36 1.35 -74.4 0 1 205.23 510.58
  Z
  M 217.12 526.49
  Q 222.31 526.53 228.87 524.60
  C 231.99 523.69 237.88 521.08 233.81 517.69
  Q 232.69 516.75 230.13 514.71
  A 0.83 0.81 -36.7 0 0 229.29 514.60
  Q 223.81 516.92 217.18 516.88
  Q 210.55 516.84 205.10 514.45
  A 0.83 0.81 37.4 0 0 204.26 514.56
  Q 201.67 516.57 200.54 517.49
  C 196.43 520.84 202.29 523.51 205.40 524.46
  Q 211.94 526.46 217.12 526.49
  Z"
/>
<path fill="#ffffff" d="
  M 204.43 756.41
  Q 197.26 756.41 190.96 756.36
  Q 188.23 756.33 190.75 755.27
  Q 190.89 755.21 191.71 755.21
  C 195.10 755.25 197.11 751.52 197.11 748.50
  Q 197.13 725.50 197.11 692.82
  Q 197.11 692.26 196.56 692.25
  Q 190.22 692.15 184.16 692.32
  C 179.17 692.45 175.20 695.25 174.57 700.22
  Q 174.31 702.24 174.15 703.20
  Q 174.13 703.34 173.98 703.35
  L 173.67 703.35
  Q 173.30 703.35 173.30 702.99
  L 173.29 686.97
  Q 173.29 686.48 173.77 686.61
  Q 179.53 688.16 185.66 688.16
  Q 192.22 688.15 204.42 688.15
  Q 216.62 688.15 223.19 688.15
  Q 229.31 688.15 235.07 686.60
  Q 235.55 686.47 235.55 686.97
  L 235.54 702.98
  Q 235.54 703.34 235.17 703.34
  L 234.86 703.34
  Q 234.71 703.34 234.69 703.20
  Q 234.53 702.24 234.27 700.22
  C 233.65 695.25 229.68 692.44 224.69 692.31
  Q 218.62 692.14 212.28 692.25
  Q 211.73 692.26 211.73 692.82
  Q 211.73 725.50 211.75 748.49
  C 211.75 751.51 213.76 755.25 217.15 755.21
  Q 217.97 755.21 218.11 755.27
  Q 220.63 756.33 217.90 756.35
  Q 211.60 756.41 204.43 756.41
  Z"
/>
<path fill="#ffffff" d="
  M 687.99 688.15
  Q 700.19 688.14 706.75 688.15
  Q 712.87 688.15 718.63 686.60
  Q 719.11 686.47 719.11 686.96
  L 719.11 702.97
  Q 719.11 703.33 718.74 703.33
  L 718.43 703.33
  Q 718.28 703.33 718.26 703.19
  Q 718.10 702.23 717.84 700.21
  C 717.21 695.24 713.24 692.44 708.25 692.31
  Q 702.19 692.14 695.85 692.25
  Q 695.30 692.26 695.30 692.82
  Q 695.30 725.50 695.33 748.49
  C 695.33 751.51 697.34 755.24 700.73 755.20
  Q 701.55 755.20 701.69 755.26
  Q 704.21 756.32 701.48 756.35
  Q 695.18 756.40 688.01 756.41
  Q 680.84 756.41 674.55 756.36
  Q 671.81 756.33 674.33 755.27
  Q 674.47 755.21 675.29 755.21
  C 678.68 755.25 680.69 751.52 680.69 748.50
  Q 680.70 725.51 680.68 692.83
  Q 680.68 692.27 680.13 692.26
  Q 673.79 692.15 667.73 692.33
  C 662.74 692.46 658.77 695.26 658.14 700.23
  Q 657.88 702.25 657.72 703.21
  Q 657.70 703.35 657.55 703.35
  L 657.24 703.35
  Q 656.87 703.35 656.87 702.99
  L 656.86 686.98
  Q 656.86 686.49 657.34 686.62
  Q 663.10 688.17 669.22 688.16
  Q 675.79 688.15 687.99 688.15
  Z"
/>
<path fill="#ffffff" d="
  M 756.82 752.04
  Q 765.91 752.49 770.42 752.15
  C 779.73 751.46 785.28 745.30 788.03 736.76
  A 0.32 0.32 0.0 0 1 788.36 736.54
  L 788.70 736.57
  A 0.36 0.36 0.0 0 1 789.02 737.01
  L 784.72 755.81
  A 0.79 0.77 -83.4 0 1 783.97 756.42
  L 734.68 756.42
  A 0.41 0.41 0.0 0 1 734.27 756.01
  L 734.27 755.73
  A 0.25 0.25 0.0 0 1 734.51 755.48
  C 740.41 755.39 741.65 751.79 741.65 746.42
  Q 741.67 701.83 741.75 696.00
  C 741.81 691.44 738.66 689.65 734.58 689.11
  Q 734.12 689.05 734.22 688.60
  Q 734.26 688.44 734.36 688.34
  Q 734.46 688.25 734.66 688.25
  Q 766.16 688.28 771.25 688.27
  Q 776.82 688.26 782.67 686.74
  Q 783.15 686.61 783.15 687.11
  L 783.15 703.44
  A 0.16 0.16 0.0 0 1 782.95 703.60
  L 782.55 703.51
  Q 782.21 703.43 782.20 703.08
  C 782.18 693.33 775.77 692.27 767.39 692.39
  Q 761.96 692.46 756.59 692.47
  A 0.31 0.30 -0.0 0 0 756.28 692.77
  L 756.28 720.46
  A 0.30 0.29 1.0 0 0 756.57 720.75
  Q 764.46 720.93 769.71 720.65
  C 772.62 720.50 776.78 717.90 777.03 714.26
  Q 777.11 713.18 777.22 712.88
  Q 778.39 709.66 778.39 713.02
  L 778.37 733.63
  A 0.21 0.20 -7.2 0 1 778.21 733.83
  L 777.94 733.89
  A 0.48 0.48 0.0 0 1 777.35 733.45
  C 776.97 725.86 772.11 724.88 765.34 724.87
  Q 760.99 724.86 756.71 724.86
  A 0.43 0.42 -0.0 0 0 756.28 725.28
  L 756.28 751.48
  Q 756.28 752.01 756.82 752.04
  Z"
/>
<path fill="#ffffff" d="
  M 366.28 751.48
  Q 366.27 752.01 366.81 752.04
  Q 375.91 752.49 380.42 752.15
  C 389.73 751.46 395.28 745.30 398.03 736.76
  A 0.32 0.32 0.0 0 1 398.36 736.54
  L 398.70 736.57
  A 0.36 0.36 0.0 0 1 399.02 737.01
  L 394.72 755.81
  A 0.79 0.77 -83.4 0 1 393.97 756.42
  L 344.67 756.41
  A 0.41 0.41 0.0 0 1 344.26 756.00
  L 344.26 755.72
  A 0.25 0.25 0.0 0 1 344.50 755.47
  C 350.40 755.38 351.64 751.78 351.64 746.41
  Q 351.68 701.82 351.76 695.99
  C 351.82 691.43 348.67 689.64 344.59 689.09
  Q 344.13 689.03 344.23 688.58
  Q 344.27 688.42 344.37 688.32
  Q 344.47 688.23 344.67 688.23
  Q 376.17 688.27 381.26 688.26
  Q 386.83 688.26 392.68 686.74
  Q 393.16 686.61 393.16 687.11
  L 393.16 703.44
  A 0.16 0.16 0.0 0 1 392.96 703.60
  L 392.56 703.51
  Q 392.22 703.43 392.21 703.08
  C 392.19 693.33 385.78 692.27 377.40 692.38
  Q 371.97 692.45 366.60 692.46
  A 0.31 0.30 0.0 0 0 366.29 692.76
  L 366.28 720.45
  A 0.30 0.29 1.0 0 0 366.57 720.74
  Q 374.46 720.93 379.71 720.65
  C 382.62 720.50 386.79 717.90 387.04 714.26
  Q 387.12 713.18 387.23 712.88
  Q 388.40 709.66 388.40 713.02
  L 388.37 733.63
  A 0.21 0.20 -7.2 0 1 388.21 733.83
  L 387.94 733.89
  A 0.48 0.48 0.0 0 1 387.35 733.45
  C 386.97 725.86 382.11 724.88 375.34 724.87
  Q 370.99 724.85 366.71 724.85
  A 0.43 0.42 0.0 0 0 366.28 725.27
  L 366.28 751.48
  Z"
/>
<path fill="#ffffff" d="
  M 463.32 702.40
  Q 464.29 705.64 467.77 707.97
  Q 469.63 709.21 488.53 721.63
  Q 498.89 728.43 496.68 741.02
  C 493.44 759.43 468.52 760.29 455.24 754.68
  Q 453.53 753.96 451.24 752.02
  Q 450.85 751.69 450.76 751.18
  Q 449.36 742.77 453.04 736.08
  Q 454.00 734.33 454.04 736.33
  C 454.31 750.05 466.39 756.31 478.62 752.48
  C 480.95 751.75 483.95 749.47 484.97 746.83
  Q 487.85 739.38 480.64 734.48
  Q 476.18 731.45 460.71 721.11
  C 452.88 715.87 449.75 707.45 453.11 698.46
  C 457.13 687.71 468.44 686.15 478.41 687.20
  Q 485.50 687.95 491.33 687.90
  A 0.37 0.36 2.8 0 1 491.70 688.30
  L 490.47 701.71
  A 0.48 0.47 17.9 0 1 489.76 702.07
  L 489.43 701.88
  A 0.15 0.14 -76.8 0 1 489.35 701.75
  C 488.86 691.56 477.07 689.47 469.33 692.20
  C 465.50 693.53 462.04 698.10 463.32 702.40
  Z"
/>
<path fill="#ffffff" d="
  M 607.43 702.40
  Q 608.40 705.64 611.88 707.97
  Q 613.74 709.21 632.65 721.63
  Q 643.01 728.43 640.80 741.02
  C 637.56 759.43 612.64 760.30 599.36 754.69
  Q 597.65 753.97 595.36 752.03
  Q 594.97 751.70 594.88 751.19
  Q 593.47 742.78 597.15 736.08
  Q 598.11 734.33 598.15 736.33
  C 598.43 750.06 610.51 756.32 622.74 752.48
  C 625.07 751.75 628.07 749.47 629.09 746.83
  Q 631.97 739.38 624.76 734.48
  Q 620.30 731.45 604.82 721.11
  C 596.99 715.87 593.86 707.45 597.22 698.46
  C 601.24 687.71 612.55 686.14 622.52 687.19
  Q 629.61 687.94 635.44 687.89
  A 0.37 0.36 2.8 0 1 635.81 688.29
  L 634.59 701.70
  A 0.48 0.47 17.9 0 1 633.88 702.06
  L 633.55 701.87
  A 0.15 0.14 -76.8 0 1 633.47 701.74
  C 632.97 691.55 621.18 689.46 613.44 692.19
  C 609.61 693.53 606.15 698.10 607.43 702.40
  Z"
/>
<path fill="#ffffff" d="
  M 867.46 717.46
  Q 867.31 716.01 866.57 717.27
  Q 852.60 741.17 847.88 749.63
  Q 845.84 753.28 845.36 757.29
  Q 845.07 759.66 843.85 757.61
  L 819.88 717.34
  Q 819.25 716.28 819.12 717.51
  Q 818.29 725.41 815.58 750.51
  C 815.15 754.46 817.00 754.81 820.25 755.67
  Q 820.62 755.77 820.50 756.13
  Q 820.44 756.32 820.26 756.38
  Q 820.18 756.42 820.08 756.42
  L 801.02 756.42
  Q 800.65 756.42 800.65 756.05
  L 800.65 755.69
  Q 800.65 755.43 800.91 755.43
  Q 808.32 755.49 809.24 748.03
  Q 810.55 737.48 816.98 688.07
  Q 817.29 685.71 818.53 687.74
  L 847.73 735.80
  A 0.54 0.54 0.0 0 0 848.66 735.79
  Q 871.78 696.07 876.94 687.45
  Q 877.15 687.09 877.43 686.95
  A 0.50 0.50 0.0 0 1 878.15 687.33
  Q 885.64 743.75 886.31 748.71
  Q 887.22 755.41 894.49 755.36
  Q 894.86 755.35 894.86 755.73
  L 894.86 756.03
  A 0.38 0.38 0.0 0 1 894.48 756.41
  L 866.37 756.41
  Q 866.17 756.41 866.17 756.22
  L 866.17 755.88
  Q 866.17 755.56 866.49 755.55
  C 869.92 755.46 871.30 753.55 870.93 750.08
  Q 868.46 727.20 867.46 717.46
  Z"
/>
<path fill="#ffffff" d="
  M 288.47 720.28
  Q 301.11 720.28 303.62 720.24
  Q 304.17 720.24 304.17 719.69
  Q 304.34 702.01 304.17 695.74
  Q 304.01 689.60 297.09 689.16
  A 0.25 0.25 0.0 0 1 296.89 688.78
  L 297.08 688.44
  A 0.31 0.30 -74.0 0 1 297.34 688.29
  L 325.94 688.29
  Q 326.07 688.29 326.13 688.40
  L 326.27 688.65
  A 0.39 0.39 0.0 0 1 325.94 689.24
  Q 321.73 689.32 319.85 692.15
  Q 318.92 693.56 318.87 697.98
  Q 318.85 699.27 318.85 722.37
  Q 318.85 745.46 318.87 746.76
  Q 318.92 751.18 319.85 752.59
  Q 321.74 755.42 325.95 755.50
  A 0.39 0.39 0.0 0 1 326.28 756.09
  L 326.14 756.34
  Q 326.08 756.45 325.95 756.45
  L 297.35 756.45
  A 0.31 0.30 74.0 0 1 297.09 756.30
  L 296.90 755.96
  A 0.25 0.25 0.0 0 1 297.10 755.58
  Q 304.02 755.14 304.17 749.00
  Q 304.34 742.73 304.17 725.05
  Q 304.17 724.50 303.62 724.50
  Q 301.11 724.46 288.47 724.46
  Q 275.83 724.47 273.32 724.50
  Q 272.77 724.50 272.77 725.05
  Q 272.60 742.73 272.77 749.00
  Q 272.93 755.14 279.85 755.58
  A 0.25 0.25 0.0 0 1 280.05 755.96
  L 279.86 756.30
  A 0.31 0.30 -74.0 0 1 279.60 756.45
  L 251.00 756.45
  Q 250.87 756.45 250.81 756.34
  L 250.67 756.09
  A 0.39 0.39 0.0 0 1 251.00 755.50
  Q 255.21 755.42 257.09 752.59
  Q 258.02 751.18 258.07 746.76
  Q 258.09 745.47 258.09 722.37
  Q 258.09 699.28 258.07 697.98
  Q 258.02 693.56 257.09 692.15
  Q 255.21 689.32 251.00 689.24
  A 0.39 0.39 0.0 0 1 250.67 688.65
  L 250.81 688.40
  Q 250.87 688.29 251.00 688.29
  L 279.60 688.29
  A 0.31 0.30 74.0 0 1 279.86 688.44
  L 280.05 688.78
  A 0.25 0.25 0.0 0 1 279.85 689.16
  Q 272.93 689.60 272.77 695.74
  Q 272.60 702.01 272.77 719.69
  Q 272.77 720.24 273.32 720.24
  Q 275.83 720.28 288.47 720.28
  Z"
/>
<path fill="#ffffff" d="
  M 549.66 720.01
  A 0.34 0.33 45.5 0 0 550.24 720.02
  Q 561.49 700.48 563.66 696.66
  Q 565.80 692.90 563.42 690.40
  C 562.55 689.48 561.31 689.36 560.14 688.99
  Q 559.64 688.83 560.00 688.45
  Q 560.22 688.22 560.75 688.23
  Q 567.38 688.33 582.48 688.21
  Q 582.75 688.21 582.81 688.47
  L 582.89 688.79
  A 0.30 0.30 0.0 0 1 582.61 689.16
  Q 575.19 689.45 571.26 695.77
  Q 564.38 706.79 553.15 724.63
  A 3.29 3.27 -29.2 0 0 552.65 726.37
  Q 552.65 739.38 552.67 746.80
  C 552.68 751.96 553.96 755.28 559.49 755.37
  Q 559.76 755.37 559.82 755.63
  L 559.89 755.93
  A 0.39 0.39 0.0 0 1 559.51 756.41
  L 530.66 756.41
  A 0.05 0.05 0.0 0 1 530.61 756.36
  L 530.58 756.04
  Q 530.53 755.55 531.01 755.51
  Q 537.98 754.88 538.02 748.98
  Q 538.09 738.84 538.03 726.51
  A 4.29 4.24 -61.2 0 0 537.39 724.26
  Q 528.83 710.28 520.23 696.01
  Q 516.26 689.42 508.75 689.15
  A 0.38 0.37 19.5 0 1 508.46 688.55
  L 508.65 688.30
  Q 508.69 688.25 508.75 688.25
  L 540.12 688.25
  Q 540.60 688.25 540.71 688.72
  L 540.79 689.05
  A 0.11 0.11 0.0 0 1 540.69 689.19
  Q 538.35 689.27 537.58 689.84
  Q 534.38 692.23 536.12 695.42
  Q 543.31 708.61 549.66 720.01
  Z"
/>
<path fill="#d9ae5c" d="
  M 373.72 868.73
  Q 374.91 868.03 373.53 868.03
  L 192.72 868.03
  A 0.76 0.76 0.0 0 0 191.99 868.59
  C 189.83 876.76 178.14 876.19 176.45 867.88
  C 174.40 857.86 188.94 853.96 192.11 864.30
  A 0.41 0.39 -7.5 0 0 192.50 864.59
  L 379.22 864.59
  A 5.88 5.86 29.7 0 0 382.18 863.79
  Q 391.01 858.60 435.54 832.53
  Q 437.04 831.64 440.30 831.65
  Q 486.65 831.79 513.23 831.70
  Q 514.57 831.70 513.42 831.02
  Q 510.66 829.42 473.26 807.48
  C 471.74 806.59 469.90 806.70 468.06 806.70
  Q 389.64 806.67 306.43 806.67
  Q 305.90 806.67 305.59 807.10
  Q 305.19 807.65 304.96 808.39
  C 303.85 811.84 299.54 813.47 296.51 813.00
  C 286.78 811.49 287.94 796.57 297.95 796.83
  Q 303.39 796.97 305.49 802.68
  Q 305.67 803.16 306.18 803.16
  Q 448.38 803.19 470.25 803.15
  Q 472.54 803.15 474.17 804.10
  Q 533.02 838.45 539.49 842.28
  Q 540.57 842.92 543.00 842.89
  Q 566.51 842.63 623.86 842.77
  Q 625.48 842.77 624.08 841.95
  L 576.65 814.15
  Q 576.24 813.91 575.85 814.19
  Q 570.00 818.45 565.20 814.76
  C 558.85 809.89 562.70 799.60 570.78 800.21
  C 576.07 800.62 578.51 805.19 577.96 810.41
  Q 577.89 811.10 578.49 811.45
  L 631.77 842.21
  Q 632.66 842.72 633.32 842.72
  L 713.41 842.72
  A 1.24 1.19 21.6 0 0 714.27 842.37
  L 757.91 798.73
  Q 758.51 798.13 758.10 797.39
  C 755.38 792.50 758.64 786.36 764.03 785.52
  C 772.28 784.23 776.70 795.15 769.89 800.14
  Q 766.15 802.89 761.19 800.75
  Q 760.80 800.58 760.51 800.88
  L 746.89 814.50
  A 0.43 0.43 0.0 0 0 747.19 815.24
  L 907.28 815.24
  A 0.60 0.59 9.7 0 0 907.84 814.85
  C 910.49 807.66 920.10 806.39 923.11 813.86
  C 927.32 824.28 911.42 830.17 907.88 819.18
  A 0.67 0.66 80.9 0 0 907.25 818.72
  L 744.07 818.72
  A 2.23 2.19 -66.9 0 0 742.52 819.36
  L 699.47 862.42
  A 1.85 1.83 -67.0 0 1 698.18 862.95
  L 569.29 862.95
  A 3.72 3.65 -29.6 0 1 567.45 862.46
  L 520.97 835.62
  A 3.44 3.43 -30.1 0 0 519.27 835.17
  Q 507.99 835.18 440.25 835.21
  Q 437.85 835.21 436.65 835.91
  Q 377.90 870.27 333.04 896.60
  Q 331.66 897.40 333.26 897.40
  Q 370.56 897.34 413.27 897.40
  C 416.05 897.41 417.59 897.34 420.05 895.90
  Q 435.57 886.79 474.92 863.85
  A 0.63 0.61 70.8 0 0 475.22 863.21
  C 474.35 857.67 477.76 852.54 483.57 852.96
  C 492.93 853.64 493.68 866.82 484.91 868.95
  Q 480.77 869.96 477.52 867.00
  A 0.57 0.55 50.7 0 0 476.88 866.93
  L 418.47 900.66
  A 1.84 1.74 -58.4 0 1 417.58 900.90
  L 120.99 900.90
  Q 120.41 900.90 120.20 901.43
  C 118.64 905.39 116.03 907.48 111.50 907.06
  C 104.34 906.40 102.06 897.46 107.31 892.91
  C 111.46 889.31 117.37 890.93 119.74 895.79
  Q 120.21 896.75 120.42 897.08
  Q 120.63 897.41 121.02 897.41
  L 323.33 897.41
  A 5.42 5.33 29.4 0 0 326.04 896.68
  L 373.72 868.73
  Z
  M 710.44 846.70
  A 0.30 0.30 0.0 0 0 710.23 846.19
  L 547.13 846.19
  A 0.30 0.30 0.0 0 0 546.98 846.75
  L 568.75 859.32
  A 0.30 0.30 0.0 0 0 568.90 859.36
  L 697.66 859.36
  A 0.30 0.30 0.0 0 0 697.87 859.27
  L 710.44 846.70
  Z"
/>
</svg>
