<?xml version="1.0" encoding="UTF-8" standalone="no"?>
<!DOCTYPE svg PUBLIC "-//W3C//DTD SVG 1.1//EN" "http://www.w3.org/Graphics/SVG/1.1/DTD/svg11.dtd">
<svg width="100%" height="100%" viewBox="0 0 1067 1064" version="1.1" xmlns="http://www.w3.org/2000/svg" xmlns:xlink="http://www.w3.org/1999/xlink" xml:space="preserve" xmlns:serif="http://www.serif.com/" style="fill-rule:evenodd;clip-rule:evenodd;stroke-linejoin:round;stroke-miterlimit:2;">
    <g transform="matrix(1,0,0,1,-1,0)">
        <g transform="matrix(1.85715,0,0,1.85715,-406.638,-230.067)">
            <path d="M419.41,196.4C419.315,196.37 419.215,196.355 419.115,196.355C418.572,196.355 418.125,196.802 418.125,197.345C418.125,197.377 418.127,197.408 418.13,197.44C418.54,201.72 422.24,208.4 423.07,213.88C423.67,217.847 423.873,221.903 423.68,226.05C423.647,226.77 423.32,227.31 422.7,227.67L422.35,227.88C422.262,227.932 422.162,227.959 422.06,227.959C421.751,227.959 421.496,227.709 421.49,227.4C421.397,218.947 420.06,210.907 417.48,203.28C416.62,200.73 416.27,198.46 417.04,196.14C417.285,195.395 417.985,194.889 418.769,194.889C419.035,194.889 419.299,194.947 419.54,195.06C427.76,198.92 435.59,205.04 442.88,210.69C442.92,210.723 442.933,210.773 442.92,210.84C442.907,210.913 442.847,210.91 442.74,210.83C437.72,207.237 433.11,203.99 428.91,201.09C425.943,199.037 422.777,197.473 419.41,196.4Z" style="fill:rgb(98,223,230);fill-rule:nonzero;"/>
        </g>
        <g transform="matrix(1.85715,0,0,1.85715,-406.638,-230.067)">
            <path d="M707.95,269.34C657.997,259.827 610.33,266.39 564.95,289.03C564.949,289.031 564.947,289.031 564.946,289.032C564.659,289.181 564.541,289.532 564.684,289.81C564.686,289.813 564.688,289.817 564.69,289.82C571.023,301.613 575.02,314.26 576.68,327.76C578.89,345.72 579.58,355.37 582.14,368.19C585.99,387.52 597.98,403.27 609.65,418.31C609.71,418.383 609.703,418.453 609.63,418.52C609.557,418.593 609.483,418.59 609.41,418.51C596.82,404.57 586,390.13 581.25,371.8C579.91,366.627 578.793,360.007 577.9,351.94C576.6,340.227 575.57,331.617 574.81,326.11C573.117,313.883 569.29,302.02 563.33,290.52C563.15,290.18 562.89,290.097 562.55,290.27C553.743,294.81 544.96,300.073 536.2,306.06C536.153,306.093 536.09,306.1 536.01,306.08C535.95,306.06 535.91,306.07 535.89,306.11L535.89,306.113C535.89,306.124 535.899,306.133 535.91,306.133C535.913,306.133 535.917,306.132 535.92,306.13C543.62,298.95 551.823,292.613 560.53,287.12C560.823,286.931 560.912,286.54 560.73,286.25C549.85,269.01 537.47,253.88 521.29,241.83C509.26,232.86 500.46,227.33 487.55,219.63C487.443,219.563 487.417,219.487 487.47,219.4C487.51,219.34 487.62,219.357 487.8,219.45C497.48,224.397 504.917,228.547 510.11,231.9C517.87,236.92 525.99,243.24 534.47,250.86C545.83,261.07 554.63,272.72 562.03,285.38C562.031,285.382 562.033,285.385 562.034,285.387C562.193,285.657 562.549,285.746 562.823,285.584C562.826,285.583 562.828,285.581 562.83,285.58C583.237,273.353 605.487,264.687 629.58,259.58C660.507,253.033 691.677,251.507 723.09,255C723.281,255.016 723.429,255.177 723.429,255.369C723.429,255.396 723.426,255.423 723.42,255.45L659.89,533.49C659.81,533.834 659.471,534.057 659.13,533.99C618.22,526.62 575.16,529.33 536.04,543.62C536.013,543.633 535.99,543.633 535.97,543.62L535.75,543.49C535.603,543.403 535.607,543.323 535.76,543.25C570.673,525.27 607.907,517.843 647.46,520.97C647.98,521.01 648.3,520.777 648.42,520.27L708.25,269.81C708.251,269.806 708.252,269.802 708.253,269.798C708.299,269.595 708.165,269.389 707.957,269.341C707.954,269.341 707.952,269.34 707.95,269.34Z" style="fill:rgb(98,223,230);fill-rule:nonzero;"/>
        </g>
        <g transform="matrix(1.85715,0,0,1.85715,-406.638,-230.067)">
            <path d="M305.76,269.44C305.433,269.507 305.31,269.7 305.39,270.02L365.22,520.45C365.298,520.787 365.615,521.019 365.96,520.99C404.74,517.8 443.07,525.19 477.53,543.21C477.603,543.25 477.623,543.303 477.59,543.37C477.563,543.423 477.51,543.433 477.43,543.4C437.37,529.54 396.387,526.423 354.48,534.05C354.134,534.113 353.794,533.892 353.71,533.55L290.24,255.76C290.173,255.46 290.29,255.27 290.59,255.19C291.563,254.943 292.627,254.763 293.78,254.65C324.34,251.603 354.593,253.287 384.54,259.7C419.01,267.08 451.35,282.04 477.58,305.92C477.627,305.967 477.623,306.027 477.57,306.1L477.56,306.1C477.507,306.18 477.447,306.193 477.38,306.14C427.05,271.17 365.93,257.29 305.76,269.44Z" style="fill:rgb(98,223,230);fill-rule:nonzero;"/>
        </g>
        <g transform="matrix(1.85715,0,0,1.85715,-406.638,-230.067)">
            <path d="M279.04,301.13C278.821,301.163 278.658,301.353 278.658,301.575C278.658,301.61 278.662,301.646 278.67,301.68L340.48,548.51C340.559,548.811 340.86,549.002 341.16,548.94C371.427,542.593 401.3,541.263 430.78,544.95C439.973,546.097 450.59,548.427 462.63,551.94C462.737,551.973 462.777,552.043 462.75,552.15L462.68,552.43C462.673,552.45 462.66,552.46 462.64,552.46C418.23,543.7 372.43,548.3 330.32,564.7C330,564.827 329.797,564.72 329.71,564.38L262.93,287.92C262.921,287.883 262.917,287.846 262.917,287.808C262.917,287.562 263.105,287.354 263.35,287.33L293.48,284.57C293.947,284.53 294.237,284.737 294.35,285.19L297.32,297.48C297.333,297.532 297.339,297.585 297.339,297.638C297.339,297.962 297.1,298.24 296.78,298.29L279.04,301.13Z" style="fill:rgb(98,223,230);fill-rule:nonzero;"/>
        </g>
        <g transform="matrix(1.85715,0,0,1.85715,-406.638,-230.067)">
            <path d="M734.57,301.07L716.82,298.23C716.5,298.18 716.261,297.902 716.261,297.578C716.261,297.525 716.267,297.472 716.28,297.42L719.25,285.13C719.363,284.677 719.653,284.47 720.12,284.51L750.26,287.27C750.505,287.294 750.693,287.502 750.693,287.748C750.693,287.786 750.689,287.823 750.68,287.86L683.89,564.37C683.803,564.71 683.6,564.817 683.28,564.69C641.16,548.29 595.35,543.69 550.93,552.45C550.91,552.45 550.897,552.44 550.89,552.42L550.82,552.14C550.793,552.033 550.833,551.963 550.94,551.93C562.987,548.417 573.607,546.087 582.8,544.94C612.287,541.253 642.167,542.583 672.44,548.93C672.74,548.992 673.041,548.801 673.12,548.5L734.94,301.62C734.948,301.586 734.952,301.55 734.952,301.515C734.952,301.293 734.789,301.103 734.57,301.07Z" style="fill:rgb(98,223,230);fill-rule:nonzero;"/>
        </g>
        <g transform="matrix(1.85715,0,0,1.85715,-406.638,-230.067)">
            <path d="M375.6,296.55C368.6,310.703 361.733,323.357 355,334.51C353.06,337.723 351.727,339.797 351,340.73C347.567,345.117 347.2,344.867 349.9,339.98C357.233,326.747 365.72,312.227 375.36,296.42C376.433,294.66 376.513,294.703 375.6,296.55Z" style="fill:rgb(98,223,230);fill-rule:nonzero;"/>
        </g>
        <g transform="matrix(1.85715,0,0,1.85715,-406.638,-230.067)">
            <path d="M407.88,324.06L407.82,323.8C407.813,323.78 407.823,323.767 407.85,323.76C411.583,323.147 416.307,322.293 422.02,321.2C427.713,320.107 432.353,318.97 435.94,317.79C439.28,316.697 444.47,314.53 451.51,311.29C453.21,310.51 453.307,310.673 451.8,311.78C445.04,316.76 437.613,319.86 429.52,321.08C422.36,322.153 415.203,323.187 408.05,324.18C407.957,324.193 407.9,324.153 407.88,324.06Z" style="fill:rgb(98,223,230);fill-rule:nonzero;"/>
        </g>
        <g transform="matrix(1.85715,0,0,1.85715,-406.638,-230.067)">
            <path d="M432.71,558.83C432.698,558.862 432.691,558.896 432.691,558.931C432.691,559.076 432.805,559.199 432.95,559.21L459.25,561.17C459.517,561.19 459.583,561.317 459.45,561.55L459.26,561.87C459.22,561.943 459.16,561.977 459.08,561.97C450.433,561.723 441.703,561.943 432.89,562.63C432.578,562.657 432.328,562.903 432.3,563.21L431.55,571.38C431.543,571.48 431.563,571.57 431.61,571.65C431.697,571.803 431.76,571.917 431.8,571.99C431.84,572.05 431.853,572.117 431.84,572.19L430.94,577.8C430.893,578.093 430.723,578.207 430.43,578.14C430.343,578.12 430.267,578.07 430.2,577.99C430.14,577.93 430.1,577.837 430.08,577.71C429.893,576.277 429.767,574.853 429.7,573.44C429.694,573.275 429.556,573.142 429.39,573.142C429.367,573.142 429.343,573.145 429.32,573.15C395.973,580.963 364.9,592.45 336.1,607.61C320.073,616.043 305.527,625.437 292.46,635.79C292.436,635.808 292.411,635.824 292.384,635.837C292.158,635.949 291.882,635.859 291.772,635.637C291.758,635.61 291.748,635.58 291.74,635.55L219.55,347.25C219.546,347.235 219.543,347.22 219.541,347.204C219.475,346.82 219.733,346.451 220.111,346.387C220.127,346.384 220.144,346.382 220.16,346.38L242.89,343.98C243.273,343.939 243.633,344.192 243.73,344.57L247.06,357.48C247.068,357.509 247.071,357.539 247.071,357.569C247.071,357.731 246.958,357.874 246.8,357.91L235.75,360.43C235.525,360.483 235.365,360.685 235.365,360.917C235.365,360.958 235.37,361 235.38,361.04L300.84,615.08C300.894,615.292 301.086,615.441 301.305,615.441C301.387,615.441 301.468,615.42 301.54,615.38C340.84,593.39 384.42,578.04 429.21,572.15C429.36,572.132 429.477,572.01 429.49,571.86L430.29,563.17C430.303,562.99 430.22,562.91 430.04,562.93C388.54,567.01 347.92,579.78 310.47,598.14C310.45,598.15 310.429,598.159 310.408,598.167C310.089,598.284 309.728,598.114 309.609,597.79C309.601,597.77 309.595,597.75 309.59,597.73L240.62,322.31C240.615,322.292 240.612,322.274 240.608,322.256C240.538,321.856 240.813,321.469 241.219,321.397C241.236,321.394 241.253,321.392 241.27,321.39L267.08,318.67C267.44,318.63 267.777,318.868 267.86,319.22L271.02,331.84C271.028,331.873 271.033,331.906 271.033,331.94C271.033,332.126 270.902,332.289 270.72,332.33L256.86,335.5C256.732,335.528 256.639,335.642 256.639,335.774C256.639,335.799 256.643,335.825 256.65,335.85L320.23,582.62C320.232,582.627 320.234,582.634 320.237,582.641C320.291,582.797 320.46,582.881 320.61,582.828C320.617,582.826 320.623,582.823 320.63,582.82C351.237,569.433 383.19,561.727 416.49,559.7C420.93,559.43 426.62,559.49 431.54,559.26C431.88,559.24 432.09,559.067 432.17,558.74L432.4,557.77C432.52,557.27 432.637,557.27 432.75,557.77C432.843,558.177 432.83,558.53 432.71,558.83Z" style="fill:rgb(98,223,230);fill-rule:nonzero;"/>
        </g>
        <g transform="matrix(1.85715,0,0,1.85715,-406.638,-230.067)">
            <path d="M692.87,582.79C692.878,582.794 692.886,582.797 692.895,582.8C693.092,582.868 693.311,582.758 693.382,582.556C693.385,582.548 693.388,582.539 693.39,582.53L756.9,336C756.909,335.964 756.914,335.927 756.914,335.889C756.914,335.684 756.77,335.505 756.57,335.46L742.98,332.36C742.673,332.287 742.557,332.1 742.63,331.8L745.63,319.24C745.728,318.836 746.112,318.564 746.52,318.61L772.67,321.51C772.679,321.511 772.689,321.512 772.698,321.514C772.93,321.554 773.087,321.784 773.046,322.021C773.044,322.031 773.042,322.041 773.04,322.05L703.96,597.91C703.956,597.929 703.95,597.948 703.944,597.966C703.855,598.208 703.579,598.333 703.331,598.242C703.314,598.236 703.297,598.228 703.28,598.22C662.78,578.36 618.53,564.93 573.4,562.14C573.383,562.139 573.366,562.138 573.35,562.138C572.977,562.138 572.67,562.445 572.67,562.818L572.67,562.84C572.89,571.027 572.593,579.21 571.78,587.39C571.774,587.459 571.736,587.519 571.68,587.55L571.1,587.89C570.99,587.956 570.864,587.99 570.737,587.99C570.347,587.99 570.027,587.67 570.027,587.28C570.027,587.257 570.028,587.233 570.03,587.21L572.28,562.66C572.282,562.643 572.282,562.627 572.282,562.61C572.282,562.322 572.048,562.084 571.76,562.08L554.55,561.71C554.417,561.71 554.337,561.657 554.31,561.55C554.283,561.463 554.33,561.41 554.45,561.39C569.417,559.443 583.86,558.903 597.78,559.77C630.68,561.803 662.377,569.477 692.87,582.79Z" style="fill:rgb(98,223,230);fill-rule:nonzero;"/>
        </g>
        <g transform="matrix(1.85715,0,0,1.85715,-406.638,-230.067)">
            <path d="M712.72,615.21L778.17,361.13C778.182,361.082 778.189,361.032 778.189,360.983C778.189,360.712 778.003,360.475 777.74,360.41L766.82,357.92C766.662,357.884 766.549,357.741 766.549,357.579C766.549,357.549 766.552,357.519 766.56,357.49L769.83,344.45C769.913,344.098 770.25,343.86 770.61,343.9L793.35,346.42C793.737,346.464 794.033,346.796 794.033,347.185C794.033,347.247 794.025,347.309 794.01,347.37L721.76,635.89C721.74,635.964 721.673,636.017 721.596,636.017C721.557,636.017 721.52,636.004 721.49,635.98C680.76,604.44 632.52,584.19 581.49,572.51C580.89,572.37 580.297,572.14 579.71,571.82C579.697,571.815 579.687,571.806 579.681,571.794C579.666,571.765 579.681,571.726 579.715,571.709C579.726,571.703 579.738,571.7 579.75,571.7C591.203,572.94 601.777,574.653 611.47,576.84C646.95,584.833 680.51,597.703 712.15,615.45C712.162,615.457 712.175,615.463 712.188,615.468C712.392,615.55 712.625,615.454 712.705,615.255C712.711,615.24 712.716,615.225 712.72,615.21Z" style="fill:rgb(98,223,230);fill-rule:nonzero;"/>
        </g>
        <g transform="matrix(1.85715,0,0,1.85715,-406.638,-230.067)">
            <path d="M426.26,481.01C423.95,488.44 425.8,491.7 431.07,496.57C432.463,497.857 432.363,497.987 430.77,496.96C426.76,494.39 423.95,491.8 423.33,486.5C422.51,479.46 423.27,472.923 425.61,466.89C427.37,462.343 430.41,456.543 434.73,449.49C440.643,439.83 446.363,430.76 451.89,422.28C451.95,422.18 452.027,422.16 452.12,422.22L452.13,422.22C452.217,422.28 452.237,422.357 452.19,422.45C444.323,438.157 437.42,452.913 431.48,466.72C429.633,471.013 427.893,475.777 426.26,481.01Z" style="fill:rgb(98,223,230);fill-rule:nonzero;"/>
        </g>
        <g transform="matrix(1.85715,0,0,1.85715,-406.638,-230.067)">
            <path d="M573.23,501.97C575.21,497.5 575.23,492.84 574.8,486.5C574.293,478.907 573.56,471.333 572.6,463.78C572.3,461.433 571.103,452.373 569.01,436.6C568.997,436.513 569.053,436.437 569.18,436.37L569.19,436.36C569.29,436.307 569.36,436.363 569.4,436.53C572.32,449.923 574.167,459.997 574.94,466.75C575.393,470.73 576.047,478.81 576.9,490.99C577.213,495.463 576.203,499.247 573.87,502.34C572.577,504.053 572.363,503.93 573.23,501.97Z" style="fill:rgb(98,223,230);fill-rule:nonzero;"/>
        </g>
        <g transform="matrix(1.85715,0,0,1.85715,-406.638,-230.067)">
            <path d="M504.94,534.42C516.147,535.787 526.437,537.57 535.81,539.77C535.825,539.779 535.834,539.795 535.834,539.813C535.834,539.834 535.82,539.853 535.8,539.86C535.173,539.847 534.34,539.757 533.3,539.59C523.12,537.943 513.62,536.583 504.8,535.51C495.98,534.43 486.433,533.47 476.16,532.63C475.107,532.543 474.277,532.43 473.67,532.29C473.655,532.281 473.646,532.265 473.646,532.247C473.646,532.226 473.66,532.207 473.68,532.2C483.307,532.313 493.727,533.053 504.94,534.42Z" style="fill:rgb(98,223,230);fill-rule:nonzero;"/>
        </g>
        <g transform="matrix(1.80955,0.417768,-0.417768,1.80955,617.487,779.127)">
            <ellipse cx="0" cy="0" rx="4.2" ry="0.23" style="fill:rgb(98,223,230);"/>
        </g>
        <g transform="matrix(1.85715,0,0,1.85715,-406.638,-230.067)">
            <path d="M434.06,571.92C433.68,572.01 433.15,572.28 432.92,572.3C432.333,572.333 432.28,572.19 432.76,571.87C433.167,571.603 433.69,571.483 434.33,571.51C434.683,571.523 434.697,571.63 434.37,571.83C434.35,571.843 434.247,571.873 434.06,571.92Z" style="fill:rgb(98,223,230);fill-rule:nonzero;"/>
        </g>
        <g transform="matrix(1.85715,0,0,1.85715,-406.638,-230.067)">
            <path d="M433.18,591.06C440.693,590.967 448.553,591.02 456.76,591.22C469.58,591.533 485.913,591.513 505.76,591.16C518.127,590.933 529.483,590.37 539.83,589.47C539.864,589.466 539.898,589.469 539.93,589.477C540.09,589.516 540.188,589.684 540.148,589.849C540.14,589.881 540.127,589.912 540.11,589.94C539.977,590.16 539.767,590.337 539.48,590.47C527.16,596.41 511.72,595.71 498,595.08C477.76,594.15 458.99,592.88 440.45,591.86C435.677,591.6 432.16,591.303 429.9,590.97C429.867,590.963 429.813,590.937 429.74,590.89C429.707,590.863 429.673,590.857 429.64,590.87C429.635,590.87 429.63,590.875 429.63,590.88C429.63,590.885 429.635,590.89 429.64,590.89C430.83,590.77 432.14,591.07 433.18,591.06Z" style="fill:rgb(98,223,230);fill-rule:nonzero;"/>
        </g>
    </g>
</svg>
