<?xml version="1.0" encoding="UTF-8" standalone="no"?>
<!DOCTYPE svg PUBLIC "-//W3C//DTD SVG 1.1//EN" "http://www.w3.org/Graphics/SVG/1.1/DTD/svg11.dtd">
<svg xmlns="http://www.w3.org/2000/svg" version="1.1" viewBox="0.00 0.00 1012.00 1003.00">
<path fill="#63dfe6" d="
  M 415.39 143.92
  Q 414.92 145.14 415.60 147.00
  Q 418.24 154.24 419.36 157.65
  Q 421.06 162.84 420.64 173.42
  Q 420.60 174.29 419.61 174.79
  Q 419.50 174.84 419.36 174.82
  Q 418.53 174.69 418.52 174.23
  Q 418.17 161.61 414.40 150.07
  C 413.54 147.43 413.34 145.55 414.07 143.08
  A 1.69 1.68 19.6 0 1 416.34 142.01
  Q 420.15 143.61 423.88 146.12
  Q 432.10 151.66 439.96 157.68
  Q 439.99 157.71 440.06 157.80
  Q 440.08 157.84 440.11 157.86
  Q 440.12 157.87 440.11 157.88
  L 440.11 157.90
  Q 427.77 149.30 422.74 146.30
  Q 419.27 144.23 416.59 143.36
  A 0.97 0.97 0.0 0 0 415.39 143.92
  Z"
/>
<path fill="#63dfe6" d="
  M 559.03 232.54
  A 0.44 0.44 0.0 0 0 559.64 232.70
  Q 588.59 215.29 622.29 207.55
  Q 670.58 196.46 720.10 202.01
  A 0.38 0.38 0.0 0 1 720.42 202.47
  L 656.91 480.39
  Q 656.74 481.14 655.98 481.00
  Q 592.86 469.69 532.96 490.49
  Q 532.77 490.55 532.75 490.43
  L 532.75 490.42
  Q 532.73 490.27 532.83 490.21
  Q 585.29 463.21 644.58 467.98
  Q 645.23 468.03 645.38 467.40
  L 705.17 217.14
  A 0.71 0.71 0.0 0 0 704.61 216.27
  Q 629.91 202.14 561.93 236.04
  A 0.56 0.56 0.0 0 0 561.69 236.81
  Q 571.55 255.02 574.16 277.72
  C 576.21 295.48 577.12 306.82 580.05 318.93
  C 584.27 336.37 595.86 351.11 606.44 365.11
  Q 606.49 365.17 606.40 365.26
  L 606.40 365.27
  Q 606.33 365.34 606.26 365.26
  C 593.23 351.07 582.17 336.00 578.04 318.03
  Q 576.08 309.49 574.89 299.10
  Q 572.73 280.21 571.78 273.32
  Q 569.21 254.81 560.45 237.76
  Q 560.05 236.98 559.27 237.38
  Q 545.92 244.41 534.04 252.49
  Q 532.44 253.58 533.85 252.26
  Q 544.77 242.10 557.63 234.07
  A 0.56 0.55 -32.3 0 0 557.81 233.30
  C 548.33 218.31 536.85 203.76 522.92 192.58
  Q 503.82 177.25 482.79 165.77
  Q 482.64 165.68 482.69 165.53
  L 482.69 165.52
  Q 482.75 165.37 482.92 165.45
  C 494.00 170.93 506.07 177.55 516.06 185.07
  Q 521.11 188.86 528.68 195.26
  Q 546.45 210.29 559.03 232.54
  Z"
/>
<path fill="#63dfe6" d="
  M 362.80 467.79
  Q 373.35 467.55 376.79 467.46
  Q 428.34 466.18 475.02 490.34
  Q 475.14 490.40 475.09 490.56
  L 475.09 490.57
  Q 475.04 490.73 474.86 490.67
  C 470.65 489.33 466.31 487.63 462.37 486.49
  Q 408.03 470.85 351.26 481.04
  Q 350.84 481.12 350.75 480.71
  L 287.24 202.75
  Q 287.13 202.26 287.62 202.16
  Q 290.10 201.66 292.50 201.44
  Q 331.31 197.89 369.83 204.40
  C 407.82 210.82 446.15 226.21 474.51 252.96
  Q 474.62 253.06 474.53 253.14
  L 474.53 253.15
  Q 474.43 253.24 474.34 253.18
  C 423.97 218.11 362.98 204.33 302.73 216.43
  A 0.45 0.45 0.0 0 0 302.38 216.98
  L 362.19 467.31
  Q 362.30 467.80 362.80 467.79
  Z"
/>
<path fill="#63dfe6" d="
  M 276.07 248.03
  A 0.51 0.49 -11.7 0 0 275.66 248.64
  L 337.53 495.69
  A 0.42 0.42 0.0 0 0 338.02 496.00
  Q 372.35 488.73 407.56 490.14
  Q 434.63 491.22 460.26 499.15
  Q 460.33 499.18 460.37 499.36
  L 460.37 499.37
  Q 460.41 499.54 460.17 499.49
  C 415.64 490.73 369.73 495.25 327.46 511.68
  A 0.57 0.56 -17.5 0 1 326.70 511.29
  L 259.92 234.95
  A 0.41 0.41 0.0 0 1 260.27 234.45
  L 290.11 231.31
  A 1.15 1.15 0.0 0 1 291.35 232.19
  L 294.34 244.55
  Q 294.47 245.09 293.92 245.17
  L 276.07 248.03
  Z"
/>
<path fill="#63dfe6" d="
  M 731.49 248.14
  L 713.65 245.28
  Q 713.10 245.20 713.23 244.66
  L 716.21 232.31
  A 1.15 1.14 -80.4 0 1 717.45 231.43
  L 747.27 234.56
  A 0.41 0.41 0.0 0 1 747.62 235.06
  L 680.93 511.24
  A 0.57 0.56 17.5 0 1 680.17 511.63
  C 637.93 495.22 592.04 490.71 547.54 499.47
  Q 547.30 499.52 547.34 499.35
  L 547.34 499.34
  Q 547.38 499.16 547.45 499.13
  Q 573.06 491.21 600.12 490.12
  Q 635.31 488.71 669.62 495.97
  A 0.42 0.42 0.0 0 0 670.11 495.66
  L 731.90 248.75
  A 0.51 0.49 11.7 0 0 731.49 248.14
  Z"
/>
<path fill="#63dfe6" d="
  M 372.67 242.80
  Q 372.76 242.64 372.87 242.71
  L 372.88 242.71
  Q 372.96 242.76 372.88 242.91
  Q 364.38 260.21 355.30 276.04
  Q 350.83 283.83 346.17 290.11
  Q 345.27 291.32 345.48 289.85
  Q 345.57 289.19 346.32 287.86
  Q 358.49 266.30 372.67 242.80
  Z"
/>
<path fill="#63dfe6" d="
  M 403.61 271.40
  Q 403.37 271.43 403.36 271.30
  L 403.35 271.29
  Q 403.33 271.09 403.55 271.05
  Q 410.18 269.85 420.44 267.87
  Q 431.12 265.81 439.18 262.39
  Q 439.56 262.23 449.09 258.13
  Q 449.95 257.76 449.22 258.35
  Q 440.54 265.52 429.76 267.47
  Q 419.51 269.33 403.61 271.40
  Z"
/>
<path fill="#63dfe6" d="
  M 427.06 509.92
  C 385.16 513.97 345.25 527.03 307.25 545.16
  A 0.45 0.45 0.0 0 1 306.62 544.86
  L 237.62 269.32
  A 0.75 0.75 0.0 0 1 238.27 268.39
  L 264.19 265.66
  A 0.60 0.60 0.0 0 1 264.84 266.11
  L 268.05 278.91
  A 0.33 0.33 0.0 0 1 267.80 279.31
  L 254.10 282.45
  A 0.52 0.51 77.0 0 0 253.71 283.08
  L 317.23 529.63
  A 0.32 0.31 69.9 0 0 317.67 529.84
  Q 369.74 506.79 427.50 506.35
  Q 428.79 506.34 429.04 505.43
  Q 429.69 503.08 429.54 505.50
  Q 429.53 505.60 429.73 505.96
  A 0.90 0.89 -14.1 0 0 430.49 506.41
  Q 443.83 506.73 457.09 508.60
  A 0.05 0.04 -40.5 0 1 457.08 508.69
  L 430.31 509.45
  A 0.86 0.86 0.0 0 0 429.48 510.22
  L 427.85 524.86
  Q 427.82 525.18 427.51 525.24
  Q 427.24 525.29 427.08 525.13
  Q 427.00 525.06 426.98 524.87
  Q 426.84 523.41 426.74 520.66
  Q 426.71 520.06 426.13 520.20
  C 376.66 531.83 329.01 551.96 289.29 582.90
  A 0.31 0.30 -25.9 0 1 288.80 582.74
  L 216.54 294.17
  Q 216.36 293.46 217.09 293.38
  L 240.06 290.96
  A 0.59 0.59 0.0 0 1 240.70 291.40
  L 244.07 304.47
  A 0.38 0.37 -13.8 0 1 243.79 304.92
  L 233.00 307.38
  Q 232.26 307.55 232.45 308.29
  L 297.85 562.14
  A 0.43 0.42 68.2 0 0 298.47 562.41
  C 337.74 540.41 381.34 525.06 426.12 519.16
  Q 426.37 519.13 426.39 518.88
  L 427.35 510.21
  Q 427.39 509.89 427.06 509.92
  Z"
/>
<path fill="#63dfe6" d="
  M 689.86 529.78
  A 0.38 0.38 0.0 0 0 690.38 529.53
  L 753.89 283.02
  A 0.48 0.47 -76.2 0 0 753.54 282.44
  L 739.95 279.34
  Q 739.52 279.24 739.62 278.82
  L 742.61 266.30
  A 0.90 0.90 0.0 0 1 743.59 265.62
  L 769.38 268.47
  A 0.69 0.69 0.0 0 1 769.97 269.32
  L 700.97 544.85
  A 0.52 0.52 0.0 0 1 700.23 545.19
  C 659.74 525.33 615.40 511.91 570.42 509.13
  A 0.69 0.69 0.0 0 0 569.68 509.84
  Q 569.96 522.23 568.63 534.47
  A 0.70 0.69 -7.2 0 1 568.19 535.03
  L 567.90 535.14
  Q 567.38 535.34 567.41 534.79
  L 568.92 509.47
  A 0.44 0.44 0.0 0 0 568.48 509.00
  L 550.41 508.84
  A 0.26 0.16 -8.0 0 1 550.20 508.75
  L 550.19 508.74
  Q 550.09 508.56 550.38 508.52
  Q 572.60 505.54 592.59 506.64
  Q 643.27 509.42 689.86 529.78
  Z"
/>
<path fill="#63dfe6" d="
  M 709.75 562.06
  L 775.15 308.21
  A 0.67 0.67 0.0 0 0 774.64 307.39
  L 763.94 304.94
  Q 763.47 304.84 763.59 304.37
  L 766.89 291.18
  A 0.41 0.40 9.6 0 1 767.33 290.87
  L 790.37 293.43
  Q 791.22 293.52 791.02 294.36
  L 718.77 582.87
  A 0.18 0.18 0.0 0 1 718.49 582.96
  Q 699.27 568.02 677.70 556.36
  Q 630.62 530.90 576.66 519.24
  Q 576.45 519.19 576.34 519.01
  L 576.07 518.56
  A 0.08 0.08 0.0 0 1 576.15 518.44
  Q 596.18 521.04 609.68 524.12
  Q 661.90 536.00 709.03 562.37
  A 0.50 0.50 0.0 0 0 709.75 562.06
  Z"
/>
<path fill="#63dfe6" d="
  M 449.42 368.74
  Q 449.52 368.80 449.47 368.90
  Q 438.56 390.49 428.11 414.62
  Q 425.01 421.78 422.79 429.77
  C 420.88 436.58 423.74 439.10 428.18 443.63
  Q 429.56 445.03 427.98 444.08
  C 423.91 441.62 420.79 438.54 420.22 433.36
  Q 419.17 423.91 422.64 413.66
  Q 423.86 410.05 429.18 400.69
  Q 433.30 393.45 449.17 368.62
  Q 449.18 368.61 449.20 368.62
  L 449.42 368.74
  Z"
/>
<path fill="#63dfe6" d="
  M 565.69 381.48
  C 566.94 384.09 567.32 387.88 568.83 395.36
  Q 572.64 414.30 573.71 433.58
  C 574.12 440.89 574.63 444.69 570.51 449.83
  Q 569.56 451.02 570.09 449.59
  Q 572.59 442.84 572.01 435.49
  Q 571.24 425.74 570.40 417.54
  Q 569.44 408.23 565.61 380.79
  Q 565.61 380.76 565.62 380.72
  Q 565.63 380.68 565.63 380.64
  Q 565.62 380.64 565.63 380.64
  Q 565.60 381.27 565.69 381.48
  Z"
/>
<path fill="#63dfe6" d="
  M 532.86 486.90
  Q 525.74 485.91 519.48 484.95
  C 505.88 482.85 494.04 481.66 478.25 479.91
  Q 477.17 479.79 474.23 479.66
  C 471.29 479.53 468.91 478.76 466.28 478.87
  Q 465.00 478.92 462.31 478.60
  Q 462.27 478.59 462.21 478.62
  Q 462.17 478.64 462.14 478.63
  Q 462.14 478.62 462.14 478.63
  C 465.31 478.63 467.76 478.39 470.28 478.86
  C 472.93 479.35 475.97 479.03 479.22 479.33
  Q 490.05 480.34 500.73 481.33
  Q 516.35 482.77 532.87 486.87
  Q 532.92 486.88 532.87 486.87
  L 532.87 486.89
  A 0.01 0.01 0.0 0 1 532.86 486.90
  Z"
/>
<ellipse fill="#63dfe6" cx="0.00" cy="0.00" transform="translate(549.68,490.72) rotate(13.7)" rx="3.66" ry="0.24"/>
<path fill="#63dfe6" d="
  M 430.14 518.71
  Q 430.64 518.35 431.26 518.43
  Q 432.35 518.56 431.37 518.90
  Q 431.10 519.00 430.24 519.01
  A 0.17 0.16 26.7 0 1 430.14 518.71
  Z"
/>
<path fill="#63dfe6" d="
  M 469.30 538.37
  C 492.22 538.68 514.36 538.08 536.19 536.41
  Q 538.44 536.23 536.53 537.44
  C 531.74 540.49 524.09 541.71 518.52 542.04
  Q 507.98 542.67 493.75 541.99
  Q 466.40 540.69 430.19 538.50
  A 0.26 0.23 -2.5 0 1 429.95 538.31
  L 429.95 538.30
  Q 429.91 538.09 430.24 538.09
  Q 447.55 538.08 469.30 538.37
  Z"
/>
<path fill="#ffffff" d="
  M 175.48 702.98
  Q 160.00 703.00 159.47 702.97
  A 0.72 0.41 2.9 0 1 158.77 702.52
  L 158.96 699.01
  Q 158.99 698.34 159.67 698.38
  C 165.96 698.71 166.36 694.82 166.36 689.57
  Q 166.31 662.28 166.30 639.40
  A 0.50 0.50 0.0 0 0 165.82 638.90
  Q 161.04 638.69 156.65 638.84
  C 149.26 639.08 147.06 642.41 147.10 649.48
  Q 147.10 649.92 146.65 649.92
  L 142.95 649.92
  Q 142.50 649.93 142.49 649.48
  L 142.46 629.15
  Q 142.46 628.58 143.01 628.75
  C 153.24 632.09 161.31 631.08 175.41 631.07
  C 189.52 631.05 197.59 632.05 207.81 628.69
  Q 208.36 628.52 208.36 629.09
  L 208.37 649.41
  Q 208.37 649.86 207.92 649.86
  L 204.22 649.87
  Q 203.77 649.87 203.77 649.43
  C 203.79 642.35 201.58 639.03 194.19 638.80
  Q 189.81 638.67 185.02 638.88
  A 0.50 0.50 0.0 0 0 184.54 639.38
  Q 184.57 662.27 184.58 689.56
  C 184.58 694.80 184.99 698.69 191.29 698.35
  Q 191.97 698.31 192.00 698.98
  L 192.19 702.49
  A 0.72 0.41 -3.0 0 1 191.50 702.94
  Q 190.97 702.97 175.48 702.98
  Z
  M 152.88 635.01
  Q 153.81 634.79 152.86 634.69
  L 146.68 634.00
  A 0.55 0.53 2.9 0 0 146.08 634.53
  L 146.08 637.99
  A 0.33 0.33 0.0 0 0 146.63 638.23
  Q 149.19 635.90 152.88 635.01
  Z
  M 200.47 635.99
  C 202.10 636.64 203.03 637.40 204.08 638.07
  Q 204.57 638.39 204.56 637.80
  L 204.54 634.59
  Q 204.53 634.00 203.94 633.96
  Q 202.28 633.82 199.51 634.63
  Q 198.91 634.80 199.26 635.32
  Q 199.44 635.58 200.47 635.99
  Z
  M 169.58 635.16
  A 0.39 0.39 0.0 0 1 169.97 635.55
  L 169.97 695.91
  Q 169.97 696.48 169.68 696.97
  L 168.69 698.68
  Q 168.32 699.34 169.07 699.34
  L 181.72 699.34
  Q 182.28 699.34 182.04 698.84
  Q 180.91 696.53 180.91 693.25
  Q 180.92 653.07 180.91 635.80
  A 0.65 0.64 -0.5 0 1 181.55 635.16
  L 194.75 635.15
  Q 195.12 635.15 195.05 634.93
  L 195.05 634.92
  Q 194.98 634.69 194.85 634.69
  L 154.42 634.73
  Q 154.40 634.73 154.40 634.75
  L 154.40 635.04
  Q 154.40 635.16 154.52 635.16
  L 169.58 635.16
  Z"
/>
<path fill="#ffffff" d="
  M 339.42 639.04
  A 0.31 0.31 0.0 0 0 339.11 639.35
  L 339.11 663.25
  A 0.39 0.39 0.0 0 0 339.50 663.64
  C 343.89 663.71 349.91 664.33 353.49 662.45
  C 356.07 661.09 356.50 657.31 356.63 654.73
  Q 356.65 654.43 356.95 654.43
  L 360.95 654.43
  A 0.26 0.25 -0.0 0 1 361.21 654.68
  L 361.21 680.30
  Q 361.21 680.57 360.94 680.57
  L 356.97 680.57
  Q 356.65 680.57 356.61 680.25
  Q 356.02 675.58 355.73 674.96
  C 353.63 670.38 344.90 671.31 339.61 671.54
  Q 339.11 671.56 339.11 672.07
  L 339.11 694.52
  A 0.57 0.57 0.0 0 0 339.68 695.09
  Q 345.73 695.11 348.50 695.16
  C 359.46 695.39 364.35 689.35 367.68 679.89
  Q 367.83 679.45 368.30 679.45
  L 371.94 679.45
  Q 372.42 679.45 372.31 679.92
  L 367.16 702.46
  Q 367.05 702.97 366.52 702.97
  L 313.79 702.97
  A 0.44 0.44 0.0 0 1 313.35 702.53
  L 313.35 698.78
  Q 313.35 698.34 313.78 698.36
  C 318.44 698.52 320.84 696.67 320.84 691.81
  Q 320.88 664.82 320.84 640.75
  Q 320.83 640.08 320.11 638.47
  C 319.07 636.19 316.22 635.54 314.01 635.81
  Q 313.35 635.89 313.35 635.22
  L 313.35 631.78
  Q 313.35 631.15 313.98 631.15
  Q 346.63 631.16 349.50 631.21
  Q 357.24 631.35 365.35 628.77
  Q 365.99 628.56 365.99 629.23
  L 365.99 649.78
  Q 365.99 650.32 365.45 650.26
  L 361.93 649.87
  Q 361.34 649.81 361.35 649.22
  C 361.44 642.36 358.80 639.14 352.52 639.04
  Q 345.11 638.93 339.42 639.04
  Z
  M 359.06 636.42
  Q 360.36 637.18 361.83 638.37
  Q 362.33 638.77 362.33 638.13
  L 362.33 634.46
  Q 362.33 633.80 361.68 633.95
  L 356.74 635.07
  Q 355.74 635.30 356.68 635.70
  C 357.40 636.00 358.45 636.07 359.06 636.42
  Z
  M 336.15 667.72
  L 349.57 667.68
  Q 349.82 667.68 349.79 667.58
  L 349.78 667.57
  Q 349.71 667.36 349.63 667.36
  L 335.95 667.21
  A 0.52 0.51 0.6 0 1 335.44 666.70
  L 335.45 636.00
  A 0.62 0.62 0.0 0 1 336.06 635.38
  Q 344.22 635.29 352.26 635.36
  Q 352.48 635.36 352.82 635.48
  Q 353.31 635.65 353.42 635.47
  Q 352.10 634.82 350.76 634.82
  Q 337.13 634.81 323.59 634.80
  A 0.32 0.32 0.0 0 0 323.32 635.29
  Q 323.90 636.26 324.27 637.35
  Q 324.56 638.24 324.55 639.56
  Q 324.46 651.93 324.51 691.76
  Q 324.51 691.87 324.64 693.69
  Q 324.83 696.32 323.14 698.68
  A 0.40 0.40 0.0 0 0 323.46 699.31
  L 363.53 699.32
  A 0.76 0.75 6.2 0 0 364.27 698.73
  L 365.63 692.79
  Q 365.87 691.76 365.15 692.53
  Q 362.02 695.84 357.39 697.65
  Q 354.35 698.84 348.49 698.83
  Q 339.56 698.80 336.12 698.76
  A 0.69 0.69 0.0 0 1 335.44 698.07
  L 335.44 668.43
  Q 335.44 667.73 336.15 667.72
  Z
  M 351.46 667.48
  Q 351.46 667.61 351.65 667.76
  Q 351.75 667.85 351.88 667.85
  Q 354.42 667.83 356.92 670.05
  A 0.38 0.38 0.0 0 0 357.55 669.76
  Q 357.55 669.41 357.55 667.47
  Q 357.55 665.53 357.56 665.17
  A 0.38 0.38 0.0 0 0 356.93 664.89
  Q 354.42 667.09 351.88 667.07
  Q 351.75 667.07 351.65 667.16
  Q 351.46 667.31 351.46 667.48
  Z"
/>
<path fill="#ffffff" d="
  M 658.98 631.07
  C 673.07 631.06 681.14 632.06 691.36 628.71
  Q 691.91 628.53 691.91 629.10
  L 691.91 649.42
  Q 691.91 649.87 691.46 649.87
  L 687.76 649.87
  Q 687.31 649.87 687.31 649.43
  C 687.34 642.36 685.13 639.04 677.74 638.81
  Q 673.36 638.67 668.58 638.88
  A 0.50 0.50 0.0 0 0 668.10 639.38
  Q 668.12 662.26 668.12 689.54
  C 668.12 694.78 668.53 698.67 674.82 698.33
  Q 675.50 698.29 675.53 698.96
  L 675.72 702.47
  A 0.72 0.41 -3.0 0 1 675.03 702.92
  Q 674.50 702.95 659.02 702.96
  Q 643.54 702.97 643.01 702.94
  A 0.72 0.41 3.0 0 1 642.32 702.49
  L 642.50 698.98
  Q 642.53 698.31 643.21 698.35
  C 649.50 698.68 649.91 694.79 649.90 689.55
  Q 649.87 662.27 649.86 639.39
  A 0.50 0.50 0.0 0 0 649.38 638.89
  Q 644.60 638.69 640.22 638.83
  C 632.83 639.07 630.63 642.39 630.66 649.46
  Q 630.66 649.90 630.21 649.90
  L 626.51 649.91
  Q 626.06 649.91 626.06 649.46
  L 626.04 629.14
  Q 626.04 628.57 626.59 628.74
  C 636.81 632.09 644.88 631.08 658.98 631.07
  Z
  M 664.43 635.95
  A 0.78 0.78 0.0 0 1 665.21 635.17
  L 678.15 635.14
  Q 678.35 635.14 678.33 634.92
  L 678.33 634.91
  Q 678.31 634.72 678.13 634.72
  Q 657.71 634.70 637.27 634.71
  C 635.15 634.71 631.82 633.84 630.31 633.97
  A 0.69 0.53 -2.4 0 0 629.68 634.50
  L 629.62 638.00
  Q 629.61 638.68 630.12 638.23
  Q 631.79 636.76 634.41 635.63
  Q 636.31 634.82 639.19 635.03
  Q 643.32 635.33 652.78 635.11
  A 0.76 0.75 -0.4 0 1 653.55 635.86
  Q 653.55 637.85 653.54 691.75
  Q 653.54 691.85 653.68 693.74
  Q 653.87 696.35 652.13 698.64
  A 0.43 0.42 18.6 0 0 652.47 699.32
  L 665.54 699.32
  A 0.38 0.38 0.0 0 0 665.84 698.70
  Q 664.16 696.61 664.34 693.98
  Q 664.48 692.12 664.48 692.03
  Q 664.54 652.70 664.43 635.95
  Z
  M 684.27 636.14
  C 685.92 636.81 686.85 637.59 687.91 638.28
  Q 688.40 638.60 688.40 638.01
  L 688.40 634.76
  Q 688.40 634.16 687.80 634.11
  Q 686.12 633.96 683.31 634.76
  Q 682.70 634.93 683.05 635.45
  Q 683.23 635.72 684.27 636.14
  Z"
/>
<path fill="#ffffff" d="
  M 729.41 639.05
  A 0.31 0.31 0.0 0 0 729.10 639.36
  L 729.10 663.25
  A 0.39 0.39 0.0 0 0 729.49 663.64
  C 733.88 663.71 739.90 664.33 743.48 662.45
  C 746.06 661.09 746.49 657.31 746.62 654.74
  Q 746.64 654.44 746.94 654.44
  L 750.93 654.44
  A 0.26 0.25 -0.0 0 1 751.19 654.69
  L 751.20 680.30
  Q 751.20 680.57 750.93 680.57
  L 746.96 680.57
  Q 746.64 680.57 746.60 680.25
  Q 746.01 675.58 745.72 674.96
  C 743.62 670.38 734.89 671.31 729.60 671.54
  Q 729.10 671.56 729.10 672.07
  L 729.10 694.52
  A 0.57 0.57 0.0 0 0 729.67 695.09
  Q 735.72 695.11 738.49 695.16
  C 749.45 695.39 754.34 689.35 757.66 679.89
  Q 757.81 679.45 758.28 679.45
  L 761.92 679.45
  Q 762.40 679.45 762.29 679.92
  L 757.15 702.46
  Q 757.04 702.97 756.51 702.97
  L 703.78 702.97
  A 0.44 0.44 0.0 0 1 703.34 702.53
  L 703.34 698.78
  Q 703.34 698.34 703.77 698.36
  C 708.43 698.52 710.83 696.67 710.83 691.81
  Q 710.87 664.83 710.83 640.76
  Q 710.82 640.09 710.10 638.48
  C 709.06 636.20 706.21 635.55 704.00 635.82
  Q 703.34 635.90 703.34 635.23
  L 703.34 631.79
  Q 703.34 631.16 703.97 631.16
  Q 736.62 631.17 739.49 631.22
  Q 747.22 631.36 755.33 628.78
  Q 755.97 628.57 755.97 629.24
  L 755.97 649.79
  Q 755.97 650.33 755.43 650.27
  L 751.91 649.88
  Q 751.32 649.82 751.33 649.23
  C 751.42 642.37 748.78 639.15 742.51 639.05
  Q 735.10 638.94 729.41 639.05
  Z
  M 749.04 636.43
  Q 750.34 637.21 751.80 638.44
  Q 752.29 638.85 752.30 638.20
  L 752.37 634.51
  Q 752.38 633.85 751.72 633.99
  L 746.73 635.03
  Q 745.72 635.24 746.66 635.66
  C 747.38 635.97 748.44 636.06 749.04 636.43
  Z
  M 726.15 667.72
  L 739.57 667.68
  Q 739.82 667.68 739.79 667.58
  L 739.78 667.57
  Q 739.71 667.36 739.63 667.36
  L 725.95 667.21
  A 0.52 0.51 0.6 0 1 725.44 666.70
  L 725.44 635.99
  A 0.62 0.62 0.0 0 1 726.05 635.37
  Q 734.21 635.28 742.25 635.35
  Q 742.47 635.35 742.81 635.47
  Q 743.30 635.64 743.41 635.46
  Q 742.09 634.81 740.75 634.81
  Q 727.12 634.80 713.58 634.80
  A 0.32 0.32 0.0 0 0 713.31 635.29
  Q 713.89 636.26 714.26 637.35
  Q 714.55 638.24 714.54 639.56
  Q 714.45 651.93 714.51 691.77
  Q 714.51 691.88 714.64 693.70
  Q 714.83 696.33 713.14 698.69
  A 0.40 0.40 0.0 0 0 713.46 699.32
  L 753.54 699.32
  A 0.76 0.75 6.2 0 0 754.28 698.73
  L 755.64 692.79
  Q 755.88 691.76 755.16 692.53
  Q 752.03 695.84 747.40 697.65
  Q 744.36 698.84 738.50 698.83
  Q 729.57 698.81 726.12 698.77
  A 0.69 0.69 0.0 0 1 725.44 698.08
  L 725.44 668.43
  Q 725.44 667.73 726.15 667.72
  Z
  M 741.42 667.52
  Q 741.42 667.65 741.61 667.81
  Q 741.72 667.90 741.85 667.90
  Q 744.42 667.88 746.96 670.12
  A 0.38 0.38 0.0 0 0 747.60 669.83
  Q 747.59 669.47 747.59 667.51
  Q 747.60 665.54 747.60 665.18
  A 0.38 0.38 0.0 0 0 746.97 664.89
  Q 744.42 667.13 741.85 667.10
  Q 741.72 667.10 741.61 667.19
  Q 741.42 667.35 741.42 667.52
  Z"
/>
<path fill="#ffffff" d="
  M 436.36 643.38
  C 434.97 646.60 438.03 649.96 440.47 651.58
  Q 446.27 655.43 461.22 665.28
  Q 470.79 671.58 469.93 683.47
  C 469.13 694.58 461.22 701.58 450.64 703.55
  Q 436.26 706.22 423.82 700.54
  C 417.42 697.62 418.98 689.53 420.34 684.33
  Q 421.21 680.99 423.09 678.64
  A 0.90 0.87 -70.0 0 1 423.78 678.30
  L 426.55 678.30
  A 0.55 0.55 0.0 0 1 427.10 678.92
  C 425.64 690.42 434.23 697.41 445.14 696.35
  C 449.77 695.90 454.26 693.28 454.85 688.57
  C 455.45 683.78 449.69 679.91 446.15 677.62
  Q 434.10 669.80 429.61 666.57
  C 421.31 660.61 418.73 651.41 422.53 642.02
  C 427.26 630.35 438.91 629.00 450.75 630.15
  Q 456.82 630.74 464.20 630.81
  Q 464.69 630.81 464.64 631.29
  L 463.13 648.54
  Q 463.11 648.72 462.93 648.72
  L 458.99 648.72
  Q 458.71 648.72 458.70 648.43
  Q 458.46 640.70 452.59 638.68
  C 446.89 636.72 439.09 637.07 436.36 643.38
  Z
  M 445.13 700.25
  Q 430.01 701.25 424.09 688.06
  Q 423.62 687.00 423.39 688.14
  C 422.74 691.41 422.89 695.95 426.51 697.46
  C 436.93 701.85 452.92 702.72 461.42 694.21
  C 466.72 688.92 467.96 679.15 463.91 673.02
  Q 462.01 670.15 455.30 665.69
  Q 447.44 660.46 438.95 655.23
  C 433.67 651.98 429.76 646.91 433.16 640.54
  C 435.20 636.72 440.05 634.25 444.94 633.82
  Q 445.18 633.79 445.05 633.58
  L 444.89 633.32
  Q 444.89 633.31 444.88 633.31
  Q 438.16 633.67 436.26 634.37
  Q 425.29 638.47 424.71 649.39
  C 424.41 655.09 426.70 660.00 431.19 663.25
  Q 437.08 667.49 450.84 676.23
  C 455.04 678.90 459.07 682.43 458.88 687.78
  C 458.62 695.25 452.34 699.78 445.13 700.25
  Z
  M 454.14 635.19
  Q 456.80 635.87 459.83 639.00
  Q 460.33 639.51 460.37 638.80
  L 460.59 635.08
  Q 460.62 634.52 460.06 634.49
  L 452.76 634.10
  Q 450.78 633.99 452.55 634.72
  Q 452.97 634.89 454.14 635.19
  Z"
/>
<path fill="#ffffff" d="
  M 580.48 643.38
  C 579.09 646.60 582.15 649.96 584.59 651.58
  Q 590.39 655.43 605.33 665.29
  Q 614.90 671.59 614.04 683.48
  C 613.23 694.59 605.32 701.59 594.74 703.55
  Q 580.36 706.22 567.92 700.53
  C 561.52 697.61 563.09 689.52 564.45 684.32
  Q 565.32 680.98 567.20 678.63
  A 0.90 0.87 -70.0 0 1 567.89 678.29
  L 570.66 678.29
  A 0.55 0.55 0.0 0 1 571.21 678.91
  C 569.75 690.41 578.33 697.41 589.24 696.35
  C 593.87 695.90 598.36 693.28 598.96 688.57
  C 599.56 683.78 593.80 679.91 590.26 677.62
  Q 578.21 669.80 573.73 666.57
  C 565.43 660.60 562.85 651.40 566.66 642.01
  C 571.39 630.35 583.04 629.00 594.88 630.16
  Q 600.95 630.75 608.33 630.82
  Q 608.82 630.82 608.77 631.30
  L 607.25 648.55
  Q 607.23 648.73 607.05 648.73
  L 603.11 648.73
  Q 602.83 648.73 602.82 648.44
  Q 602.58 640.71 596.71 638.69
  C 591.02 636.72 583.22 637.07 580.48 643.38
  Z
  M 589.23 700.25
  Q 574.10 701.25 568.18 688.05
  Q 567.71 686.99 567.48 688.13
  C 566.83 691.40 566.98 695.94 570.60 697.46
  C 581.02 701.85 597.02 702.72 605.53 694.21
  C 610.83 688.92 612.07 679.15 608.02 673.01
  Q 606.12 670.14 599.41 665.68
  Q 591.55 660.45 583.05 655.21
  C 577.77 651.96 573.86 646.89 577.26 640.52
  C 579.30 636.69 584.16 634.22 589.05 633.79
  Q 589.29 633.76 589.16 633.55
  L 589.00 633.29
  Q 589.00 633.28 588.99 633.28
  Q 582.27 633.64 580.37 634.34
  Q 569.39 638.44 568.81 649.37
  C 568.51 655.07 570.80 659.98 575.29 663.23
  Q 581.18 667.48 594.94 676.22
  C 599.15 678.89 603.18 682.43 602.99 687.78
  C 602.72 695.25 596.44 699.78 589.23 700.25
  Z
  M 595.73 634.22
  Q 600.56 635.47 603.94 638.97
  Q 604.46 639.51 604.51 638.76
  L 604.73 635.04
  Q 604.76 634.49 604.21 634.46
  L 595.42 634.05
  A 0.04 0.04 0.0 0 0 595.41 634.13
  C 595.58 634.17 595.57 634.17 595.73 634.22
  Z"
/>
<path fill="#ffffff" d="
  M 791.40 667.69
  L 788.42 695.26
  Q 788.17 697.60 790.60 698.33
  Q 791.29 698.53 793.00 698.45
  Q 793.52 698.42 793.53 698.94
  L 793.63 702.41
  Q 793.65 702.97 793.08 702.97
  L 770.00 702.97
  A 0.45 0.45 0.0 0 1 769.55 702.52
  L 769.55 698.76
  A 0.41 0.41 0.0 0 1 769.98 698.35
  C 774.80 698.58 777.78 697.25 778.45 692.10
  Q 781.53 668.55 786.46 630.22
  Q 786.54 629.60 787.17 629.67
  L 789.78 629.96
  Q 790.16 630.00 790.36 630.32
  L 818.75 677.03
  A 0.57 0.57 0.0 0 0 819.73 677.02
  L 846.73 630.26
  A 0.94 0.93 -75.0 0 1 847.54 629.79
  L 850.22 629.79
  A 0.58 0.57 86.0 0 1 850.79 630.29
  Q 851.91 638.54 858.84 691.65
  Q 859.78 698.83 867.13 698.31
  A 0.68 0.67 -2.0 0 1 867.86 698.98
  L 867.86 702.31
  Q 867.86 702.97 867.19 702.97
  L 835.71 702.97
  Q 834.98 702.97 834.98 702.24
  L 834.98 698.98
  A 0.61 0.61 0.0 0 1 835.71 698.38
  Q 838.48 698.92 839.95 696.53
  A 1.52 1.49 58.0 0 0 840.16 695.57
  L 837.26 668.03
  Q 837.09 666.42 836.27 667.82
  Q 826.43 684.73 822.43 691.69
  Q 818.23 699.02 818.01 704.39
  Q 817.99 704.91 817.47 704.91
  L 814.93 704.91
  A 0.78 0.77 73.8 0 1 814.27 704.54
  L 791.82 667.59
  Q 791.47 667.03 791.40 667.69
  Z
  M 839.62 655.81
  L 844.18 699.07
  Q 844.21 699.34 844.48 699.34
  L 856.98 699.34
  Q 857.44 699.34 857.19 698.95
  Q 855.88 696.88 855.70 695.53
  Q 853.38 677.75 847.97 637.07
  Q 847.82 635.90 847.22 636.92
  L 819.61 684.19
  Q 819.22 684.85 818.83 684.19
  L 790.11 636.93
  Q 789.41 635.79 789.24 637.12
  Q 786.57 658.03 782.17 691.87
  C 781.81 694.64 782.21 696.14 780.34 698.58
  A 0.48 0.47 -71.0 0 0 780.71 699.35
  L 784.47 699.34
  A 0.67 0.67 0.0 0 0 784.81 698.09
  L 784.55 697.94
  Q 784.38 697.84 784.40 697.64
  L 788.97 656.33
  Q 789.07 655.43 789.54 656.21
  L 814.44 698.08
  Q 814.72 698.55 814.99 698.08
  C 815.95 696.47 816.93 693.79 817.98 692.00
  Q 828.64 673.82 839.08 655.69
  Q 839.52 654.92 839.62 655.81
  Z"
/>
<path fill="#ffffff" d="
  M 259.48 663.17
  Q 266.28 663.17 272.93 663.10
  A 0.48 0.48 0.0 0 0 273.41 662.62
  Q 273.43 653.41 273.43 644.11
  C 273.43 638.69 272.66 635.32 266.36 635.82
  Q 265.96 635.85 265.96 635.45
  L 265.96 631.42
  Q 265.96 631.18 266.20 631.18
  L 298.50 631.18
  Q 299.20 631.18 299.20 631.88
  L 299.20 635.21
  Q 299.20 635.87 298.55 635.80
  C 293.39 635.30 291.78 637.87 291.74 642.62
  Q 291.69 649.37 291.69 667.09
  Q 291.69 684.81 291.74 691.56
  C 291.78 696.31 293.39 698.88 298.55 698.38
  Q 299.20 698.31 299.20 698.97
  L 299.20 702.30
  Q 299.20 703.00 298.50 703.00
  L 266.20 703.00
  Q 265.96 703.00 265.96 702.76
  L 265.96 698.73
  Q 265.96 698.33 266.36 698.36
  C 272.66 698.86 273.43 695.49 273.43 690.07
  Q 273.43 680.77 273.41 671.56
  A 0.48 0.48 0.0 0 0 272.93 671.08
  Q 266.28 671.01 259.48 671.01
  Q 252.69 671.01 246.03 671.08
  A 0.48 0.48 0.0 0 0 245.56 671.56
  Q 245.54 680.77 245.54 690.07
  C 245.54 695.49 246.31 698.86 252.61 698.36
  Q 253.01 698.33 253.01 698.73
  L 253.01 702.76
  Q 253.01 703.00 252.77 703.00
  L 220.47 703.00
  Q 219.77 703.00 219.77 702.30
  L 219.77 698.97
  Q 219.77 698.31 220.42 698.38
  C 225.58 698.88 227.19 696.31 227.23 691.56
  Q 227.28 684.81 227.28 667.09
  Q 227.28 649.37 227.23 642.62
  C 227.19 637.88 225.58 635.31 220.42 635.81
  Q 219.77 635.88 219.77 635.22
  L 219.77 631.89
  Q 219.77 631.19 220.47 631.19
  L 252.77 631.18
  Q 253.01 631.18 253.01 631.42
  L 253.01 635.45
  Q 253.01 635.85 252.61 635.82
  C 246.31 635.32 245.54 638.69 245.54 644.11
  Q 245.54 653.41 245.56 662.62
  A 0.48 0.48 0.0 0 0 246.03 663.10
  Q 252.69 663.17 259.48 663.17
  Z
  M 259.47 667.44
  Q 268.13 667.44 276.69 667.46
  A 0.38 0.38 0.0 0 1 277.07 667.84
  Q 277.08 680.51 277.08 695.26
  Q 277.07 696.71 275.92 698.89
  Q 275.66 699.38 276.21 699.38
  L 288.98 699.38
  Q 289.51 699.38 289.30 698.90
  C 288.71 697.54 288.01 696.88 288.01 695.11
  Q 288.06 670.51 288.02 638.22
  A 1.29 1.20 60.1 0 1 288.15 637.66
  L 289.25 635.45
  Q 289.54 634.84 288.87 634.84
  L 276.00 634.84
  A 0.25 0.25 0.0 0 0 275.79 635.23
  Q 277.19 637.38 277.12 640.00
  Q 277.08 641.60 277.08 666.47
  A 0.46 0.45 0.2 0 1 276.62 666.92
  Q 268.10 666.87 259.47 666.87
  Q 250.85 666.87 242.33 666.91
  A 0.46 0.45 -0.2 0 1 241.87 666.47
  Q 241.88 641.60 241.84 640.00
  Q 241.77 637.38 243.17 635.23
  A 0.25 0.25 0.0 0 0 242.96 634.84
  L 230.09 634.83
  Q 229.42 634.83 229.71 635.44
  L 230.81 637.65
  A 1.29 1.20 -60.1 0 1 230.94 638.21
  Q 230.89 670.50 230.93 695.10
  C 230.93 696.87 230.23 697.53 229.64 698.89
  Q 229.43 699.37 229.96 699.37
  L 242.73 699.38
  Q 243.28 699.38 243.02 698.89
  Q 241.87 696.71 241.86 695.26
  Q 241.87 680.51 241.88 667.84
  A 0.38 0.38 0.0 0 1 242.26 667.45
  Q 250.82 667.44 259.47 667.44
  Z"
/>
<path fill="#ffffff" d="
  M 520.72 660.87
  Q 521.07 661.44 521.41 660.85
  Q 525.81 653.12 533.39 639.89
  C 535.05 636.99 532.33 635.52 529.72 635.75
  Q 528.92 635.81 528.92 635.01
  L 528.92 631.98
  Q 528.92 631.16 529.75 631.16
  L 554.86 631.16
  Q 555.79 631.16 555.79 632.09
  L 555.79 634.74
  Q 555.79 635.84 554.70 635.77
  Q 547.71 635.32 542.73 643.23
  Q 533.73 657.52 526.53 669.06
  A 6.82 6.80 61.1 0 0 525.51 672.61
  Q 525.48 680.85 525.49 689.87
  C 525.50 694.98 526.14 698.71 532.19 698.32
  Q 532.69 698.29 532.74 698.79
  L 533.13 702.51
  Q 533.18 702.97 532.72 702.97
  L 499.97 702.97
  Q 499.73 702.97 499.73 702.73
  L 499.73 698.52
  Q 499.73 698.29 499.96 698.31
  Q 507.23 698.89 507.20 692.74
  Q 507.19 690.56 507.21 672.06
  A 5.39 5.36 29.6 0 0 506.44 669.29
  Q 498.13 655.59 489.79 641.96
  Q 485.70 635.28 478.12 635.82
  A 0.47 0.47 0.0 0 1 477.62 635.35
  L 477.62 631.61
  A 0.46 0.45 90.0 0 1 478.07 631.15
  L 512.97 631.15
  A 0.57 0.56 90.0 0 1 513.53 631.72
  L 513.53 635.29
  Q 513.53 635.77 513.05 635.74
  Q 511.46 635.65 509.76 636.16
  Q 509.24 636.31 509.16 636.85
  Q 508.79 639.31 509.18 640.04
  Q 517.76 656.01 520.72 660.87
  Z
  M 520.63 668.46
  Q 506.56 643.08 504.54 639.45
  Q 503.79 638.09 504.88 635.81
  Q 505.37 634.80 504.25 634.80
  L 489.94 634.80
  Q 489.08 634.80 489.66 635.43
  C 490.31 636.14 490.87 636.54 491.42 637.47
  Q 498.83 649.85 510.37 668.69
  A 3.56 3.53 -60.9 0 1 510.89 670.54
  L 510.89 695.92
  Q 510.89 696.60 510.55 697.18
  L 509.60 698.83
  Q 509.31 699.33 509.89 699.33
  L 522.95 699.33
  A 0.30 0.29 70.7 0 0 523.18 698.85
  Q 521.79 697.07 521.81 694.80
  Q 521.81 694.73 521.85 670.46
  A 3.06 2.99 -29.2 0 1 522.33 668.83
  Q 533.06 651.93 541.32 638.47
  C 542.09 637.21 543.24 636.18 543.89 635.29
  Q 544.24 634.81 543.75 634.81
  L 537.97 634.79
  Q 537.37 634.79 537.56 635.36
  Q 538.59 638.48 537.71 639.95
  Q 530.17 652.61 521.27 668.46
  Q 520.95 669.04 520.63 668.46
  Z"
/>
<path fill="#63dfe6" d="
  M 364.25 758.84
  Q 372.11 762.97 371.31 772.04
  C 370.59 780.15 362.65 783.65 355.27 783.96
  Q 351.91 784.10 331.86 783.99
  Q 331.13 783.99 331.17 783.25
  L 331.27 781.64
  Q 331.31 780.95 331.99 780.99
  Q 333.88 781.08 335.34 779.27
  Q 336.14 778.27 336.12 775.98
  Q 336.11 773.45 336.15 744.24
  Q 336.15 742.77 335.20 741.66
  Q 334.88 741.28 334.39 741.16
  L 331.69 740.48
  Q 331.11 740.34 331.18 739.75
  L 331.36 738.07
  Q 331.42 737.58 331.92 737.58
  Q 344.84 737.55 352.00 737.51
  C 358.72 737.47 366.62 739.90 367.91 747.60
  Q 368.96 753.83 364.17 758.17
  A 0.41 0.41 0.0 0 0 364.25 758.84
  Z
  M 346.06 781.24
  Q 345.58 781.24 345.58 780.76
  L 345.58 741.06
  Q 345.58 740.90 345.68 740.77
  L 345.91 740.45
  Q 346.29 739.93 345.65 739.93
  L 338.47 739.93
  A 0.48 0.48 0.0 0 0 338.00 740.51
  Q 338.16 741.33 338.80 741.97
  A 0.69 0.68 38.4 0 1 338.90 742.80
  L 338.69 743.16
  A 1.39 1.35 -30.1 0 0 338.49 743.87
  L 338.49 777.07
  Q 338.49 777.60 338.77 778.04
  Q 339.66 779.44 338.36 780.17
  A 0.77 0.75 74.2 0 0 337.97 780.89
  Q 337.99 781.13 338.00 781.21
  Q 338.03 781.60 338.41 781.61
  L 348.71 781.89
  Q 348.82 781.89 348.82 781.88
  L 348.90 781.51
  Q 348.96 781.24 348.68 781.24
  L 346.06 781.24
  Z
  M 359.42 757.02
  Q 363.60 756.94 364.79 752.09
  C 366.72 744.20 361.32 741.03 354.49 740.22
  Q 353.58 740.11 348.02 740.09
  Q 348.01 740.09 347.85 740.31
  Q 347.72 740.50 347.95 740.48
  Q 353.93 739.92 356.11 743.58
  C 358.54 747.67 359.22 755.19 354.65 758.43
  A 0.53 0.53 0.0 0 0 354.73 759.34
  C 359.89 761.73 361.27 767.23 360.42 772.45
  Q 359.05 780.84 350.37 781.25
  Q 350.06 781.26 350.22 781.53
  L 350.39 781.82
  Q 350.42 781.87 350.48 781.86
  C 356.39 781.54 361.51 781.12 365.43 777.94
  C 370.63 773.73 369.74 765.66 364.29 761.99
  C 362.90 761.05 360.86 760.57 359.32 759.91
  Q 358.86 759.71 358.86 759.21
  L 358.86 757.59
  A 0.57 0.57 0.0 0 1 359.42 757.02
  Z
  M 347.97 743.05
  L 347.97 757.19
  A 0.46 0.46 0.0 0 0 348.43 757.65
  L 348.62 757.65
  A 6.67 6.53 -0.0 0 0 355.29 751.12
  L 355.29 749.12
  A 6.67 6.53 0.0 0 0 348.62 742.59
  L 348.43 742.59
  A 0.46 0.46 0.0 0 0 347.97 743.05
  Z
  M 349.95 778.16
  L 350.31 778.47
  Q 350.47 778.62 350.68 778.59
  Q 357.56 777.63 357.98 770.54
  Q 358.39 763.52 352.68 761.47
  C 351.14 760.92 350.02 761.21 348.57 760.70
  Q 347.99 760.49 347.98 761.11
  Q 347.91 769.20 348.05 778.25
  Q 348.05 778.58 348.21 778.74
  Q 348.61 779.15 348.82 778.62
  Q 348.97 778.26 349.13 778.14
  Q 349.55 777.81 349.95 778.16
  Z"
/>
<path fill="#63dfe6" d="
  M 603.26 761.29
  A 0.35 0.35 0.0 0 0 602.68 761.55
  Q 602.68 776.25 602.65 776.75
  Q 602.40 781.40 606.59 780.95
  A 0.61 0.60 -3.0 0 1 607.26 781.55
  L 607.26 783.25
  Q 607.26 784.02 606.49 784.02
  L 587.86 784.02
  Q 587.20 784.02 587.20 783.36
  L 587.20 781.51
  Q 587.20 780.90 587.81 780.97
  Q 589.89 781.21 591.09 779.49
  Q 591.71 778.61 591.69 776.37
  Q 591.65 771.03 591.69 754.59
  C 591.70 751.04 590.82 746.82 591.06 743.32
  Q 591.09 742.80 591.61 742.80
  Q 592.98 742.81 594.27 743.94
  Q 604.09 752.50 620.29 766.83
  A 0.17 0.17 0.0 0 0 620.58 766.70
  Q 620.32 759.81 620.55 751.07
  C 620.61 748.63 619.21 746.66 616.72 746.88
  Q 615.99 746.94 615.99 746.22
  L 615.99 744.55
  Q 615.99 743.86 616.68 743.86
  Q 626.48 743.89 633.01 743.84
  Q 635.27 743.82 635.80 743.20
  Q 636.13 742.81 636.65 742.81
  C 640.33 742.83 643.74 743.81 647.15 743.81
  Q 651.17 743.82 663.50 743.83
  Q 666.37 743.83 673.90 742.48
  Q 674.45 742.39 674.45 742.95
  L 674.45 754.47
  Q 674.45 754.96 673.98 755.10
  Q 673.28 755.31 672.09 755.15
  A 0.80 0.78 87.3 0 1 671.42 754.53
  C 671.21 753.64 671.15 751.99 670.49 751.02
  C 668.54 748.14 664.21 748.53 661.38 748.74
  Q 660.83 748.78 660.82 749.34
  Q 660.77 769.62 660.83 777.69
  C 660.84 780.11 662.15 781.00 664.29 780.98
  A 0.74 0.74 0.0 0 1 665.03 781.72
  L 665.03 783.24
  Q 665.03 784.04 664.23 784.04
  L 646.05 784.04
  Q 645.09 784.04 645.09 783.08
  L 645.09 781.82
  A 0.86 0.85 -88.4 0 1 645.99 780.96
  C 648.67 781.13 649.25 779.17 649.26 776.84
  Q 649.29 763.73 649.29 749.41
  A 0.67 0.67 0.0 0 0 648.67 748.74
  C 644.31 748.39 638.64 748.20 638.69 754.46
  Q 638.70 755.17 637.98 755.17
  L 636.27 755.17
  A 0.66 0.66 0.0 0 1 635.61 754.51
  L 635.61 748.02
  Q 635.61 746.22 633.99 747.02
  L 633.35 747.34
  Q 631.67 748.17 631.63 750.05
  Q 631.20 769.42 632.18 783.73
  A 1.31 1.30 -71.4 0 1 630.02 784.81
  L 603.26 761.29
  Z
  M 612.30 762.93
  Q 605.36 756.56 594.64 747.51
  Q 594.08 747.04 594.08 747.77
  L 594.08 781.43
  Q 594.08 781.66 594.31 781.66
  L 600.06 781.66
  Q 600.29 781.66 600.29 781.43
  L 600.29 756.05
  A 0.21 0.21 0.0 0 1 600.64 755.89
  Q 608.01 762.21 610.89 764.86
  Q 617.83 771.23 628.55 780.28
  Q 629.11 780.75 629.11 780.02
  L 629.11 746.36
  Q 629.11 746.13 628.88 746.13
  L 623.13 746.13
  Q 622.90 746.13 622.90 746.36
  L 622.90 771.74
  A 0.21 0.21 0.0 0 1 622.55 771.91
  Q 615.18 765.58 612.30 762.93
  Z
  M 639.20 747.19
  Q 640.06 746.96 640.21 746.77
  Q 641.23 745.59 639.70 745.90
  Q 637.52 746.33 637.99 747.26
  Q 638.29 747.84 638.85 747.51
  Q 639.03 747.40 639.20 747.19
  Z
  M 658.33 747.62
  Q 658.33 747.11 658.75 746.80
  Q 658.99 746.61 659.29 746.51
  Q 660.21 746.20 659.17 746.18
  Q 658.47 746.16 651.61 746.24
  Q 651.14 746.25 651.37 746.66
  C 652.25 748.17 651.58 749.62 651.58 750.89
  Q 651.72 778.01 651.67 781.43
  Q 651.66 781.65 651.88 781.65
  L 658.20 781.64
  Q 658.41 781.64 658.41 781.43
  L 658.33 747.62
  Z
  M 670.85 747.16
  L 671.49 747.53
  Q 671.99 747.81 672.19 747.28
  Q 672.27 747.07 672.18 746.73
  Q 672.10 746.43 671.81 746.26
  Q 670.84 745.71 669.77 746.14
  Q 669.23 746.36 669.67 746.73
  Q 669.90 746.92 670.21 746.95
  Q 670.55 746.99 670.85 747.16
  Z"
/>
<path fill="#63dfe6" d="
  M 468.31 778.97
  C 475.76 779.49 480.94 778.73 483.34 771.21
  A 1.67 1.66 4.3 0 1 484.67 770.07
  L 485.97 769.86
  Q 487.09 769.68 486.84 770.79
  L 483.90 783.65
  Q 483.81 784.04 483.41 784.04
  L 452.56 784.04
  Q 452.08 784.04 452.08 783.56
  L 452.08 781.60
  A 0.69 0.69 0.0 0 1 452.88 780.92
  C 455.37 781.32 456.32 779.38 456.33 777.10
  Q 456.35 768.20 456.35 750.72
  C 456.35 748.32 455.10 746.55 452.61 746.91
  Q 452.13 746.98 452.13 746.49
  L 452.13 744.41
  A 0.52 0.51 90.0 0 1 452.64 743.89
  Q 461.32 743.85 470.26 743.87
  C 474.87 743.88 478.11 743.11 482.66 742.68
  Q 483.22 742.63 483.22 743.18
  L 483.22 754.49
  Q 483.22 755.43 482.29 755.33
  L 480.94 755.18
  A 1.10 1.10 0.0 0 1 479.97 753.97
  C 480.64 747.88 472.84 748.52 468.39 748.85
  Q 467.81 748.89 467.81 749.48
  L 467.81 761.02
  Q 467.81 761.63 468.42 761.66
  C 472.19 761.89 477.34 762.05 477.41 756.81
  A 0.75 0.74 -86.1 0 1 478.23 756.08
  L 479.76 756.25
  A 0.71 0.70 -86.8 0 1 480.38 756.95
  L 480.38 771.43
  Q 480.38 772.03 479.78 772.03
  L 477.99 772.03
  Q 477.45 772.03 477.36 771.49
  L 476.94 768.85
  A 2.14 2.12 -88.0 0 0 475.34 767.12
  Q 471.85 766.29 468.41 766.61
  Q 467.82 766.66 467.82 767.25
  L 467.82 778.45
  Q 467.82 778.94 468.31 778.97
  Z
  M 465.44 780.25
  L 465.44 746.41
  Q 465.44 746.20 465.23 746.20
  L 458.91 746.20
  Q 458.69 746.20 458.70 746.42
  Q 458.76 749.85 458.68 776.99
  C 458.68 778.26 459.36 779.71 458.48 781.22
  Q 458.25 781.64 458.72 781.64
  Q 465.59 781.71 466.29 781.69
  Q 467.33 781.66 466.41 781.36
  Q 466.11 781.26 465.86 781.07
  Q 465.44 780.76 465.44 780.25
  Z
  M 480.13 747.38
  L 480.39 747.61
  Q 480.96 748.11 481.03 747.36
  Q 481.09 746.81 480.64 746.30
  Q 480.15 745.76 478.64 746.07
  Q 478.01 746.20 478.48 746.68
  Q 478.69 746.89 479.59 747.10
  Q 479.90 747.18 480.13 747.38
  Z
  M 477.27 763.18
  Q 476.90 763.56 476.63 764.22
  A 0.54 0.54 0.0 0 0 477.03 764.95
  Q 477.18 764.98 477.38 764.99
  Q 477.83 764.99 477.95 764.56
  Q 478.21 763.64 477.85 763.20
  A 0.39 0.39 0.0 0 0 477.27 763.18
  Z
  M 481.47 781.67
  Q 481.96 781.66 482.08 781.19
  L 482.70 778.77
  Q 482.94 777.83 482.23 778.50
  Q 479.83 780.76 476.72 781.38
  Q 476.52 781.42 476.58 781.61
  L 476.58 781.62
  Q 476.62 781.74 476.76 781.73
  L 481.47 781.67
  Z"
/>
<path fill="#63dfe6" d="
  M 388.99 778.68
  A 0.43 0.42 89.3 0 0 389.41 779.10
  Q 391.97 779.11 394.65 779.02
  C 399.75 778.86 403.09 775.76 404.50 770.94
  A 1.32 1.32 0.0 0 1 405.74 769.99
  L 407.30 769.94
  Q 408.19 769.92 407.99 770.79
  L 405.01 783.81
  Q 404.96 784.04 404.72 784.04
  L 373.86 784.04
  Q 373.16 784.04 373.16 783.34
  L 373.16 781.73
  Q 373.16 780.87 374.01 780.98
  C 376.36 781.26 377.39 779.30 377.39 777.10
  Q 377.38 756.27 377.43 750.92
  C 377.45 748.78 376.39 746.72 374.13 746.88
  Q 373.22 746.94 373.20 746.04
  L 373.16 744.75
  Q 373.13 743.86 374.02 743.86
  L 392.49 743.86
  Q 393.51 743.86 393.28 744.86
  L 392.97 746.23
  A 0.94 0.92 -81.8 0 1 392.02 746.95
  C 389.75 746.84 388.95 748.05 388.93 750.24
  Q 388.85 764.51 388.99 778.68
  Z
  M 386.55 780.30
  L 386.54 746.40
  Q 386.54 746.19 386.33 746.19
  L 380.00 746.19
  Q 379.78 746.19 379.79 746.41
  Q 379.85 749.85 379.78 777.04
  C 379.78 778.31 380.46 779.76 379.58 781.27
  Q 379.35 781.69 379.82 781.69
  Q 386.70 781.76 387.40 781.74
  Q 388.44 781.71 387.52 781.41
  Q 387.22 781.31 386.97 781.12
  Q 386.55 780.81 386.55 780.30
  Z
  M 398.39 781.28
  Q 397.04 781.54 398.42 781.67
  Q 398.96 781.72 402.18 781.76
  A 0.91 0.89 16.6 0 0 402.96 781.35
  Q 403.76 780.16 403.80 778.57
  Q 403.82 777.70 403.24 778.36
  Q 401.16 780.75 398.39 781.28
  Z"
/>
<path fill="#63dfe6" d="
  M 449.52 746.88
  A 2.05 2.04 1.7 0 0 447.35 748.92
  Q 447.33 760.54 447.38 766.17
  Q 447.44 773.61 445.96 776.63
  Q 443.25 782.15 437.13 783.87
  C 428.58 786.28 416.30 785.00 412.27 775.92
  Q 410.82 772.67 411.02 765.00
  Q 411.15 760.01 411.13 750.25
  Q 411.12 746.89 407.99 746.80
  Q 407.26 746.77 407.26 746.05
  L 407.26 744.70
  Q 407.26 743.87 408.09 743.87
  L 425.21 743.87
  Q 426.32 743.87 426.32 744.99
  L 426.32 746.02
  A 0.98 0.98 0.0 0 1 425.14 746.98
  Q 422.71 746.47 422.66 749.43
  Q 422.41 765.32 422.57 768.25
  C 422.84 772.98 423.63 777.22 428.28 779.19
  Q 431.35 780.48 434.40 779.42
  Q 440.43 777.32 440.72 770.44
  Q 441.03 763.04 440.83 749.92
  Q 440.78 746.62 437.97 746.87
  A 0.81 0.81 0.0 0 1 437.08 746.06
  L 437.08 744.77
  Q 437.08 743.88 437.97 743.88
  L 450.44 743.88
  Q 451.15 743.88 451.11 744.59
  L 451.01 746.23
  Q 450.96 746.96 450.23 746.92
  L 449.52 746.88
  Z
  M 427.05 782.21
  Q 427.80 782.24 427.13 781.89
  Q 423.03 779.73 421.69 776.60
  Q 420.01 772.67 420.06 770.51
  Q 420.32 758.87 420.06 746.99
  Q 420.04 746.15 419.20 746.15
  L 413.71 746.15
  Q 412.81 746.15 413.50 746.73
  Q 414.24 747.35 413.77 748.14
  Q 413.49 748.60 413.48 749.14
  Q 413.35 762.21 413.56 769.53
  C 413.79 777.53 419.59 781.92 427.05 782.21
  Z
  M 438.96 780.28
  C 443.60 778.15 445.00 772.87 444.99 768.01
  Q 444.97 761.02 444.92 746.73
  A 0.78 0.76 3.4 0 0 444.23 745.97
  L 443.88 745.93
  A 0.62 0.61 3.0 0 0 443.20 746.54
  Q 443.17 761.43 443.17 769.94
  C 443.16 774.45 442.13 777.24 438.86 780.12
  Q 438.37 780.55 438.96 780.28
  Z"
/>
<path fill="#63dfe6" d="
  M 503.61 766.54
  A 0.30 0.29 -73.4 0 0 503.15 766.79
  Q 503.28 773.65 503.19 776.75
  C 503.12 779.09 504.56 780.97 506.79 781.07
  Q 507.44 781.09 507.44 781.75
  L 507.44 783.28
  A 0.73 0.73 0.0 0 1 506.71 784.01
  L 488.21 784.01
  Q 487.65 784.01 487.65 783.45
  L 487.65 781.54
  Q 487.65 781.06 488.13 781.05
  Q 489.89 781.01 491.15 779.39
  Q 491.81 778.54 491.81 776.42
  Q 491.82 759.32 491.78 751.49
  C 491.77 749.32 491.20 746.81 488.67 746.88
  Q 487.54 746.91 487.54 745.78
  L 487.54 744.96
  Q 487.54 743.87 488.63 743.87
  Q 502.46 743.85 510.51 743.90
  Q 512.16 743.91 514.57 744.68
  Q 523.78 747.59 523.36 756.96
  Q 523.05 764.01 516.78 767.28
  Q 510.04 770.80 503.61 766.54
  Z
  M 500.89 746.40
  A 0.26 0.26 0.0 0 0 500.63 746.14
  L 494.37 746.14
  A 0.26 0.26 0.0 0 0 494.11 746.40
  L 494.11 781.38
  A 0.26 0.26 0.0 0 0 494.37 781.64
  L 500.63 781.64
  A 0.26 0.26 0.0 0 0 500.89 781.38
  L 500.89 746.40
  Z
  M 514.04 755.08
  C 514.28 759.12 511.77 763.47 508.17 765.36
  A 0.24 0.23 36.1 0 0 508.24 765.80
  Q 517.76 767.45 520.38 758.93
  Q 521.75 754.44 519.06 750.63
  C 516.81 747.45 512.22 746.46 508.48 746.14
  Q 507.60 746.07 508.39 746.47
  Q 513.68 749.20 514.04 755.08
  Z
  M 503.23 748.82
  L 503.21 763.26
  A 0.20 0.20 0.0 0 0 503.41 763.46
  L 503.99 763.46
  A 6.98 6.12 0.1 0 0 510.98 757.36
  L 510.98 754.76
  A 6.98 6.12 0.1 0 0 504.01 748.62
  L 503.43 748.62
  A 0.20 0.20 0.0 0 0 503.23 748.82
  Z"
/>
<path fill="#63dfe6" d="
  M 540.38 765.71
  Q 540.57 769.14 540.46 776.14
  C 540.42 778.63 541.12 781.21 543.90 781.01
  Q 544.63 780.96 544.63 781.69
  L 544.63 783.36
  A 0.69 0.69 0.0 0 1 543.94 784.05
  L 525.32 784.05
  A 0.45 0.45 0.0 0 1 524.87 783.60
  L 524.87 781.51
  Q 524.87 781.00 525.39 781.01
  C 527.69 781.08 528.91 779.57 528.92 777.20
  Q 528.95 762.81 528.94 750.26
  Q 528.93 746.73 526.15 746.97
  Q 525.18 747.05 525.02 746.09
  L 524.82 744.81
  Q 524.67 743.89 525.60 743.89
  Q 542.32 743.88 546.78 743.85
  C 553.74 743.80 560.10 746.98 560.46 754.78
  Q 560.79 761.92 554.89 765.53
  A 0.61 0.61 0.0 0 0 554.85 766.55
  Q 556.10 767.45 556.82 768.68
  C 558.62 771.77 564.29 782.20 568.30 780.69
  C 569.92 780.08 570.22 778.89 570.23 777.19
  Q 570.33 763.77 570.28 750.40
  C 570.28 747.99 568.94 746.74 566.65 746.95
  A 0.72 0.71 -2.9 0 1 565.86 746.24
  L 565.86 744.54
  Q 565.86 743.88 566.53 743.88
  L 585.51 743.88
  Q 586.12 743.88 586.12 744.49
  L 586.12 746.26
  A 0.61 0.60 85.6 0 1 585.61 746.86
  L 584.02 747.12
  A 2.78 2.77 -4.5 0 0 581.67 749.86
  Q 581.65 775.74 581.64 776.56
  Q 581.57 781.21 585.59 780.99
  A 0.50 0.50 0.0 0 1 586.11 781.49
  L 586.11 783.51
  Q 586.11 784.04 585.58 784.04
  Q 560.02 784.07 559.75 784.07
  Q 552.49 784.14 548.58 778.18
  Q 545.53 773.51 543.37 768.15
  Q 543.06 767.36 540.76 765.52
  Q 540.35 765.18 540.38 765.71
  Z
  M 538.16 747.58
  Q 538.16 747.06 538.58 746.75
  Q 538.84 746.56 539.14 746.46
  Q 540.06 746.16 539.02 746.13
  Q 538.32 746.11 531.41 746.16
  Q 530.94 746.16 531.17 746.58
  C 532.05 748.10 531.36 749.56 531.36 750.83
  Q 531.37 778.10 531.30 781.55
  Q 531.29 781.77 531.51 781.77
  L 537.86 781.79
  Q 538.07 781.79 538.07 781.58
  L 538.16 747.58
  Z
  M 550.63 764.15
  Q 556.29 762.83 557.59 757.59
  Q 559.03 751.76 554.47 748.49
  C 552.36 746.98 547.55 746.32 545.19 745.91
  Q 545.14 745.90 545.12 745.94
  L 544.99 746.17
  Q 544.85 746.42 545.11 746.52
  C 546.90 747.17 548.53 747.62 549.57 749.32
  Q 552.06 753.42 550.56 758.54
  Q 549.16 763.30 545.66 764.64
  Q 545.11 764.85 545.33 765.39
  C 547.63 771.24 550.65 780.13 557.43 780.96
  Q 558.79 781.13 561.38 781.62
  Q 562.09 781.76 561.68 781.17
  Q 556.30 773.42 553.81 769.78
  C 552.62 768.05 549.32 767.58 550.00 764.77
  Q 550.13 764.27 550.63 764.15
  Z
  M 572.62 763.91
  Q 572.63 776.25 572.71 777.92
  C 572.74 778.71 573.21 779.72 573.04 780.27
  Q 572.91 780.68 572.56 780.91
  Q 572.39 781.02 572.30 781.16
  Q 571.91 781.76 572.62 781.72
  Q 574.31 781.63 576.00 781.63
  Q 577.69 781.63 579.38 781.72
  Q 580.09 781.75 579.70 781.15
  Q 579.61 781.01 579.44 780.91
  Q 579.09 780.68 578.96 780.27
  C 578.78 779.72 579.25 778.71 579.29 777.91
  Q 579.36 776.24 579.36 763.91
  Q 579.35 751.57 579.27 749.90
  C 579.23 749.11 578.76 748.10 578.93 747.55
  Q 579.06 747.14 579.41 746.91
  Q 579.58 746.80 579.67 746.66
  Q 580.06 746.06 579.35 746.10
  Q 577.66 746.19 575.97 746.19
  Q 574.28 746.19 572.59 746.10
  Q 571.88 746.06 572.28 746.66
  Q 572.37 746.80 572.54 746.91
  Q 572.89 747.14 573.02 747.55
  C 573.19 748.10 572.72 749.11 572.69 749.91
  Q 572.61 751.57 572.62 763.91
  Z
  M 540.45 749.27
  L 540.49 762.39
  A 0.27 0.27 0.0 0 0 540.76 762.66
  L 542.11 762.66
  A 5.94 5.42 -0.2 0 0 548.03 757.22
  L 548.03 754.40
  A 5.94 5.42 -0.2 0 0 542.07 749.00
  L 540.72 749.00
  A 0.27 0.27 0.0 0 0 540.45 749.27
  Z"
/>
</svg>
