<?xml version="1.0" encoding="UTF-8" standalone="no"?>
<!DOCTYPE svg PUBLIC "-//W3C//DTD SVG 1.1//EN" "http://www.w3.org/Graphics/SVG/1.1/DTD/svg11.dtd">
<svg width="100%" height="100%" viewBox="0 0 1067 1064" version="1.1" xmlns="http://www.w3.org/2000/svg" xmlns:xlink="http://www.w3.org/1999/xlink" xml:space="preserve" xmlns:serif="http://www.serif.com/" style="fill-rule:evenodd;clip-rule:evenodd;stroke-linejoin:round;stroke-miterlimit:2;">
    <g transform="matrix(1.85715,0,0,1.85715,-455.959,-234.347)">
        <path d="M606.47,551.14C609.677,553.127 611.23,556.38 611.13,560.9C611.117,561.367 611.343,561.603 611.81,561.61C648.57,562.197 684.23,570 718.79,585.02C718.802,585.025 718.815,585.03 718.827,585.035C719.066,585.117 719.328,584.992 719.409,584.759C719.413,584.746 719.417,584.733 719.42,584.72L782.88,338.38C782.891,338.336 782.896,338.29 782.896,338.244C782.896,337.977 782.711,337.742 782.45,337.68L768.85,334.57C768.63,334.523 768.547,334.393 768.6,334.18L771.68,321.44C771.74,321.187 771.9,321.073 772.16,321.1L798.65,323.51C798.66,323.511 798.671,323.513 798.681,323.515C798.951,323.563 799.135,323.82 799.088,324.085C799.086,324.097 799.083,324.108 799.08,324.12L729.92,600.3C729.885,600.449 729.752,600.555 729.599,600.555C729.547,600.555 729.496,600.543 729.45,600.52C692.39,582.41 652.46,569.75 611.34,565.32C611.193,565.307 611.12,565.373 611.12,565.52L611.12,574.29C611.12,574.497 611.223,574.613 611.43,574.64C621.323,575.947 629.71,577.367 636.59,578.9C672.25,586.84 706.07,599.763 738.05,617.67C738.123,617.709 738.204,617.73 738.287,617.73C738.513,617.73 738.711,617.578 738.77,617.36L804.18,363.41C804.193,363.36 804.2,363.308 804.2,363.256C804.2,362.975 804.004,362.731 803.73,362.67L792.72,360.16C792.595,360.126 792.518,359.996 792.55,359.87L795.84,346.74C795.938,346.347 796.313,346.084 796.71,346.13L819.41,348.76C819.93,348.82 820.127,349.107 820,349.62L747.88,637.63C747.829,637.834 747.644,637.978 747.434,637.978C747.331,637.978 747.231,637.943 747.15,637.88C723.43,619.813 697.567,605.23 669.56,594.13C650.587,586.61 631.44,580.497 612.12,575.79C612.089,575.782 612.057,575.777 612.025,575.773C611.589,575.72 611.188,576.031 611.136,576.461C611.132,576.494 611.13,576.527 611.13,576.56C611.137,586.113 611.123,591.41 611.09,592.45C610.983,595.703 609.747,598.223 607.38,600.01C606.027,601.023 603.66,601.903 600.28,602.65C595.387,603.723 590.51,604.763 585.65,605.77C548.017,613.543 509.807,613.613 471.02,605.98C470.44,605.86 464.963,604.69 454.59,602.47C450.877,601.67 448.367,600.637 447.06,599.37C444.907,597.283 443.893,594.507 444.02,591.04C444.053,590.033 444.083,585.897 444.11,578.63C444.11,578.615 444.109,578.601 444.107,578.586C444.084,578.412 443.917,578.289 443.738,578.313C443.725,578.314 443.712,578.317 443.7,578.32C398.4,590.39 355.34,609.4 318.57,637.86C318.473,637.934 318.353,637.974 318.231,637.974C317.978,637.974 317.756,637.804 317.69,637.56L245.56,349.51C245.407,348.883 245.65,348.543 246.29,348.49L269.24,346.37C269.448,346.354 269.636,346.491 269.68,346.69L273.06,359.8C273.067,359.825 273.07,359.852 273.07,359.878C273.07,360.017 272.975,360.138 272.84,360.17L261.87,362.68C261.457,362.773 261.303,363.027 261.41,363.44L326.79,617.2C326.797,617.227 326.805,617.253 326.815,617.279C326.94,617.595 327.308,617.75 327.629,617.623C327.653,617.614 327.677,617.603 327.7,617.59C364.173,597.17 402.88,583.307 443.82,576C443.98,575.973 444.06,575.877 444.06,575.71L444.06,566.79C444.06,566.637 443.983,566.57 443.83,566.59C406.74,571.83 370.13,584.01 336.15,600.5C336.103,600.523 336.052,600.535 335.999,600.535C335.845,600.535 335.709,600.43 335.67,600.28L266.59,324.42C266.45,323.86 266.667,323.553 267.24,323.5L293.32,321.1C293.568,321.079 293.797,321.245 293.86,321.49L297,334.01C297.001,334.013 297.001,334.016 297.002,334.019C297.063,334.275 296.897,334.537 296.636,334.599C296.634,334.599 296.632,334.6 296.63,334.6L282.99,337.72C282.988,337.72 282.986,337.721 282.984,337.721C282.761,337.778 282.623,338.004 282.678,338.222C282.679,338.225 282.679,338.227 282.68,338.23L346.24,584.94C346.242,584.946 346.244,584.952 346.246,584.958C346.294,585.092 346.439,585.165 346.568,585.119C346.576,585.116 346.583,585.113 346.59,585.11C377.463,571.61 409.75,563.87 443.45,561.89L443.456,561.89C443.822,561.865 444.104,561.548 444.08,561.187L444.08,561.18C443.72,556.427 445.503,552.92 449.43,550.66C449.817,550.44 449.79,550.327 449.35,550.32C417.403,549.78 386.427,555.313 356.42,566.92C356.407,566.925 356.394,566.93 356.381,566.934C356.104,567.024 355.802,566.866 355.71,566.585C355.706,566.573 355.703,566.562 355.7,566.55L288.92,290.12C288.912,290.087 288.908,290.053 288.908,290.018C288.908,289.797 289.079,289.609 289.3,289.59L319.56,286.8C319.92,286.767 320.143,286.923 320.23,287.27L323.31,299.59C323.312,299.6 323.315,299.609 323.317,299.619C323.4,300.022 323.142,300.421 322.744,300.504C322.733,300.506 322.721,300.508 322.71,300.51L305.03,303.37C304.81,303.408 304.647,303.6 304.647,303.823C304.647,303.859 304.652,303.895 304.66,303.93L366.42,550.59C366.52,550.97 366.763,551.127 367.15,551.06C370.477,550.5 374.343,549.84 378.75,549.08C406.01,544.38 433.223,543.907 460.39,547.66C460.677,547.7 460.82,547.573 460.82,547.28L460.82,535.46C460.819,535.195 460.627,534.969 460.37,534.93C433.483,531.003 406.76,531.467 380.2,536.32C379.973,536.36 379.833,536.267 379.78,536.04L316.24,257.96C316.23,257.916 316.225,257.871 316.225,257.825C316.225,257.524 316.451,257.267 316.75,257.23C348.477,253.763 379.983,255.383 411.27,262.09C411.659,262.17 412.061,262.018 412.3,261.7C414.667,258.533 416.92,256.067 419.06,254.3C422.12,251.76 426.05,249.75 428.98,246.51C431.887,243.283 435.31,239.737 439.25,235.87C439.7,235.427 439.899,234.788 439.78,234.17C438.133,225.457 436.753,216.37 435.64,206.91C434.84,200.043 434.603,194.83 434.93,191.27C435.48,185.35 441.36,186.8 445.51,188.3C454.83,191.67 462.84,197.8 470.98,204.48C472.558,205.774 474.871,205.714 476.38,204.34C480.753,200.353 483.667,197.65 485.12,196.23C490,191.45 494.26,189.13 500.6,192.11C522.48,202.37 534.897,208.183 537.85,209.55C546.563,213.577 555.907,219.987 565.88,228.78C581.973,242.96 594.507,259.847 603.48,279.44C603.481,279.442 603.481,279.443 603.482,279.445C603.553,279.599 603.746,279.664 603.91,279.59C648.31,258.02 700.21,251.9 749.02,257.25C749.347,257.29 749.473,257.467 749.4,257.78L685.85,535.86C685.791,536.143 685.51,536.33 685.22,536.28C654.873,530.807 624.713,530.96 594.74,536.74C594.427,536.8 594.27,536.99 594.27,537.31L594.27,548.93C594.271,549.165 594.465,549.358 594.7,549.358C594.727,549.358 594.754,549.355 594.78,549.35C629.48,543.217 664.073,543.857 698.56,551.27C698.84,551.33 699.017,551.22 699.09,550.94L760.88,304.19C760.895,304.131 760.902,304.071 760.902,304.01C760.902,303.654 760.642,303.347 760.29,303.29L742.63,300.51C742.627,300.509 742.623,300.509 742.62,300.508C742.405,300.464 742.263,300.255 742.306,300.046C742.308,300.04 742.309,300.035 742.31,300.03L745.2,287.38C745.293,286.96 745.553,286.77 745.98,286.81L776.45,289.59C776.683,289.61 776.773,289.737 776.72,289.97L709.88,566.64C709.877,566.651 709.874,566.661 709.871,566.672C709.793,566.912 709.536,567.047 709.301,566.971C709.291,566.968 709.28,566.964 709.27,566.96C675.99,554.073 641.757,548.667 606.57,550.74C606.459,550.752 606.375,550.847 606.375,550.959C606.375,551.031 606.41,551.099 606.47,551.14ZM444.21,199.61C444.209,199.557 444.213,199.504 444.221,199.452C444.304,198.92 444.813,198.552 445.35,198.635C445.401,198.643 445.451,198.654 445.5,198.67C447.933,199.45 450.28,200.567 452.54,202.02C457.94,205.493 462.887,208.867 467.38,212.14C467.433,212.18 467.483,212.193 467.53,212.18C467.617,212.153 467.64,212.123 467.6,212.09C460.853,206.53 453.657,201.617 446.01,197.35C445.696,197.176 445.343,197.084 444.984,197.084C444.108,197.084 443.319,197.63 443.01,198.45C442.22,200.54 442.61,203.12 443.35,205.37C445.87,212.95 447.23,220.873 447.43,229.14C447.443,229.493 447.603,229.76 447.91,229.94C448.163,230.087 448.437,230.11 448.73,230.01C449.043,229.897 449.263,229.687 449.39,229.38C449.677,228.673 449.83,227.717 449.85,226.51C449.97,220.47 449.43,215.72 447.42,209.89C446.76,207.96 444.25,203.18 444.21,199.61ZM511.17,220.51C524.357,227.937 536.74,236.043 548.32,244.83C562.46,255.55 572.8,268.06 582.95,282.63C592.257,295.97 598.133,310.703 600.58,326.83C601.267,331.363 602.537,341.683 604.39,357.79C605.223,365.003 606.43,371.333 608.01,376.78C612.91,393.65 623.37,407.49 635.39,420.75C635.477,420.85 635.567,420.85 635.66,420.75L635.67,420.75C635.75,420.67 635.75,420.58 635.67,420.48C631.65,415.493 627.1,409.333 622.02,402C613.347,389.473 608.113,375.58 606.32,360.32C604.38,343.85 603.28,328.28 599.42,313.82C595.67,299.76 588.45,287.25 579.76,274.9C574.52,267.46 568.517,260.593 561.75,254.3C546.657,240.26 529.703,228.97 510.89,220.43C510.87,220.423 510.867,220.413 510.88,220.4L510.88,220.38L510.89,220.38C510.937,220.4 510.973,220.413 511,220.42C511.053,220.447 511.11,220.477 511.17,220.51ZM428.79,275.61C421.27,274 420.1,267.36 420.95,260.72C420.993,260.413 420.858,260.104 420.6,259.92C419.993,259.487 419.497,259.58 419.11,260.2C415.817,265.513 413.8,271.193 413.06,277.24C412.924,278.328 413.62,279.36 414.68,279.64C415.947,279.98 417.453,280.07 419.2,279.91C424.967,279.383 430.983,278.283 437.25,276.61C437.35,276.583 437.39,276.52 437.37,276.42L437.33,276.14C437.317,276.06 437.27,276.023 437.19,276.03C434.137,276.297 431.337,276.157 428.79,275.61ZM594.27,525.04L594.27,531.46C594.27,531.833 594.45,531.963 594.81,531.85C620.597,523.857 646.903,521 673.73,523.28C674.023,523.303 674.292,523.106 674.36,522.82L734.24,272.2C734.24,272.198 734.241,272.196 734.241,272.194C734.297,271.942 734.132,271.688 733.875,271.631C733.873,271.631 733.872,271.63 733.87,271.63C690.037,263.11 647.48,267.327 606.2,284.28C605.902,284.409 605.758,284.754 605.88,285.05C609.24,293.357 611.927,301.977 613.94,310.91C614.8,314.743 615.887,321.317 617.2,330.63C619.087,344.023 620.883,356.297 622.59,367.45C624.043,376.923 626.027,385.287 628.54,392.54C629.28,394.673 630.693,397.957 632.78,402.39C636.08,409.39 638.44,414.86 639.63,421.54C639.665,421.738 639.683,421.939 639.683,422.14C639.683,424.016 638.139,425.56 636.263,425.56L617.18,425.56C617.03,425.56 616.88,425.568 616.73,425.585C614.533,425.831 612.929,427.847 613.176,430.049C613.192,430.197 613.217,430.345 613.25,430.49C617.81,450.6 620.91,470.63 620.25,490.62C620.11,494.98 620.06,500.1 618.45,503C617.303,505.06 615.5,506.593 613.04,507.6C599.85,513 590.57,512.51 572.75,512.52C536.497,512.547 500.247,512.553 464,512.54C459.327,512.54 452.623,511.44 443.89,509.24C437.76,507.7 433.53,504.84 432.04,499C431.507,496.907 431.857,493.24 433.09,488C435.73,476.82 438.987,466.35 442.86,456.59C447.32,445.36 453.25,433.71 461.3,425.3C475.08,410.91 487.81,394.14 496.25,375.78C500.937,365.58 503.413,354.903 503.68,343.75C503.713,342.31 503.34,338.643 502.56,332.75C502.04,328.77 500.58,325.96 496.69,325.31C495.223,325.057 493.073,325.577 490.24,326.87C484.873,329.317 480.56,331.2 477.3,332.52C467.31,336.57 456.76,336.77 445.58,336.32C442.97,336.22 438.93,336.94 436.76,338.23C422.433,346.743 412.733,352.46 407.66,355.38C403.227,357.94 398.357,358.74 393.05,357.78C385.85,356.487 380.543,355.34 377.13,354.34C373.31,353.22 364.02,350.29 367.26,344.78C375.213,331.22 385.47,313.69 398.03,292.19C401.4,286.42 402.86,282.01 404.78,276.28C405.14,275.2 405.967,273.227 407.26,270.36C407.289,270.295 407.304,270.225 407.304,270.154C407.304,269.908 407.123,269.697 406.88,269.66C381.68,266.007 356.57,266.69 331.55,271.71C331.417,271.739 331.322,271.858 331.322,271.993C331.322,272.016 331.325,272.038 331.33,272.06L391.24,522.82C391.308,523.101 391.572,523.293 391.86,523.27C415.053,521.337 437.84,523.19 460.22,528.83C460.259,528.84 460.3,528.845 460.34,528.845C460.612,528.845 460.837,528.622 460.84,528.35L460.84,525.08C460.84,524.753 461.003,524.59 461.33,524.59L593.83,524.59C594.123,524.59 594.27,524.74 594.27,525.04ZM401.48,299.12C402.753,296.567 402.65,296.51 401.17,298.95C391.81,314.397 382.833,329.8 374.24,345.16C374.203,345.223 374.184,345.294 374.184,345.367C374.184,345.592 374.369,345.777 374.594,345.777C374.644,345.777 374.693,345.768 374.74,345.75C374.78,345.73 374.897,345.597 375.09,345.35C377.87,341.717 380.617,337.547 383.33,332.84C389.83,321.58 395.88,310.34 401.48,299.12ZM433.72,326.35C433.693,326.357 433.667,326.367 433.64,326.38C441.787,325.467 450.167,324.203 458.78,322.59C466.57,321.13 471.96,318.01 478.8,313.48C478.893,313.42 478.917,313.34 478.87,313.24L478.86,313.23C478.807,313.117 478.723,313.087 478.61,313.14C467.39,318.37 459.2,321.63 447.79,323.53C442.937,324.337 438.247,325.277 433.72,326.35ZM457.46,499.2C453.44,494.85 450.17,493.01 451.61,486.06C452.437,482.067 454.007,477.32 456.32,471.82C462.72,456.573 470.03,440.86 478.25,424.68C478.29,424.593 478.263,424.51 478.17,424.43C478.077,424.35 477.993,424.37 477.92,424.49C470.68,435.59 464.19,445.997 458.45,455.71C455.283,461.077 453.033,465.49 451.7,468.95C449.407,474.897 448.607,481.583 449.3,489.01C449.75,493.84 453.38,497.24 457.26,499.46C457.887,499.82 457.953,499.733 457.46,499.2ZM594.63,436.2L594.63,436.15C594.63,436.143 594.627,436.14 594.62,436.14L594.6,436.14C594.587,436.14 594.58,436.147 594.58,436.16C597.31,454.63 599.58,470.15 600.65,486.04C601.17,493.71 601.7,498.03 599.4,503.82C598.587,505.873 598.823,506 600.11,504.2C603.31,499.74 603.01,495.95 602.68,489.84C601.72,472.1 599.147,454.557 594.96,437.21C594.853,436.757 594.753,436.45 594.66,436.29C594.64,436.257 594.63,436.227 594.63,436.2ZM498.669,534.452C498.68,534.376 497.787,534.181 496.69,534.021C495.594,533.862 494.683,533.792 494.671,533.868C494.66,533.944 495.553,534.139 496.65,534.298C497.746,534.458 498.657,534.528 498.669,534.452ZM530.68,537.83C542.62,539.277 552.897,540.713 561.51,542.14C561.522,542.136 561.529,542.124 561.529,542.112C561.529,542.104 561.526,542.096 561.52,542.09C560.253,541.677 558.91,541.323 557.49,541.03C549.19,539.303 540.297,537.863 530.81,536.71C521.323,535.563 512.347,534.837 503.88,534.53C502.427,534.477 501.037,534.5 499.71,534.6C499.702,534.606 499.697,534.615 499.697,534.625C499.697,534.635 499.702,534.644 499.71,534.65C508.41,535.317 518.733,536.377 530.68,537.83ZM575.971,545.382C575.993,545.308 575.59,545.125 575.079,544.976C574.569,544.826 574.131,544.764 574.109,544.838C574.087,544.912 574.49,545.095 575.001,545.244C575.511,545.394 575.949,545.456 575.971,545.382ZM580.28,546.416C580.308,546.315 579.632,546.036 578.781,545.797C577.931,545.558 577.209,545.444 577.18,545.544C577.152,545.645 577.828,545.924 578.679,546.163C579.529,546.402 580.251,546.516 580.28,546.416ZM456.94,580.17L458.8,560.11C458.801,560.103 458.801,560.096 458.801,560.089C458.801,559.97 458.709,559.87 458.59,559.86L458.41,559.85C457.575,559.771 456.464,564.262 455.95,569.8C455.95,569.8 455.92,570.121 455.92,570.122C455.406,575.661 455.671,580.282 456.507,580.36L456.51,580.36L456.69,580.37C456.813,580.382 456.924,580.292 456.94,580.17ZM597.142,590.622L597.142,590.623C597.515,590.641 598.145,584.028 598.539,575.973C598.933,567.919 598.951,561.276 598.578,561.258L598.578,561.257C598.205,561.239 597.575,567.852 597.181,575.907C596.787,583.961 596.769,590.604 597.142,590.622ZM460.53,593.56C462.137,593.7 467.017,594.043 475.17,594.59C493.943,595.857 511.97,596.82 529.25,597.48C540.79,597.92 554.2,598.02 565.17,592.89C566.597,592.223 566.523,591.937 564.95,592.03C533.223,593.89 499.917,594.247 465.03,593.1C464.29,593.08 462.79,593.137 460.53,593.27C459.27,593.35 459.27,593.447 460.53,593.56Z" style="fill:rgb(98,223,230);fill-rule:nonzero;"/>
    </g>
</svg>
