<?xml version="1.0" encoding="UTF-8" standalone="no"?>
<!DOCTYPE svg PUBLIC "-//W3C//DTD SVG 1.1//EN" "http://www.w3.org/Graphics/SVG/1.1/DTD/svg11.dtd">
<svg width="100%" height="100%" viewBox="0 0 745 81" version="1.1" xmlns="http://www.w3.org/2000/svg" xmlns:xlink="http://www.w3.org/1999/xlink" xml:space="preserve" xmlns:serif="http://www.serif.com/" style="fill-rule:evenodd;clip-rule:evenodd;stroke-linejoin:round;stroke-miterlimit:2;">
    <g transform="matrix(0.999729,0,0,0.950549,-146.333,-382.72)">
        <path d="M192.7,408.6C203.35,408.59 215.12,409.57 225.2,406.21C225.493,406.11 225.64,406.213 225.64,406.52L225.64,426.86C225.64,427.227 225.457,427.41 225.09,427.41L221.52,427.41C221.515,427.41 221.51,427.41 221.505,427.41C221.225,427.402 221.001,427.161 221.009,426.876C221.009,426.871 221.01,426.865 221.01,426.86C221.31,421.78 219.81,417.51 214.19,416.68C211.057,416.22 207.103,416.133 202.33,416.42C202.049,416.441 201.829,416.678 201.83,416.96C201.863,436.52 201.887,454.187 201.9,469.96C201.9,474.49 204.58,475.74 208.74,475.92C209.045,475.935 209.29,476.18 209.3,476.48L209.48,479.95C209.5,480.263 209.273,480.433 208.8,480.46C208.38,480.48 203.043,480.497 192.79,480.51C182.543,480.523 177.21,480.52 176.79,480.5C176.317,480.473 176.09,480.303 176.11,479.99L176.28,476.52C176.29,476.22 176.535,475.975 176.84,475.96C181,475.77 183.67,474.51 183.66,469.98C183.633,454.207 183.61,436.54 183.59,416.98C183.591,416.698 183.371,416.461 183.09,416.44C178.317,416.167 174.363,416.267 171.23,416.74C165.62,417.58 164.13,421.85 164.44,426.93C164.44,426.935 164.441,426.94 164.441,426.945C164.449,427.23 164.226,427.471 163.946,427.48C163.941,427.48 163.935,427.48 163.93,427.48L160.36,427.49C159.993,427.497 159.81,427.317 159.81,426.95L159.76,406.61C159.76,406.303 159.903,406.197 160.19,406.29C170.28,409.62 182.05,408.61 192.7,408.6ZM168.29,413.25C169.21,412.997 169.737,412.853 169.87,412.82C171.677,412.407 171.65,412.18 169.79,412.14C167.57,412.087 165.607,411.85 163.9,411.43C163.54,411.337 163.36,411.473 163.36,411.84L163.34,415.56C163.34,415.593 163.346,415.625 163.358,415.655C163.411,415.782 163.562,415.841 163.694,415.787C163.726,415.774 163.755,415.754 163.78,415.73C164.913,414.61 166.417,413.783 168.29,413.25ZM220.62,411.7C219.23,412.14 217.59,412.01 215.18,412.13C215.013,412.13 214.9,412.19 214.84,412.31C214.7,412.583 214.78,412.733 215.08,412.76C217.047,412.92 219.18,413.913 221.48,415.74C221.82,416.007 221.99,415.927 221.99,415.5L221.99,412.03C221.99,411.59 221.773,411.413 221.34,411.5C221.18,411.527 220.94,411.593 220.62,411.7ZM198.24,413.98C198.24,413.1 198.683,412.66 199.57,412.66L212.07,412.72C212.283,412.727 212.38,412.663 212.36,412.53L212.36,412.52C212.34,412.413 212.283,412.357 212.19,412.35C198.737,412.19 185.28,412.203 171.82,412.39C171.773,412.39 171.767,412.467 171.8,412.62C171.8,412.633 171.807,412.64 171.82,412.64L186,412.75C186.827,412.757 187.24,413.173 187.24,414C187.267,444.773 187.28,464.397 187.28,472.87C187.28,474.22 186.55,475.31 185.96,476.26C185.693,476.693 185.813,476.91 186.32,476.91L199.09,476.91C199.45,476.91 199.553,476.75 199.4,476.43C198.613,474.817 198.22,473.75 198.22,473.23C198.207,438.09 198.213,418.34 198.24,413.98Z" style="fill:rgb(255,255,254);fill-rule:nonzero;"/>
    </g>
    <g transform="matrix(0.999729,0,0,0.950549,-146.333,-382.72)">
        <path d="M356.41,449.7L356.41,471.97C356.41,472.334 356.706,472.635 357.07,472.64C361.657,472.727 365.32,472.703 368.06,472.57C377.4,472.13 382.57,465.65 384.96,457.24C385,457.103 385.127,457.009 385.27,457.01L389.43,457.01C389.597,457.01 389.66,457.09 389.62,457.25L384.51,479.95C384.43,480.323 384.197,480.51 383.81,480.51L331.2,480.51C330.84,480.51 330.66,480.33 330.66,479.97L330.66,476.3C330.66,475.913 330.847,475.753 331.22,475.82C334.61,476.42 338.16,474.19 338.16,470.45C338.167,443.143 338.163,425.527 338.15,417.6C338.15,417.022 337.964,416.461 337.62,416C336.133,414.033 333.93,413.153 331.01,413.36C330.783,413.373 330.67,413.267 330.67,413.04L330.67,409.01C330.67,408.84 330.81,408.7 330.98,408.7C345.527,408.7 357.95,408.693 368.25,408.68C372.743,408.68 377.573,407.883 382.74,406.29C383.113,406.177 383.3,406.313 383.3,406.7L383.3,427.52C383.3,427.733 383.193,427.83 382.98,427.81L378.98,427.38C378.753,427.353 378.643,427.23 378.65,427.01C378.8,420.82 376.97,416.99 370.22,416.65C367.113,416.49 362.803,416.473 357.29,416.6C356.804,416.611 356.41,417.009 356.41,417.49L356.41,440.61C356.41,440.888 356.628,441.119 356.9,441.13C359.593,441.27 362.66,441.283 366.1,441.17C368.36,441.09 370.023,440.627 371.09,439.78C372.8,438.43 374.35,435.11 373.87,432.69C373.777,432.203 373.98,431.96 374.48,431.96L377.77,431.96C378.277,431.96 378.53,432.213 378.53,432.72L378.53,457.8C378.53,458.007 378.427,458.11 378.22,458.11L374.08,458.11C373.913,458.11 373.837,458.027 373.85,457.86C374.097,454.84 373.323,452.467 371.53,450.74C370.29,449.54 368.193,448.943 365.24,448.95C360.887,448.95 358.147,448.983 357.02,449.05C356.613,449.077 356.41,449.293 356.41,449.7ZM353.2,444.87C352.964,444.87 352.77,444.676 352.77,444.44C352.77,444.44 352.77,413.49 352.77,413.49C352.77,413.133 353.063,412.84 353.42,412.84C353.423,412.84 353.427,412.84 353.43,412.84C359.177,412.933 364.873,412.85 370.52,412.59C371.153,412.557 372.097,412.623 373.35,412.79C374.27,412.917 375.143,413.237 375.97,413.75C377.95,414.997 378.99,415.65 379.09,415.71C379.503,415.97 379.707,415.903 379.7,415.51L379.61,412.59C379.603,412.363 379.487,412.25 379.26,412.25L340.88,412.25C340.393,412.25 340.29,412.45 340.57,412.85C340.883,413.297 341.183,413.77 341.47,414.27C341.743,414.75 341.88,415.44 341.88,416.34C341.767,439.093 341.77,457.793 341.89,472.44C341.897,473.287 341.76,473.973 341.48,474.5C341.067,475.26 340.72,475.857 340.44,476.29C340.187,476.663 340.287,476.85 340.74,476.85L380.96,476.85C381.3,476.85 381.507,476.687 381.58,476.36L383.03,469.93C383.11,469.563 383.02,469.517 382.76,469.79C380.547,472.103 378,473.86 375.12,475.06C373.153,475.887 370.183,476.293 366.21,476.28C358.89,476.273 354.63,476.25 353.43,476.21C353.059,476.199 352.76,475.896 352.76,475.53L352.76,445.94C352.76,445.56 352.95,445.373 353.33,445.38L367.56,445.48C367.593,445.48 367.607,445.46 367.6,445.42L367.57,445.12C367.55,444.953 367.457,444.87 367.29,444.87L353.2,444.87ZM369.64,445.1C369.64,445.267 369.91,445.427 370.45,445.58C372.017,446.027 373.393,446.763 374.58,447.79C374.598,447.808 374.619,447.822 374.642,447.83C374.735,447.865 374.841,447.813 374.877,447.716C374.885,447.694 374.89,447.672 374.89,447.65C374.89,446.797 374.883,445.923 374.87,445.03C374.857,444.13 374.837,443.257 374.81,442.41C374.809,442.386 374.804,442.362 374.795,442.34C374.756,442.244 374.648,442.195 374.557,442.232C374.536,442.241 374.516,442.254 374.5,442.27C373.347,443.33 371.993,444.107 370.44,444.6C369.907,444.767 369.64,444.933 369.64,445.1Z" style="fill:rgb(255,255,254);fill-rule:nonzero;"/>
    </g>
    <g transform="matrix(0.999729,0,0,0.950549,-146.333,-382.72)">
        <path d="M676.27,480.52C666.017,480.52 660.68,480.51 660.26,480.49C659.787,480.463 659.56,480.293 659.58,479.98L659.76,476.51C659.77,476.21 660.015,475.965 660.32,475.95C664.48,475.76 667.15,474.51 667.15,469.98C667.137,454.2 667.133,436.53 667.14,416.97C667.141,416.688 666.921,416.451 666.64,416.43C661.867,416.15 657.913,416.243 654.78,416.71C649.16,417.55 647.67,421.82 647.98,426.9C647.98,426.905 647.981,426.91 647.981,426.915C647.989,427.2 647.766,427.441 647.486,427.45C647.481,427.45 647.475,427.45 647.47,427.45L643.9,427.45C643.533,427.45 643.35,427.267 643.35,426.9L643.32,406.56C643.32,406.253 643.463,406.15 643.75,406.25C653.84,409.59 665.61,408.6 676.26,408.6C686.92,408.6 698.69,409.59 708.77,406.24C709.063,406.147 709.21,406.253 709.21,406.56L709.18,426.9C709.18,427.267 708.997,427.45 708.63,427.45L705.06,427.44C705.055,427.44 705.049,427.44 705.044,427.44C704.764,427.431 704.541,427.19 704.549,426.905C704.549,426.9 704.55,426.895 704.55,426.89C704.86,421.81 703.36,417.54 697.74,416.7C694.607,416.24 690.653,416.15 685.88,416.43C685.599,416.451 685.379,416.688 685.38,416.97C685.393,436.53 685.397,454.2 685.39,469.98C685.38,474.51 688.06,475.76 692.22,475.94C692.525,475.955 692.77,476.2 692.78,476.5L692.96,479.98C692.98,480.293 692.753,480.46 692.28,480.48C691.86,480.507 686.523,480.52 676.27,480.52ZM652.13,413.3C653.077,413.033 653.62,412.883 653.76,412.85C655.627,412.41 655.597,412.173 653.67,412.14C651.377,412.1 649.347,411.867 647.58,411.44C647.207,411.347 647.02,411.49 647.02,411.87L647.02,415.71C647.02,415.711 647.02,415.712 647.02,415.713C647.02,415.855 647.137,415.973 647.28,415.973C647.352,415.973 647.421,415.943 647.47,415.89C648.637,414.723 650.19,413.86 652.13,413.3ZM704.19,411.69C702.81,412.13 701.17,412 698.77,412.12C698.603,412.127 698.49,412.187 698.43,412.3C698.29,412.573 698.37,412.723 698.67,412.75C700.63,412.91 702.757,413.9 705.05,415.72C705.39,415.987 705.56,415.907 705.56,415.48L705.56,412.02C705.56,411.58 705.343,411.403 704.91,411.49C704.75,411.517 704.51,411.583 704.19,411.69ZM681.85,413.99C681.85,413.11 682.293,412.67 683.18,412.67L695.66,412.74C695.873,412.747 695.97,412.683 695.95,412.55L695.95,412.54C695.93,412.433 695.873,412.377 695.78,412.37C682.347,412.197 668.913,412.197 655.48,412.37C655.433,412.37 655.427,412.447 655.46,412.6C655.46,412.613 655.467,412.62 655.48,412.62L669.63,412.74C670.457,412.753 670.87,413.17 670.87,413.99C670.863,444.717 670.853,464.31 670.84,472.77C670.84,474.11 670.11,475.2 669.52,476.15C669.253,476.583 669.373,476.8 669.88,476.8L682.63,476.81C682.99,476.81 683.093,476.65 682.94,476.33C682.153,474.723 681.76,473.66 681.76,473.14C681.787,438.053 681.817,418.337 681.85,413.99Z" style="fill:rgb(255,255,254);fill-rule:nonzero;"/>
    </g>
    <g transform="matrix(0.999729,0,0,0.950549,-146.333,-382.72)">
        <path d="M747.01,449.05C746.603,449.077 746.4,449.293 746.4,449.7L746.4,471.97C746.4,472.334 746.696,472.635 747.06,472.64C751.647,472.727 755.31,472.703 758.05,472.57C767.39,472.13 772.56,465.65 774.95,457.24C774.99,457.103 775.117,457.009 775.26,457.01L779.42,457.01C779.593,457.01 779.66,457.09 779.62,457.25L774.5,479.95C774.42,480.323 774.187,480.51 773.8,480.51L721.18,480.51C720.82,480.51 720.64,480.33 720.64,479.97L720.64,476.3C720.64,475.913 720.827,475.753 721.2,475.82C724.59,476.42 728.14,474.19 728.14,470.45C728.147,443.137 728.143,425.517 728.13,417.59C728.13,417.012 727.944,416.451 727.6,415.99C726.113,414.023 723.91,413.143 720.99,413.35C720.763,413.363 720.65,413.257 720.65,413.03L720.65,409C720.65,408.83 720.79,408.69 720.96,408.69C735.513,408.69 747.94,408.683 758.24,408.67C762.733,408.67 767.563,407.873 772.73,406.28C773.103,406.167 773.29,406.303 773.29,406.69L773.29,427.51C773.29,427.723 773.183,427.82 772.97,427.8L768.97,427.37C768.743,427.343 768.633,427.22 768.64,427C768.79,420.81 766.96,416.98 760.21,416.64C757.103,416.48 752.793,416.463 747.28,416.59C746.794,416.601 746.4,416.999 746.4,417.48L746.4,440.6C746.4,440.878 746.618,441.109 746.89,441.12C749.583,441.26 752.65,441.273 756.09,441.16C758.35,441.08 760.013,440.617 761.08,439.77C762.79,438.42 764.34,435.1 763.86,432.68C763.767,432.193 763.97,431.95 764.47,431.95L767.76,431.95C768.267,431.95 768.52,432.203 768.52,432.71L768.52,457.8C768.52,458.007 768.417,458.11 768.21,458.11L764.07,458.11C763.903,458.11 763.827,458.027 763.84,457.86C764.087,454.84 763.313,452.467 761.52,450.74C760.28,449.54 758.183,448.943 755.23,448.95C750.877,448.95 748.137,448.983 747.01,449.05ZM742.75,475.51L742.75,413.54C742.75,413.151 743.071,412.83 743.46,412.83C748.96,412.823 754.723,412.753 760.75,412.62C764.77,412.53 765.96,413.74 769.15,415.79C769.483,416.003 769.65,415.913 769.65,415.52L769.65,412.56C769.65,412.347 769.547,412.24 769.34,412.24L730.91,412.24C730.497,412.24 730.407,412.413 730.64,412.76C731.607,414.16 732.037,415.677 731.93,417.31C731.85,418.517 731.81,419.143 731.81,419.19C731.79,448.797 731.807,466.613 731.86,472.64C731.867,473.373 731.72,474.033 731.42,474.62C731.08,475.293 730.72,475.907 730.34,476.46C730.167,476.72 730.233,476.85 730.54,476.85L770.81,476.85C771.19,476.849 771.52,476.581 771.6,476.21L772.95,470.25C773.137,469.423 772.95,469.327 772.39,469.96C768.657,474.187 763.777,476.297 757.75,476.29C750.623,476.277 745.873,476.267 743.5,476.26C743.089,476.26 742.75,475.921 742.75,475.51ZM759.84,445.11C759.847,445.303 760,445.447 760.3,445.54C761.833,446.007 763.227,446.737 764.48,447.73C764.529,447.767 764.589,447.788 764.65,447.788C764.804,447.788 764.93,447.661 764.93,447.508C764.93,447.505 764.93,447.503 764.93,447.5C764.903,447.093 764.88,446.273 764.86,445.04C764.847,443.807 764.843,442.983 764.85,442.57C764.843,442.421 764.719,442.302 764.57,442.302C764.509,442.302 764.449,442.323 764.4,442.36C763.173,443.387 761.803,444.16 760.29,444.68C759.99,444.78 759.84,444.923 759.84,445.11ZM757.45,445.189C757.45,445.189 757.45,445.188 757.45,445.188C757.45,445.062 757.347,444.958 757.221,444.958L743.582,444.862C743.581,444.862 743.581,444.862 743.58,444.862C743.455,444.862 743.351,444.965 743.35,445.091C743.35,445.091 743.35,445.092 743.35,445.092C743.35,445.218 743.453,445.322 743.579,445.322L757.218,445.418C757.219,445.418 757.219,445.418 757.22,445.418C757.345,445.418 757.449,445.315 757.45,445.189Z" style="fill:rgb(255,255,254);fill-rule:nonzero;"/>
    </g>
    <g transform="matrix(0.999729,0,0,0.950549,-146.333,-382.72)">
        <path d="M444.37,456.13C444.523,457.403 444.557,458.51 444.47,459.45C444,464.57 447.59,469.79 451.45,471.88C455.643,474.147 460.09,474.687 464.79,473.5C469.97,472.2 473.58,467.85 471.47,462.33C470.977,461.05 469.34,459.427 466.56,457.46C464.167,455.76 460.023,452.963 454.13,449.07C447.75,444.857 443.763,441.7 442.17,439.6C437.49,433.44 436.847,426.43 440.24,418.57C444.29,409.21 455.16,406.45 465.02,407.41C471.16,408.003 476.647,408.32 481.48,408.36C481.933,408.367 482.137,408.593 482.09,409.04L480.3,425.87C480.267,426.143 480.113,426.28 479.84,426.28L476.44,426.28C476.14,426.28 475.99,426.13 475.99,425.83C475.997,419.91 472.927,416.427 466.78,415.38C462.68,414.68 459.207,415.327 456.36,417.32C453.867,419.06 453.117,421.7 454.11,425.24C454.437,426.407 455.933,427.89 458.6,429.69C463.633,433.077 470.017,437.26 477.75,442.24C485.643,447.333 488.643,454.667 486.75,464.24C483.03,482.96 458.66,484.48 444.4,479.47C441.687,478.51 439.623,477.3 438.21,475.84C434.66,472.16 437.47,461.32 439.26,457.73C440.2,455.857 441.867,455.28 444.26,456C444.321,456.019 444.364,456.07 444.37,456.13ZM462.48,477.82C462.293,477.827 462.17,477.843 462.11,477.87C461.743,478.01 461.757,478.08 462.15,478.08C470.52,478.03 480.05,473.88 482.62,465.19C484.26,459.643 483.867,454.89 481.44,450.93C480.093,448.723 476.763,445.887 471.45,442.42C470.79,441.987 465.597,438.65 455.87,432.41C450.96,429.26 446.84,423.97 450.54,418.04C453.307,413.613 457.407,411.493 462.84,411.68C462.933,411.687 462.987,411.633 463,411.52C463.013,411.427 462.973,411.37 462.88,411.35C453.83,409.87 444.56,414.28 442.48,423.59C440.787,431.223 443.243,437.27 449.85,441.73C454.203,444.663 461.047,449.207 470.38,455.36C474.14,457.84 476.037,461.077 476.07,465.07C476.12,472.66 469.7,477.36 462.48,477.82ZM478.07,412.55C478.07,412.546 478.071,412.542 478.071,412.538C478.098,412.237 477.867,411.968 477.561,411.941C477.558,411.941 477.554,411.94 477.55,411.94L468.82,411.38C468.68,411.367 468.597,411.407 468.57,411.5C468.53,411.62 468.58,411.697 468.72,411.73C472.127,412.557 474.963,414.213 477.23,416.7C477.276,416.752 477.341,416.782 477.411,416.782C477.536,416.782 477.641,416.685 477.65,416.56L478.07,412.55ZM459.17,477.82C450.73,477.39 444.44,473.41 441.46,465.53C441.3,465.103 441.15,465.11 441.01,465.55C440.337,467.65 440.353,469.9 441.06,472.3C441.34,473.253 442.187,474.07 443.6,474.75C448.553,477.103 453.743,478.137 459.17,477.85C459.174,477.846 459.177,477.841 459.177,477.835C459.177,477.829 459.174,477.824 459.17,477.82ZM460.28,478.13C460.507,478.177 460.683,478.137 460.81,478.01C460.577,477.89 460.4,477.93 460.28,478.13Z" style="fill:rgb(255,255,254);fill-rule:nonzero;"/>
    </g>
    <g transform="matrix(0.999729,0,0,0.950549,-146.333,-382.72)">
        <path d="M588.48,456.12C588.633,457.393 588.667,458.5 588.58,459.44C588.11,464.56 591.7,469.78 595.56,471.87C599.753,474.137 604.2,474.68 608.9,473.5C614.08,472.2 617.69,467.85 615.58,462.33C615.087,461.05 613.45,459.427 610.67,457.46C608.277,455.76 604.133,452.963 598.24,449.07C591.86,444.857 587.877,441.7 586.29,439.6C581.61,433.44 580.967,426.43 584.36,418.57C588.41,409.21 599.28,406.45 609.14,407.41C615.28,408.003 620.767,408.32 625.6,408.36C626.053,408.367 626.257,408.593 626.21,409.04L624.41,425.87C624.377,426.143 624.223,426.28 623.95,426.28L620.55,426.28C620.25,426.28 620.1,426.13 620.1,425.83C620.113,419.91 617.047,416.427 610.9,415.38C606.8,414.68 603.327,415.327 600.48,417.32C597.987,419.06 597.237,421.7 598.23,425.24C598.557,426.407 600.05,427.89 602.71,429.69C607.743,433.077 614.127,437.26 621.86,442.24C629.753,447.333 632.753,454.667 630.86,464.24C627.13,482.96 602.77,484.47 588.51,479.46C585.797,478.5 583.733,477.29 582.32,475.83C578.77,472.15 581.58,461.31 583.37,457.72C584.31,455.847 585.977,455.27 588.37,455.99C588.431,456.009 588.474,456.06 588.48,456.12ZM606.71,477.74C606.523,477.747 606.403,477.763 606.35,477.79C605.983,477.93 605.997,478 606.39,478C614.73,477.92 624.22,473.74 626.75,465.06C628.363,459.52 627.953,454.78 625.52,450.84C624.167,448.647 620.833,445.833 615.52,442.4C614.86,441.967 609.667,438.657 599.94,432.47C595.03,429.35 590.9,424.09 594.57,418.16C597.31,413.733 601.39,411.603 606.81,411.77C606.903,411.777 606.957,411.723 606.97,411.61C606.983,411.517 606.943,411.46 606.85,411.44C597.82,410 588.59,414.44 586.55,423.73C584.89,431.35 587.363,437.37 593.97,441.79C598.323,444.703 605.167,449.21 614.5,455.31C618.26,457.763 620.167,460.983 620.22,464.97C620.3,472.54 613.91,477.25 606.71,477.74ZM622.1,412.53C622.1,412.527 622.101,412.523 622.101,412.52C622.128,412.225 621.904,411.959 621.603,411.931C621.599,411.931 621.594,411.93 621.59,411.93L613.05,411.33C612.91,411.317 612.827,411.357 612.8,411.45C612.76,411.563 612.81,411.637 612.95,411.67C616.277,412.503 619.043,414.143 621.25,416.59C621.295,416.637 621.358,416.663 621.423,416.663C621.541,416.663 621.642,416.577 621.66,416.46L622.1,412.53ZM604.71,477.92C595.72,477.7 588.91,473.64 585.52,465.34C585.333,464.893 585.173,464.903 585.04,465.37C584.38,467.63 584.46,470.027 585.28,472.56C585.607,473.567 586.53,474.41 588.05,475.09C593.39,477.457 598.943,478.413 604.71,477.96C604.721,477.96 604.73,477.951 604.73,477.94C604.73,477.929 604.721,477.92 604.71,477.92Z" style="fill:rgb(255,255,254);fill-rule:nonzero;"/>
    </g>
    <g transform="matrix(0.999729,0,0,0.950549,-146.333,-382.72)">
        <path d="M854.48,445.31C854.393,444.49 854.14,444.437 853.72,445.15C849.17,452.88 844.64,461.11 839.68,469.22C837.273,473.153 835.823,477.357 835.33,481.83C835.29,482.17 835.107,482.377 834.78,482.45C832.733,482.937 831.26,482.307 830.36,480.56C829.96,479.787 829.753,479.387 829.74,479.36C822.987,468.033 816.237,456.693 809.49,445.34C809.03,444.567 808.753,444.627 808.66,445.52C806.753,463.08 805.787,471.993 805.76,472.26C805.4,475.21 807.42,476.36 810.07,475.98C810.617,475.9 810.89,476.137 810.89,476.69L810.89,479.64C810.89,480.227 810.6,480.52 810.02,480.52L787.43,480.52C787.117,480.52 786.86,480.263 786.86,479.95L786.86,476.3C786.86,475.993 787.017,475.85 787.33,475.87C792.05,476.24 795.1,474.41 795.75,469.51C798.25,450.583 800.92,430.02 803.76,407.82C803.8,407.5 803.983,407.34 804.31,407.34L806.84,407.34C807.156,407.34 807.452,407.502 807.62,407.77L836.09,454.65C836.184,454.808 836.354,454.904 836.537,454.904C836.724,454.904 836.898,454.803 836.99,454.64L864.03,407.81C864.198,407.519 864.507,407.34 864.84,407.34L867.47,407.34C867.817,407.34 868.01,407.51 868.05,407.85C872.903,444.363 875.677,465.203 876.37,470.37C876.87,474.057 879.607,475.89 884.58,475.87C884.967,475.87 885.16,476.063 885.16,476.45L885.16,480.05C885.16,480.357 885.003,480.51 884.69,480.51L852.98,480.51C852.513,480.51 852.28,480.277 852.28,479.81L852.28,476.73C852.28,476.343 852.473,476.127 852.86,476.08L854.81,475.87C856.315,475.706 857.468,474.421 857.468,472.907C857.468,472.798 857.462,472.689 857.45,472.58L854.48,445.31ZM856.87,433.37L861.33,474.27C861.363,474.563 861.327,474.847 861.22,475.12C861.073,475.493 861.003,475.897 861.01,476.33C861.01,476.69 861.19,476.87 861.55,476.87L874.27,476.87C874.61,476.87 874.703,476.717 874.55,476.41C873.92,475.15 873.21,474.5 873,472.93C868.613,439.803 866.067,420.55 865.36,415.17C865.207,414.003 864.833,413.927 864.24,414.94L836.66,462.15C836.632,462.201 836.578,462.233 836.52,462.233C836.462,462.233 836.408,462.201 836.38,462.15L807.47,414.54C806.977,413.733 806.67,413.8 806.55,414.74L798.93,473.71C798.897,473.95 798.82,474.177 798.7,474.39L797.55,476.38C797.363,476.707 797.457,476.87 797.83,476.87L801.29,476.87C801.53,476.87 801.663,476.75 801.69,476.51L806.23,433.77C806.297,433.163 806.483,433.12 806.79,433.64L831.7,475.54C831.793,475.698 831.964,475.795 832.148,475.795C832.382,475.795 832.589,475.637 832.65,475.41C832.977,474.203 833.473,473.017 834.14,471.85C845.073,452.637 852.51,439.777 856.45,433.27C856.683,432.883 856.823,432.917 856.87,433.37Z" style="fill:rgb(255,255,254);fill-rule:nonzero;"/>
    </g>
    <g transform="matrix(0.999729,0,0,0.950549,-146.333,-382.72)">
        <path d="M276.77,440.75C282.95,440.75 287.45,440.74 290.27,440.72C290.511,440.72 290.71,440.521 290.71,440.28C290.723,435.7 290.717,428.447 290.69,418.52C290.69,416.73 289.71,414.68 287.69,413.99C286.15,413.47 284.893,413.25 283.92,413.33C283.46,413.363 283.23,413.15 283.23,412.69L283.23,409.17C283.23,408.863 283.383,408.71 283.69,408.71L315.97,408.71C316.31,408.71 316.48,408.88 316.48,409.22L316.48,412.78C316.48,413.133 316.303,413.3 315.95,413.28C314.38,413.2 310.78,413.81 309.89,415.66C309.297,416.893 308.997,417.847 308.99,418.52C308.957,437.547 308.967,454.953 309.02,470.74C309.02,471.76 309.343,472.75 309.99,473.71C311.15,475.43 314.02,476.01 315.93,475.92C316.31,475.9 316.5,476.08 316.5,476.46L316.5,480.02C316.5,480.36 316.33,480.53 315.99,480.53L283.71,480.53C283.41,480.53 283.26,480.38 283.26,480.08L283.26,476.45C283.26,476.449 283.26,476.447 283.26,476.446C283.26,476.128 283.522,475.866 283.84,475.866C283.863,475.866 283.887,475.867 283.91,475.87C286.77,476.25 290.57,474.56 290.62,471.19C290.787,461.39 290.803,454.083 290.67,449.27C290.659,448.941 290.389,448.675 290.06,448.67C287.94,448.617 283.513,448.59 276.78,448.59C270.04,448.59 265.61,448.62 263.49,448.68C263.161,448.685 262.891,448.951 262.88,449.28C262.753,454.093 262.777,461.4 262.95,471.2C263,474.57 266.8,476.26 269.66,475.87C269.683,475.867 269.707,475.866 269.73,475.866C270.048,475.866 270.31,476.128 270.31,476.446C270.31,476.447 270.31,476.449 270.31,476.45L270.31,480.08C270.31,480.38 270.16,480.53 269.86,480.53L237.58,480.55C237.24,480.557 237.07,480.39 237.07,480.05L237.07,476.49C237.07,476.11 237.26,475.927 237.64,475.94C239.55,476.03 242.42,475.45 243.58,473.73C244.227,472.77 244.55,471.78 244.55,470.76C244.59,454.973 244.587,437.567 244.54,418.54C244.533,417.867 244.233,416.913 243.64,415.68C242.75,413.83 239.15,413.22 237.58,413.3C237.227,413.327 237.05,413.163 237.05,412.81L237.05,409.25C237.05,408.91 237.22,408.737 237.56,408.73L269.84,408.71C270.147,408.71 270.3,408.863 270.3,409.17L270.3,412.69C270.3,413.15 270.07,413.363 269.61,413.33C268.637,413.257 267.38,413.48 265.84,414C263.82,414.69 262.84,416.74 262.84,418.53C262.82,428.457 262.82,435.71 262.84,440.29C262.84,440.531 263.039,440.73 263.28,440.73C266.1,440.75 270.597,440.757 276.77,440.75ZM248.2,444.6L248.2,469.2C248.21,472.02 248.69,473.8 246.88,476.29C246.837,476.352 246.815,476.425 246.815,476.5C246.815,476.701 246.979,476.867 247.18,476.87L260.18,476.87C260.533,476.87 260.63,476.713 260.47,476.4C259.55,474.63 259.1,474.14 259.1,471.93C259.147,455.697 259.197,446.89 259.25,445.51C259.263,445.183 259.433,445.01 259.76,444.99C261.107,444.91 266.773,444.87 276.76,444.87C286.74,444.877 292.407,444.92 293.76,445C294.087,445.02 294.257,445.193 294.27,445.52C294.323,446.9 294.367,455.707 294.4,471.94C294.4,474.15 293.95,474.64 293.03,476.41C292.87,476.723 292.967,476.88 293.32,476.88L306.32,476.89C306.521,476.887 306.685,476.721 306.685,476.52C306.685,476.445 306.663,476.372 306.62,476.31C304.81,473.82 305.29,472.04 305.3,469.22C305.307,461.02 305.313,452.82 305.32,444.62C305.32,436.427 305.317,428.23 305.31,420.03C305.31,417.21 304.83,415.43 306.64,412.94C306.683,412.878 306.705,412.805 306.705,412.73C306.705,412.529 306.541,412.363 306.34,412.36L293.34,412.36C292.987,412.36 292.89,412.517 293.05,412.83C293.97,414.6 294.42,415.09 294.42,417.3C294.373,433.533 294.323,442.34 294.27,443.72C294.257,444.047 294.087,444.22 293.76,444.24C292.407,444.32 286.74,444.357 276.76,444.35C266.773,444.35 261.107,444.31 259.76,444.23C259.433,444.203 259.263,444.027 259.25,443.7C259.197,442.32 259.153,433.513 259.12,417.28C259.12,415.07 259.57,414.58 260.49,412.82C260.65,412.507 260.553,412.35 260.2,412.35L247.2,412.34C246.999,412.343 246.835,412.509 246.835,412.71C246.835,412.785 246.857,412.858 246.9,412.92C248.71,415.41 248.23,417.19 248.22,420.01C248.213,428.21 248.207,436.407 248.2,444.6Z" style="fill:rgb(255,255,254);fill-rule:nonzero;"/>
    </g>
    <g transform="matrix(0.999729,0,0,0.950549,-146.333,-382.72)">
        <path d="M527.5,413.63C527.365,413.644 527.232,413.672 527.102,413.713C526.035,414.049 525.435,415.209 525.773,416.281C525.813,416.409 525.866,416.533 525.93,416.65L537.98,438.56C538.049,438.683 538.179,438.759 538.32,438.759C538.461,438.759 538.591,438.683 538.66,438.56C541.787,432.927 545.683,426.107 550.35,418.1C550.91,417.147 551.143,416.127 551.05,415.04C551.017,414.707 550.85,414.46 550.55,414.3C549.017,413.513 547.793,413.187 546.88,413.32C546.447,413.387 546.23,413.203 546.23,412.77L546.23,409.22C546.23,408.867 546.407,408.69 546.76,408.69L572.53,408.69C572.832,408.69 573.08,408.938 573.08,409.24L573.08,412.93C573.08,413.25 572.917,413.407 572.59,413.4C567.463,413.233 563.6,415.187 561,419.26C558.827,422.66 553.063,431.827 543.71,446.76C543.128,447.695 542.82,448.772 542.82,449.87C542.793,459.477 542.793,466.353 542.82,470.5C542.85,474.4 546.06,476.1 549.55,475.88C549.843,475.86 550.007,475.997 550.04,476.29L550.45,480.01C550.483,480.343 550.33,480.51 549.99,480.51L517.52,480.51C517.193,480.51 517.03,480.347 517.03,480.02L517.03,476.45C517.03,476.043 517.233,475.86 517.64,475.9C518.873,476.02 520.277,475.757 521.85,475.11C524.15,474.17 524.17,472.71 524.45,470.7C524.537,470.093 524.573,463.287 524.56,450.28C524.553,448.987 524.243,447.803 523.63,446.73C521.83,443.617 516.327,434.567 507.12,419.58C504.17,414.78 500.77,413.57 495.21,413.28C495.017,413.273 494.92,413.173 494.92,412.98L494.92,409.02C494.92,408.839 495.069,408.69 495.25,408.69L530.27,408.69C530.637,408.69 530.82,408.873 530.82,409.24L530.82,412.72C530.82,413.08 530.64,413.28 530.28,413.32L527.5,413.63ZM538.01,445.9C537.003,444.307 531.957,435.263 522.87,418.77C522.243,417.637 521.937,416.7 521.95,415.96C521.963,414.953 522.033,413.91 522.16,412.83C522.193,412.497 522.043,412.33 521.71,412.33L507.03,412.33C506.47,412.33 506.4,412.52 506.82,412.9C507.41,413.43 508.02,413.94 508.41,414.58C514.85,425.193 521.273,435.757 527.68,446.27C527.987,446.773 528.15,447.351 528.15,447.94C528.17,463.44 528.197,471.62 528.23,472.48C528.29,473.84 527.91,474.973 527.09,475.88C527.044,475.933 527.007,475.995 526.982,476.061C526.865,476.368 527.017,476.716 527.319,476.832C527.386,476.857 527.458,476.87 527.53,476.87L540.19,476.87C540.583,476.87 540.683,476.7 540.49,476.36L539.36,474.44C539.2,474.16 539.12,473.86 539.12,473.54L539.12,447.76C539.12,447.42 539.21,447.103 539.39,446.81C549.397,430.85 556.113,420.133 559.54,414.66C559.89,414.1 560.61,413.38 561.21,412.93C561.757,412.523 561.69,412.32 561.01,412.32L555.19,412.32C554.83,412.32 554.687,412.497 554.76,412.85C555.233,415.31 555.253,416.917 554.82,417.67C544.64,435.35 539.21,444.757 538.53,445.89C538.357,446.177 538.183,446.18 538.01,445.9Z" style="fill:rgb(255,255,254);fill-rule:nonzero;"/>
    </g>
</svg>
