<?xml version="1.0" encoding="UTF-8" standalone="no"?>
<!DOCTYPE svg PUBLIC "-//W3C//DTD SVG 1.1//EN" "http://www.w3.org/Graphics/SVG/1.1/DTD/svg11.dtd">
<svg xmlns="http://www.w3.org/2000/svg" version="1.1" viewBox="0.00 0.00 1025.00 1025.00">
<path stroke="#b1eff3" stroke-width="2.00" fill="none" stroke-linecap="butt" vector-effect="non-scaling-stroke" d="
  M 552.42 164.81
  Q 552.09 164.75 552.03 165.18"
/>
<path fill="#ffffff" d="
  M 338.57 0.00
  Q 336.53 10.32 337.55 20.64
  Q 337.94 24.57 339.43 28.74
  C 339.99 30.28 340.77 31.03 342.58 31.03
  Q 477.67 30.98 601.75 31.04
  C 608.30 31.04 610.63 20.47 610.63 15.17
  Q 610.63 15.14 610.60 15.14
  L 610.59 15.14
  Q 610.58 15.14 610.58 15.15
  Q 611.84 23.62 606.16 29.92
  C 604.35 31.92 600.43 31.80 597.63 31.74
  A 0.79 0.79 0.0 0 0 596.83 32.53
  L 596.83 185.75
  A 0.52 0.52 0.0 0 1 596.14 186.24
  L 338.72 97.60
  Q 338.44 97.50 338.44 97.20
  L 338.44 31.80
  Q 338.44 31.36 338.12 31.07
  Q 335.38 28.49 334.64 24.35
  Q 332.40 11.78 334.70 0.00
  L 338.57 0.00
  Z
  M 376.34 54.87
  Q 514.22 138.17 544.98 156.83
  Q 556.75 163.97 562.25 166.99
  Q 578.70 176.01 595.66 185.25
  A 0.33 0.32 14.4 0 0 596.14 184.97
  L 596.14 36.19
  A 0.89 0.88 -0.0 0 0 595.25 35.31
  L 342.55 35.31
  A 0.38 0.38 0.0 0 0 342.17 35.69
  L 342.17 94.89
  Q 342.17 95.93 342.83 95.12
  L 375.74 54.97
  A 0.47 0.46 -54.1 0 1 376.34 54.87
  Z
  M 589.88 183.47
  Q 590.31 183.73 590.72 183.64
  Q 591.21 183.54 590.77 183.30
  L 378.23 66.63
  Q 377.84 66.42 377.51 66.71
  L 343.20 97.45
  A 0.59 0.59 0.0 0 0 343.40 98.45
  L 589.49 183.28
  Q 589.69 183.36 589.88 183.47
  Z"
/>
<path fill="#62dfe6" d="
  M 608.42 0.00
  Q 611.70 5.29 610.55 11.62
  Q 610.33 12.78 611.47 13.10
  Q 611.86 13.21 611.84 13.22
  A 1.19 0.73 76.2 0 1 610.65 12.05
  C 610.34 9.07 610.22 6.12 609.13 3.24
  Q 608.51 1.63 608.21 0.00
  Q 608.31 0.00 608.42 0.00
  Z"
/>
<rect fill="#62dfe6" x="347.24" y="10.20" width="253.74" height="6.36" rx="0.48"/>
<path fill="#62dfe6" d="
  M 392.69 52.44
  L 588.66 50.35
  A 0.33 0.33 0.0 0 1 588.99 50.68
  L 588.99 165.91
  A 0.33 0.33 0.0 0 1 588.50 166.19
  L 392.52 53.05
  A 0.33 0.33 0.0 0 1 392.69 52.44
  Z
  M 544.13 79.06
  L 541.61 80.54
  A 2.20 2.20 0.0 0 0 540.63 83.14
  C 541.57 85.94 545.73 85.86 547.80 84.95
  Q 548.28 84.74 547.93 84.34
  L 547.40 83.75
  A 1.19 1.19 0.0 0 1 548.08 81.78
  Q 551.95 81.10 555.47 82.72
  A 0.50 0.50 0.0 0 1 555.69 83.43
  L 553.65 86.97
  Q 553.41 87.37 552.96 87.31
  Q 551.00 87.03 549.14 86.90
  C 542.34 86.41 535.15 89.23 532.67 95.85
  Q 530.18 102.49 535.23 108.75
  Q 535.45 109.02 535.19 109.24
  C 531.66 112.13 526.71 115.31 522.06 114.21
  A 1.19 1.19 0.0 0 1 521.54 112.17
  L 522.14 111.63
  Q 522.65 111.18 522.01 110.96
  C 519.16 110.01 514.38 110.72 514.66 114.66
  Q 514.75 115.91 515.69 116.73
  C 521.28 121.62 532.10 114.72 536.53 110.64
  Q 536.91 110.28 537.36 110.55
  Q 547.02 116.37 557.97 113.41
  Q 565.59 111.35 568.76 106.21
  C 573.53 98.49 571.01 88.28 563.75 83.24
  Q 562.33 82.25 559.73 80.79
  Q 559.27 80.53 559.47 80.03
  Q 563.43 70.06 567.14 63.94
  A 0.34 0.34 0.0 0 0 566.72 63.45
  C 563.80 64.66 558.56 61.88 556.90 61.46
  Q 549.08 59.44 543.05 62.79
  C 536.90 66.19 536.69 73.47 542.03 77.58
  C 542.58 78.00 543.48 78.29 544.14 78.69
  Q 544.44 78.88 544.13 79.06
  Z"
/>
<path fill="#62dfe6" d="
  M 555.21 76.10
  Q 555.49 75.63 554.98 75.82
  C 543.37 80.20 541.54 63.65 552.13 63.69
  C 560.79 63.72 559.69 74.14 557.35 79.27
  Q 557.10 79.82 556.52 79.67
  L 554.20 79.10
  A 0.49 0.49 0.0 0 1 553.90 78.38
  L 555.21 76.10
  Z"
/>
<path fill="#62dfe6" d="
  M 552.42 164.81
  Q 552.09 164.75 552.03 165.18
  L 371.36 77.63
  A 0.18 0.17 -53.4 0 1 371.32 77.34
  L 377.13 72.13
  Q 377.30 71.98 377.51 72.09
  L 552.42 164.81
  Z"
/>
<path fill="#62dfe6" d="
  M 550.54 98.64
  C 552.28 106.56 563.48 103.34 561.64 95.25
  C 560.83 91.70 558.77 90.14 555.69 88.42
  Q 555.11 88.09 555.43 87.51
  L 557.15 84.38
  Q 557.42 83.89 557.85 84.23
  C 567.41 91.72 567.03 109.93 552.23 111.15
  Q 545.56 111.71 541.27 106.97
  Q 540.89 106.55 541.28 106.14
  Q 547.25 99.86 552.75 91.75
  A 0.55 0.55 0.0 0 1 553.59 91.67
  C 555.45 93.58 556.24 97.10 553.63 98.76
  Q 553.16 99.06 552.65 98.86
  L 551.03 98.22
  Q 550.40 97.97 550.54 98.64
  Z"
/>
<path fill="#62dfe6" d="
  M 551.27 90.83
  C 547.30 96.45 544.42 100.26 540.27 104.49
  A 0.44 0.44 0.0 0 1 539.55 104.34
  C 536.49 96.16 541.70 87.81 551.05 90.23
  A 0.39 0.39 0.0 0 1 551.27 90.83
  Z"
/>
<path fill="#ffffff" d="
  M 552.42 164.81
  L 560.98 169.41
  A 0.04 0.04 0.0 0 1 560.94 169.48
  L 552.03 165.18
  Q 552.09 164.75 552.42 164.81
  Z"
/>
<path fill="#62dfe6" d="
  M 419.41 196.40
  A 0.99 0.99 0.0 0 0 418.13 197.44
  C 418.54 201.72 422.24 208.40 423.07 213.88
  Q 423.97 219.83 423.68 226.05
  Q 423.63 227.13 422.70 227.67
  L 422.35 227.88
  A 0.57 0.57 0.0 0 1 421.49 227.40
  Q 421.35 214.72 417.48 203.28
  C 416.62 200.73 416.27 198.46 417.04 196.14
  A 1.82 1.82 0.0 0 1 419.54 195.06
  C 427.76 198.92 435.59 205.04 442.88 210.69
  Q 442.94 210.74 442.92 210.84
  Q 442.90 210.95 442.74 210.83
  Q 435.21 205.44 428.91 201.09
  Q 424.46 198.01 419.41 196.40
  Z"
/>
<path fill="#62dfe6" d="
  M 707.95 269.34
  Q 633.02 255.07 564.95 289.03
  A 0.59 0.57 -27.4 0 0 564.69 289.82
  Q 574.19 307.51 576.68 327.76
  C 578.89 345.72 579.58 355.37 582.14 368.19
  C 585.99 387.52 597.98 403.27 609.65 418.31
  Q 609.74 418.42 609.63 418.52
  Q 609.52 418.63 609.41 418.51
  C 596.82 404.57 586.00 390.13 581.25 371.80
  Q 579.24 364.04 577.90 351.94
  Q 575.95 334.37 574.81 326.11
  Q 572.27 307.77 563.33 290.52
  Q 563.06 290.01 562.55 290.27
  Q 549.34 297.08 536.20 306.06
  Q 536.13 306.11 536.01 306.08
  Q 535.92 306.05 535.89 306.11
  A 0.02 0.02 0.0 0 0 535.92 306.13
  Q 547.47 295.36 560.53 287.12
  A 0.64 0.63 -32.3 0 0 560.73 286.25
  C 549.85 269.01 537.47 253.88 521.29 241.83
  C 509.26 232.86 500.46 227.33 487.55 219.63
  Q 487.39 219.53 487.47 219.40
  Q 487.53 219.31 487.80 219.45
  Q 502.32 226.87 510.11 231.90
  Q 521.75 239.43 534.47 250.86
  C 545.83 261.07 554.63 272.72 562.03 285.38
  A 0.58 0.57 -30.5 0 0 562.83 285.58
  Q 593.44 267.24 629.58 259.58
  Q 675.97 249.76 723.09 255.00
  A 0.37 0.37 0.0 0 1 723.42 255.45
  L 659.89 533.49
  A 0.66 0.65 -78.2 0 1 659.13 533.99
  C 618.22 526.62 575.16 529.33 536.04 543.62
  Q 536.00 543.64 535.97 543.62
  L 535.75 543.49
  Q 535.53 543.36 535.76 543.25
  Q 588.13 516.28 647.46 520.97
  Q 648.24 521.03 648.42 520.27
  L 708.25 269.81
  A 0.39 0.38 12.8 0 0 707.95 269.34
  Z"
/>
<path fill="#62dfe6" d="
  M 305.76 269.44
  Q 305.27 269.54 305.39 270.02
  L 365.22 520.45
  A 0.70 0.70 0.0 0 0 365.96 520.99
  C 404.74 517.80 443.07 525.19 477.53 543.21
  Q 477.64 543.27 477.59 543.37
  Q 477.55 543.45 477.43 543.40
  Q 417.34 522.61 354.48 534.05
  A 0.67 0.67 0.0 0 1 353.71 533.55
  L 290.24 255.76
  Q 290.14 255.31 290.59 255.19
  Q 292.05 254.82 293.78 254.65
  Q 339.62 250.08 384.54 259.70
  C 419.01 267.08 451.35 282.04 477.58 305.92
  Q 477.65 305.99 477.57 306.10
  L 477.56 306.10
  Q 477.48 306.22 477.38 306.14
  C 427.05 271.17 365.93 257.29 305.76 269.44
  Z"
/>
<path fill="#62dfe6" d="
  M 279.04 301.13
  A 0.45 0.45 0.0 0 0 278.67 301.68
  L 340.48 548.51
  A 0.59 0.58 77.0 0 0 341.16 548.94
  Q 386.56 539.42 430.78 544.95
  Q 444.57 546.67 462.63 551.94
  Q 462.79 551.99 462.75 552.15
  L 462.68 552.43
  Q 462.67 552.46 462.64 552.46
  C 418.23 543.70 372.43 548.30 330.32 564.70
  Q 329.84 564.89 329.71 564.38
  L 262.93 287.92
  A 0.48 0.48 0.0 0 1 263.35 287.33
  L 293.48 284.57
  Q 294.18 284.51 294.35 285.19
  L 297.32 297.48
  A 0.66 0.66 0.0 0 1 296.78 298.29
  L 279.04 301.13
  Z"
/>
<path fill="#62dfe6" d="
  M 734.57 301.07
  L 716.82 298.23
  A 0.66 0.66 0.0 0 1 716.28 297.42
  L 719.25 285.13
  Q 719.42 284.45 720.12 284.51
  L 750.26 287.27
  A 0.48 0.48 0.0 0 1 750.68 287.86
  L 683.89 564.37
  Q 683.76 564.88 683.28 564.69
  C 641.16 548.29 595.35 543.69 550.93 552.45
  Q 550.90 552.45 550.89 552.42
  L 550.82 552.14
  Q 550.78 551.98 550.94 551.93
  Q 569.01 546.66 582.80 544.94
  Q 627.03 539.41 672.44 548.93
  A 0.59 0.58 -77.0 0 0 673.12 548.50
  L 734.94 301.62
  A 0.45 0.45 0.0 0 0 734.57 301.07
  Z"
/>
<path fill="#62dfe6" d="
  M 375.60 296.55
  Q 365.10 317.78 355.00 334.51
  Q 352.09 339.33 351.00 340.73
  Q 345.85 347.31 349.90 339.98
  Q 360.90 320.13 375.36 296.42
  Q 376.97 293.78 375.60 296.55
  Z"
/>
<path fill="#ffffff" d="
  M 933.48 380.52
  Q 925.65 385.41 916.54 387.85
  C 911.76 389.12 902.39 391.07 904.30 382.95
  Q 904.41 382.51 904.01 382.30
  Q 900.29 380.32 901.70 376.19
  Q 903.70 370.32 903.91 369.67
  Q 904.09 369.14 903.71 368.95
  Q 903.39 368.79 903.04 368.73
  C 900.49 368.25 899.75 365.96 900.87 363.76
  Q 901.04 363.43 902.08 362.14
  Q 902.45 361.69 902.52 361.11
  C 903.31 355.13 902.85 348.00 899.42 343.09
  Q 898.98 342.44 898.22 342.64
  C 893.59 343.86 887.61 342.83 890.90 336.40
  Q 891.91 334.43 891.90 332.18
  A 1.28 1.26 -83.1 0 0 890.96 330.96
  C 888.68 330.37 885.24 330.43 886.53 326.77
  Q 886.69 326.32 886.24 326.13
  C 875.31 321.63 874.07 307.80 884.09 301.53
  C 894.11 295.27 906.01 302.44 905.27 314.23
  Q 905.24 314.72 905.72 314.77
  C 909.57 315.22 908.01 318.28 907.54 320.60
  A 1.28 1.26 19.0 0 0 908.23 321.97
  Q 910.25 322.97 912.46 322.92
  C 919.68 322.78 917.99 328.60 914.87 332.23
  Q 914.35 332.82 914.74 333.51
  C 917.66 338.74 923.87 342.27 929.59 344.18
  Q 930.14 344.37 930.71 344.24
  Q 932.32 343.87 932.70 343.86
  C 935.16 343.82 936.89 345.48 936.21 347.98
  Q 936.11 348.33 936.11 348.68
  Q 936.13 349.11 936.68 349.17
  Q 937.35 349.27 943.51 350.05
  Q 947.84 350.59 947.99 354.79
  Q 948.01 355.25 948.44 355.34
  C 956.58 357.18 950.73 364.75 947.49 368.49
  Q 941.32 375.62 933.48 380.52
  Z
  M 897.4902 324.3542
  A 12.82 12.48 58.7 0 0 901.4936 306.9164
  A 12.82 12.48 58.7 0 0 884.1698 302.4458
  A 12.82 12.48 58.7 0 0 880.1664 319.8836
  A 12.82 12.48 58.7 0 0 897.4902 324.3542
  Z
  M 898.20 325.09
  Q 894.05 327.58 888.48 326.91
  Q 887.80 326.83 887.49 327.04
  Q 886.90 327.44 887.46 328.49
  A 1.92 1.92 0.0 0 0 888.85 329.48
  L 891.23 329.86
  A 1.88 1.88 0.0 0 1 892.79 332.01
  L 892.36 334.68
  A 1.56 1.54 -83.3 0 0 893.76 336.47
  C 896.89 336.72 900.51 334.70 903.06 333.17
  C 905.60 331.64 909.09 329.39 910.33 326.51
  A 1.56 1.54 21.3 0 0 909.41 324.43
  L 906.85 323.56
  A 1.88 1.88 0.0 0 1 905.68 321.17
  L 906.46 318.89
  A 1.92 1.92 0.0 0 0 906.24 317.20
  Q 905.58 316.21 904.95 316.55
  Q 904.62 316.72 904.37 317.36
  Q 902.34 322.59 898.20 325.09
  Z
  M 892.09 336.87
  A 0.53 0.52 -67.4 0 0 891.44 337.15
  C 890.29 339.53 890.89 342.02 893.94 342.16
  C 900.16 342.47 907.51 337.81 912.02 333.77
  C 914.62 331.45 918.03 326.28 913.02 324.28
  A 0.49 0.49 0.0 0 0 912.35 324.67
  C 911.64 329.98 902.29 334.96 897.38 336.91
  Q 894.91 337.89 892.09 336.87
  Z
  M 919.21 358.97
  C 922.62 356.86 930.68 350.96 930.73 347.17
  Q 930.74 346.68 930.27 346.52
  C 923.57 344.29 917.01 341.09 913.04 334.91
  Q 912.78 334.49 912.39 334.79
  Q 908.44 337.80 906.75 338.85
  Q 905.06 339.89 900.60 342.09
  Q 900.16 342.30 900.42 342.73
  C 904.18 349.04 904.13 356.34 903.14 363.32
  Q 903.07 363.81 903.52 364.03
  C 906.93 365.67 915.81 361.08 919.21 358.97
  Z
  M 901.55 364.40
  L 901.33 365.48
  A 1.76 1.76 0.0 0 0 902.06 367.28
  Q 903.27 368.08 904.73 367.99
  C 914.54 367.46 925.73 361.11 931.91 353.22
  Q 933.78 350.83 934.38 348.30
  A 1.90 1.89 31.4 0 0 933.98 346.64
  L 933.27 345.82
  Q 932.63 345.09 932.67 346.05
  Q 932.73 348.05 931.06 350.02
  Q 921.13 361.70 906.39 365.14
  Q 903.87 365.73 902.53 364.15
  Q 901.77 363.27 901.55 364.40
  Z
  M 928.92 374.41
  Q 936.90 369.49 943.78 360.59
  C 946.10 357.59 947.86 352.50 942.29 351.62
  Q 940.27 351.30 935.49 350.80
  Q 935.00 350.74 934.71 351.15
  Q 929.63 358.33 921.94 363.07
  Q 914.25 367.80 905.54 369.11
  Q 905.05 369.18 904.88 369.64
  Q 903.18 374.14 902.56 376.08
  C 900.84 381.46 906.17 382.18 909.90 381.46
  Q 920.94 379.32 928.92 374.41
  Z
  M 944.67 361.18
  C 935.39 373.36 921.33 381.86 905.74 382.72
  Q 905.22 382.75 905.12 383.25
  C 904.17 388.27 908.36 388.53 911.89 387.90
  C 926.69 385.26 942.10 376.41 949.72 363.38
  Q 952.12 359.26 948.12 357.10
  A 0.72 0.71 28.5 0 0 947.15 357.38
  Q 946.13 359.25 944.67 361.18
  Z"
/>
<path fill="#62dfe6" d="
  M 407.88 324.06
  L 407.82 323.80
  Q 407.81 323.77 407.85 323.76
  Q 413.45 322.84 422.02 321.20
  Q 430.56 319.56 435.94 317.79
  Q 440.95 316.15 451.51 311.29
  Q 454.06 310.12 451.80 311.78
  Q 441.66 319.25 429.52 321.08
  Q 418.78 322.69 408.05 324.18
  Q 407.91 324.20 407.88 324.06
  Z"
/>
<path fill="#62dfe6" d="
  M 432.71 558.83
  A 0.28 0.28 0.0 0 0 432.95 559.21
  L 459.25 561.17
  Q 459.65 561.20 459.45 561.55
  L 459.26 561.87
  Q 459.20 561.98 459.08 561.97
  Q 446.11 561.60 432.89 562.63
  A 0.65 0.64 -0.1 0 0 432.30 563.21
  L 431.55 571.38
  Q 431.54 571.53 431.61 571.65
  Q 431.74 571.88 431.80 571.99
  Q 431.86 572.08 431.84 572.19
  L 430.94 577.80
  Q 430.87 578.24 430.43 578.14
  Q 430.30 578.11 430.20 577.99
  Q 430.11 577.90 430.08 577.71
  Q 429.80 575.56 429.70 573.44
  A 0.31 0.31 0.0 0 0 429.32 573.15
  Q 379.30 584.87 336.10 607.61
  Q 312.06 620.26 292.46 635.79
  A 0.46 0.45 -26.3 0 1 291.74 635.55
  L 219.55 347.25
  A 0.71 0.70 80.3 0 1 220.16 346.38
  L 242.89 343.98
  A 0.79 0.78 79.7 0 1 243.73 344.57
  L 247.06 357.48
  A 0.35 0.35 0.0 0 1 246.80 357.91
  L 235.75 360.43
  A 0.50 0.50 0.0 0 0 235.38 361.04
  L 300.84 615.08
  A 0.48 0.48 0.0 0 0 301.54 615.38
  C 340.84 593.39 384.42 578.04 429.21 572.15
  A 0.32 0.32 0.0 0 0 429.49 571.86
  L 430.29 563.17
  Q 430.31 562.90 430.04 562.93
  C 388.54 567.01 347.92 579.78 310.47 598.14
  A 0.63 0.62 69.8 0 1 309.59 597.73
  L 240.62 322.31
  A 0.75 0.74 -10.0 0 1 241.27 321.39
  L 267.08 318.67
  A 0.72 0.72 0.0 0 1 267.86 319.22
  L 271.02 331.84
  A 0.40 0.40 0.0 0 1 270.72 332.33
  L 256.86 335.50
  A 0.28 0.28 0.0 0 0 256.65 335.85
  L 320.23 582.62
  A 0.30 0.29 70.6 0 0 320.63 582.82
  Q 366.54 562.74 416.49 559.70
  C 420.93 559.43 426.62 559.49 431.54 559.26
  Q 432.05 559.23 432.17 558.74
  L 432.40 557.77
  Q 432.58 557.02 432.75 557.77
  Q 432.89 558.38 432.71 558.83
  Z"
/>
<path fill="#62dfe6" d="
  M 692.87 582.79
  A 0.39 0.38 -70.8 0 0 693.39 582.53
  L 756.90 336.00
  A 0.44 0.44 0.0 0 0 756.57 335.46
  L 742.98 332.36
  Q 742.52 332.25 742.63 331.80
  L 745.63 319.24
  A 0.83 0.82 -80.1 0 1 746.52 318.61
  L 772.67 321.51
  A 0.44 0.43 -80.1 0 1 773.04 322.05
  L 703.96 597.91
  A 0.48 0.47 20.1 0 1 703.28 598.22
  C 662.78 578.36 618.53 564.93 573.40 562.14
  A 0.68 0.68 0.0 0 0 572.67 562.84
  Q 573.00 575.12 571.78 587.39
  A 0.21 0.19 79.4 0 1 571.68 587.55
  L 571.10 587.89
  A 0.71 0.71 0.0 0 1 570.03 587.21
  L 572.28 562.66
  A 0.53 0.53 0.0 0 0 571.76 562.08
  L 554.55 561.71
  Q 554.35 561.71 554.31 561.55
  Q 554.27 561.42 554.45 561.39
  Q 576.90 558.47 597.78 559.77
  Q 647.13 562.82 692.87 582.79
  Z"
/>
<path fill="#62dfe6" d="
  M 712.72 615.21
  L 778.17 361.13
  A 0.59 0.59 0.0 0 0 777.74 360.41
  L 766.82 357.92
  A 0.35 0.35 0.0 0 1 766.56 357.49
  L 769.83 344.45
  A 0.72 0.72 0.0 0 1 770.61 343.90
  L 793.35 346.42
  A 0.77 0.77 0.0 0 1 794.01 347.37
  L 721.76 635.89
  A 0.17 0.17 0.0 0 1 721.49 635.98
  C 680.76 604.44 632.52 584.19 581.49 572.51
  Q 580.59 572.30 579.71 571.82
  A 0.07 0.06 -27.2 0 1 579.75 571.70
  Q 596.93 573.56 611.47 576.84
  Q 664.69 588.83 712.15 615.45
  A 0.40 0.39 21.9 0 0 712.72 615.21
  Z"
/>
<path fill="#62dfe6" d="
  M 1002.07 349.02
  C 1017.35 356.38 1017.14 376.28 1002.42 384.21
  Q 1001.96 384.46 1002.12 384.96
  Q 1002.17 385.15 1002.32 385.31
  Q 1002.58 385.61 1002.68 385.99
  C 1003.79 390.02 999.80 390.92 996.93 391.64
  A 1.79 1.79 0.0 0 0 995.59 393.48
  Q 995.78 396.47 997.48 399.26
  Q 999.27 402.20 999.43 403.36
  Q 999.82 406.26 997.41 408.13
  C 994.83 410.12 991.27 410.04 987.94 409.47
  Q 987.09 409.32 986.70 410.08
  C 982.44 418.31 982.70 428.13 984.93 436.98
  A 1.32 1.28 10.8 0 0 985.46 437.73
  C 989.54 440.55 989.84 446.61 984.22 447.60
  A 0.56 0.56 0.0 0 0 983.80 448.39
  Q 985.88 452.82 987.23 455.76
  C 989.29 460.24 990.30 463.81 985.58 466.66
  A 0.69 0.68 65.4 0 0 985.29 467.47
  C 985.64 468.47 986.20 470.01 986.07 471.00
  Q 985.27 477.15 978.52 477.21
  Q 966.16 477.33 954.04 473.15
  Q 951.23 472.19 944.31 468.85
  Q 937.39 465.52 934.89 463.92
  Q 924.07 457.04 916.47 447.30
  Q 912.31 441.98 916.62 437.52
  C 917.31 436.81 918.87 436.29 919.87 435.94
  A 0.69 0.68 -13.9 0 0 920.32 435.20
  C 919.61 429.74 923.03 428.30 927.82 427.12
  Q 930.96 426.35 935.72 425.22
  A 0.56 0.56 0.0 0 0 936.08 424.40
  C 933.35 419.38 938.28 415.84 943.03 417.28
  A 1.32 1.28 40.7 0 0 943.94 417.22
  C 952.26 413.46 960.10 407.54 963.88 399.08
  Q 964.24 398.30 963.59 397.73
  C 961.07 395.48 958.79 392.75 958.74 389.49
  Q 958.70 386.44 961.21 384.94
  Q 962.22 384.34 965.63 383.91
  Q 968.87 383.50 971.33 381.79
  A 1.79 1.79 0.0 0 0 971.94 379.59
  C 970.71 376.90 968.93 373.22 972.77 371.58
  Q 973.13 371.42 973.53 371.43
  Q 973.75 371.45 973.93 371.37
  Q 974.42 371.19 974.33 370.67
  C 971.37 354.22 986.80 341.66 1002.07 349.02
  Z
  M 984.8648 382.7189
  A 18.37 17.56 115.8 0 0 1008.6696 373.8227
  A 18.37 17.56 115.8 0 0 1000.8552 349.6411
  A 18.37 17.56 115.8 0 0 977.0504 358.5373
  A 18.37 17.56 115.8 0 0 984.8648 382.7189
  Z
  M 971.93 376.22
  C 974.31 380.83 973.72 382.98 968.66 384.40
  A 2.08 2.07 -17.1 0 0 967.25 387.06
  C 969.34 393.21 983.00 398.59 988.76 399.93
  Q 991.55 400.58 993.40 398.03
  Q 993.71 397.61 993.62 397.11
  C 993.35 395.66 991.79 392.26 993.21 390.75
  C 994.97 388.88 1000.46 389.54 999.91 385.94
  Q 999.83 385.40 999.29 385.52
  Q 982.33 389.05 975.06 373.43
  Q 974.23 371.64 972.76 372.96
  L 972.48 373.21
  Q 971.04 374.50 971.93 376.22
  Z
  M 995.04 400.89
  C 990.80 404.02 977.83 397.53 973.07 394.57
  C 969.94 392.62 965.72 389.60 965.90 385.74
  Q 965.93 385.14 965.33 385.16
  C 960.79 385.32 958.50 388.57 961.02 392.72
  C 965.97 400.87 983.76 410.16 992.74 407.47
  Q 997.03 406.18 996.35 401.44
  A 0.83 0.83 0.0 0 0 995.04 400.89
  Z
  M 965.68 399.50
  Q 965.22 399.14 964.98 399.67
  C 960.54 409.31 951.67 415.11 942.20 419.59
  A 1.12 1.12 0.0 0 0 941.66 421.05
  Q 942.69 423.39 944.66 425.22
  Q 957.27 436.88 973.89 440.55
  Q 976.93 441.23 981.23 440.67
  A 1.56 1.55 79.8 0 0 982.54 438.77
  C 980.21 429.01 979.19 418.47 983.61 409.20
  A 0.64 0.63 -69.5 0 0 983.21 408.31
  Q 973.72 405.67 965.68 399.50
  Z
  M 940.82 419.19
  L 941.18 418.77
  Q 941.67 418.22 940.93 418.19
  Q 938.54 418.09 937.21 419.88
  C 935.61 422.05 937.94 425.47 939.41 427.19
  C 949.02 438.41 965.20 446.79 980.24 446.20
  Q 984.84 446.02 985.80 442.11
  Q 986.11 440.85 985.08 441.63
  C 982.00 443.96 975.00 442.27 971.02 441.22
  Q 958.13 437.80 947.04 429.00
  C 944.60 427.07 940.24 423.29 940.41 420.18
  Q 940.44 419.61 940.82 419.19
  Z
  M 980.95 448.09
  C 964.36 447.37 948.04 439.82 937.38 426.63
  Q 937.05 426.22 936.54 426.33
  Q 930.84 427.59 926.19 428.80
  Q 923.81 429.43 922.83 430.39
  C 917.12 436.03 930.75 446.86 934.36 449.92
  Q 950.83 463.91 973.76 465.99
  C 979.76 466.54 988.99 465.44 985.25 456.92
  Q 983.11 452.07 981.52 448.47
  Q 981.35 448.11 980.95 448.09
  Z
  M 982.73 467.83
  Q 969.07 468.13 954.53 463.10
  Q 944.04 459.46 933.84 451.07
  Q 923.97 442.94 921.19 437.61
  Q 920.82 436.91 920.05 437.12
  C 915.04 438.50 914.53 443.18 917.54 446.81
  Q 934.13 466.76 960.14 473.65
  C 964.31 474.75 968.63 475.13 973.50 475.51
  C 978.50 475.91 984.62 474.34 982.93 467.97
  A 0.20 0.19 -9.1 0 0 982.73 467.83
  Z"
/>
<path fill="#62dfe6" d="
  M 851.72 368.78
  Q 857.01 368.77 861.83 370.57
  C 880.33 377.45 886.14 398.18 874.13 413.85
  A 0.46 0.46 0.0 0 0 874.26 414.53
  Q 878.26 416.97 876.89 420.97
  C 875.41 425.32 867.52 426.22 872.50 431.49
  Q 874.40 433.51 875.77 435.08
  A 1.86 1.80 -10.7 0 0 876.62 435.64
  C 883.20 437.82 886.29 444.79 880.44 450.02
  Q 876.90 453.18 871.11 454.62
  A 1.29 1.28 -5.3 0 0 870.14 455.78
  C 869.30 469.03 876.11 480.79 884.71 491.74
  Q 885.03 492.16 885.56 492.20
  C 892.63 492.70 897.36 500.72 890.27 505.50
  A 0.66 0.65 -42.6 0 0 890.22 506.55
  Q 895.77 510.96 901.96 516.01
  Q 908.91 521.67 904.00 529.01
  Q 903.70 529.46 904.09 529.84
  C 911.72 537.11 908.35 543.68 899.97 547.40
  C 884.70 554.19 868.48 557.40 851.75 557.40
  C 835.03 557.40 818.80 554.20 803.53 547.42
  C 795.15 543.70 791.78 537.13 799.40 529.86
  Q 799.79 529.48 799.49 529.03
  Q 794.58 521.69 801.53 516.03
  Q 807.72 510.98 813.27 506.57
  A 0.66 0.65 42.6 0 0 813.21 505.52
  C 806.12 500.74 810.85 492.72 817.92 492.21
  Q 818.45 492.17 818.77 491.75
  C 827.37 480.80 834.17 469.04 833.33 455.79
  A 1.29 1.28 5.3 0 0 832.36 454.63
  Q 826.56 453.19 823.02 450.03
  C 817.17 444.80 820.26 437.83 826.84 435.65
  A 1.86 1.80 10.6 0 0 827.69 435.09
  Q 829.06 433.52 830.96 431.50
  C 835.93 426.23 828.04 425.33 826.56 420.98
  Q 825.19 416.98 829.19 414.54
  A 0.46 0.46 0.0 0 0 829.32 413.86
  C 817.30 398.19 823.10 377.46 841.60 370.57
  Q 846.42 368.78 851.72 368.78
  Z
  M 836.34 375.33
  C 823.28 384.08 821.35 400.16 830.56 412.25
  C 835.28 418.45 843.72 422.91 852.10 422.73
  C 862.91 422.51 871.77 413.18 874.60 403.83
  C 878.36 391.40 873.27 379.75 862.14 373.42
  C 854.25 368.94 843.67 370.42 836.34 375.33
  Z
  M 828.54 417.72
  Q 827.17 420.09 829.24 421.86
  C 832.78 424.90 836.99 427.87 832.47 432.53
  Q 830.57 434.49 830.21 434.85
  A 2.78 2.77 -42.8 0 0 830.06 438.58
  C 831.38 440.15 834.14 441.41 835.84 441.78
  Q 849.85 444.77 863.63 442.59
  C 868.06 441.89 874.45 438.50 869.44 433.36
  C 867.09 430.95 864.59 428.74 867.80 425.49
  Q 868.10 425.18 871.58 422.03
  A 3.66 3.63 62.6 0 0 872.68 418.51
  L 872.58 418.05
  Q 872.13 416.08 870.57 417.36
  C 858.83 427.01 843.61 426.74 832.15 416.77
  Q 830.11 414.99 828.76 417.34
  L 828.54 417.72
  Z
  M 839.23 444.33
  C 835.76 443.78 828.49 442.01 827.84 437.78
  Q 827.75 437.18 827.16 437.37
  Q 822.94 438.76 821.90 442.58
  C 819.83 450.17 834.03 453.64 839.03 454.42
  Q 853.05 456.59 866.85 453.87
  Q 871.02 453.05 874.97 450.29
  C 879.43 447.17 880.52 442.46 876.45 438.46
  Q 875.74 437.76 875.39 438.70
  C 874.33 441.57 869.32 443.29 866.57 443.83
  Q 853.05 446.53 839.23 444.33
  Z
  M 817.92 495.65
  A 1.39 1.38 40.7 0 0 818.07 497.59
  Q 820.55 499.78 823.82 500.82
  Q 845.94 507.89 869.75 503.45
  C 873.54 502.75 880.63 500.92 882.85 497.39
  A 1.86 1.85 -49.1 0 0 882.70 495.21
  C 875.22 486.28 868.77 476.28 866.21 465.31
  Q 865.70 463.09 865.49 456.55
  Q 865.48 455.95 864.89 456.05
  Q 850.08 458.51 835.63 455.59
  Q 835.14 455.49 835.16 455.99
  C 835.75 470.78 827.36 484.47 817.92 495.65
  Z
  M 887.39 497.25
  Q 886.35 499.80 884.07 500.87
  Q 878.42 503.53 870.78 505.07
  Q 849.97 509.24 829.43 504.36
  C 825.67 503.47 813.28 500.35 816.47 494.64
  Q 816.82 494.03 816.15 494.25
  C 812.01 495.63 809.60 500.22 813.60 503.54
  Q 816.27 505.76 819.90 507.24
  Q 836.57 514.02 855.22 513.17
  C 866.41 512.66 875.83 510.98 885.09 505.59
  Q 887.70 504.07 888.95 501.38
  A 3.79 3.77 47.8 0 0 889.08 498.52
  L 888.65 497.29
  Q 888.06 495.63 887.39 497.25
  Z
  M 815.27 507.25
  Q 814.26 508.05 802.72 517.21
  Q 799.86 519.48 799.42 521.95
  C 798.07 529.46 808.10 533.32 814.09 535.26
  Q 825.60 538.97 835.22 540.63
  Q 858.19 544.59 881.71 537.40
  C 887.59 535.61 891.93 534.14 896.49 531.26
  C 901.17 528.31 903.83 521.89 898.86 517.62
  Q 896.28 515.41 887.05 508.09
  Q 886.60 507.74 886.09 507.98
  C 864.83 517.84 836.74 517.43 815.70 507.20
  Q 815.47 507.09 815.27 507.25
  Z
  M 839.25 543.11
  Q 831.90 542.14 820.38 539.03
  Q 808.22 535.75 801.42 531.13
  Q 800.95 530.81 800.53 531.18
  C 796.41 534.70 795.09 539.72 800.00 543.33
  Q 803.48 545.89 809.83 548.20
  Q 839.74 559.11 871.54 554.02
  C 878.48 552.90 913.49 545.70 901.61 532.24
  Q 901.15 531.72 900.56 532.09
  C 893.37 536.59 884.37 538.83 875.87 540.87
  Q 856.84 545.44 839.25 543.11
  Z"
/>
<path fill="#ffffff" d="
  M 172.84 399.58
  C 184.93 404.35 186.36 419.56 175.45 426.60
  Q 174.99 426.90 175.26 427.36
  C 177.38 431.06 173.65 431.68 171.30 432.78
  A 1.40 1.38 72.6 0 0 170.53 434.28
  Q 170.97 436.72 172.46 438.65
  C 177.30 444.94 171.04 447.25 165.79 446.86
  Q 164.93 446.79 164.58 447.58
  C 161.86 453.58 162.79 461.38 164.84 467.69
  Q 165.03 468.30 165.52 468.72
  Q 166.90 469.90 167.15 470.23
  C 168.80 472.38 168.46 475.00 165.80 476.03
  Q 165.43 476.17 165.12 476.40
  Q 164.75 476.69 165.05 477.22
  Q 165.41 477.88 168.74 483.83
  Q 171.09 488.02 167.47 490.90
  Q 167.08 491.21 167.28 491.66
  C 170.97 500.06 160.45 499.83 155.03 499.41
  Q 144.69 498.60 135.24 494.87
  Q 125.79 491.14 117.68 484.67
  C 113.44 481.28 105.59 474.26 114.03 470.65
  Q 114.48 470.45 114.41 469.96
  Q 113.73 465.38 118.31 463.93
  Q 124.80 461.86 125.52 461.62
  Q 126.10 461.44 126.03 460.97
  Q 125.96 460.59 125.78 460.24
  C 124.54 457.67 126.08 455.52 128.76 455.08
  Q 129.16 455.01 130.98 455.09
  Q 131.62 455.12 132.18 454.80
  C 137.98 451.59 143.99 446.53 146.10 440.29
  Q 146.38 439.47 145.71 438.94
  C 141.61 435.64 138.61 429.67 146.44 428.38
  Q 148.85 427.99 150.84 426.51
  A 1.40 1.38 -29.5 0 0 151.30 424.89
  C 150.33 422.48 148.03 419.48 152.11 418.22
  Q 152.62 418.07 152.49 417.54
  C 149.33 404.94 160.76 394.81 172.84 399.58
  Z
  M 162.0165 426.6011
  A 14.07 13.82 109.4 0 0 179.7253 417.9205
  A 14.07 13.82 109.4 0 0 171.3635 400.0589
  A 14.07 13.82 109.4 0 0 153.6547 408.7395
  A 14.07 13.82 109.4 0 0 162.0165 426.6011
  Z
  M 168.25 433.92
  A 1.82 1.82 0.0 0 1 169.39 431.56
  C 171.40 430.89 173.27 430.58 173.57 428.38
  A 0.42 0.41 -3.3 0 0 173.05 427.92
  Q 159.68 431.39 153.23 419.72
  Q 152.61 418.60 151.65 419.45
  L 151.21 419.85
  Q 150.15 420.80 150.87 422.03
  L 152.18 424.27
  A 2.19 2.18 59.7 0 1 151.40 427.26
  L 148.77 428.80
  A 1.63 1.63 0.0 0 0 148.27 431.16
  Q 149.54 432.93 151.58 434.19
  C 154.14 435.77 166.78 442.18 169.15 438.03
  A 1.63 1.61 49.9 0 0 169.26 436.65
  L 168.25 433.92
  Z
  M 146.71 429.70
  A 0.59 0.58 -13.8 0 0 146.04 429.30
  C 143.16 429.84 141.34 432.01 143.21 434.82
  C 147.02 440.57 156.00 444.05 162.56 445.42
  C 166.34 446.21 173.18 445.86 171.68 440.08
  A 0.55 0.54 68.1 0 0 170.89 439.74
  C 165.69 442.59 155.11 437.53 150.15 434.43
  Q 147.66 432.88 146.71 429.70
  Z
  M 144.99 468.21
  C 149.10 469.84 159.63 473.11 163.01 470.67
  Q 163.46 470.35 163.29 469.83
  C 160.87 462.43 159.40 454.51 162.27 446.93
  Q 162.47 446.42 161.95 446.27
  Q 156.68 444.75 154.64 443.94
  Q 152.60 443.13 147.73 440.62
  Q 147.25 440.37 147.04 440.87
  C 143.92 448.36 137.41 453.10 130.57 456.82
  Q 130.09 457.08 130.20 457.62
  C 130.98 461.72 140.88 466.57 144.99 468.21
  Z
  M 128.52 456.01
  L 127.42 456.52
  A 1.95 1.95 0.0 0 0 126.30 458.36
  Q 126.38 459.96 127.42 461.21
  C 134.36 469.59 147.39 475.38 158.49 475.69
  Q 161.85 475.78 164.50 474.64
  A 2.10 2.10 0.0 0 0 165.71 473.19
  L 165.98 472.02
  Q 166.21 470.97 165.38 471.64
  Q 163.63 473.01 160.78 472.82
  Q 143.83 471.67 131.05 460.81
  Q 128.87 458.95 129.39 456.72
  Q 129.68 455.46 128.52 456.01
  Z
  M 137.68 486.88
  Q 147.30 490.76 159.74 491.02
  C 163.95 491.11 169.63 489.33 166.75 483.79
  Q 165.71 481.79 163.01 477.20
  Q 162.74 476.73 162.19 476.74
  Q 152.45 476.94 143.18 473.21
  Q 133.90 469.48 127.01 462.59
  Q 126.62 462.20 126.10 462.36
  Q 120.98 463.80 118.84 464.52
  C 112.93 466.52 115.79 471.74 118.89 474.59
  Q 128.05 483.01 137.68 486.88
  Z
  M 134.91 493.64
  Q 146.23 498.23 158.24 498.43
  C 162.01 498.49 167.29 497.35 165.42 492.30
  Q 165.25 491.85 164.77 491.88
  C 155.68 492.51 145.81 491.22 137.29 487.76
  C 128.77 484.31 120.78 478.36 114.69 471.58
  Q 114.37 471.22 113.94 471.43
  C 109.08 473.75 112.07 478.25 114.82 480.83
  Q 123.58 489.05 134.91 493.64
  Z"
/>
<path fill="#62dfe6" d="
  M 426.26 481.01
  C 423.95 488.44 425.80 491.70 431.07 496.57
  Q 433.16 498.50 430.77 496.96
  C 426.76 494.39 423.95 491.80 423.33 486.50
  Q 422.10 475.94 425.61 466.89
  Q 428.25 460.07 434.73 449.49
  Q 443.60 435.00 451.89 422.28
  Q 451.98 422.13 452.12 422.22
  L 452.13 422.22
  Q 452.26 422.31 452.19 422.45
  Q 440.39 446.01 431.48 466.72
  Q 428.71 473.16 426.26 481.01
  Z"
/>
<path fill="#62dfe6" d="
  M 573.23 501.97
  C 575.21 497.50 575.23 492.84 574.80 486.50
  Q 574.04 475.11 572.60 463.78
  Q 572.15 460.26 569.01 436.60
  Q 568.99 436.47 569.18 436.37
  L 569.19 436.36
  Q 569.34 436.28 569.40 436.53
  Q 573.78 456.62 574.94 466.75
  Q 575.62 472.72 576.90 490.99
  Q 577.37 497.70 573.87 502.34
  Q 571.93 504.91 573.23 501.97
  Z"
/>
<path fill="#62dfe6" d="
  M 177.79 511.12
  Q 176.10 509.30 177.57 507.59
  C 178.05 507.02 179.37 506.93 180.00 506.26
  Q 184.33 501.64 185.20 494.85
  Q 185.37 493.46 184.03 493.05
  C 180.38 491.93 178.71 488.68 182.96 486.51
  Q 183.79 486.08 184.78 484.30
  Q 185.03 483.85 184.65 483.50
  Q 182.98 481.92 182.69 481.01
  Q 182.54 480.54 182.81 480.12
  Q 183.44 479.15 183.45 478.98
  Q 183.48 478.61 183.06 477.85
  C 176.01 465.01 195.12 456.90 200.75 468.76
  Q 202.77 473.02 199.74 478.56
  Q 199.49 479.02 199.83 479.42
  Q 200.52 480.21 200.44 481.20
  A 1.16 1.13 72.3 0 1 200.06 481.96
  L 198.42 483.44
  Q 197.98 483.83 198.28 484.34
  Q 199.12 485.74 200.39 486.61
  Q 202.14 487.82 202.45 488.60
  C 203.33 490.86 200.74 492.75 198.69 493.22
  A 1.08 1.08 0.0 0 0 197.86 494.36
  Q 198.37 500.96 203.16 506.34
  A 1.38 1.35 74.7 0 0 203.93 506.79
  Q 206.26 507.29 206.23 509.49
  Q 206.23 510.00 205.90 510.40
  L 205.31 511.12
  Q 204.95 511.56 205.38 511.92
  C 207.11 513.40 210.02 515.07 210.53 517.28
  Q 210.65 517.80 210.41 518.28
  Q 209.69 519.75 210.72 520.93
  A 2.74 2.74 0.0 0 1 210.45 524.82
  Q 208.85 526.20 205.96 527.21
  Q 189.92 532.85 174.46 526.09
  Q 173.85 525.82 172.76 524.95
  Q 172.37 524.64 172.31 524.13
  Q 172.06 521.69 172.84 520.11
  Q 173.08 519.63 172.89 519.14
  C 171.52 515.67 175.58 513.93 177.76 511.92
  Q 178.18 511.53 177.79 511.12
  Z
  M 191.4274 481.9055
  A 9.15 8.90 88.2 0 0 200.0356 472.4804
  A 9.15 8.90 88.2 0 0 190.8526 463.6145
  A 9.15 8.90 88.2 0 0 182.2444 473.0396
  A 9.15 8.90 88.2 0 0 191.4274 481.9055
  Z
  M 191.08 489.13
  C 193.52 489.17 195.62 489.46 197.81 488.24
  A 1.28 1.27 49.7 0 0 197.98 486.13
  Q 196.53 484.98 196.84 483.75
  A 1.48 1.46 -12.3 0 1 197.38 482.92
  Q 198.89 481.76 199.01 480.87
  Q 199.21 479.55 198.06 480.24
  C 195.69 481.66 193.43 482.78 191.19 482.74
  C 188.94 482.71 186.73 481.51 184.41 480.01
  Q 183.28 479.29 183.43 480.61
  Q 183.52 481.50 185.00 482.71
  A 1.48 1.46 14.2 0 1 185.51 483.56
  Q 185.78 484.80 184.29 485.90
  A 1.28 1.27 -47.8 0 0 184.39 488.02
  C 186.54 489.31 188.64 489.09 191.08 489.13
  Z
  M 183.58 487.93
  Q 182.36 486.68 181.52 488.21
  L 181.30 488.63
  Q 180.43 490.20 181.90 491.23
  C 186.28 494.28 193.69 493.94 198.25 492.49
  Q 201.64 491.40 200.98 488.44
  A 0.84 0.84 0.0 0 0 199.58 488.01
  C 196.92 490.50 191.81 489.94 188.03 489.77
  Q 185.24 489.64 183.58 487.93
  Z
  M 191.10 511.04
  C 194.96 511.05 198.50 510.82 201.91 509.08
  A 1.09 1.08 -34.5 0 0 202.23 507.39
  Q 196.82 501.38 196.33 493.94
  A 0.22 0.22 0.0 0 0 196.09 493.73
  Q 192.22 494.16 191.15 494.16
  Q 190.09 494.16 186.22 493.70
  A 0.22 0.22 0.0 0 0 185.98 493.91
  Q 185.44 501.34 179.99 507.32
  A 1.09 1.08 34.9 0 0 180.30 509.01
  C 183.70 510.77 187.23 511.03 191.10 511.04
  Z
  M 179.27 508.51
  Q 179.08 508.11 178.88 507.92
  A 0.68 0.63 31.9 0 0 177.80 508.13
  C 177.31 509.53 177.65 510.53 179.06 511.22
  Q 190.54 516.78 202.21 511.95
  Q 203.70 511.33 204.70 509.74
  Q 204.99 509.29 204.85 508.75
  Q 204.68 508.09 204.20 508.57
  Q 202.40 510.38 198.59 511.08
  Q 190.15 512.63 182.47 510.59
  C 181.14 510.24 179.83 509.72 179.27 508.51
  Z
  M 191.15 524.27
  Q 199.63 524.32 207.37 520.38
  Q 209.57 519.26 209.02 517.30
  C 208.54 515.57 205.25 513.28 204.14 512.41
  Q 203.75 512.10 203.28 512.30
  C 199.70 513.78 195.20 514.90 191.21 514.87
  C 187.22 514.85 182.72 513.68 179.17 512.15
  Q 178.70 511.94 178.31 512.25
  C 177.18 513.11 173.87 515.35 173.36 517.08
  Q 172.79 519.03 174.97 520.18
  Q 182.66 524.22 191.15 524.27
  Z
  M 191.16 529.06
  Q 199.74 529.13 207.62 525.68
  Q 210.46 524.44 209.56 521.48
  A 0.85 0.84 69.4 0 0 208.41 520.95
  Q 199.40 524.98 191.20 524.92
  Q 182.99 524.85 174.05 520.69
  A 0.85 0.84 -68.6 0 0 172.89 521.20
  Q 171.94 524.15 174.76 525.43
  Q 182.59 529.00 191.16 529.06
  Z"
/>
<path fill="#62dfe6" d="
  M 504.94 534.42
  Q 521.75 536.47 535.81 539.77
  A 0.05 0.05 0.0 0 1 535.80 539.86
  Q 534.86 539.84 533.30 539.59
  Q 518.03 537.12 504.80 535.51
  Q 491.57 533.89 476.16 532.63
  Q 474.58 532.50 473.67 532.29
  A 0.05 0.05 0.0 0 1 473.68 532.20
  Q 488.12 532.37 504.94 534.42
  Z"
/>
<ellipse fill="#62dfe6" cx="0.00" cy="0.00" transform="translate(551.45,543.41) rotate(13.0)" rx="4.20" ry="0.23"/>
<path fill="#62dfe6" d="
  M 434.06 571.92
  C 433.68 572.01 433.15 572.28 432.92 572.30
  Q 432.04 572.35 432.76 571.87
  Q 433.37 571.47 434.33 571.51
  Q 434.86 571.53 434.37 571.83
  Q 434.34 571.85 434.06 571.92
  Z"
/>
<path fill="#62dfe6" d="
  M 433.18 591.06
  Q 444.45 590.92 456.76 591.22
  Q 475.99 591.69 505.76 591.16
  Q 524.31 590.82 539.83 589.47
  A 0.31 0.30 -76.2 0 1 540.11 589.94
  Q 539.91 590.27 539.48 590.47
  C 527.16 596.41 511.72 595.71 498.00 595.08
  C 477.76 594.15 458.99 592.88 440.45 591.86
  Q 433.29 591.47 429.90 590.97
  Q 429.85 590.96 429.74 590.89
  Q 429.69 590.85 429.64 590.87
  A 0.01 0.01 0.0 0 0 429.64 590.89
  C 430.83 590.77 432.14 591.07 433.18 591.06
  Z"
/>
<path fill="#ffffff" d="
  M 178.49 755.97
  Q 162.76 755.99 162.51 755.97
  Q 161.78 755.92 161.80 755.47
  L 161.97 751.87
  Q 161.99 751.29 162.57 751.33
  C 168.34 751.74 169.36 748.53 169.35 743.51
  Q 169.34 721.57 169.29 692.42
  Q 169.29 691.87 168.74 691.86
  Q 163.18 691.74 158.38 691.92
  C 151.67 692.17 150.07 696.63 150.12 702.47
  Q 150.13 702.92 149.68 702.92
  L 145.91 702.93
  Q 145.51 702.93 145.51 702.52
  L 145.47 681.82
  A 0.22 0.22 0.0 0 1 145.77 681.61
  Q 153.19 684.22 161.14 684.09
  Q 161.64 684.08 178.41 684.06
  Q 195.18 684.05 195.69 684.05
  Q 203.64 684.16 211.05 681.54
  A 0.22 0.22 0.0 0 1 211.35 681.75
  L 211.35 702.45
  Q 211.35 702.86 210.95 702.86
  L 207.18 702.86
  Q 206.73 702.86 206.74 702.41
  C 206.78 696.57 205.17 692.11 198.46 691.87
  Q 193.66 691.71 188.10 691.84
  Q 187.55 691.85 187.55 692.40
  Q 187.57 721.55 187.61 743.49
  C 187.61 748.51 188.64 751.72 194.40 751.30
  Q 194.98 751.26 195.01 751.84
  L 195.18 755.44
  Q 195.20 755.89 194.47 755.93
  Q 194.23 755.95 178.49 755.97
  Z
  M 156.50 687.64
  Q 156.55 687.63 156.60 687.63
  L 156.61 687.63
  Q 156.61 687.64 156.61 687.65
  Q 156.61 687.80 156.57 687.80
  L 149.98 687.02
  Q 149.08 686.92 149.08 687.83
  L 149.08 690.82
  Q 149.08 691.55 149.66 691.12
  Q 152.80 688.77 156.50 687.64
  Z
  M 203.26 688.85
  C 204.96 689.28 206.27 690.71 207.26 691.21
  Q 207.70 691.44 207.70 690.95
  L 207.70 687.54
  Q 207.70 687.03 207.19 687.01
  Q 204.85 686.93 203.12 687.59
  Q 201.22 688.32 203.26 688.85
  Z
  M 172.28 688.05
  A 0.67 0.67 0.0 0 1 172.97 688.72
  L 172.97 748.77
  Q 172.97 749.40 172.66 749.96
  L 171.67 751.76
  Q 171.35 752.34 172.02 752.34
  L 185.02 752.34
  Q 185.41 752.34 185.22 752.00
  Q 183.92 749.65 183.92 748.00
  Q 183.92 718.12 183.91 688.78
  A 0.59 0.59 0.0 0 1 184.48 688.19
  Q 188.80 688.07 193.36 687.86
  Q 193.32 687.87 193.36 687.87
  A 0.01 0.00 47.4 0 1 193.36 687.88
  L 159.31 687.84
  Q 158.95 687.84 159.25 688.03
  Q 159.48 688.19 159.75 688.15
  Q 160.22 688.08 160.26 688.08
  Q 166.55 688.24 172.28 688.05
  Z
  M 194.33 687.87
  Q 194.87 688.03 195.39 687.88
  A 0.01 0.00 -49.7 0 0 195.39 687.87
  Q 194.86 687.80 194.33 687.87
  Z"
/>
<path fill="#ffffff" d="
  M 661.98 684.06
  Q 678.75 684.05 679.25 684.06
  Q 687.20 684.17 694.61 681.55
  A 0.22 0.22 0.0 0 1 694.91 681.76
  L 694.91 702.46
  Q 694.91 702.87 694.51 702.87
  L 690.74 702.87
  Q 690.29 702.87 690.30 702.42
  C 690.34 696.58 688.73 692.12 682.02 691.88
  Q 677.22 691.71 671.66 691.84
  Q 671.11 691.85 671.11 692.40
  Q 671.12 721.55 671.15 743.49
  C 671.15 748.51 672.18 751.72 677.94 751.30
  Q 678.52 751.26 678.55 751.84
  L 678.72 755.44
  Q 678.74 755.89 678.01 755.94
  Q 677.77 755.96 662.03 755.97
  Q 646.30 755.98 646.06 755.96
  Q 645.32 755.92 645.34 755.47
  L 645.51 751.87
  Q 645.54 751.29 646.12 751.33
  C 651.88 751.74 652.90 748.52 652.90 743.50
  Q 652.89 721.56 652.85 692.41
  Q 652.85 691.86 652.30 691.86
  Q 646.74 691.73 641.94 691.91
  C 635.23 692.16 633.63 696.62 633.68 702.46
  Q 633.69 702.91 633.24 702.92
  L 629.47 702.92
  Q 629.07 702.92 629.07 702.51
  L 629.04 681.81
  A 0.22 0.22 0.0 0 1 629.34 681.60
  Q 636.75 684.21 644.70 684.09
  Q 645.20 684.08 661.98 684.06
  Z
  M 639.63 687.83
  L 640.02 687.70
  Q 640.27 687.61 640.01 687.60
  Q 639.60 687.60 639.63 687.83
  L 633.38 686.95
  A 0.51 0.50 6.6 0 0 632.81 687.40
  L 632.49 690.88
  Q 632.42 691.63 633.03 691.18
  Q 636.00 688.97 639.63 687.83
  Z
  M 686.14 688.54
  C 688.38 689.41 689.33 690.20 690.74 691.26
  Q 691.28 691.67 691.27 690.99
  L 691.24 687.69
  Q 691.23 687.05 690.60 687.04
  Q 688.35 686.98 686.16 687.75
  Q 685.08 688.13 686.14 688.54
  Z
  M 668.07 688.13
  L 675.34 687.89
  Q 675.36 687.89 675.36 687.87
  Q 675.49 686.76 675.36 687.87
  Q 675.36 687.88 675.35 687.88
  Q 659.48 687.60 642.63 687.88
  Q 641.55 687.89 642.63 687.94
  Q 648.73 688.19 655.75 687.99
  A 0.77 0.76 -0.7 0 1 656.55 688.76
  Q 656.50 721.81 656.59 747.46
  C 656.60 749.26 656.07 750.44 655.06 751.83
  A 0.31 0.31 0.0 0 0 655.31 752.32
  L 668.63 752.32
  A 0.28 0.28 0.0 0 0 668.87 751.89
  Q 668.26 750.91 667.76 749.76
  Q 667.42 748.97 667.43 747.42
  Q 667.53 726.15 667.47 688.76
  A 0.63 0.63 0.0 0 1 668.07 688.13
  Z"
/>
<path fill="#ffffff" d="
  M 732.10 692.55
  L 732.10 716.01
  Q 732.10 716.60 732.68 716.63
  Q 737.89 716.88 742.73 716.48
  C 748.29 716.03 749.25 712.89 749.58 707.85
  Q 749.60 707.45 750.00 707.45
  L 753.80 707.41
  A 0.39 0.38 89.3 0 1 754.19 707.80
  L 754.19 733.31
  Q 754.19 733.56 753.94 733.56
  L 749.95 733.56
  Q 749.67 733.56 749.65 733.28
  Q 749.41 730.33 748.68 728.08
  C 747.15 723.37 736.75 724.24 732.57 724.53
  Q 732.10 724.56 732.10 725.03
  L 732.10 747.48
  Q 732.10 747.98 732.59 748.02
  C 735.74 748.31 741.23 748.22 743.77 748.08
  C 753.49 747.53 757.50 741.45 760.64 732.89
  Q 760.81 732.44 761.29 732.44
  L 764.81 732.44
  Q 765.41 732.44 765.28 733.03
  L 760.15 755.47
  Q 760.04 755.97 759.52 755.97
  L 706.78 755.97
  A 0.44 0.43 -0.0 0 1 706.34 755.54
  L 706.34 751.79
  Q 706.34 751.34 706.79 751.36
  C 711.52 751.54 713.81 749.60 713.82 744.74
  Q 713.90 722.69 713.81 696.54
  C 713.80 691.40 712.75 688.51 707.08 688.80
  A 0.72 0.71 -1.5 0 1 706.32 688.09
  L 706.32 684.78
  Q 706.32 684.14 706.97 684.14
  Q 720.70 684.16 734.75 684.14
  C 745.14 684.12 750.57 684.29 758.52 681.74
  A 0.35 0.34 80.9 0 1 758.97 682.07
  L 758.97 702.78
  Q 758.97 703.31 758.45 703.25
  L 754.81 702.85
  Q 754.28 702.79 754.30 702.26
  C 754.45 696.54 752.68 692.42 746.45 692.14
  Q 740.00 691.86 732.60 692.04
  Q 732.10 692.05 732.10 692.55
  Z
  M 754.79 691.34
  Q 755.35 691.87 755.34 691.10
  L 755.30 687.58
  Q 755.30 686.80 754.53 686.98
  L 749.55 688.12
  Q 748.87 688.27 749.53 688.50
  Q 753.05 689.71 754.79 691.34
  Z
  M 729.09 720.84
  L 742.55 720.84
  Q 742.60 720.84 742.62 720.80
  L 742.79 720.51
  Q 742.91 720.30 742.66 720.30
  L 729.23 720.30
  A 0.79 0.79 0.0 0 1 728.44 719.51
  L 728.43 689.06
  A 0.70 0.70 0.0 0 1 729.13 688.36
  L 745.38 688.35
  Q 745.59 688.35 745.48 688.16
  L 745.31 687.86
  Q 745.28 687.82 745.23 687.82
  L 716.69 687.83
  Q 716.17 687.83 716.39 688.30
  Q 717.76 691.22 717.58 693.34
  Q 717.48 694.57 717.48 694.61
  Q 717.50 719.68 717.49 744.76
  Q 717.49 744.84 717.63 746.74
  Q 717.81 749.37 716.13 751.69
  A 0.41 0.40 17.8 0 0 716.46 752.33
  L 756.52 752.32
  Q 757.12 752.32 757.25 751.74
  L 758.68 745.76
  Q 758.88 744.91 758.25 745.52
  C 753.44 750.24 748.42 752.01 741.49 751.86
  Q 735.86 751.74 729.06 751.83
  A 0.61 0.61 0.0 0 1 728.45 751.22
  L 728.44 721.50
  Q 728.44 720.84 729.09 720.84
  Z
  M 746.11 688.56
  Q 746.17 688.84 746.53 688.67
  A 0.12 0.12 0.0 0 0 746.55 688.46
  Q 746.43 688.36 746.30 688.35
  Q 746.07 688.33 746.11 688.56
  Z
  M 744.44 720.51
  Q 744.44 720.62 744.60 720.76
  Q 744.70 720.86 744.80 720.86
  Q 747.74 721.03 749.96 723.14
  A 0.40 0.37 -69.2 0 0 750.58 722.83
  Q 750.59 722.76 750.59 720.52
  Q 750.60 718.27 750.59 718.20
  A 0.40 0.37 69.5 0 0 749.97 717.89
  Q 747.74 719.99 744.80 720.15
  Q 744.70 720.15 744.60 720.25
  Q 744.44 720.39 744.44 720.51
  Z"
/>
<path fill="#ffffff" d="
  M 342.61 692.04
  Q 342.11 692.05 342.11 692.55
  L 342.11 716.01
  Q 342.11 716.60 342.69 716.63
  Q 347.90 716.88 352.74 716.48
  C 358.30 716.03 359.26 712.89 359.59 707.85
  Q 359.61 707.45 360.01 707.45
  L 363.81 707.42
  A 0.39 0.38 89.3 0 1 364.20 707.81
  L 364.20 733.31
  Q 364.20 733.56 363.95 733.56
  L 359.96 733.56
  Q 359.68 733.56 359.66 733.28
  Q 359.42 730.33 358.69 728.08
  C 357.16 723.37 346.76 724.24 342.58 724.53
  Q 342.11 724.56 342.11 725.03
  L 342.11 747.48
  Q 342.11 747.98 342.60 748.02
  C 345.75 748.31 351.24 748.22 353.78 748.08
  C 363.49 747.53 367.51 741.45 370.65 732.90
  Q 370.82 732.45 371.30 732.45
  L 374.82 732.45
  Q 375.42 732.45 375.29 733.04
  L 370.15 755.47
  Q 370.04 755.97 369.52 755.97
  L 316.79 755.97
  A 0.44 0.43 0.0 0 1 316.35 755.54
  L 316.35 751.79
  Q 316.35 751.34 316.80 751.36
  C 321.53 751.54 323.82 749.60 323.83 744.74
  Q 323.91 722.69 323.82 696.54
  C 323.81 691.40 322.76 688.51 317.09 688.80
  A 0.72 0.71 -1.5 0 1 316.33 688.09
  L 316.33 684.78
  Q 316.33 684.14 316.98 684.14
  Q 330.71 684.16 344.76 684.14
  C 355.15 684.13 360.58 684.30 368.53 681.75
  A 0.35 0.34 80.9 0 1 368.98 682.08
  L 368.98 702.79
  Q 368.98 703.32 368.46 703.26
  L 364.82 702.86
  Q 364.29 702.80 364.31 702.27
  C 364.46 696.55 362.69 692.43 356.46 692.15
  Q 350.01 691.86 342.61 692.04
  Z
  M 360.29 688.86
  C 362.14 689.20 362.91 689.95 364.78 691.35
  Q 365.34 691.78 365.34 691.07
  L 365.34 687.59
  Q 365.34 686.98 364.74 687.06
  Q 362.01 687.44 360.25 687.94
  Q 358.28 688.49 360.29 688.86
  Z
  M 339.10 720.85
  L 352.56 720.85
  Q 352.61 720.85 352.63 720.81
  L 352.80 720.52
  Q 352.92 720.31 352.67 720.31
  L 339.24 720.31
  A 0.79 0.79 0.0 0 1 338.45 719.52
  L 338.45 689.08
  A 0.70 0.70 0.0 0 1 339.15 688.38
  L 355.40 688.38
  Q 355.61 688.38 355.50 688.19
  L 355.33 687.89
  Q 355.30 687.85 355.25 687.85
  L 326.72 687.85
  Q 326.20 687.85 326.42 688.32
  Q 327.79 691.24 327.61 693.36
  Q 327.51 694.59 327.51 694.63
  Q 327.52 719.69 327.50 744.75
  Q 327.50 744.83 327.64 746.73
  Q 327.82 749.36 326.14 751.68
  A 0.41 0.40 17.8 0 0 326.47 752.32
  L 366.51 752.32
  Q 367.11 752.32 367.24 751.74
  L 368.67 745.77
  Q 368.87 744.92 368.24 745.53
  C 363.43 750.24 358.41 752.01 351.49 751.86
  Q 345.86 751.74 339.06 751.82
  A 0.61 0.61 0.0 0 1 338.45 751.21
  L 338.45 721.51
  Q 338.45 720.85 339.10 720.85
  Z
  M 354.43 720.46
  Q 354.43 720.57 354.59 720.71
  Q 354.69 720.81 354.79 720.81
  Q 357.71 720.98 359.92 723.09
  A 0.40 0.37 -69.1 0 0 360.54 722.78
  Q 360.55 722.72 360.55 720.48
  Q 360.56 718.24 360.56 718.18
  A 0.40 0.37 69.6 0 0 359.94 717.86
  Q 357.72 719.95 354.79 720.10
  Q 354.69 720.10 354.59 720.20
  Q 354.43 720.34 354.43 720.46
  Z"
/>
<path fill="#ffffff" d="
  M 439.29 696.61
  C 438.00 699.83 441.43 703.30 443.72 704.83
  Q 448.10 707.74 458.50 714.43
  Q 467.44 720.18 469.72 723.52
  C 475.33 731.76 473.67 744.21 465.91 750.90
  C 459.37 756.54 450.25 757.73 441.68 757.27
  C 436.12 756.96 426.22 755.22 423.11 750.00
  Q 421.74 747.69 422.23 743.92
  C 422.85 739.11 423.33 735.45 426.02 731.67
  A 0.87 0.87 0.0 0 1 426.73 731.30
  L 429.54 731.30
  Q 430.14 731.30 430.08 731.90
  Q 429.12 741.22 435.51 746.19
  C 440.78 750.30 451.12 751.21 455.93 745.69
  C 460.45 740.50 456.47 735.65 452.07 732.67
  Q 443.90 727.13 436.79 722.50
  C 429.75 717.92 424.34 713.04 423.88 704.84
  Q 423.44 697.18 427.60 691.24
  C 433.43 682.91 443.30 682.07 453.28 683.08
  Q 461.51 683.91 467.34 683.79
  A 0.34 0.34 0.0 0 1 467.69 684.16
  L 466.16 700.83
  Q 466.08 701.75 465.15 701.75
  L 462.27 701.75
  A 0.63 0.62 0.9 0 1 461.64 701.11
  C 461.76 697.13 459.83 693.41 456.12 691.93
  C 450.33 689.61 441.96 689.92 439.29 696.61
  Z
  M 442.52 753.53
  C 450.27 753.99 458.11 752.84 463.55 748.03
  C 470.23 742.11 471.34 730.95 465.47 724.20
  Q 464.17 722.69 455.56 716.95
  Q 452.02 714.60 441.15 707.57
  C 429.04 699.75 436.39 687.78 447.87 686.73
  Q 447.92 686.72 447.99 686.58
  L 448.00 686.58
  A 0.14 0.10 10.3 0 0 447.86 686.44
  C 436.36 685.89 427.64 691.79 427.72 704.34
  C 427.76 709.84 431.25 714.32 435.74 717.32
  Q 438.24 718.99 456.19 730.96
  C 462.90 735.43 463.75 743.38 458.26 749.03
  Q 455.50 751.86 451.70 752.63
  Q 434.01 756.22 426.83 740.73
  Q 426.55 740.13 426.42 740.78
  Q 425.80 743.73 426.30 746.55
  C 427.24 751.83 438.06 753.26 442.52 753.53
  Z
  M 457.32 688.28
  Q 460.56 689.32 462.85 692.13
  A 0.26 0.25 27.5 0 0 463.30 691.99
  L 463.66 688.11
  Q 463.71 687.52 463.12 687.49
  L 456.02 687.12
  Q 453.95 687.02 455.82 687.78
  Q 456.09 687.89 457.32 688.28
  Z"
/>
<path fill="#ffffff" d="
  M 583.42 696.61
  C 582.13 699.83 585.56 703.30 587.85 704.83
  Q 592.22 707.74 602.62 714.43
  Q 611.56 720.19 613.84 723.53
  C 619.45 731.77 617.78 744.22 610.02 750.90
  C 603.48 756.54 594.36 757.73 585.79 757.27
  C 580.23 756.95 570.33 755.21 567.23 749.99
  Q 565.86 747.68 566.35 743.91
  C 566.97 739.10 567.45 735.44 570.14 731.66
  A 0.87 0.87 0.0 0 1 570.85 731.29
  L 573.66 731.29
  Q 574.26 731.29 574.20 731.89
  Q 573.24 741.21 579.63 746.18
  C 584.89 750.30 595.23 751.21 600.04 745.69
  C 604.56 740.50 600.59 735.65 596.19 732.67
  Q 588.02 727.13 580.91 722.50
  C 573.87 717.92 568.47 713.03 568.01 704.83
  Q 567.57 697.18 571.73 691.24
  C 577.56 682.91 587.43 682.07 597.41 683.08
  Q 605.64 683.92 611.47 683.80
  A 0.34 0.34 0.0 0 1 611.82 684.17
  L 610.29 700.84
  Q 610.21 701.76 609.28 701.76
  L 606.40 701.76
  A 0.63 0.62 0.9 0 1 605.77 701.12
  C 605.89 697.14 603.96 693.42 600.25 691.93
  C 594.46 689.61 586.09 689.92 583.42 696.61
  Z
  M 586.77 753.54
  C 594.52 753.97 602.35 752.79 607.76 747.96
  C 614.41 742.02 615.47 730.87 609.58 724.15
  Q 608.28 722.65 599.65 716.95
  Q 596.11 714.61 585.22 707.64
  C 573.09 699.87 580.38 687.89 591.85 686.79
  Q 591.90 686.78 591.97 686.64
  L 591.98 686.64
  A 0.14 0.10 10.1 0 0 591.84 686.50
  C 580.35 686.00 571.66 691.93 571.79 704.46
  C 571.85 709.96 575.36 714.42 579.85 717.40
  Q 582.36 719.06 600.34 730.94
  C 607.06 735.38 607.94 743.32 602.48 748.98
  Q 599.73 751.82 595.94 752.61
  Q 578.28 756.26 571.05 740.82
  Q 570.77 740.22 570.64 740.87
  Q 570.03 743.82 570.54 746.64
  C 571.50 751.91 582.32 753.29 586.77 753.54
  Z
  M 601.47 688.27
  Q 604.68 689.31 606.95 692.12
  A 0.25 0.25 0.0 0 0 607.39 691.98
  L 607.77 688.13
  Q 607.82 687.54 607.24 687.51
  L 600.18 687.11
  Q 598.13 687.00 599.98 687.76
  Q 600.25 687.87 601.47 688.27
  Z"
/>
<path fill="#ffffff" d="
  M 794.26 721.39
  Q 793.26 731.56 791.49 747.25
  Q 791.34 748.65 792.18 750.63
  Q 792.38 751.09 792.88 751.15
  L 796.08 751.50
  A 0.55 0.55 0.0 0 1 796.57 752.05
  L 796.57 755.45
  Q 796.57 755.97 796.05 755.97
  L 772.77 755.97
  Q 772.57 755.97 772.57 755.78
  L 772.57 751.57
  Q 772.57 751.31 772.83 751.33
  C 778.18 751.76 780.80 750.00 781.51 744.60
  Q 783.77 727.29 789.46 683.29
  Q 789.52 682.79 790.02 682.79
  L 792.42 682.79
  A 1.09 1.09 0.0 0 1 793.35 683.31
  L 821.75 730.03
  A 0.57 0.57 0.0 0 0 822.73 730.02
  L 849.67 683.36
  Q 850.00 682.80 850.64 682.80
  L 853.20 682.80
  Q 853.71 682.80 853.77 683.30
  Q 859.07 723.61 862.12 746.08
  Q 862.39 748.08 864.62 750.10
  C 865.99 751.34 868.83 751.30 870.29 751.38
  Q 870.85 751.41 870.85 751.97
  L 870.85 755.43
  Q 870.85 755.97 870.31 755.97
  L 838.96 755.97
  A 0.96 0.96 0.0 0 1 838.00 755.01
  L 838.00 752.26
  Q 838.00 751.31 838.94 751.43
  Q 841.47 751.75 842.92 749.58
  A 1.49 1.48 58.8 0 0 843.16 748.59
  L 840.20 720.48
  A 0.34 0.33 -16.2 0 0 839.72 720.22
  Q 839.45 720.36 839.23 720.74
  Q 826.85 742.30 825.51 744.54
  Q 821.49 751.26 820.94 757.42
  Q 820.89 757.90 820.41 757.90
  L 817.85 757.90
  Q 817.25 757.90 816.95 757.39
  L 795.38 721.14
  Q 794.44 719.55 794.26 721.39
  Z
  M 842.61 708.63
  L 847.18 752.02
  Q 847.21 752.34 847.54 752.34
  L 859.89 752.34
  Q 860.42 752.34 860.16 751.88
  Q 858.82 749.54 858.67 748.36
  Q 856.95 735.05 850.97 690.08
  Q 850.82 688.90 850.21 689.93
  L 822.54 737.31
  A 0.37 0.37 0.0 0 1 821.90 737.31
  L 793.02 689.80
  Q 792.43 688.84 792.29 689.95
  Q 786.87 731.50 784.75 748.50
  C 784.58 749.86 783.48 750.93 783.36 751.80
  Q 783.29 752.33 783.82 752.33
  L 787.52 752.33
  A 0.52 0.51 86.5 0 0 788.03 751.75
  Q 787.98 751.27 787.49 750.66
  A 0.33 0.32 -62.7 0 1 787.42 750.43
  L 791.95 709.58
  Q 792.08 708.42 792.67 709.42
  L 817.51 751.23
  A 0.30 0.29 -47.8 0 0 818.03 751.20
  C 818.79 749.62 819.28 747.93 820.30 746.19
  Q 829.90 729.78 842.18 708.54
  Q 842.53 707.94 842.61 708.63
  Z"
/>
<path fill="#ffffff" d="
  M 262.49 716.17
  Q 269.23 716.17 275.94 716.12
  A 0.47 0.47 0.0 0 0 276.41 715.65
  Q 276.44 706.48 276.44 697.14
  C 276.44 691.69 275.58 688.32 269.30 688.80
  Q 268.97 688.83 268.97 688.49
  L 268.97 684.48
  Q 268.97 684.19 269.26 684.19
  L 301.95 684.19
  Q 302.19 684.19 302.19 684.42
  L 302.19 688.59
  A 0.26 0.25 -87.0 0 1 301.91 688.85
  Q 294.71 688.30 294.70 694.43
  Q 294.69 698.90 294.69 720.09
  Q 294.69 741.27 294.70 745.75
  Q 294.71 751.88 301.91 751.33
  A 0.26 0.25 87.0 0 1 302.19 751.59
  L 302.20 755.76
  Q 302.20 755.99 301.96 755.99
  L 269.27 755.99
  Q 268.98 755.99 268.98 755.70
  L 268.97 751.69
  Q 268.97 751.35 269.30 751.38
  C 275.58 751.86 276.44 748.49 276.44 743.04
  Q 276.44 733.70 276.41 724.53
  A 0.47 0.47 0.0 0 0 275.94 724.06
  Q 269.23 724.00 262.49 724.00
  Q 255.75 724.00 249.04 724.06
  A 0.47 0.47 0.0 0 0 248.57 724.53
  Q 248.54 733.70 248.54 743.04
  C 248.54 748.49 249.40 751.86 255.68 751.38
  Q 256.01 751.35 256.01 751.69
  L 256.01 755.70
  Q 256.01 755.99 255.72 755.99
  L 223.03 755.99
  Q 222.79 755.99 222.79 755.76
  L 222.79 751.59
  A 0.26 0.25 -87.0 0 1 223.07 751.33
  Q 230.27 751.88 230.28 745.75
  Q 230.30 741.28 230.29 720.09
  Q 230.29 698.90 230.28 694.43
  Q 230.27 688.30 223.07 688.85
  A 0.26 0.25 87.0 0 1 222.79 688.59
  L 222.79 684.42
  Q 222.79 684.19 223.03 684.19
  L 255.72 684.19
  Q 256.01 684.19 256.01 684.48
  L 256.01 688.49
  Q 256.01 688.83 255.68 688.80
  C 249.40 688.32 248.54 691.69 248.54 697.14
  Q 248.54 706.48 248.57 715.65
  A 0.47 0.47 0.0 0 0 249.04 716.12
  Q 255.75 716.17 262.49 716.17
  Z
  M 233.88 720.09
  Q 233.89 745.44 233.89 747.92
  C 233.88 749.79 233.43 750.42 232.65 751.98
  A 0.28 0.28 0.0 0 0 232.91 752.39
  Q 233.83 752.34 239.42 752.34
  Q 245.01 752.34 245.92 752.38
  A 0.28 0.28 0.0 0 0 246.19 751.97
  C 245.40 750.41 244.95 749.78 244.95 747.92
  Q 244.93 745.43 244.92 720.08
  Q 244.91 694.73 244.92 692.24
  C 244.92 690.38 245.37 689.75 246.15 688.19
  A 0.28 0.28 0.0 0 0 245.89 687.78
  Q 244.97 687.83 239.39 687.83
  Q 233.80 687.83 232.88 687.78
  A 0.28 0.28 0.0 0 0 232.62 688.20
  C 233.40 689.75 233.85 690.38 233.86 692.25
  Q 233.87 694.74 233.88 720.09
  Z
  M 279.78 720.57
  A 0.28 0.28 0.0 0 1 280.06 720.85
  Q 280.12 734.48 280.06 748.25
  C 280.05 749.72 279.13 750.78 278.85 751.91
  Q 278.74 752.34 279.18 752.34
  L 292.09 752.34
  Q 292.60 752.34 292.34 751.90
  L 291.37 750.24
  Q 291.05 749.69 291.05 749.05
  L 291.05 690.80
  A 1.06 1.06 0.0 0 1 291.17 690.31
  L 292.18 688.47
  Q 292.54 687.82 291.80 687.82
  L 279.35 687.79
  Q 278.89 687.79 278.90 688.25
  C 278.93 689.18 280.05 690.59 280.05 692.16
  Q 280.10 699.89 280.09 719.51
  Q 280.09 719.97 279.63 719.97
  L 245.76 719.97
  Q 245.67 719.97 245.67 720.05
  L 245.63 720.39
  Q 245.61 720.57 245.79 720.57
  L 279.78 720.57
  Z"
/>
<path fill="#ffffff" d="
  M 523.96 714.11
  A 0.24 0.23 22.5 0 0 524.24 714.00
  L 536.77 692.31
  Q 537.02 691.87 536.92 691.38
  C 536.38 688.62 534.89 688.82 532.52 688.83
  Q 531.94 688.83 531.94 688.25
  L 531.94 684.77
  Q 531.94 684.15 532.56 684.15
  L 557.85 684.15
  Q 558.80 684.15 558.80 685.10
  L 558.80 687.78
  Q 558.80 688.84 557.74 688.80
  Q 550.67 688.48 546.12 695.64
  Q 540.53 704.42 529.73 721.72
  Q 528.56 723.60 528.52 725.50
  Q 528.32 736.54 528.61 745.93
  Q 528.78 751.32 535.08 751.40
  Q 535.71 751.41 535.78 752.04
  L 536.12 755.27
  A 0.63 0.62 87.1 0 1 535.50 755.96
  L 503.56 755.96
  Q 502.68 755.96 502.68 755.08
  L 502.68 752.16
  Q 502.68 751.29 503.55 751.33
  C 508.26 751.58 510.18 749.58 510.22 744.96
  Q 510.28 736.98 510.24 725.22
  A 5.84 5.80 29.3 0 0 509.39 722.23
  Q 495.01 698.49 493.39 695.86
  Q 488.59 688.07 481.18 688.77
  A 0.51 0.50 -3.1 0 1 480.62 688.27
  L 480.62 684.60
  Q 480.62 684.14 481.08 684.14
  L 515.97 684.14
  Q 516.54 684.14 516.54 684.72
  L 516.54 688.21
  A 0.51 0.50 -3.2 0 1 516.09 688.71
  L 513.31 689.00
  A 1.50 1.49 0.5 0 0 511.99 690.29
  Q 511.71 692.36 512.85 694.41
  Q 517.89 703.47 523.40 713.60
  Q 523.62 714.00 523.96 714.11
  Z
  M 523.71 721.65
  Q 513.80 703.70 508.50 694.13
  C 507.12 691.63 506.67 691.30 507.87 688.81
  Q 508.35 687.81 507.24 687.81
  L 492.94 687.81
  Q 492.10 687.81 492.66 688.44
  C 493.25 689.10 493.78 689.38 494.30 690.26
  Q 503.29 705.28 513.50 721.91
  A 2.64 2.61 29.3 0 1 513.90 723.30
  L 513.90 748.85
  Q 513.90 749.49 513.59 750.04
  L 512.63 751.79
  Q 512.34 752.33 512.95 752.33
  L 525.85 752.33
  A 0.33 0.33 0.0 0 0 526.11 751.80
  Q 525.03 750.35 524.95 748.33
  Q 524.75 743.26 524.85 723.47
  Q 524.85 722.61 525.31 721.89
  Q 536.52 704.14 544.33 691.48
  C 545.09 690.25 546.23 689.14 546.87 688.33
  Q 547.26 687.82 546.75 687.82
  L 540.76 687.80
  Q 540.18 687.80 540.42 688.32
  Q 541.91 691.59 540.09 694.19
  Q 538.81 696.02 538.75 696.12
  Q 534.70 703.18 524.11 721.65
  A 0.23 0.23 0.0 0 1 523.71 721.65
  Z"
/>
<path fill="#62dfe6" d="
  M 367.19 811.11
  A 0.41 0.41 0.0 0 0 367.27 811.78
  Q 376.28 816.76 373.82 827.44
  C 372.38 833.72 364.32 836.74 358.52 836.92
  Q 349.56 837.20 334.89 837.00
  Q 334.20 836.99 334.20 836.31
  L 334.20 834.70
  Q 334.20 834.06 334.85 834.09
  Q 336.98 834.17 338.43 832.15
  Q 339.14 831.16 339.14 828.66
  Q 339.13 810.46 339.11 796.75
  C 339.11 794.06 336.55 793.91 334.64 793.32
  Q 334.21 793.18 334.21 792.73
  L 334.21 791.27
  A 0.63 0.62 90.0 0 1 334.83 790.64
  Q 353.48 790.44 357.05 790.62
  C 361.97 790.86 368.14 793.03 370.09 797.92
  Q 373.19 805.70 367.19 811.11
  Z
  M 348.95 793.42
  C 352.76 792.63 358.12 793.60 359.80 797.77
  C 361.72 802.55 361.75 808.17 357.50 811.60
  A 0.43 0.43 0.0 0 0 357.60 812.33
  C 362.73 814.58 364.01 819.50 363.52 824.72
  C 362.99 830.41 359.29 834.10 353.45 834.26
  Q 353.23 834.26 353.23 834.48
  L 353.23 834.76
  Q 353.23 834.85 353.32 834.85
  C 359.81 834.74 368.45 833.78 371.19 827.17
  C 373.10 822.55 371.02 817.16 366.80 814.70
  Q 365.74 814.08 362.58 813.10
  A 1.06 1.05 0.6 0 1 361.89 812.40
  Q 361.64 811.55 361.96 810.61
  Q 362.13 810.11 362.65 810.09
  C 366.40 809.96 368.12 805.84 368.26 802.46
  C 368.55 795.42 361.24 793.21 355.30 792.98
  Q 351.47 792.84 341.61 792.90
  A 0.74 0.74 0.0 0 0 341.08 794.14
  Q 342.14 795.26 341.66 796.19
  Q 341.46 796.58 341.46 797.02
  L 341.46 830.03
  Q 341.46 830.51 341.70 830.94
  Q 342.49 832.37 341.76 832.97
  Q 339.69 834.63 342.26 834.65
  L 351.56 834.74
  Q 351.75 834.74 351.75 834.55
  L 351.75 834.25
  Q 351.75 834.24 351.73 834.24
  Q 350.38 834.41 349.12 834.00
  Q 348.59 833.83 348.59 833.28
  L 348.59 793.86
  A 0.45 0.44 84.5 0 1 348.95 793.42
  Z
  M 350.98 795.82
  L 350.98 810.36
  A 0.29 0.29 0.0 0 0 351.27 810.65
  L 351.62 810.65
  A 6.66 6.54 0.0 0 0 358.28 804.11
  L 358.28 802.07
  A 6.66 6.54 0.0 0 0 351.62 795.53
  L 351.27 795.53
  A 0.29 0.29 0.0 0 0 350.98 795.82
  Z
  M 352.62 831.04
  Q 352.82 831.11 352.98 831.22
  Q 353.40 831.53 353.92 831.47
  Q 359.79 830.77 360.79 825.05
  C 362.08 817.69 358.35 814.33 351.42 813.68
  Q 350.94 813.64 350.94 814.12
  L 350.94 831.44
  A 0.43 0.42 -0.7 0 0 351.38 831.86
  Q 351.82 831.85 351.95 831.41
  Q 352.10 830.88 352.62 831.04
  Z"
/>
<path fill="#62dfe6" d="
  M 605.66 814.34
  Q 605.70 822.11 605.67 829.99
  C 605.66 832.62 606.75 834.34 609.48 834.04
  Q 610.29 833.95 610.29 834.76
  L 610.29 836.13
  A 0.93 0.93 0.0 0 1 609.36 837.06
  L 590.62 837.06
  Q 590.21 837.06 590.21 836.65
  L 590.18 834.43
  A 0.39 0.38 3.9 0 1 590.62 834.05
  Q 592.71 834.36 594.03 832.55
  Q 594.72 831.61 594.71 829.29
  Q 594.71 817.63 594.68 806.82
  C 594.67 803.45 594.01 800.16 593.96 796.39
  Q 593.96 795.81 594.54 795.85
  Q 596.16 795.96 596.79 796.51
  Q 610.97 808.91 623.06 819.67
  A 0.28 0.28 0.0 0 0 623.53 819.46
  Q 623.49 814.31 623.49 804.35
  C 623.49 801.84 622.50 799.64 619.77 799.81
  Q 618.91 799.86 618.91 799.01
  L 618.91 797.76
  Q 618.91 796.81 619.87 796.81
  Q 632.17 796.84 637.55 796.77
  Q 638.11 796.76 638.40 796.55
  Q 638.56 796.43 638.63 796.27
  Q 638.86 795.80 639.39 795.81
  Q 642.45 795.90 644.47 796.19
  C 651.56 797.24 659.12 796.85 667.51 796.69
  Q 671.07 796.62 676.91 795.48
  Q 677.45 795.37 677.45 795.92
  L 677.45 807.51
  A 0.67 0.67 0.0 0 1 676.78 808.18
  L 675.25 808.18
  Q 674.40 808.18 674.37 807.33
  C 674.20 801.06 668.65 801.46 664.34 801.71
  A 0.54 0.54 0.0 0 0 663.83 802.24
  Q 663.76 813.76 663.80 827.55
  C 663.81 831.13 663.20 834.04 667.52 834.06
  Q 667.97 834.06 667.97 834.52
  L 667.97 836.41
  A 0.67 0.67 0.0 0 1 667.30 837.08
  L 648.86 837.08
  Q 648.15 837.08 648.15 836.36
  L 648.15 834.74
  Q 648.15 834.00 648.89 834.04
  C 651.40 834.17 652.27 832.43 652.27 830.11
  Q 652.26 820.75 652.27 802.39
  A 0.66 0.65 -88.6 0 0 651.65 801.73
  C 648.40 801.59 644.59 801.00 642.51 804.04
  C 641.86 804.99 641.86 806.33 641.69 807.33
  Q 641.56 808.15 640.72 808.15
  L 639.42 808.15
  Q 638.63 808.15 638.63 807.36
  L 638.62 801.01
  Q 638.61 799.26 636.86 800.01
  Q 636.83 800.02 636.19 800.43
  A 3.56 3.56 0.0 0 0 634.55 803.43
  Q 634.52 814.21 634.54 825.51
  C 634.55 828.92 635.26 833.16 635.15 836.99
  A 1.26 1.26 0.0 0 1 633.06 837.89
  L 606.13 814.13
  A 0.28 0.28 0.0 0 0 605.66 814.34
  Z
  M 642.51 800.11
  Q 643.27 799.77 643.32 799.72
  Q 643.76 799.26 643.16 799.15
  Q 641.56 798.87 641.00 799.53
  Q 640.74 799.84 640.94 800.18
  L 641.12 800.49
  Q 641.28 800.75 641.54 800.61
  L 642.47 800.13
  Q 642.49 800.12 642.51 800.11
  Z
  M 674.27 800.45
  Q 674.93 800.76 675.21 800.16
  A 0.43 0.42 -52.5 0 0 675.15 799.70
  Q 674.26 798.62 672.88 799.16
  Q 672.09 799.47 672.86 799.83
  Q 673.12 799.96 673.39 800.04
  Q 673.45 800.06 674.27 800.45
  Z
  M 603.68 808.84
  L 631.77 833.62
  A 0.22 0.21 -68.8 0 0 632.13 833.46
  L 632.13 799.53
  Q 632.13 799.21 631.82 799.22
  L 626.17 799.28
  Q 625.89 799.28 625.89 799.56
  L 625.89 824.56
  Q 625.89 825.28 625.35 824.81
  L 597.60 800.32
  Q 597.07 799.85 597.07 800.56
  L 597.07 834.20
  Q 597.07 834.70 597.57 834.70
  L 603.42 834.70
  Q 603.90 834.70 603.56 834.37
  Q 602.43 833.25 603.14 831.84
  A 1.66 1.64 59.3 0 0 603.33 831.07
  L 603.33 809.00
  Q 603.33 808.53 603.68 808.84
  Z
  M 661.43 816.94
  Q 661.41 805.71 661.37 803.34
  C 661.36 802.27 660.60 800.85 661.63 799.81
  Q 662.20 799.23 661.39 799.23
  L 653.85 799.23
  Q 653.60 799.23 653.75 799.43
  Q 653.88 799.59 653.96 799.63
  Q 654.82 800.04 654.78 800.72
  Q 654.67 802.85 654.69 816.95
  Q 654.70 831.05 654.82 833.18
  Q 654.86 833.86 654.00 834.28
  Q 653.93 834.32 653.80 834.48
  Q 653.65 834.68 653.90 834.68
  L 661.44 834.66
  Q 662.25 834.65 661.68 834.08
  C 660.65 833.04 661.40 831.62 661.41 830.55
  Q 661.44 828.18 661.43 816.94
  Z"
/>
<path fill="#62dfe6" d="
  M 471.49 832.16
  C 472.80 832.11 474.38 832.07 475.51 832.13
  C 481.93 832.44 484.51 828.68 486.89 823.41
  A 0.79 0.78 -77.6 0 1 487.60 822.95
  L 489.31 822.95
  Q 490.00 822.95 489.84 823.62
  L 486.85 836.72
  A 0.45 0.45 0.0 0 1 486.41 837.07
  L 455.81 837.07
  A 0.76 0.76 0.0 0 1 455.05 836.31
  L 455.05 834.74
  Q 455.05 833.99 455.80 834.05
  Q 458.08 834.22 458.95 832.30
  Q 459.37 831.36 459.37 829.13
  Q 459.36 807.06 459.35 803.77
  Q 459.34 799.53 455.43 799.77
  Q 455.13 799.78 455.13 799.49
  L 455.13 797.25
  A 0.42 0.42 0.0 0 1 455.55 796.83
  Q 464.02 796.84 472.59 796.83
  C 477.60 796.82 481.03 796.25 485.73 795.61
  Q 486.20 795.54 486.20 796.02
  L 486.20 807.82
  Q 486.20 808.35 485.67 808.32
  L 483.75 808.19
  Q 483.31 808.17 483.12 807.53
  C 482.79 806.45 483.14 805.14 482.37 803.93
  Q 481.09 801.91 477.76 801.84
  Q 472.58 801.72 471.37 801.87
  Q 470.79 801.95 470.79 802.53
  L 470.79 813.74
  Q 470.79 814.49 471.53 814.60
  Q 475.08 815.11 478.46 813.85
  A 2.44 2.42 -4.0 0 0 479.98 812.12
  L 480.55 809.62
  Q 480.66 809.16 481.12 809.16
  L 482.75 809.16
  Q 483.38 809.16 483.38 809.79
  L 483.38 824.33
  Q 483.38 825.03 482.67 825.03
  L 481.06 825.03
  Q 480.36 825.03 480.34 824.34
  Q 480.24 820.06 477.20 819.77
  Q 473.46 819.41 471.37 819.65
  Q 470.81 819.72 470.81 820.28
  L 470.81 831.50
  Q 470.81 832.18 471.49 832.16
  Z
  M 461.70 816.99
  Q 461.71 828.24 461.75 830.61
  C 461.76 831.68 462.52 833.10 461.49 834.14
  Q 460.92 834.72 461.73 834.72
  L 469.28 834.72
  Q 469.53 834.72 469.38 834.52
  Q 469.25 834.36 469.17 834.32
  Q 468.31 833.91 468.35 833.23
  Q 468.46 831.10 468.44 816.98
  Q 468.43 802.87 468.31 800.74
  Q 468.27 800.06 469.13 799.64
  Q 469.21 799.60 469.33 799.44
  Q 469.48 799.24 469.23 799.24
  L 461.68 799.26
  Q 460.87 799.26 461.45 799.84
  C 462.48 800.88 461.72 802.30 461.71 803.38
  Q 461.68 805.74 461.70 816.99
  Z
  M 483.02 800.32
  L 483.35 800.68
  Q 483.81 801.19 484.01 800.53
  Q 484.14 800.11 483.99 799.69
  Q 483.84 799.25 483.35 799.15
  Q 482.22 798.92 481.40 799.18
  Q 480.73 799.38 481.35 799.71
  Q 481.78 799.93 482.22 799.94
  Q 482.70 799.95 483.02 800.32
  Z
  M 480.05 816.32
  L 479.59 817.17
  Q 479.30 817.69 479.83 817.94
  Q 480.17 818.10 480.38 818.08
  Q 480.92 818.03 481.01 817.49
  Q 481.12 816.90 480.97 816.42
  A 0.50 0.50 0.0 0 0 480.05 816.32
  Z
  M 484.17 832.26
  C 482.91 833.39 482.01 833.78 480.40 834.27
  Q 478.81 834.76 480.48 834.72
  L 484.39 834.62
  Q 484.92 834.61 485.06 834.11
  L 485.73 831.67
  Q 485.91 831.03 485.17 831.38
  Q 485.14 831.41 484.17 832.26
  Z"
/>
<path fill="#62dfe6" d="
  M 391.91 831.73
  A 0.42 0.42 0.0 0 0 392.32 832.15
  C 394.71 832.21 399.39 832.55 401.87 831.16
  C 404.09 829.92 405.62 828.32 406.71 825.93
  Q 407.58 824.01 407.85 823.53
  Q 408.21 822.90 408.50 822.92
  L 410.49 823.03
  Q 411.12 823.07 410.98 823.68
  L 408.04 836.58
  Q 407.92 837.08 407.41 837.08
  L 377.01 837.08
  Q 376.20 837.08 376.20 836.27
  L 376.20 834.73
  Q 376.20 833.91 377.01 834.05
  C 379.19 834.42 380.41 832.28 380.40 830.20
  Q 380.35 814.21 380.40 803.98
  C 380.41 801.55 379.37 799.77 376.92 799.76
  A 0.76 0.76 0.0 0 1 376.16 799.00
  L 376.16 797.74
  Q 376.16 796.82 377.08 796.82
  L 395.36 796.82
  Q 396.19 796.82 396.19 797.65
  L 396.19 799.08
  A 0.82 0.81 -1.1 0 1 395.40 799.89
  Q 391.98 799.98 391.97 802.00
  Q 391.90 816.87 391.91 831.73
  Z
  M 382.78 816.94
  Q 382.81 828.25 382.85 830.63
  C 382.86 831.71 383.63 833.14 382.59 834.19
  Q 382.02 834.77 382.83 834.77
  L 390.43 834.76
  Q 390.68 834.76 390.53 834.56
  Q 390.39 834.40 390.31 834.36
  Q 389.45 833.95 389.49 833.26
  Q 389.60 831.12 389.57 816.93
  Q 389.53 802.74 389.41 800.60
  Q 389.37 799.91 390.23 799.50
  Q 390.31 799.45 390.44 799.29
  Q 390.59 799.09 390.34 799.09
  L 382.75 799.12
  Q 381.94 799.12 382.51 799.70
  C 383.55 800.75 382.79 802.18 382.78 803.26
  Q 382.76 805.64 382.78 816.94
  Z
  M 405.29 832.29
  C 403.95 833.43 403.01 833.81 401.32 834.28
  Q 399.66 834.75 401.39 834.75
  L 405.45 834.75
  Q 406.00 834.75 406.16 834.23
  L 406.92 831.72
  Q 407.12 831.06 406.35 831.41
  Q 406.31 831.43 405.29 832.29
  Z"
/>
<path fill="#62dfe6" d="
  M 452.27 799.87
  A 1.85 1.84 -89.5 0 0 450.43 801.69
  Q 450.36 807.26 450.39 817.60
  Q 450.41 826.14 449.07 829.28
  C 444.37 840.24 425.86 840.09 418.30 833.25
  Q 414.31 829.64 414.12 823.50
  Q 414.08 822.08 414.08 802.74
  Q 414.08 800.02 410.88 799.75
  Q 410.14 799.69 410.21 798.96
  L 410.35 797.44
  A 0.70 0.69 -87.3 0 1 411.04 796.81
  L 428.28 796.81
  Q 429.47 796.81 429.36 797.99
  L 429.27 798.97
  Q 429.17 800.05 428.10 799.88
  Q 425.73 799.50 425.64 802.20
  Q 425.48 807.54 425.59 820.52
  C 425.64 827.24 427.99 833.70 435.99 832.68
  C 442.04 831.90 443.88 826.82 443.88 821.50
  Q 443.88 812.63 443.84 803.83
  C 443.83 801.76 443.41 799.50 440.89 799.78
  Q 440.07 799.87 440.06 799.04
  L 440.04 797.63
  A 0.80 0.80 0.0 0 1 440.84 796.82
  L 453.78 796.82
  A 0.46 0.46 0.0 0 1 454.24 797.32
  L 454.04 799.44
  Q 454.00 799.87 453.57 799.87
  L 452.27 799.87
  Z
  M 446.18 823.53
  C 446.18 827.65 444.80 830.74 441.62 833.30
  A 0.03 0.03 0.0 0 0 441.65 833.36
  C 446.03 831.93 448.00 826.09 448.01 822.00
  Q 448.04 810.36 448.01 800.06
  Q 448.00 799.23 447.17 799.15
  L 446.84 799.12
  Q 446.19 799.06 446.19 799.71
  Q 446.18 812.20 446.18 823.53
  Z
  M 416.55 799.93
  Q 417.04 800.51 416.68 801.35
  Q 416.48 801.83 416.47 802.74
  Q 416.43 812.90 416.46 821.31
  C 416.50 831.74 422.86 834.32 431.56 835.57
  Q 432.18 835.66 431.59 835.44
  Q 426.31 833.51 424.22 828.72
  Q 422.99 825.90 423.07 819.51
  Q 423.22 808.56 423.03 800.11
  Q 423.01 799.19 422.10 799.19
  L 416.89 799.19
  Q 415.93 799.19 416.55 799.93
  Z"
/>
<path fill="#62dfe6" d="
  M 506.20 820.13
  Q 506.20 822.40 506.19 830.29
  C 506.19 832.15 507.88 834.04 509.62 834.08
  A 0.91 0.91 0.0 0 1 510.51 834.99
  L 510.51 836.02
  Q 510.51 837.05 509.47 837.05
  L 491.35 837.05
  Q 490.63 837.05 490.63 836.33
  L 490.63 834.97
  Q 490.63 834.26 491.33 834.16
  Q 492.81 833.95 494.06 832.52
  Q 494.80 831.68 494.80 829.76
  Q 494.81 821.73 494.77 804.26
  C 494.77 802.03 493.94 799.44 491.28 799.84
  A 0.62 0.62 0.0 0 1 490.57 799.23
  L 490.57 797.66
  Q 490.57 796.81 491.42 796.81
  Q 496.51 796.83 510.49 796.82
  Q 516.70 796.82 520.25 798.72
  C 529.06 803.44 528.26 816.45 519.31 820.61
  Q 513.30 823.41 506.79 819.78
  Q 506.20 819.45 506.20 820.13
  Z
  M 516.66 811.73
  C 515.32 814.40 514.41 816.52 511.86 817.85
  Q 509.99 818.82 512.09 818.93
  Q 512.60 818.95 514.82 818.96
  C 518.30 818.97 521.43 816.78 522.67 813.72
  Q 526.23 805.01 518.53 800.75
  C 516.73 799.75 513.65 799.43 511.47 799.11
  Q 511.35 799.10 511.27 799.13
  Q 511.18 799.18 511.06 799.27
  A 0.16 0.15 -54.5 0 0 511.10 799.54
  Q 515.55 801.12 516.60 805.85
  C 517.05 807.83 517.51 810.02 516.66 811.73
  Z
  M 503.91 799.51
  A 0.27 0.27 0.0 0 0 503.64 799.24
  L 497.38 799.24
  A 0.27 0.27 0.0 0 0 497.11 799.51
  L 497.11 834.41
  A 0.27 0.27 0.0 0 0 497.38 834.68
  L 503.64 834.68
  A 0.27 0.27 0.0 0 0 503.91 834.41
  L 503.91 799.51
  Z
  M 506.30 801.85
  L 506.18 816.23
  A 0.21 0.21 0.0 0 0 506.39 816.44
  L 507.39 816.45
  A 6.66 6.63 -89.5 0 0 514.07 809.84
  L 514.09 808.36
  A 6.66 6.63 -89.5 0 0 507.51 801.65
  L 506.51 801.64
  A 0.21 0.21 0.0 0 0 506.30 801.85
  Z"
/>
<path fill="#62dfe6" d="
  M 543.45 818.60
  Q 543.44 826.53 543.45 830.06
  C 543.46 832.33 544.65 834.10 546.85 834.13
  Q 547.66 834.14 547.66 834.94
  L 547.66 836.16
  Q 547.66 837.06 546.76 837.06
  L 528.48 837.06
  Q 527.91 837.06 527.91 836.48
  L 527.91 834.55
  Q 527.91 834.01 528.44 834.03
  C 530.81 834.10 531.99 832.43 531.99 830.07
  Q 531.99 805.21 531.95 802.78
  Q 531.90 799.67 528.68 799.89
  Q 527.91 799.95 527.91 799.17
  L 527.91 797.49
  A 0.68 0.68 0.0 0 1 528.59 796.81
  Q 544.25 796.85 549.27 796.79
  C 557.38 796.70 563.90 800.55 563.46 809.34
  Q 563.15 815.45 557.88 818.40
  A 0.64 0.64 0.0 0 0 557.76 819.44
  C 560.64 822.05 562.32 826.10 564.40 829.02
  Q 566.86 832.47 568.95 833.47
  Q 570.55 834.23 571.50 833.69
  Q 573.22 832.71 573.24 831.24
  Q 573.25 830.02 573.31 804.60
  C 573.31 801.96 572.83 799.53 569.63 799.93
  A 0.72 0.71 86.5 0 1 568.83 799.22
  L 568.83 797.65
  Q 568.83 796.82 569.65 796.82
  L 588.54 796.82
  A 0.65 0.64 90.0 0 1 589.18 797.47
  L 589.18 799.22
  A 0.68 0.67 2.7 0 1 588.44 799.89
  C 585.35 799.58 584.67 801.64 584.67 804.32
  Q 584.63 827.42 584.63 829.52
  Q 584.64 834.14 588.57 834.09
  A 0.52 0.52 0.0 0 1 589.09 834.61
  L 589.09 836.49
  Q 589.09 837.02 588.57 837.02
  Q 578.03 837.10 567.98 837.06
  C 560.31 837.03 555.43 837.22 551.51 831.04
  Q 548.44 826.20 546.78 822.05
  C 546.13 820.45 544.97 819.41 543.84 818.42
  Q 543.45 818.09 543.45 818.60
  Z
  M 553.53 817.10
  Q 560.11 815.75 560.86 809.16
  C 561.70 801.75 555.04 799.66 549.15 799.20
  Q 546.14 798.97 549.05 799.91
  C 550.19 800.27 551.51 800.83 552.32 802.00
  C 555.68 806.85 554.17 815.42 548.31 817.85
  Q 547.70 818.11 548.14 818.60
  L 548.54 819.05
  Q 548.88 819.43 549.03 819.92
  C 550.36 824.29 553.20 830.35 557.35 833.01
  C 559.11 834.14 562.33 834.31 564.34 834.63
  Q 565.18 834.77 564.67 834.08
  Q 561.56 829.89 557.33 823.33
  Q 556.35 821.81 554.41 820.78
  Q 552.67 819.86 552.93 817.76
  Q 553.00 817.21 553.53 817.10
  Z
  M 575.60 816.96
  Q 575.60 828.20 575.64 830.56
  C 575.65 831.63 576.41 833.05 575.38 834.09
  Q 574.81 834.67 575.62 834.67
  L 583.16 834.67
  Q 583.41 834.67 583.26 834.47
  Q 583.13 834.31 583.05 834.27
  Q 582.19 833.86 582.23 833.18
  Q 582.34 831.05 582.33 816.96
  Q 582.32 802.86 582.20 800.74
  Q 582.16 800.05 583.02 799.64
  Q 583.10 799.60 583.23 799.44
  Q 583.38 799.24 583.13 799.24
  L 575.59 799.26
  Q 574.78 799.26 575.35 799.84
  C 576.38 800.88 575.63 802.30 575.62 803.37
  Q 575.59 805.73 575.60 816.96
  Z
  M 534.36 816.95
  Q 534.32 828.24 534.34 830.62
  C 534.35 831.70 535.10 833.13 534.06 834.17
  Q 533.49 834.74 534.30 834.75
  L 541.88 834.79
  Q 542.13 834.79 541.98 834.59
  Q 541.85 834.43 541.77 834.39
  Q 540.91 833.97 540.95 833.29
  Q 541.08 831.15 541.14 816.98
  Q 541.20 802.81 541.09 800.66
  Q 541.05 799.98 541.92 799.57
  Q 542.00 799.53 542.13 799.37
  Q 542.28 799.17 542.03 799.17
  L 534.45 799.15
  Q 533.64 799.14 534.21 799.73
  C 535.24 800.78 534.47 802.20 534.46 803.28
  Q 534.41 805.66 534.36 816.95
  Z
  M 543.50 802.20
  L 543.38 815.42
  A 0.27 0.27 0.0 0 0 543.65 815.69
  L 544.93 815.70
  A 5.97 5.19 0.5 0 0 550.95 810.56
  L 550.97 807.18
  A 5.97 5.19 0.5 0 0 545.05 801.94
  L 543.77 801.93
  A 0.27 0.27 0.0 0 0 543.50 802.20
  Z"
/>
<path fill="#62dfe6" d="
  M 594.12 911.92
  L 546.06 884.17
  A 0.73 0.72 38.1 0 0 545.20 884.27
  C 539.62 889.68 530.59 884.42 531.93 876.81
  C 533.81 866.10 549.96 869.09 547.62 880.46
  A 0.78 0.77 21.0 0 0 547.99 881.28
  L 601.83 912.36
  A 2.16 2.11 -29.6 0 0 602.89 912.64
  L 683.00 912.64
  A 1.97 1.71 -64.7 0 0 684.30 912.07
  L 727.71 868.66
  A 1.00 1.00 0.0 0 0 727.88 867.47
  C 724.22 860.82 730.88 852.93 738.18 856.03
  C 743.61 858.34 744.64 865.89 740.03 869.77
  Q 736.20 873.00 730.94 870.73
  Q 730.51 870.54 730.17 870.88
  L 716.51 884.54
  A 0.36 0.36 0.0 0 0 716.77 885.16
  L 877.05 885.16
  A 0.65 0.65 0.0 0 0 877.67 884.70
  C 879.82 877.79 889.35 876.65 892.48 883.07
  C 897.76 893.92 881.22 900.43 877.78 889.43
  A 1.02 1.01 -8.5 0 0 876.81 888.72
  L 713.72 888.72
  A 2.80 2.79 22.2 0 0 711.73 889.55
  Q 690.93 910.59 669.92 931.93
  C 668.94 932.93 667.60 932.80 666.24 932.81
  Q 601.01 933.21 539.00 932.77
  Q 537.22 932.76 535.68 931.85
  Q 504.43 913.35 491.73 906.07
  Q 489.91 905.02 487.77 905.06
  Q 479.16 905.20 409.50 905.18
  A 6.83 6.79 -60.1 0 0 406.05 906.12
  L 303.41 966.18
  Q 301.45 967.32 303.71 967.29
  Q 347.44 966.80 384.82 967.17
  Q 387.40 967.19 389.04 966.24
  Q 421.07 947.65 444.51 933.86
  A 0.79 0.79 0.0 0 0 444.89 933.06
  Q 444.01 926.63 449.02 923.87
  C 453.21 921.57 458.39 923.47 460.19 927.82
  C 463.40 935.59 454.70 942.46 447.82 937.41
  Q 447.42 937.12 446.98 936.92
  Q 446.55 936.73 446.15 936.96
  L 388.53 970.68
  A 3.05 3.00 -59.5 0 1 387.03 971.08
  L 90.52 971.08
  A 0.66 0.65 -80.7 0 0 89.90 971.53
  C 88.70 974.98 86.20 977.01 82.33 977.08
  C 71.85 977.27 71.51 962.00 81.21 961.05
  C 86.28 960.55 87.81 963.15 90.20 966.94
  Q 90.30 967.10 90.50 967.10
  L 294.22 967.10
  A 2.67 2.62 -59.6 0 0 295.55 966.74
  L 343.21 938.86
  Q 344.69 937.99 342.97 937.99
  L 162.26 937.99
  Q 161.87 937.99 161.77 938.36
  C 159.82 945.25 150.95 946.71 147.18 940.47
  C 143.68 934.69 148.13 927.45 155.01 928.24
  Q 159.94 928.80 161.74 933.89
  A 1.02 1.00 80.1 0 0 162.69 934.57
  L 349.12 934.57
  A 4.83 4.78 29.4 0 0 351.57 933.90
  L 405.58 902.30
  A 4.37 4.27 29.3 0 1 407.75 901.72
  L 483.24 901.72
  Q 484.35 901.72 483.39 901.15
  L 443.06 877.50
  A 6.50 6.49 60.1 0 0 439.78 876.61
  L 275.98 876.61
  A 0.76 0.76 0.0 0 0 275.26 877.12
  Q 274.43 879.46 273.04 880.77
  C 264.50 888.78 253.60 874.85 262.95 868.21
  C 267.07 865.28 272.42 866.92 274.68 871.42
  Q 275.05 872.17 275.48 872.85
  Q 275.68 873.16 276.04 873.16
  Q 371.68 873.27 440.01 873.16
  Q 442.33 873.16 443.97 874.11
  Q 470.30 889.33 507.99 911.59
  Q 509.76 912.64 511.89 912.65
  Q 580.69 912.81 593.96 912.55
  A 0.34 0.34 0.0 0 0 594.12 911.92
  Z
  M 679.95 916.82
  A 0.34 0.34 0.0 0 0 679.71 916.24
  L 517.14 916.24
  A 0.34 0.34 0.0 0 0 516.97 916.87
  L 538.20 929.13
  A 0.34 0.34 0.0 0 0 538.37 929.18
  L 667.45 929.18
  A 0.34 0.34 0.0 0 0 667.69 929.08
  L 679.95 916.82
  Z"
/>
</svg>
