<?xml version="1.0" encoding="UTF-8" standalone="no"?>
<!DOCTYPE svg PUBLIC "-//W3C//DTD SVG 1.1//EN" "http://www.w3.org/Graphics/SVG/1.1/DTD/svg11.dtd">
<svg xmlns="http://www.w3.org/2000/svg" version="1.1" viewBox="0.00 0.00 825.00 130.00">
<path fill="#63dfe6" d="
  M 523.63 60.55
  Q 524.43 60.41 523.73 60.01
  L 475.50 32.16
  A 0.82 0.82 0.0 0 0 474.56 32.24
  Q 471.87 34.49 467.99 34.18
  Q 465.17 33.96 464.04 32.76
  Q 457.51 25.82 464.76 19.75
  C 466.54 18.27 468.41 17.78 470.86 18.43
  C 475.91 19.78 476.70 23.84 477.21 28.42
  Q 477.26 28.84 477.56 29.12
  Q 478.66 30.17 480.36 31.14
  Q 491.07 37.27 520.34 54.35
  Q 520.42 54.40 524.95 57.41
  Q 530.36 61.00 536.75 61.00
  Q 577.43 60.99 612.24 61.03
  Q 612.88 61.03 613.95 60.43
  Q 614.64 60.05 615.33 59.31
  Q 634.49 38.63 655.80 17.80
  C 658.58 15.08 655.77 13.62 656.21 11.08
  Q 657.72 2.32 666.37 4.05
  C 669.65 4.71 672.15 8.75 672.12 11.94
  Q 672.07 17.85 665.48 19.64
  C 662.70 20.39 661.10 17.44 658.50 20.00
  Q 651.37 26.99 646.23 32.37
  A 0.40 0.39 -68.0 0 0 646.51 33.04
  L 806.31 33.04
  Q 806.91 33.04 807.15 32.49
  C 809.26 27.58 815.14 24.66 819.45 28.75
  C 821.74 30.92 823.85 34.07 822.48 37.27
  Q 820.26 42.45 815.44 42.93
  Q 810.84 43.38 808.47 39.76
  Q 807.29 37.94 806.97 37.51
  A 1.43 1.43 0.0 0 0 805.82 36.93
  Q 668.65 36.91 644.25 36.96
  Q 641.49 36.96 639.85 38.60
  Q 614.65 63.75 598.37 80.21
  A 2.62 2.60 -67.5 0 1 596.51 80.99
  Q 535.72 81.00 469.53 80.98
  C 467.54 80.98 463.79 79.09 461.62 77.79
  Q 447.60 69.44 422.90 54.94
  Q 419.88 53.17 416.50 53.14
  Q 398.37 52.97 340.75 52.97
  Q 336.93 52.97 333.96 54.71
  Q 286.19 82.83 232.59 114.10
  Q 231.61 114.67 232.55 115.32
  C 233.16 115.75 234.03 116.04 234.89 116.04
  Q 272.74 115.98 308.75 116.03
  Q 311.61 116.03 314.18 115.76
  Q 316.71 115.48 319.19 114.03
  Q 343.96 99.55 372.96 82.51
  A 1.81 1.79 77.4 0 0 373.84 81.11
  C 374.26 76.44 375.01 72.21 380.22 71.09
  C 388.51 69.29 393.40 79.42 387.49 84.98
  C 383.73 88.52 380.03 87.05 376.03 85.07
  A 1.14 1.14 0.0 0 0 374.95 85.11
  Q 348.07 100.81 319.59 117.61
  Q 317.03 119.12 313.75 119.12
  Q 82.57 118.85 20.78 119.00
  Q 19.75 119.00 19.20 119.86
  C 17.76 122.07 15.14 124.90 12.56 125.18
  C 4.05 126.11 0.54 114.64 7.30 110.33
  C 12.33 107.12 17.23 110.14 19.46 114.81
  A 2.09 2.07 77.0 0 0 21.33 115.99
  Q 34.87 116.03 217.51 116.00
  Q 219.60 116.00 221.65 115.65
  C 224.44 115.17 228.27 113.02 230.30 111.81
  Q 251.58 99.09 272.86 86.92
  Q 273.59 86.51 272.78 86.29
  Q 271.50 85.96 269.53 85.96
  Q 200.31 86.01 92.72 86.01
  A 2.00 2.00 0.0 0 0 91.03 86.94
  C 89.56 89.25 87.45 91.88 84.29 92.13
  Q 78.30 92.60 75.90 87.27
  C 74.20 83.51 75.43 80.50 78.50 77.95
  Q 81.83 75.20 85.19 76.55
  C 87.07 77.30 89.43 78.39 90.23 80.27
  Q 90.84 81.72 91.26 82.51
  Q 91.52 82.99 92.07 82.99
  Q 184.04 83.00 276.00 83.01
  C 277.32 83.01 279.15 82.69 280.53 81.99
  Q 285.96 79.21 288.00 77.99
  Q 310.86 64.45 333.80 51.04
  Q 335.45 50.07 338.75 50.07
  Q 407.72 49.96 409.00 49.95
  Q 410.93 49.94 412.12 49.78
  Q 413.63 49.57 412.32 48.81
  Q 390.95 36.35 375.56 27.20
  C 372.71 25.51 370.25 24.95 366.70 24.96
  Q 278.51 24.97 205.03 24.93
  A 0.77 0.76 -79.3 0 0 204.32 25.42
  Q 202.97 29.02 199.48 30.41
  Q 195.95 31.81 193.24 30.26
  C 185.59 25.88 188.58 14.34 197.76 14.95
  Q 202.61 15.27 204.10 20.37
  A 0.93 0.91 -7.9 0 0 204.99 21.03
  Q 323.49 21.01 368.63 21.05
  C 370.66 21.05 372.63 21.78 374.54 22.89
  Q 413.54 45.67 435.62 58.76
  C 440.07 61.40 445.61 61.15 450.60 61.11
  Q 481.48 60.86 516.55 61.10
  Q 520.27 61.13 523.63 60.55
  Z
  M 446.56 65.19
  Q 449.83 67.07 463.79 75.15
  C 466.74 76.86 469.92 78.00 473.00 78.00
  Q 546.48 78.02 594.68 78.00
  C 596.48 78.00 597.27 77.35 598.45 76.20
  Q 604.25 70.52 608.73 65.64
  Q 610.22 64.01 608.01 64.01
  Q 533.03 63.97 456.39 64.06
  C 454.24 64.06 447.86 63.39 445.90 64.50
  Q 445.40 64.79 445.96 64.96
  Q 446.42 65.10 446.56 65.19
  Z"
/>
</svg>
