<?xml version="1.0" encoding="UTF-8" standalone="no"?>
<!DOCTYPE svg PUBLIC "-//W3C//DTD SVG 1.1//EN" "http://www.w3.org/Graphics/SVG/1.1/DTD/svg11.dtd">
<svg width="100%" height="100%" viewBox="0 0 1067 1064" version="1.1" xmlns="http://www.w3.org/2000/svg" xmlns:xlink="http://www.w3.org/1999/xlink" xml:space="preserve" xmlns:serif="http://www.serif.com/" style="fill-rule:evenodd;clip-rule:evenodd;stroke-linejoin:round;stroke-miterlimit:2;">
    <g transform="matrix(1,0,0,1,-1,0)">
        <g transform="matrix(1.47095,0,0,1.47095,-212.98,-168.957)">
            <path d="M419.41,196.4C419.315,196.37 419.215,196.355 419.115,196.355C418.572,196.355 418.125,196.802 418.125,197.345C418.125,197.377 418.127,197.408 418.13,197.44C418.54,201.72 422.24,208.4 423.07,213.88C423.67,217.847 423.873,221.903 423.68,226.05C423.647,226.77 423.32,227.31 422.7,227.67L422.35,227.88C422.262,227.932 422.162,227.959 422.06,227.959C421.751,227.959 421.496,227.709 421.49,227.4C421.397,218.947 420.06,210.907 417.48,203.28C416.62,200.73 416.27,198.46 417.04,196.14C417.285,195.395 417.985,194.889 418.769,194.889C419.035,194.889 419.299,194.947 419.54,195.06C427.76,198.92 435.59,205.04 442.88,210.69C442.92,210.723 442.933,210.773 442.92,210.84C442.907,210.913 442.847,210.91 442.74,210.83C437.72,207.237 433.11,203.99 428.91,201.09C425.943,199.037 422.777,197.473 419.41,196.4Z" style="fill:rgb(98,223,230);fill-rule:nonzero;"/>
        </g>
        <g transform="matrix(1.47095,0,0,1.47095,-212.98,-168.957)">
            <path d="M707.95,269.34C657.997,259.827 610.33,266.39 564.95,289.03C564.949,289.031 564.947,289.031 564.946,289.032C564.659,289.181 564.541,289.532 564.684,289.81C564.686,289.813 564.688,289.817 564.69,289.82C571.023,301.613 575.02,314.26 576.68,327.76C578.89,345.72 579.58,355.37 582.14,368.19C585.99,387.52 597.98,403.27 609.65,418.31C609.71,418.383 609.703,418.453 609.63,418.52C609.557,418.593 609.483,418.59 609.41,418.51C596.82,404.57 586,390.13 581.25,371.8C579.91,366.627 578.793,360.007 577.9,351.94C576.6,340.227 575.57,331.617 574.81,326.11C573.117,313.883 569.29,302.02 563.33,290.52C563.15,290.18 562.89,290.097 562.55,290.27C553.743,294.81 544.96,300.073 536.2,306.06C536.153,306.093 536.09,306.1 536.01,306.08C535.95,306.06 535.91,306.07 535.89,306.11L535.89,306.113C535.89,306.124 535.899,306.133 535.91,306.133C535.913,306.133 535.917,306.132 535.92,306.13C543.62,298.95 551.823,292.613 560.53,287.12C560.823,286.931 560.912,286.54 560.73,286.25C549.85,269.01 537.47,253.88 521.29,241.83C509.26,232.86 500.46,227.33 487.55,219.63C487.443,219.563 487.417,219.487 487.47,219.4C487.51,219.34 487.62,219.357 487.8,219.45C497.48,224.397 504.917,228.547 510.11,231.9C517.87,236.92 525.99,243.24 534.47,250.86C545.83,261.07 554.63,272.72 562.03,285.38C562.031,285.382 562.033,285.385 562.034,285.387C562.193,285.657 562.549,285.746 562.823,285.584C562.826,285.583 562.828,285.581 562.83,285.58C583.237,273.353 605.487,264.687 629.58,259.58C660.507,253.033 691.677,251.507 723.09,255C723.281,255.016 723.429,255.177 723.429,255.369C723.429,255.396 723.426,255.423 723.42,255.45L659.89,533.49C659.81,533.834 659.471,534.057 659.13,533.99C618.22,526.62 575.16,529.33 536.04,543.62C536.013,543.633 535.99,543.633 535.97,543.62L535.75,543.49C535.603,543.403 535.607,543.323 535.76,543.25C570.673,525.27 607.907,517.843 647.46,520.97C647.98,521.01 648.3,520.777 648.42,520.27L708.25,269.81C708.251,269.806 708.252,269.802 708.253,269.798C708.299,269.595 708.165,269.389 707.957,269.341C707.954,269.341 707.952,269.34 707.95,269.34Z" style="fill:rgb(98,223,230);fill-rule:nonzero;"/>
        </g>
        <g transform="matrix(1.47095,0,0,1.47095,-212.98,-168.957)">
            <path d="M305.76,269.44C305.433,269.507 305.31,269.7 305.39,270.02L365.22,520.45C365.298,520.787 365.615,521.019 365.96,520.99C404.74,517.8 443.07,525.19 477.53,543.21C477.603,543.25 477.623,543.303 477.59,543.37C477.563,543.423 477.51,543.433 477.43,543.4C437.37,529.54 396.387,526.423 354.48,534.05C354.134,534.113 353.794,533.892 353.71,533.55L290.24,255.76C290.173,255.46 290.29,255.27 290.59,255.19C291.563,254.943 292.627,254.763 293.78,254.65C324.34,251.603 354.593,253.287 384.54,259.7C419.01,267.08 451.35,282.04 477.58,305.92C477.627,305.967 477.623,306.027 477.57,306.1L477.56,306.1C477.507,306.18 477.447,306.193 477.38,306.14C427.05,271.17 365.93,257.29 305.76,269.44Z" style="fill:rgb(98,223,230);fill-rule:nonzero;"/>
        </g>
        <g transform="matrix(1.47095,0,0,1.47095,-212.98,-168.957)">
            <path d="M279.04,301.13C278.821,301.163 278.658,301.353 278.658,301.575C278.658,301.61 278.662,301.646 278.67,301.68L340.48,548.51C340.559,548.811 340.86,549.002 341.16,548.94C371.427,542.593 401.3,541.263 430.78,544.95C439.973,546.097 450.59,548.427 462.63,551.94C462.737,551.973 462.777,552.043 462.75,552.15L462.68,552.43C462.673,552.45 462.66,552.46 462.64,552.46C418.23,543.7 372.43,548.3 330.32,564.7C330,564.827 329.797,564.72 329.71,564.38L262.93,287.92C262.921,287.883 262.917,287.846 262.917,287.808C262.917,287.562 263.105,287.354 263.35,287.33L293.48,284.57C293.947,284.53 294.237,284.737 294.35,285.19L297.32,297.48C297.333,297.532 297.339,297.585 297.339,297.638C297.339,297.962 297.1,298.24 296.78,298.29L279.04,301.13Z" style="fill:rgb(98,223,230);fill-rule:nonzero;"/>
        </g>
        <g transform="matrix(1.47095,0,0,1.47095,-212.98,-168.957)">
            <path d="M734.57,301.07L716.82,298.23C716.5,298.18 716.261,297.902 716.261,297.578C716.261,297.525 716.267,297.472 716.28,297.42L719.25,285.13C719.363,284.677 719.653,284.47 720.12,284.51L750.26,287.27C750.505,287.294 750.693,287.502 750.693,287.748C750.693,287.786 750.689,287.823 750.68,287.86L683.89,564.37C683.803,564.71 683.6,564.817 683.28,564.69C641.16,548.29 595.35,543.69 550.93,552.45C550.91,552.45 550.897,552.44 550.89,552.42L550.82,552.14C550.793,552.033 550.833,551.963 550.94,551.93C562.987,548.417 573.607,546.087 582.8,544.94C612.287,541.253 642.167,542.583 672.44,548.93C672.74,548.992 673.041,548.801 673.12,548.5L734.94,301.62C734.948,301.586 734.952,301.55 734.952,301.515C734.952,301.293 734.789,301.103 734.57,301.07Z" style="fill:rgb(98,223,230);fill-rule:nonzero;"/>
        </g>
        <g transform="matrix(1.47095,0,0,1.47095,-212.98,-168.957)">
            <path d="M375.6,296.55C368.6,310.703 361.733,323.357 355,334.51C353.06,337.723 351.727,339.797 351,340.73C347.567,345.117 347.2,344.867 349.9,339.98C357.233,326.747 365.72,312.227 375.36,296.42C376.433,294.66 376.513,294.703 375.6,296.55Z" style="fill:rgb(98,223,230);fill-rule:nonzero;"/>
        </g>
        <g transform="matrix(1.47095,0,0,1.47095,-212.98,-168.957)">
            <path d="M407.88,324.06L407.82,323.8C407.813,323.78 407.823,323.767 407.85,323.76C411.583,323.147 416.307,322.293 422.02,321.2C427.713,320.107 432.353,318.97 435.94,317.79C439.28,316.697 444.47,314.53 451.51,311.29C453.21,310.51 453.307,310.673 451.8,311.78C445.04,316.76 437.613,319.86 429.52,321.08C422.36,322.153 415.203,323.187 408.05,324.18C407.957,324.193 407.9,324.153 407.88,324.06Z" style="fill:rgb(98,223,230);fill-rule:nonzero;"/>
        </g>
        <g transform="matrix(1.47095,0,0,1.47095,-212.98,-168.957)">
            <path d="M432.71,558.83C432.698,558.862 432.691,558.896 432.691,558.931C432.691,559.076 432.805,559.199 432.95,559.21L459.25,561.17C459.517,561.19 459.583,561.317 459.45,561.55L459.26,561.87C459.22,561.943 459.16,561.977 459.08,561.97C450.433,561.723 441.703,561.943 432.89,562.63C432.578,562.657 432.328,562.903 432.3,563.21L431.55,571.38C431.543,571.48 431.563,571.57 431.61,571.65C431.697,571.803 431.76,571.917 431.8,571.99C431.84,572.05 431.853,572.117 431.84,572.19L430.94,577.8C430.893,578.093 430.723,578.207 430.43,578.14C430.343,578.12 430.267,578.07 430.2,577.99C430.14,577.93 430.1,577.837 430.08,577.71C429.893,576.277 429.767,574.853 429.7,573.44C429.694,573.275 429.556,573.142 429.39,573.142C429.367,573.142 429.343,573.145 429.32,573.15C395.973,580.963 364.9,592.45 336.1,607.61C320.073,616.043 305.527,625.437 292.46,635.79C292.436,635.808 292.411,635.824 292.384,635.837C292.158,635.949 291.882,635.859 291.772,635.637C291.758,635.61 291.748,635.58 291.74,635.55L219.55,347.25C219.546,347.235 219.543,347.22 219.541,347.204C219.475,346.82 219.733,346.451 220.111,346.387C220.127,346.384 220.144,346.382 220.16,346.38L242.89,343.98C243.273,343.939 243.633,344.192 243.73,344.57L247.06,357.48C247.068,357.509 247.071,357.539 247.071,357.569C247.071,357.731 246.958,357.874 246.8,357.91L235.75,360.43C235.525,360.483 235.365,360.685 235.365,360.917C235.365,360.958 235.37,361 235.38,361.04L300.84,615.08C300.894,615.292 301.086,615.441 301.305,615.441C301.387,615.441 301.468,615.42 301.54,615.38C340.84,593.39 384.42,578.04 429.21,572.15C429.36,572.132 429.477,572.01 429.49,571.86L430.29,563.17C430.303,562.99 430.22,562.91 430.04,562.93C388.54,567.01 347.92,579.78 310.47,598.14C310.45,598.15 310.429,598.159 310.408,598.167C310.089,598.284 309.728,598.114 309.609,597.79C309.601,597.77 309.595,597.75 309.59,597.73L240.62,322.31C240.615,322.292 240.612,322.274 240.608,322.256C240.538,321.856 240.813,321.469 241.219,321.397C241.236,321.394 241.253,321.392 241.27,321.39L267.08,318.67C267.44,318.63 267.777,318.868 267.86,319.22L271.02,331.84C271.028,331.873 271.033,331.906 271.033,331.94C271.033,332.126 270.902,332.289 270.72,332.33L256.86,335.5C256.732,335.528 256.639,335.642 256.639,335.774C256.639,335.799 256.643,335.825 256.65,335.85L320.23,582.62C320.232,582.627 320.234,582.634 320.237,582.641C320.291,582.797 320.46,582.881 320.61,582.828C320.617,582.826 320.623,582.823 320.63,582.82C351.237,569.433 383.19,561.727 416.49,559.7C420.93,559.43 426.62,559.49 431.54,559.26C431.88,559.24 432.09,559.067 432.17,558.74L432.4,557.77C432.52,557.27 432.637,557.27 432.75,557.77C432.843,558.177 432.83,558.53 432.71,558.83Z" style="fill:rgb(98,223,230);fill-rule:nonzero;"/>
        </g>
        <g transform="matrix(1.47095,0,0,1.47095,-212.98,-168.957)">
            <path d="M692.87,582.79C692.878,582.794 692.886,582.797 692.895,582.8C693.092,582.868 693.311,582.758 693.382,582.556C693.385,582.548 693.388,582.539 693.39,582.53L756.9,336C756.909,335.964 756.914,335.927 756.914,335.889C756.914,335.684 756.77,335.505 756.57,335.46L742.98,332.36C742.673,332.287 742.557,332.1 742.63,331.8L745.63,319.24C745.728,318.836 746.112,318.564 746.52,318.61L772.67,321.51C772.679,321.511 772.689,321.512 772.698,321.514C772.93,321.554 773.087,321.784 773.046,322.021C773.044,322.031 773.042,322.041 773.04,322.05L703.96,597.91C703.956,597.929 703.95,597.948 703.944,597.966C703.855,598.208 703.579,598.333 703.331,598.242C703.314,598.236 703.297,598.228 703.28,598.22C662.78,578.36 618.53,564.93 573.4,562.14C573.383,562.139 573.366,562.138 573.35,562.138C572.977,562.138 572.67,562.445 572.67,562.818L572.67,562.84C572.89,571.027 572.593,579.21 571.78,587.39C571.774,587.459 571.736,587.519 571.68,587.55L571.1,587.89C570.99,587.956 570.864,587.99 570.737,587.99C570.347,587.99 570.027,587.67 570.027,587.28C570.027,587.257 570.028,587.233 570.03,587.21L572.28,562.66C572.282,562.643 572.282,562.627 572.282,562.61C572.282,562.322 572.048,562.084 571.76,562.08L554.55,561.71C554.417,561.71 554.337,561.657 554.31,561.55C554.283,561.463 554.33,561.41 554.45,561.39C569.417,559.443 583.86,558.903 597.78,559.77C630.68,561.803 662.377,569.477 692.87,582.79Z" style="fill:rgb(98,223,230);fill-rule:nonzero;"/>
        </g>
        <g transform="matrix(1.47095,0,0,1.47095,-212.98,-168.957)">
            <path d="M712.72,615.21L778.17,361.13C778.182,361.082 778.189,361.032 778.189,360.983C778.189,360.712 778.003,360.475 777.74,360.41L766.82,357.92C766.662,357.884 766.549,357.741 766.549,357.579C766.549,357.549 766.552,357.519 766.56,357.49L769.83,344.45C769.913,344.098 770.25,343.86 770.61,343.9L793.35,346.42C793.737,346.464 794.033,346.796 794.033,347.185C794.033,347.247 794.025,347.309 794.01,347.37L721.76,635.89C721.74,635.964 721.673,636.017 721.596,636.017C721.557,636.017 721.52,636.004 721.49,635.98C680.76,604.44 632.52,584.19 581.49,572.51C580.89,572.37 580.297,572.14 579.71,571.82C579.697,571.815 579.687,571.806 579.681,571.794C579.666,571.765 579.681,571.726 579.715,571.709C579.726,571.703 579.738,571.7 579.75,571.7C591.203,572.94 601.777,574.653 611.47,576.84C646.95,584.833 680.51,597.703 712.15,615.45C712.162,615.457 712.175,615.463 712.188,615.468C712.392,615.55 712.625,615.454 712.705,615.255C712.711,615.24 712.716,615.225 712.72,615.21Z" style="fill:rgb(98,223,230);fill-rule:nonzero;"/>
        </g>
        <g transform="matrix(1.47095,0,0,1.47095,-212.98,-168.957)">
            <path d="M426.26,481.01C423.95,488.44 425.8,491.7 431.07,496.57C432.463,497.857 432.363,497.987 430.77,496.96C426.76,494.39 423.95,491.8 423.33,486.5C422.51,479.46 423.27,472.923 425.61,466.89C427.37,462.343 430.41,456.543 434.73,449.49C440.643,439.83 446.363,430.76 451.89,422.28C451.95,422.18 452.027,422.16 452.12,422.22L452.13,422.22C452.217,422.28 452.237,422.357 452.19,422.45C444.323,438.157 437.42,452.913 431.48,466.72C429.633,471.013 427.893,475.777 426.26,481.01Z" style="fill:rgb(98,223,230);fill-rule:nonzero;"/>
        </g>
        <g transform="matrix(1.47095,0,0,1.47095,-212.98,-168.957)">
            <path d="M573.23,501.97C575.21,497.5 575.23,492.84 574.8,486.5C574.293,478.907 573.56,471.333 572.6,463.78C572.3,461.433 571.103,452.373 569.01,436.6C568.997,436.513 569.053,436.437 569.18,436.37L569.19,436.36C569.29,436.307 569.36,436.363 569.4,436.53C572.32,449.923 574.167,459.997 574.94,466.75C575.393,470.73 576.047,478.81 576.9,490.99C577.213,495.463 576.203,499.247 573.87,502.34C572.577,504.053 572.363,503.93 573.23,501.97Z" style="fill:rgb(98,223,230);fill-rule:nonzero;"/>
        </g>
        <g transform="matrix(1.47095,0,0,1.47095,-212.98,-168.957)">
            <path d="M504.94,534.42C516.147,535.787 526.437,537.57 535.81,539.77C535.825,539.779 535.834,539.795 535.834,539.813C535.834,539.834 535.82,539.853 535.8,539.86C535.173,539.847 534.34,539.757 533.3,539.59C523.12,537.943 513.62,536.583 504.8,535.51C495.98,534.43 486.433,533.47 476.16,532.63C475.107,532.543 474.277,532.43 473.67,532.29C473.655,532.281 473.646,532.265 473.646,532.247C473.646,532.226 473.66,532.207 473.68,532.2C483.307,532.313 493.727,533.053 504.94,534.42Z" style="fill:rgb(98,223,230);fill-rule:nonzero;"/>
        </g>
        <g transform="matrix(1.43325,0.330892,-0.330892,1.43325,598.177,630.374)">
            <ellipse cx="0" cy="0" rx="4.2" ry="0.23" style="fill:rgb(98,223,230);"/>
        </g>
        <g transform="matrix(1.47095,0,0,1.47095,-212.98,-168.957)">
            <path d="M434.06,571.92C433.68,572.01 433.15,572.28 432.92,572.3C432.333,572.333 432.28,572.19 432.76,571.87C433.167,571.603 433.69,571.483 434.33,571.51C434.683,571.523 434.697,571.63 434.37,571.83C434.35,571.843 434.247,571.873 434.06,571.92Z" style="fill:rgb(98,223,230);fill-rule:nonzero;"/>
        </g>
        <g transform="matrix(1.47095,0,0,1.47095,-212.98,-168.957)">
            <path d="M433.18,591.06C440.693,590.967 448.553,591.02 456.76,591.22C469.58,591.533 485.913,591.513 505.76,591.16C518.127,590.933 529.483,590.37 539.83,589.47C539.864,589.466 539.898,589.469 539.93,589.477C540.09,589.516 540.188,589.684 540.148,589.849C540.14,589.881 540.127,589.912 540.11,589.94C539.977,590.16 539.767,590.337 539.48,590.47C527.16,596.41 511.72,595.71 498,595.08C477.76,594.15 458.99,592.88 440.45,591.86C435.677,591.6 432.16,591.303 429.9,590.97C429.867,590.963 429.813,590.937 429.74,590.89C429.707,590.863 429.673,590.857 429.64,590.87C429.635,590.87 429.63,590.875 429.63,590.88C429.63,590.885 429.635,590.89 429.64,590.89C430.83,590.77 432.14,591.07 433.18,591.06Z" style="fill:rgb(98,223,230);fill-rule:nonzero;"/>
        </g>
        <g transform="matrix(1.47095,0,0,1.47095,-212.98,-168.957)">
            <path d="M178.49,755.97C168.003,755.983 162.677,755.983 162.51,755.97C162.023,755.937 161.787,755.77 161.8,755.47L161.97,751.87C161.983,751.483 162.183,751.303 162.57,751.33C168.34,751.74 169.36,748.53 169.35,743.51C169.343,728.883 169.323,711.853 169.29,692.42C169.29,692.053 169.107,691.867 168.74,691.86C165.033,691.78 161.58,691.8 158.38,691.92C151.67,692.17 150.07,696.63 150.12,702.47C150.127,702.77 149.98,702.92 149.68,702.92L145.91,702.93C145.643,702.93 145.51,702.793 145.51,702.52L145.47,681.82L145.47,681.815C145.47,681.694 145.569,681.595 145.69,681.595C145.717,681.595 145.744,681.6 145.77,681.61C150.717,683.35 155.84,684.177 161.14,684.09C161.473,684.083 167.23,684.073 178.41,684.06C189.59,684.053 195.35,684.05 195.69,684.05C200.99,684.123 206.11,683.287 211.05,681.54C211.076,681.53 211.103,681.525 211.13,681.525C211.251,681.525 211.35,681.624 211.35,681.745L211.35,702.45C211.35,702.723 211.217,702.86 210.95,702.86L207.18,702.86C206.88,702.86 206.733,702.71 206.74,702.41C206.78,696.57 205.17,692.11 198.46,691.87C195.26,691.763 191.807,691.753 188.1,691.84C187.733,691.847 187.55,692.033 187.55,692.4C187.563,711.833 187.583,728.863 187.61,743.49C187.61,748.51 188.64,751.72 194.4,751.3C194.787,751.273 194.99,751.453 195.01,751.84L195.18,755.44C195.193,755.74 194.957,755.903 194.47,755.93C194.31,755.943 188.983,755.957 178.49,755.97ZM156.5,687.64C156.533,687.633 156.567,687.63 156.6,687.63L156.61,687.63L156.61,687.65C156.61,687.75 156.597,687.8 156.57,687.8L149.98,687.02C149.38,686.953 149.08,687.223 149.08,687.83L149.08,690.82C149.08,691.307 149.273,691.407 149.66,691.12C151.753,689.553 154.033,688.393 156.5,687.64ZM203.26,688.85C204.96,689.28 206.27,690.71 207.26,691.21C207.553,691.363 207.7,691.277 207.7,690.95L207.7,687.54C207.7,687.2 207.53,687.023 207.19,687.01C205.63,686.957 204.273,687.15 203.12,687.59C201.853,688.077 201.9,688.497 203.26,688.85ZM172.28,688.05L172.3,688.05C172.668,688.05 172.97,688.352 172.97,688.72L172.97,748.77C172.97,749.19 172.867,749.587 172.66,749.96L171.67,751.76C171.457,752.147 171.573,752.34 172.02,752.34L185.02,752.34C185.28,752.34 185.347,752.227 185.22,752C184.353,750.433 183.92,749.1 183.92,748C183.92,728.08 183.917,708.34 183.91,688.78C183.91,688.464 184.164,688.201 184.48,688.19C187.36,688.11 190.32,688 193.36,687.86C193.333,687.867 193.333,687.87 193.36,687.87L159.31,687.84C159.07,687.84 159.05,687.903 159.25,688.03C159.403,688.137 159.57,688.177 159.75,688.15C160.063,688.103 160.233,688.08 160.26,688.08C164.453,688.187 168.46,688.177 172.28,688.05ZM194.33,687.87C194.69,687.977 195.043,687.98 195.39,687.88C195.037,687.823 194.683,687.823 194.33,687.87Z" style="fill:white;fill-rule:nonzero;"/>
        </g>
        <g transform="matrix(1.47095,0,0,1.47095,-212.98,-168.957)">
            <path d="M661.98,684.06C673.16,684.053 678.917,684.053 679.25,684.06C684.55,684.133 689.67,683.297 694.61,681.55C694.636,681.54 694.663,681.535 694.69,681.535C694.811,681.535 694.91,681.634 694.91,681.755L694.91,702.46C694.91,702.733 694.777,702.87 694.51,702.87L690.74,702.87C690.44,702.87 690.293,702.72 690.3,702.42C690.34,696.58 688.73,692.12 682.02,691.88C678.82,691.767 675.367,691.753 671.66,691.84C671.293,691.847 671.11,692.033 671.11,692.4C671.117,711.833 671.13,728.863 671.15,743.49C671.15,748.51 672.18,751.72 677.94,751.3C678.327,751.273 678.53,751.453 678.55,751.84L678.72,755.44C678.733,755.74 678.497,755.907 678.01,755.94C677.85,755.953 672.523,755.963 662.03,755.97C651.543,755.977 646.22,755.973 646.06,755.96C645.567,755.933 645.327,755.77 645.34,755.47L645.51,751.87C645.53,751.483 645.733,751.303 646.12,751.33C651.88,751.74 652.9,748.52 652.9,743.5C652.893,728.873 652.877,711.843 652.85,692.41C652.85,692.043 652.667,691.86 652.3,691.86C648.593,691.773 645.14,691.79 641.94,691.91C635.23,692.16 633.63,696.62 633.68,702.46C633.687,702.76 633.54,702.913 633.24,702.92L629.47,702.92C629.203,702.92 629.07,702.783 629.07,702.51L629.04,681.81L629.04,681.805C629.04,681.684 629.139,681.585 629.26,681.585C629.287,681.585 629.314,681.59 629.34,681.6C634.28,683.34 639.4,684.17 644.7,684.09C645.033,684.083 650.793,684.073 661.98,684.06ZM639.63,687.83L640.02,687.7C640.187,687.64 640.183,687.607 640.01,687.6C639.737,687.6 639.61,687.677 639.63,687.83L633.38,686.95C633.378,686.95 633.377,686.95 633.375,686.949C633.097,686.917 632.843,687.115 632.811,687.388C632.811,687.392 632.81,687.396 632.81,687.4L632.49,690.88C632.443,691.38 632.623,691.48 633.03,691.18C635.01,689.707 637.21,688.59 639.63,687.83ZM686.14,688.54C688.38,689.41 689.33,690.2 690.74,691.26C691.1,691.533 691.277,691.443 691.27,690.99L691.24,687.69C691.233,687.263 691.02,687.047 690.6,687.04C689.1,687 687.62,687.237 686.16,687.75C685.44,688.003 685.433,688.267 686.14,688.54ZM668.07,688.13L675.34,687.89C675.353,687.89 675.36,687.883 675.36,687.87C675.447,687.13 675.447,687.13 675.36,687.87C675.36,687.877 675.357,687.88 675.35,687.88C664.77,687.693 653.863,687.693 642.63,687.88C641.91,687.887 641.91,687.907 642.63,687.94C646.697,688.107 651.07,688.123 655.75,687.99C655.757,687.99 655.764,687.99 655.771,687.989C656.193,687.984 656.545,688.323 656.55,688.74L656.55,688.76C656.517,710.793 656.53,730.36 656.59,747.46C656.6,749.26 656.07,750.44 655.06,751.83C655.023,751.883 655.002,751.945 655.002,752.01C655.002,752.179 655.141,752.319 655.31,752.32L668.634,752.32C668.787,752.32 668.914,752.194 668.914,752.04C668.914,751.987 668.898,751.935 668.87,751.89C668.463,751.237 668.093,750.527 667.76,749.76C667.533,749.233 667.423,748.453 667.43,747.42C667.497,733.24 667.51,713.687 667.47,688.76C667.47,688.425 667.736,688.146 668.07,688.13Z" style="fill:white;fill-rule:nonzero;"/>
        </g>
        <g transform="matrix(1.47095,0,0,1.47095,-212.98,-168.957)">
            <path d="M732.1,692.55L732.1,716.01C732.1,716.403 732.293,716.61 732.68,716.63C736.153,716.797 739.503,716.747 742.73,716.48C748.29,716.03 749.25,712.89 749.58,707.85C749.593,707.583 749.733,707.45 750,707.45L753.8,707.41L753.805,707.41C754.014,707.407 754.187,707.581 754.19,707.795L754.19,733.31C754.19,733.477 754.107,733.56 753.94,733.56L749.95,733.56C749.763,733.56 749.663,733.467 749.65,733.28C749.49,731.313 749.167,729.58 748.68,728.08C747.15,723.37 736.75,724.24 732.57,724.53C732.257,724.55 732.1,724.717 732.1,725.03L732.1,747.48C732.1,747.813 732.263,747.993 732.59,748.02C735.74,748.31 741.23,748.22 743.77,748.08C753.49,747.53 757.5,741.45 760.64,732.89C760.753,732.59 760.97,732.44 761.29,732.44L764.81,732.44C765.21,732.44 765.367,732.637 765.28,733.03L760.15,755.47C760.077,755.803 759.867,755.97 759.52,755.97L706.78,755.97C706.539,755.97 706.34,755.776 706.34,755.54L706.34,751.79C706.34,751.49 706.49,751.347 706.79,751.36C711.52,751.54 713.81,749.6 713.82,744.74C713.873,730.04 713.87,713.973 713.81,696.54C713.8,691.4 712.75,688.51 707.08,688.8C707.073,688.8 707.066,688.801 707.059,688.801C706.664,688.811 706.33,688.499 706.32,688.11L706.32,684.78C706.32,684.353 706.537,684.14 706.97,684.14C716.123,684.153 725.383,684.153 734.75,684.14C745.14,684.12 750.57,684.29 758.52,681.74C758.538,681.734 758.556,681.729 758.574,681.726C758.759,681.697 758.935,681.829 758.966,682.018C758.968,682.035 758.97,682.053 758.97,682.07L758.97,702.78C758.97,703.133 758.797,703.29 758.45,703.25L754.81,702.85C754.457,702.81 754.287,702.613 754.3,702.26C754.45,696.54 752.68,692.42 746.45,692.14C742.15,691.953 737.533,691.92 732.6,692.04C732.267,692.047 732.1,692.217 732.1,692.55ZM754.79,691.34C755.163,691.693 755.347,691.613 755.34,691.1L755.3,687.58C755.3,687.06 755.043,686.86 754.53,686.98L749.55,688.12C749.097,688.22 749.09,688.347 749.53,688.5C751.877,689.307 753.63,690.253 754.79,691.34ZM729.09,720.84L742.55,720.84C742.583,720.84 742.607,720.827 742.62,720.8L742.79,720.51C742.87,720.37 742.827,720.3 742.66,720.3L729.23,720.3C728.797,720.3 728.44,719.943 728.44,719.51L728.43,689.06C728.43,688.676 728.746,688.36 729.13,688.36L745.38,688.35C745.52,688.35 745.553,688.287 745.48,688.16L745.31,687.86C745.29,687.833 745.263,687.82 745.23,687.82L716.69,687.83C716.343,687.83 716.243,687.987 716.39,688.3C717.303,690.247 717.7,691.927 717.58,693.34C717.513,694.16 717.48,694.583 717.48,694.61C717.493,711.323 717.497,728.04 717.49,744.76C717.49,744.813 717.537,745.473 717.63,746.74C717.75,748.493 717.25,750.143 716.13,751.69C716.104,751.725 716.085,751.763 716.071,751.804C716.004,752.013 716.125,752.241 716.34,752.31C716.379,752.322 716.419,752.329 716.46,752.33L756.52,752.32C756.92,752.32 757.163,752.127 757.25,751.74L758.68,745.76C758.813,745.193 758.67,745.113 758.25,745.52C753.44,750.24 748.42,752.01 741.49,751.86C737.737,751.78 733.593,751.77 729.06,751.83C728.725,751.83 728.45,751.555 728.45,751.22L728.44,721.5C728.44,721.06 728.657,720.84 729.09,720.84ZM746.11,688.56C746.15,688.747 746.29,688.783 746.53,688.67C746.574,688.651 746.603,688.608 746.603,688.56C746.603,688.52 746.583,688.482 746.55,688.46C746.47,688.393 746.387,688.357 746.3,688.35C746.147,688.337 746.083,688.407 746.11,688.56ZM744.44,720.51C744.44,720.583 744.493,720.667 744.6,720.76C744.667,720.827 744.733,720.86 744.8,720.86C746.76,720.973 748.48,721.733 749.96,723.14C749.991,723.167 750.026,723.188 750.065,723.203C750.254,723.275 750.475,723.165 750.553,722.96C750.568,722.918 750.578,722.874 750.58,722.83C750.587,722.783 750.59,722.013 750.59,720.52C750.597,719.02 750.597,718.247 750.59,718.2C750.588,718.156 750.579,718.113 750.563,718.071C750.486,717.866 750.267,717.755 750.077,717.826C750.038,717.841 750.002,717.862 749.97,717.89C748.483,719.29 746.76,720.043 744.8,720.15C744.733,720.15 744.667,720.183 744.6,720.25C744.493,720.343 744.44,720.43 744.44,720.51Z" style="fill:white;fill-rule:nonzero;"/>
        </g>
        <g transform="matrix(1.47095,0,0,1.47095,-212.98,-168.957)">
            <path d="M342.61,692.04C342.277,692.047 342.11,692.217 342.11,692.55L342.11,716.01C342.11,716.403 342.303,716.61 342.69,716.63C346.163,716.797 349.513,716.747 352.74,716.48C358.3,716.03 359.26,712.89 359.59,707.85C359.603,707.583 359.743,707.45 360.01,707.45L363.81,707.42L363.815,707.42C364.024,707.417 364.197,707.591 364.2,707.805L364.2,733.31C364.2,733.477 364.117,733.56 363.95,733.56L359.96,733.56C359.773,733.56 359.673,733.467 359.66,733.28C359.5,731.313 359.177,729.58 358.69,728.08C357.16,723.37 346.76,724.24 342.58,724.53C342.267,724.55 342.11,724.717 342.11,725.03L342.11,747.48C342.11,747.813 342.273,747.993 342.6,748.02C345.75,748.31 351.24,748.22 353.78,748.08C363.49,747.53 367.51,741.45 370.65,732.9C370.763,732.6 370.98,732.45 371.3,732.45L374.82,732.45C375.22,732.45 375.377,732.647 375.29,733.04L370.15,755.47C370.077,755.803 369.867,755.97 369.52,755.97L316.79,755.97C316.549,755.97 316.35,755.776 316.35,755.54L316.35,751.79C316.35,751.49 316.5,751.347 316.8,751.36C321.53,751.54 323.82,749.6 323.83,744.74C323.883,730.04 323.88,713.973 323.82,696.54C323.81,691.4 322.76,688.51 317.09,688.8C317.083,688.8 317.076,688.801 317.069,688.801C316.674,688.811 316.34,688.499 316.33,688.11L316.33,684.78C316.33,684.353 316.547,684.14 316.98,684.14C326.133,684.153 335.393,684.153 344.76,684.14C355.15,684.13 360.58,684.3 368.53,681.75C368.548,681.744 368.566,681.739 368.584,681.736C368.769,681.707 368.945,681.839 368.976,682.028C368.978,682.045 368.98,682.063 368.98,682.08L368.98,702.79C368.98,703.143 368.807,703.3 368.46,703.26L364.82,702.86C364.467,702.82 364.297,702.623 364.31,702.27C364.46,696.55 362.69,692.43 356.46,692.15C352.16,691.957 347.543,691.92 342.61,692.04ZM360.29,688.86C362.14,689.2 362.91,689.95 364.78,691.35C365.153,691.637 365.34,691.543 365.34,691.07L365.34,687.59C365.34,687.183 365.14,687.007 364.74,687.06C362.92,687.313 361.423,687.607 360.25,687.94C358.937,688.307 358.95,688.613 360.29,688.86ZM339.1,720.85L352.56,720.85C352.593,720.85 352.617,720.837 352.63,720.81L352.8,720.52C352.88,720.38 352.837,720.31 352.67,720.31L339.24,720.31C338.807,720.31 338.45,719.953 338.45,719.52L338.45,689.08C338.45,688.696 338.766,688.38 339.15,688.38L355.4,688.38C355.54,688.38 355.573,688.317 355.5,688.19L355.33,687.89C355.31,687.863 355.283,687.85 355.25,687.85L326.72,687.85C326.373,687.85 326.273,688.007 326.42,688.32C327.333,690.267 327.73,691.947 327.61,693.36C327.543,694.18 327.51,694.603 327.51,694.63C327.517,711.337 327.513,728.043 327.5,744.75C327.5,744.803 327.547,745.463 327.64,746.73C327.76,748.483 327.26,750.133 326.14,751.68C326.114,751.715 326.095,751.753 326.081,751.794C326.014,752.003 326.135,752.231 326.35,752.3C326.389,752.312 326.429,752.319 326.47,752.32L366.51,752.32C366.91,752.32 367.153,752.127 367.24,751.74L368.67,745.77C368.803,745.203 368.66,745.123 368.24,745.53C363.43,750.24 358.41,752.01 351.49,751.86C347.737,751.78 343.593,751.767 339.06,751.82C338.725,751.82 338.45,751.545 338.45,751.21L338.45,721.51C338.45,721.07 338.667,720.85 339.1,720.85ZM354.43,720.46C354.43,720.533 354.483,720.617 354.59,720.71C354.657,720.777 354.723,720.81 354.79,720.81C356.737,720.923 358.447,721.683 359.92,723.09C359.951,723.117 359.986,723.138 360.024,723.153C360.214,723.225 360.434,723.116 360.512,722.911C360.528,722.869 360.538,722.825 360.54,722.78C360.547,722.74 360.55,721.973 360.55,720.48C360.557,718.987 360.56,718.22 360.56,718.18C360.559,718.133 360.55,718.086 360.533,718.042C360.457,717.836 360.237,717.725 360.047,717.796C360.008,717.811 359.972,717.832 359.94,717.86C358.46,719.253 356.743,720 354.79,720.1C354.723,720.1 354.657,720.133 354.59,720.2C354.483,720.293 354.43,720.38 354.43,720.46Z" style="fill:white;fill-rule:nonzero;"/>
        </g>
        <g transform="matrix(1.47095,0,0,1.47095,-212.98,-168.957)">
            <path d="M439.29,696.61C438,699.83 441.43,703.3 443.72,704.83C446.64,706.77 451.567,709.97 458.5,714.43C464.46,718.263 468.2,721.293 469.72,723.52C475.33,731.76 473.67,744.21 465.91,750.9C459.37,756.54 450.25,757.73 441.68,757.27C436.12,756.96 426.22,755.22 423.11,750C422.197,748.46 421.903,746.433 422.23,743.92C422.85,739.11 423.33,735.45 426.02,731.67C426.182,731.439 426.448,731.301 426.73,731.3L429.54,731.3C429.94,731.3 430.12,731.5 430.08,731.9C429.44,738.113 431.25,742.877 435.51,746.19C440.78,750.3 451.12,751.21 455.93,745.69C460.45,740.5 456.47,735.65 452.07,732.67C446.623,728.977 441.53,725.587 436.79,722.5C429.75,717.92 424.34,713.04 423.88,704.84C423.587,699.733 424.827,695.2 427.6,691.24C433.43,682.91 443.3,682.07 453.28,683.08C458.767,683.633 463.453,683.87 467.34,683.79L467.351,683.79C467.538,683.79 467.691,683.943 467.691,684.13C467.691,684.14 467.691,684.15 467.69,684.16L466.16,700.83C466.107,701.443 465.77,701.75 465.15,701.75L462.26,701.75C461.914,701.744 461.634,701.46 461.64,701.12L461.64,701.11C461.76,697.13 459.83,693.41 456.12,691.93C450.33,689.61 441.96,689.92 439.29,696.61ZM442.52,753.53C450.27,753.99 458.11,752.84 463.55,748.03C470.23,742.11 471.34,730.95 465.47,724.2C464.603,723.193 461.3,720.777 455.56,716.95C453.2,715.383 448.397,712.257 441.15,707.57C429.04,699.75 436.39,687.78 447.87,686.73C447.903,686.723 447.943,686.673 447.99,686.58L448,686.58C448.002,686.576 448.003,686.571 448.004,686.566C448.014,686.512 447.96,686.457 447.884,686.443C447.876,686.441 447.868,686.44 447.86,686.44C436.36,685.89 427.64,691.79 427.72,704.34C427.76,709.84 431.25,714.32 435.74,717.32C437.407,718.433 444.223,722.98 456.19,730.96C462.9,735.43 463.75,743.38 458.26,749.03C456.42,750.917 454.233,752.117 451.7,752.63C439.907,755.023 431.617,751.057 426.83,740.73C426.643,740.33 426.507,740.347 426.42,740.78C426.007,742.747 425.967,744.67 426.3,746.55C427.24,751.83 438.06,753.26 442.52,753.53ZM457.32,688.28C459.48,688.973 461.323,690.257 462.85,692.13C462.872,692.154 462.898,692.175 462.927,692.19C463.054,692.256 463.21,692.21 463.273,692.088C463.289,692.058 463.298,692.024 463.3,691.99L463.66,688.11C463.693,687.717 463.513,687.51 463.12,687.49L456.02,687.12C454.64,687.053 454.573,687.273 455.82,687.78C456,687.853 456.5,688.02 457.32,688.28Z" style="fill:white;fill-rule:nonzero;"/>
        </g>
        <g transform="matrix(1.47095,0,0,1.47095,-212.98,-168.957)">
            <path d="M583.42,696.61C582.13,699.83 585.56,703.3 587.85,704.83C590.763,706.77 595.687,709.97 602.62,714.43C608.58,718.27 612.32,721.303 613.84,723.53C619.45,731.77 617.78,744.22 610.02,750.9C603.48,756.54 594.36,757.73 585.79,757.27C580.23,756.95 570.33,755.21 567.23,749.99C566.317,748.45 566.023,746.423 566.35,743.91C566.97,739.1 567.45,735.44 570.14,731.66C570.302,731.429 570.568,731.291 570.85,731.29L573.66,731.29C574.06,731.29 574.24,731.49 574.2,731.89C573.56,738.103 575.37,742.867 579.63,746.18C584.89,750.3 595.23,751.21 600.04,745.69C604.56,740.5 600.59,735.65 596.19,732.67C590.743,728.977 585.65,725.587 580.91,722.5C573.87,717.92 568.47,713.03 568.01,704.83C567.717,699.73 568.957,695.2 571.73,691.24C577.56,682.91 587.43,682.07 597.41,683.08C602.897,683.64 607.583,683.88 611.47,683.8L611.481,683.8C611.668,683.8 611.821,683.953 611.821,684.14C611.821,684.15 611.821,684.16 611.82,684.17L610.29,700.84C610.237,701.453 609.9,701.76 609.28,701.76L606.39,701.76C606.044,701.754 605.764,701.47 605.77,701.13L605.77,701.12C605.89,697.14 603.96,693.42 600.25,691.93C594.46,689.61 586.09,689.92 583.42,696.61ZM586.77,753.54C594.52,753.97 602.35,752.79 607.76,747.96C614.41,742.02 615.47,730.87 609.58,724.15C608.713,723.15 605.403,720.75 599.65,716.95C597.29,715.39 592.48,712.287 585.22,707.64C573.09,699.87 580.38,687.89 591.85,686.79C591.883,686.783 591.923,686.733 591.97,686.64L591.98,686.64C591.982,686.635 591.983,686.631 591.984,686.626C591.994,686.572 591.939,686.516 591.864,686.503C591.856,686.501 591.848,686.5 591.84,686.5C580.35,686 571.66,691.93 571.79,704.46C571.85,709.96 575.36,714.42 579.85,717.4C581.523,718.507 588.353,723.02 600.34,730.94C607.06,735.38 607.94,743.32 602.48,748.98C600.647,750.873 598.467,752.083 595.94,752.61C584.167,755.043 575.87,751.113 571.05,740.82C570.863,740.42 570.727,740.437 570.64,740.87C570.233,742.837 570.2,744.76 570.54,746.64C571.5,751.91 582.32,753.29 586.77,753.54ZM601.47,688.27C603.61,688.963 605.437,690.247 606.95,692.12C606.997,692.176 607.067,692.209 607.141,692.209C607.27,692.209 607.379,692.109 607.39,691.98L607.77,688.13C607.803,687.737 607.627,687.53 607.24,687.51L600.18,687.11C598.813,687.037 598.747,687.253 599.98,687.76C600.16,687.833 600.657,688.003 601.47,688.27Z" style="fill:white;fill-rule:nonzero;"/>
        </g>
        <g transform="matrix(1.47095,0,0,1.47095,-212.98,-168.957)">
            <path d="M794.26,721.39C793.593,728.17 792.67,736.79 791.49,747.25C791.39,748.183 791.62,749.31 792.18,750.63C792.313,750.937 792.547,751.11 792.88,751.15L796.08,751.5C796.359,751.531 796.572,751.77 796.57,752.05L796.57,755.45C796.57,755.797 796.397,755.97 796.05,755.97L772.77,755.97C772.637,755.97 772.57,755.907 772.57,755.78L772.57,751.57C772.57,751.397 772.657,751.317 772.83,751.33C778.18,751.76 780.8,750 781.51,744.6C783.017,733.06 785.667,712.623 789.46,683.29C789.5,682.957 789.687,682.79 790.02,682.79L792.42,682.79C792.799,682.79 793.152,682.987 793.35,683.31L821.75,730.03C821.853,730.2 822.038,730.304 822.237,730.304C822.44,730.304 822.628,730.195 822.73,730.02L849.67,683.36C849.89,682.987 850.213,682.8 850.64,682.8L853.2,682.8C853.54,682.8 853.73,682.967 853.77,683.3C857.303,710.173 860.087,731.1 862.12,746.08C862.3,747.413 863.133,748.753 864.62,750.1C865.99,751.34 868.83,751.3 870.29,751.38C870.663,751.4 870.85,751.597 870.85,751.97L870.85,755.43C870.85,755.79 870.67,755.97 870.31,755.97L838.96,755.97C838.433,755.97 838,755.537 838,755.01L838,752.26C838,751.627 838.313,751.35 838.94,751.43C840.627,751.643 841.953,751.027 842.92,749.58C843.114,749.289 843.199,748.939 843.16,748.59L840.2,720.48C840.198,720.461 840.194,720.442 840.189,720.423C840.138,720.249 839.949,720.149 839.77,720.201C839.753,720.206 839.736,720.212 839.72,720.22C839.54,720.313 839.377,720.487 839.23,720.74C830.977,735.113 826.403,743.047 825.51,744.54C822.83,749.02 821.307,753.313 820.94,757.42C820.907,757.74 820.73,757.9 820.41,757.9L817.85,757.9C817.45,757.9 817.15,757.73 816.95,757.39L795.38,721.14C794.753,720.08 794.38,720.163 794.26,721.39ZM842.61,708.63L847.18,752.02C847.2,752.233 847.32,752.34 847.54,752.34L859.89,752.34C860.243,752.34 860.333,752.187 860.16,751.88C859.267,750.32 858.77,749.147 858.67,748.36C857.523,739.487 854.957,720.06 850.97,690.08C850.87,689.293 850.617,689.243 850.21,689.93L822.54,737.31C822.474,737.424 822.352,737.494 822.22,737.494C822.088,737.494 821.966,737.424 821.9,737.31L793.02,689.8C792.627,689.16 792.383,689.21 792.29,689.95C788.677,717.65 786.163,737.167 784.75,748.5C784.58,749.86 783.48,750.93 783.36,751.8C783.313,752.153 783.467,752.33 783.82,752.33L787.52,752.33C787.532,752.33 787.544,752.33 787.555,752.329C787.835,752.312 788.05,752.064 788.033,751.779C788.032,751.769 788.031,751.76 788.03,751.75C787.997,751.43 787.817,751.067 787.49,750.66C787.438,750.596 787.413,750.514 787.42,750.43L791.95,709.58C792.037,708.807 792.277,708.753 792.67,709.42L817.51,751.23C817.525,751.256 817.543,751.279 817.565,751.299C817.683,751.406 817.871,751.393 817.982,751.271C818.001,751.25 818.017,751.226 818.03,751.2C818.79,749.62 819.28,747.93 820.3,746.19C826.7,735.25 833.993,722.7 842.18,708.54C842.413,708.14 842.557,708.17 842.61,708.63Z" style="fill:white;fill-rule:nonzero;"/>
        </g>
        <g transform="matrix(1.47095,0,0,1.47095,-212.98,-168.957)">
            <path d="M262.49,716.17C266.983,716.17 271.467,716.153 275.94,716.12C276.198,716.12 276.41,715.908 276.41,715.65C276.43,709.537 276.44,703.367 276.44,697.14C276.44,691.69 275.58,688.32 269.3,688.8C269.08,688.82 268.97,688.717 268.97,688.49L268.97,684.48C268.97,684.287 269.067,684.19 269.26,684.19L301.95,684.19C302.11,684.19 302.19,684.267 302.19,684.42L302.19,688.605C302.182,688.747 302.063,688.859 301.926,688.851C301.921,688.851 301.915,688.851 301.91,688.85C297.11,688.483 294.707,690.343 294.7,694.43C294.693,697.41 294.69,705.963 294.69,720.09C294.69,734.21 294.693,742.763 294.7,745.75C294.707,749.837 297.11,751.697 301.91,751.33C301.915,751.329 301.921,751.329 301.926,751.329C302.063,751.321 302.182,751.433 302.19,751.575L302.19,751.59L302.2,755.76C302.2,755.913 302.12,755.99 301.96,755.99L269.27,755.99C269.077,755.99 268.98,755.893 268.98,755.7L268.97,751.69C268.97,751.463 269.08,751.36 269.3,751.38C275.58,751.86 276.44,748.49 276.44,743.04C276.44,736.813 276.43,730.643 276.41,724.53C276.41,724.272 276.198,724.06 275.94,724.06C271.467,724.02 266.983,724 262.49,724C257.997,724 253.513,724.02 249.04,724.06C248.782,724.06 248.57,724.272 248.57,724.53C248.55,730.643 248.54,736.813 248.54,743.04C248.54,748.49 249.4,751.86 255.68,751.38C255.9,751.36 256.01,751.463 256.01,751.69L256.01,755.7C256.01,755.893 255.913,755.99 255.72,755.99L223.03,755.99C222.87,755.99 222.79,755.913 222.79,755.76L222.79,751.575C222.798,751.433 222.917,751.321 223.054,751.329C223.059,751.329 223.065,751.329 223.07,751.33C227.87,751.697 230.273,749.837 230.28,745.75C230.293,742.77 230.297,734.217 230.29,720.09C230.29,705.963 230.287,697.41 230.28,694.43C230.273,690.343 227.87,688.483 223.07,688.85C223.065,688.851 223.059,688.851 223.054,688.851C222.917,688.859 222.798,688.747 222.79,688.605L222.79,684.42C222.79,684.267 222.87,684.19 223.03,684.19L255.72,684.19C255.913,684.19 256.01,684.287 256.01,684.48L256.01,688.49C256.01,688.717 255.9,688.82 255.68,688.8C249.4,688.32 248.54,691.69 248.54,697.14C248.54,703.367 248.55,709.537 248.57,715.65C248.57,715.908 248.782,716.12 249.04,716.12C253.513,716.153 257.997,716.17 262.49,716.17ZM233.88,720.09C233.887,736.99 233.89,746.267 233.89,747.92C233.88,749.79 233.43,750.42 232.65,751.98C232.629,752.02 232.618,752.065 232.618,752.11C232.618,752.264 232.744,752.39 232.898,752.39L232.91,752.39C233.523,752.357 235.693,752.34 239.42,752.34C243.147,752.34 245.313,752.353 245.92,752.38C245.927,752.381 245.935,752.381 245.942,752.381C246.096,752.381 246.222,752.255 246.222,752.101C246.222,752.055 246.211,752.01 246.19,751.97C245.4,750.41 244.95,749.78 244.95,747.92C244.937,746.26 244.927,736.98 244.92,720.08C244.913,703.18 244.913,693.9 244.92,692.24C244.92,690.38 245.37,689.75 246.15,688.19C246.171,688.15 246.182,688.105 246.182,688.06C246.182,687.906 246.056,687.78 245.902,687.78L245.89,687.78C245.277,687.813 243.11,687.83 239.39,687.83C235.663,687.83 233.493,687.813 232.88,687.78C232.874,687.78 232.868,687.779 232.862,687.779C232.709,687.779 232.582,687.906 232.582,688.059C232.582,688.109 232.595,688.157 232.62,688.2C233.4,689.75 233.85,690.38 233.86,692.25C233.867,693.91 233.873,703.19 233.88,720.09ZM279.78,720.57C279.934,720.57 280.06,720.696 280.06,720.85C280.1,729.937 280.1,739.07 280.06,748.25C280.05,749.72 279.13,750.78 278.85,751.91C278.777,752.197 278.887,752.34 279.18,752.34L292.09,752.34C292.43,752.34 292.513,752.193 292.34,751.9L291.37,750.24C291.157,749.873 291.05,749.477 291.05,749.05L291.05,690.8C291.05,690.629 291.091,690.461 291.17,690.31L292.18,688.47C292.42,688.037 292.293,687.82 291.8,687.82L279.35,687.79C279.043,687.79 278.893,687.943 278.9,688.25C278.93,689.18 280.05,690.59 280.05,692.16C280.083,697.313 280.097,706.43 280.09,719.51C280.09,719.817 279.937,719.97 279.63,719.97L245.76,719.97C245.7,719.97 245.67,719.997 245.67,720.05L245.63,720.39C245.617,720.51 245.67,720.57 245.79,720.57L279.78,720.57Z" style="fill:white;fill-rule:nonzero;"/>
        </g>
        <g transform="matrix(1.47095,0,0,1.47095,-212.98,-168.957)">
            <path d="M523.96,714.11C524.07,714.144 524.188,714.098 524.24,714L536.77,692.31C536.937,692.017 536.987,691.707 536.92,691.38C536.38,688.62 534.89,688.82 532.52,688.83C532.133,688.83 531.94,688.637 531.94,688.25L531.94,684.77C531.94,684.357 532.147,684.15 532.56,684.15L557.85,684.15C558.483,684.15 558.8,684.467 558.8,685.1L558.8,687.78C558.8,688.487 558.447,688.827 557.74,688.8C553.027,688.587 549.153,690.867 546.12,695.64C542.393,701.493 536.93,710.187 529.73,721.72C528.95,722.973 528.547,724.233 528.52,725.5C528.387,732.86 528.417,739.67 528.61,745.93C528.723,749.523 530.88,751.347 535.08,751.4C535.5,751.407 535.733,751.62 535.78,752.04L536.12,755.27C536.121,755.28 536.122,755.289 536.122,755.299C536.14,755.644 535.874,755.942 535.535,755.959C535.523,755.96 535.512,755.96 535.5,755.96L503.56,755.96C502.973,755.96 502.68,755.667 502.68,755.08L502.68,752.16C502.68,751.58 502.97,751.303 503.55,751.33C508.26,751.58 510.18,749.58 510.22,744.96C510.26,739.64 510.267,733.06 510.24,725.22C510.234,724.167 509.94,723.133 509.39,722.23C499.803,706.403 494.47,697.613 493.39,695.86C490.19,690.667 486.12,688.303 481.18,688.77C481.172,688.771 481.165,688.771 481.157,688.772C480.878,688.787 480.636,688.574 480.621,688.3C480.62,688.29 480.62,688.28 480.62,688.27L480.62,684.6C480.62,684.293 480.773,684.14 481.08,684.14L515.97,684.14C516.35,684.14 516.54,684.333 516.54,684.72L516.54,688.21C516.541,688.463 516.346,688.68 516.09,688.71L513.31,689C512.626,689.076 512.078,689.612 511.99,690.29C511.803,691.67 512.09,693.043 512.85,694.41C516.21,700.45 519.727,706.847 523.4,713.6C523.547,713.867 523.733,714.037 523.96,714.11ZM523.71,721.65C517.103,709.683 512.033,700.51 508.5,694.13C507.12,691.63 506.67,691.3 507.87,688.81C508.19,688.143 507.98,687.81 507.24,687.81L492.94,687.81C492.38,687.81 492.287,688.02 492.66,688.44C493.25,689.1 493.78,689.38 494.3,690.26C500.293,700.273 506.693,710.823 513.5,721.91C513.761,722.328 513.9,722.81 513.9,723.3L513.9,748.85C513.9,749.277 513.797,749.673 513.59,750.04L512.63,751.79C512.437,752.15 512.543,752.33 512.95,752.33L525.85,752.33C526.03,752.329 526.178,752.18 526.178,752C526.178,751.928 526.154,751.857 526.11,751.8C525.39,750.833 525.003,749.677 524.95,748.33C524.817,744.95 524.783,736.663 524.85,723.47C524.85,722.897 525.003,722.37 525.31,721.89C532.783,710.057 539.123,699.92 544.33,691.48C545.09,690.25 546.23,689.14 546.87,688.33C547.13,687.99 547.09,687.82 546.75,687.82L540.76,687.8C540.373,687.8 540.26,687.973 540.42,688.32C541.413,690.5 541.303,692.457 540.09,694.19C539.237,695.41 538.79,696.053 538.75,696.12C536.05,700.827 531.17,709.337 524.11,721.65C524.069,721.722 523.993,721.766 523.91,721.766C523.827,721.766 523.751,721.722 523.71,721.65Z" style="fill:white;fill-rule:nonzero;"/>
        </g>
        <g transform="matrix(1.47095,0,0,1.47095,-212.98,-168.957)">
            <path d="M367.19,811.11C367.102,811.188 367.051,811.3 367.051,811.417C367.051,811.569 367.136,811.709 367.27,811.78C373.277,815.1 375.46,820.32 373.82,827.44C372.38,833.72 364.32,836.74 358.52,836.92C352.547,837.107 344.67,837.133 334.89,837C334.43,836.993 334.2,836.763 334.2,836.31L334.2,834.7C334.2,834.273 334.417,834.07 334.85,834.09C336.27,834.143 337.463,833.497 338.43,832.15C338.903,831.49 339.14,830.327 339.14,828.66C339.133,816.527 339.123,805.89 339.11,796.75C339.11,794.06 336.55,793.91 334.64,793.32C334.353,793.227 334.21,793.03 334.21,792.73L334.21,791.27C334.21,790.924 334.49,790.64 334.83,790.64C347.263,790.507 354.67,790.5 357.05,790.62C361.97,790.86 368.14,793.03 370.09,797.92C372.157,803.107 371.19,807.503 367.19,811.11ZM348.95,793.42C352.76,792.63 358.12,793.6 359.8,797.77C361.72,802.55 361.75,808.17 357.5,811.6C357.399,811.682 357.34,811.805 357.34,811.935C357.34,812.106 357.442,812.262 357.6,812.33C362.73,814.58 364.01,819.5 363.52,824.72C362.99,830.41 359.29,834.1 353.45,834.26C353.303,834.26 353.23,834.333 353.23,834.48L353.23,834.76C353.23,834.82 353.26,834.85 353.32,834.85C359.81,834.74 368.45,833.78 371.19,827.17C373.1,822.55 371.02,817.16 366.8,814.7C366.093,814.287 364.687,813.753 362.58,813.1C362.248,812.994 361.989,812.731 361.89,812.4C361.723,811.833 361.747,811.237 361.96,810.61C362.073,810.277 362.303,810.103 362.65,810.09C366.4,809.96 368.12,805.84 368.26,802.46C368.55,795.42 361.24,793.21 355.3,792.98C352.747,792.887 348.183,792.86 341.61,792.9C341.21,792.908 340.885,793.24 340.885,793.64C340.885,793.825 340.955,794.004 341.08,794.14C341.787,794.887 341.98,795.57 341.66,796.19C341.527,796.45 341.46,796.727 341.46,797.02L341.46,830.03C341.46,830.35 341.54,830.653 341.7,830.94C342.227,831.893 342.247,832.57 341.76,832.97C340.38,834.077 340.547,834.637 342.26,834.65L351.56,834.74C351.687,834.74 351.75,834.677 351.75,834.55L351.75,834.25C351.75,834.243 351.743,834.24 351.73,834.24C350.83,834.353 349.96,834.273 349.12,834C348.767,833.887 348.59,833.647 348.59,833.28L348.59,793.86C348.59,793.644 348.742,793.458 348.95,793.42ZM350.98,795.82L350.98,810.36C350.98,810.519 351.111,810.65 351.27,810.65L351.62,810.65C355.274,810.65 358.28,807.698 358.28,804.11L358.28,802.07C358.28,798.482 355.274,795.53 351.62,795.53L351.27,795.53C351.111,795.53 350.98,795.661 350.98,795.82ZM352.62,831.04C352.753,831.087 352.873,831.147 352.98,831.22C353.26,831.427 353.573,831.51 353.92,831.47C357.833,831.003 360.123,828.863 360.79,825.05C362.08,817.69 358.35,814.33 351.42,813.68C351.1,813.653 350.94,813.8 350.94,814.12L350.94,831.445C350.943,831.676 351.139,831.863 351.375,831.86L351.38,831.86C351.673,831.853 351.863,831.703 351.95,831.41C352.05,831.057 352.273,830.933 352.62,831.04Z" style="fill:rgb(98,223,230);fill-rule:nonzero;"/>
        </g>
        <g transform="matrix(1.47095,0,0,1.47095,-212.98,-168.957)">
            <path d="M605.66,814.34C605.687,819.52 605.69,824.737 605.67,829.99C605.66,832.62 606.75,834.34 609.48,834.04C610.02,833.98 610.29,834.22 610.29,834.76L610.29,836.13C610.29,836.64 609.87,837.06 609.36,837.06L590.62,837.06C590.347,837.06 590.21,836.923 590.21,836.65L590.18,834.43C590.18,834.42 590.18,834.41 590.181,834.4C590.195,834.192 590.382,834.033 590.596,834.048C590.604,834.048 590.612,834.049 590.62,834.05C592.013,834.257 593.15,833.757 594.03,832.55C594.49,831.923 594.717,830.837 594.71,829.29C594.71,821.517 594.7,814.027 594.68,806.82C594.67,803.45 594.01,800.16 593.96,796.39C593.96,796.003 594.153,795.823 594.54,795.85C595.62,795.923 596.37,796.143 596.79,796.51C606.243,804.777 615,812.497 623.06,819.67C623.112,819.718 623.18,819.744 623.25,819.744C623.404,819.744 623.53,819.618 623.53,819.464L623.53,819.46C623.503,816.027 623.49,810.99 623.49,804.35C623.49,801.84 622.5,799.64 619.77,799.81C619.197,799.843 618.91,799.577 618.91,799.01L618.91,797.76C618.91,797.127 619.23,796.81 619.87,796.81C628.07,796.83 633.963,796.817 637.55,796.77C637.923,796.763 638.207,796.69 638.4,796.55C638.507,796.47 638.583,796.377 638.63,796.27C638.783,795.957 639.037,795.803 639.39,795.81C641.43,795.87 643.123,795.997 644.47,796.19C651.56,797.24 659.12,796.85 667.51,796.69C669.883,796.643 673.017,796.24 676.91,795.48C677.27,795.407 677.45,795.553 677.45,795.92L677.45,807.51C677.45,807.878 677.148,808.18 676.78,808.18L675.25,808.18C674.683,808.18 674.39,807.897 674.37,807.33C674.2,801.06 668.65,801.46 664.34,801.71C664.059,801.726 663.835,801.959 663.83,802.24C663.783,809.92 663.773,818.357 663.8,827.55C663.81,831.13 663.2,834.04 667.52,834.06C667.82,834.06 667.97,834.213 667.97,834.52L667.97,836.41C667.97,836.778 667.668,837.08 667.3,837.08L648.86,837.08C648.387,837.08 648.15,836.84 648.15,836.36L648.15,834.74C648.15,834.247 648.397,834.013 648.89,834.04C651.4,834.17 652.27,832.43 652.27,830.11C652.263,823.87 652.263,814.63 652.27,802.39C652.271,802.039 651.995,801.746 651.65,801.73C648.4,801.59 644.59,801 642.51,804.04C641.86,804.99 641.86,806.33 641.69,807.33C641.603,807.877 641.28,808.15 640.72,808.15L639.42,808.15C638.893,808.15 638.63,807.887 638.63,807.36L638.62,801.01C638.613,799.843 638.027,799.51 636.86,800.01C636.84,800.017 636.617,800.157 636.19,800.43C635.169,801.084 634.549,802.217 634.55,803.43C634.53,810.617 634.527,817.977 634.54,825.51C634.55,828.92 635.26,833.16 635.15,836.99C635.125,837.663 634.564,838.203 633.891,838.203C633.585,838.203 633.29,838.092 633.06,837.89L606.13,814.13C606.078,814.082 606.01,814.056 605.94,814.056C605.786,814.056 605.66,814.182 605.66,814.336L605.66,814.34ZM642.51,800.11C643.017,799.883 643.287,799.753 643.32,799.72C643.613,799.413 643.56,799.223 643.16,799.15C642.093,798.963 641.373,799.09 641,799.53C640.827,799.737 640.807,799.953 640.94,800.18L641.12,800.49C641.227,800.663 641.367,800.703 641.54,800.61L642.47,800.13C642.483,800.123 642.497,800.117 642.51,800.11ZM674.27,800.45C674.71,800.657 675.023,800.56 675.21,800.16C675.282,800.006 675.259,799.826 675.15,799.7C674.557,798.98 673.8,798.8 672.88,799.16C672.353,799.367 672.347,799.59 672.86,799.83C673.033,799.917 673.21,799.987 673.39,800.04C673.43,800.053 673.723,800.19 674.27,800.45ZM603.68,808.84L631.77,833.62C631.79,833.64 631.813,833.655 631.839,833.665C631.947,833.707 632.071,833.648 632.115,833.536C632.124,833.512 632.129,833.486 632.13,833.46L632.13,799.53C632.13,799.317 632.027,799.213 631.82,799.22L626.17,799.28C625.983,799.28 625.89,799.373 625.89,799.56L625.89,824.56C625.89,825.04 625.71,825.123 625.35,824.81L597.6,800.32C597.247,800.007 597.07,800.087 597.07,800.56L597.07,834.2C597.07,834.533 597.237,834.7 597.57,834.7L603.42,834.7C603.74,834.7 603.787,834.59 603.56,834.37C602.807,833.623 602.667,832.78 603.14,831.84C603.265,831.603 603.33,831.339 603.33,831.07L603.33,809C603.33,808.687 603.447,808.633 603.68,808.84ZM661.43,816.94C661.417,809.453 661.397,804.92 661.37,803.34C661.36,802.27 660.6,800.85 661.63,799.81C662.01,799.423 661.93,799.23 661.39,799.23L653.85,799.23C653.683,799.23 653.65,799.297 653.75,799.43C653.837,799.537 653.907,799.603 653.96,799.63C654.533,799.903 654.807,800.267 654.78,800.72C654.707,802.14 654.677,807.55 654.69,816.95C654.697,826.35 654.74,831.76 654.82,833.18C654.847,833.633 654.573,834 654,834.28C653.953,834.307 653.887,834.373 653.8,834.48C653.7,834.613 653.733,834.68 653.9,834.68L661.44,834.66C661.98,834.653 662.06,834.46 661.68,834.08C660.65,833.04 661.4,831.62 661.41,830.55C661.43,828.97 661.437,824.433 661.43,816.94Z" style="fill:rgb(98,223,230);fill-rule:nonzero;"/>
        </g>
        <g transform="matrix(1.47095,0,0,1.47095,-212.98,-168.957)">
            <path d="M471.49,832.16C472.8,832.11 474.38,832.07 475.51,832.13C481.93,832.44 484.51,828.68 486.89,823.41C487.018,823.131 487.296,822.951 487.6,822.95L489.31,822.95C489.77,822.95 489.947,823.173 489.84,823.62L486.85,836.72C486.803,836.924 486.62,837.071 486.41,837.07L455.81,837.07C455.393,837.07 455.05,836.727 455.05,836.31L455.05,834.74C455.05,834.24 455.3,834.01 455.8,834.05C457.32,834.163 458.37,833.58 458.95,832.3C459.23,831.673 459.37,830.617 459.37,829.13C459.363,814.417 459.357,805.963 459.35,803.77C459.343,800.943 458.037,799.61 455.43,799.77C455.23,799.777 455.13,799.683 455.13,799.49L455.13,797.25C455.13,797.02 455.32,796.83 455.55,796.83C461.197,796.837 466.877,796.837 472.59,796.83C477.6,796.82 481.03,796.25 485.73,795.61C486.043,795.563 486.2,795.7 486.2,796.02L486.2,807.82C486.2,808.173 486.023,808.34 485.67,808.32L483.75,808.19C483.457,808.177 483.247,807.957 483.12,807.53C482.79,806.45 483.14,805.14 482.37,803.93C481.517,802.583 479.98,801.887 477.76,801.84C474.307,801.76 472.177,801.77 471.37,801.87C470.983,801.923 470.79,802.143 470.79,802.53L470.79,813.74C470.79,814.24 471.037,814.527 471.53,814.6C473.897,814.94 476.207,814.69 478.46,813.85C479.226,813.563 479.798,812.912 479.98,812.12L480.55,809.62C480.623,809.313 480.813,809.16 481.12,809.16L482.75,809.16C483.17,809.16 483.38,809.37 483.38,809.79L483.38,824.33C483.38,824.797 483.143,825.03 482.67,825.03L481.06,825.03C480.593,825.03 480.353,824.8 480.34,824.34C480.273,821.487 479.227,819.963 477.2,819.77C474.707,819.53 472.763,819.49 471.37,819.65C470.997,819.697 470.81,819.907 470.81,820.28L470.81,831.5C470.81,831.953 471.037,832.173 471.49,832.16ZM461.7,816.99C461.707,824.49 461.723,829.03 461.75,830.61C461.76,831.68 462.52,833.1 461.49,834.14C461.11,834.527 461.19,834.72 461.73,834.72L469.28,834.72C469.447,834.72 469.48,834.653 469.38,834.52C469.293,834.413 469.223,834.347 469.17,834.32C468.597,834.047 468.323,833.683 468.35,833.23C468.423,831.81 468.453,826.393 468.44,816.98C468.433,807.573 468.39,802.16 468.31,800.74C468.283,800.287 468.557,799.92 469.13,799.64C469.183,799.613 469.25,799.547 469.33,799.44C469.43,799.307 469.397,799.24 469.23,799.24L461.68,799.26C461.14,799.26 461.063,799.453 461.45,799.84C462.48,800.88 461.72,802.3 461.71,803.38C461.69,804.953 461.687,809.49 461.7,816.99ZM483.02,800.32L483.35,800.68C483.657,801.02 483.877,800.97 484.01,800.53C484.097,800.25 484.09,799.97 483.99,799.69C483.89,799.397 483.677,799.217 483.35,799.15C482.597,798.997 481.947,799.007 481.4,799.18C480.953,799.313 480.937,799.49 481.35,799.71C481.637,799.857 481.927,799.933 482.22,799.94C482.54,799.947 482.807,800.073 483.02,800.32ZM480.05,816.32L479.59,817.17C479.397,817.517 479.477,817.773 479.83,817.94C480.057,818.047 480.24,818.093 480.38,818.08C480.74,818.047 480.95,817.85 481.01,817.49C481.083,817.097 481.07,816.74 480.97,816.42C480.909,816.206 480.712,816.058 480.49,816.058C480.306,816.058 480.137,816.159 480.05,816.32ZM484.17,832.26C482.91,833.39 482.01,833.78 480.4,834.27C479.34,834.597 479.367,834.747 480.48,834.72L484.39,834.62C484.743,834.613 484.967,834.443 485.06,834.11L485.73,831.67C485.85,831.243 485.663,831.147 485.17,831.38C485.15,831.4 484.817,831.693 484.17,832.26Z" style="fill:rgb(98,223,230);fill-rule:nonzero;"/>
        </g>
        <g transform="matrix(1.47095,0,0,1.47095,-212.98,-168.957)">
            <path d="M391.91,831.73C391.91,831.957 392.093,832.145 392.32,832.15C394.71,832.21 399.39,832.55 401.87,831.16C404.09,829.92 405.62,828.32 406.71,825.93C407.29,824.65 407.67,823.85 407.85,823.53C408.09,823.11 408.307,822.907 408.5,822.92L410.49,823.03C410.91,823.057 411.073,823.273 410.98,823.68L408.04,836.58C407.96,836.913 407.75,837.08 407.41,837.08L377.01,837.08C376.47,837.08 376.2,836.81 376.2,836.27L376.2,834.73C376.2,834.183 376.47,833.957 377.01,834.05C379.19,834.42 380.41,832.28 380.4,830.2C380.367,819.54 380.367,810.8 380.4,803.98C380.41,801.55 379.37,799.77 376.92,799.76C376.503,799.76 376.16,799.417 376.16,799L376.16,797.74C376.16,797.127 376.467,796.82 377.08,796.82L395.36,796.82C395.913,796.82 396.19,797.097 396.19,797.65L396.19,799.08C396.19,799.513 395.838,799.874 395.4,799.89C393.12,799.95 391.977,800.653 391.97,802C391.923,811.913 391.903,821.823 391.91,831.73ZM382.78,816.94C382.8,824.48 382.823,829.043 382.85,830.63C382.86,831.71 383.63,833.14 382.59,834.19C382.21,834.577 382.29,834.77 382.83,834.77L390.43,834.76C390.597,834.76 390.63,834.693 390.53,834.56C390.437,834.453 390.363,834.387 390.31,834.36C389.737,834.087 389.463,833.72 389.49,833.26C389.563,831.833 389.59,826.39 389.57,816.93C389.543,807.47 389.49,802.027 389.41,800.6C389.383,800.14 389.657,799.773 390.23,799.5C390.283,799.467 390.353,799.397 390.44,799.29C390.54,799.157 390.507,799.09 390.34,799.09L382.75,799.12C382.21,799.12 382.13,799.313 382.51,799.7C383.55,800.75 382.79,802.18 382.78,803.26C382.767,804.847 382.767,809.407 382.78,816.94ZM405.29,832.29C403.95,833.43 403.01,833.81 401.32,834.28C400.213,834.593 400.237,834.75 401.39,834.75L405.45,834.75C405.817,834.75 406.053,834.577 406.16,834.23L406.92,831.72C407.053,831.28 406.863,831.177 406.35,831.41C406.323,831.423 405.97,831.717 405.29,832.29Z" style="fill:rgb(98,223,230);fill-rule:nonzero;"/>
        </g>
        <g transform="matrix(1.47095,0,0,1.47095,-212.98,-168.957)">
            <path d="M452.27,799.87C451.272,799.87 450.446,800.687 450.43,801.69C450.383,805.403 450.37,810.707 450.39,817.6C450.403,823.293 449.963,827.187 449.07,829.28C444.37,840.24 425.86,840.09 418.3,833.25C415.64,830.843 414.247,827.593 414.12,823.5C414.093,822.553 414.08,815.633 414.08,802.74C414.08,800.927 413.013,799.93 410.88,799.75C410.387,799.71 410.163,799.447 410.21,798.96L410.35,797.44C410.386,797.083 410.686,796.809 411.04,796.81L428.28,796.81C429.073,796.81 429.433,797.203 429.36,797.99L429.27,798.97C429.203,799.69 428.813,799.993 428.1,799.88C426.52,799.627 425.7,800.4 425.64,802.2C425.533,805.76 425.517,811.867 425.59,820.52C425.64,827.24 427.99,833.7 435.99,832.68C442.04,831.9 443.88,826.82 443.88,821.5C443.88,815.587 443.867,809.697 443.84,803.83C443.83,801.76 443.41,799.5 440.89,799.78C440.343,799.84 440.067,799.593 440.06,799.04L440.04,797.63L440.04,797.62C440.04,797.181 440.401,796.82 440.84,796.82L453.782,796.82C454.034,796.82 454.242,797.028 454.242,797.28C454.242,797.293 454.241,797.307 454.24,797.32L454.04,799.44C454.013,799.727 453.857,799.87 453.57,799.87L452.27,799.87ZM446.18,823.53C446.18,827.65 444.8,830.74 441.62,833.3C441.609,833.306 441.601,833.317 441.601,833.33C441.601,833.348 441.617,833.364 441.635,833.364C441.64,833.364 441.645,833.362 441.65,833.36C446.03,831.93 448,826.09 448.01,822C448.03,814.24 448.03,806.927 448.01,800.06C448.003,799.507 447.723,799.203 447.17,799.15L446.84,799.12C446.407,799.08 446.19,799.277 446.19,799.71C446.183,808.037 446.18,815.977 446.18,823.53ZM416.55,799.93C416.877,800.317 416.92,800.79 416.68,801.35C416.547,801.67 416.477,802.133 416.47,802.74C416.443,809.513 416.44,815.703 416.46,821.31C416.5,831.74 422.86,834.32 431.56,835.57C431.973,835.63 431.983,835.587 431.59,835.44C428.07,834.153 425.613,831.913 424.22,828.72C423.4,826.84 423.017,823.77 423.07,819.51C423.17,812.21 423.157,805.743 423.03,800.11C423.017,799.497 422.707,799.19 422.1,799.19L416.89,799.19C416.25,799.19 416.137,799.437 416.55,799.93Z" style="fill:rgb(98,223,230);fill-rule:nonzero;"/>
        </g>
        <g transform="matrix(1.47095,0,0,1.47095,-212.98,-168.957)">
            <path d="M506.2,820.13C506.2,821.643 506.197,825.03 506.19,830.29C506.19,832.15 507.88,834.04 509.62,834.08C510.112,834.091 510.51,834.498 510.51,834.99L510.51,836.02C510.51,836.707 510.163,837.05 509.47,837.05L491.35,837.05C490.87,837.05 490.63,836.81 490.63,836.33L490.63,834.97C490.63,834.497 490.863,834.227 491.33,834.16C492.317,834.02 493.227,833.473 494.06,832.52C494.553,831.96 494.8,831.04 494.8,829.76C494.807,824.407 494.797,815.907 494.77,804.26C494.77,802.03 493.94,799.44 491.28,799.84C491.25,799.844 491.22,799.847 491.19,799.847C490.851,799.847 490.572,799.569 490.57,799.23L490.57,797.66C490.57,797.093 490.853,796.81 491.42,796.81C494.813,796.823 501.17,796.827 510.49,796.82C514.63,796.82 517.883,797.453 520.25,798.72C529.06,803.44 528.26,816.45 519.31,820.61C515.303,822.477 511.13,822.2 506.79,819.78C506.397,819.56 506.2,819.677 506.2,820.13ZM516.66,811.73C515.32,814.4 514.41,816.52 511.86,817.85C510.613,818.497 510.69,818.857 512.09,818.93C512.43,818.943 513.34,818.953 514.82,818.96C518.3,818.97 521.43,816.78 522.67,813.72C525.043,807.913 523.663,803.59 518.53,800.75C516.73,799.75 513.65,799.43 511.47,799.11C511.39,799.103 511.323,799.11 511.27,799.13C511.21,799.163 511.14,799.21 511.06,799.27C511.049,799.279 511.038,799.29 511.03,799.302C510.979,799.374 510.992,799.472 511.059,799.52C511.071,799.529 511.085,799.536 511.1,799.54C514.067,800.593 515.9,802.697 516.6,805.85C517.05,807.83 517.51,810.02 516.66,811.73ZM503.91,799.51C503.91,799.362 503.788,799.24 503.64,799.24L497.38,799.24C497.232,799.24 497.11,799.362 497.11,799.51L497.11,834.41C497.11,834.558 497.232,834.68 497.38,834.68L503.64,834.68C503.788,834.68 503.91,834.558 503.91,834.41L503.91,799.51ZM506.3,801.85L506.18,816.23C506.18,816.345 506.275,816.44 506.39,816.44L507.39,816.45C511.024,816.477 514.038,813.498 514.07,809.848L514.07,809.84L514.09,808.36C514.118,804.709 511.152,801.682 507.518,801.65L507.51,801.65L506.51,801.64C506.395,801.64 506.3,801.735 506.3,801.85Z" style="fill:rgb(98,223,230);fill-rule:nonzero;"/>
        </g>
        <g transform="matrix(1.47095,0,0,1.47095,-212.98,-168.957)">
            <path d="M543.45,818.6C543.443,823.887 543.443,827.707 543.45,830.06C543.46,832.33 544.65,834.1 546.85,834.13C547.39,834.137 547.66,834.407 547.66,834.94L547.66,836.16C547.66,836.76 547.36,837.06 546.76,837.06L528.48,837.06C528.1,837.06 527.91,836.867 527.91,836.48L527.91,834.55C527.91,834.19 528.087,834.017 528.44,834.03C530.81,834.1 531.99,832.43 531.99,830.07C531.99,813.497 531.977,804.4 531.95,802.78C531.917,800.707 530.827,799.743 528.68,799.89C528.167,799.93 527.91,799.69 527.91,799.17L527.91,797.49C527.91,797.117 528.217,796.81 528.59,796.81C539.03,796.837 545.923,796.83 549.27,796.79C557.38,796.7 563.9,800.55 563.46,809.34C563.253,813.413 561.393,816.433 557.88,818.4C557.674,818.512 557.546,818.728 557.546,818.962C557.546,819.145 557.624,819.319 557.76,819.44C560.64,822.05 562.32,826.1 564.4,829.02C566.04,831.32 567.557,832.803 568.95,833.47C570.017,833.977 570.867,834.05 571.5,833.69C572.647,833.037 573.227,832.22 573.24,831.24C573.247,830.427 573.27,821.547 573.31,804.6C573.31,801.96 572.83,799.53 569.63,799.93C569.615,799.932 569.599,799.933 569.584,799.934C569.195,799.958 568.855,799.653 568.831,799.259C568.831,799.246 568.83,799.233 568.83,799.22L568.83,797.65C568.83,797.097 569.103,796.82 569.65,796.82L588.54,796.82C588.891,796.82 589.18,797.113 589.18,797.47L589.18,799.22C589.18,799.232 589.18,799.243 589.179,799.255C589.162,799.622 588.841,799.91 588.468,799.892C588.459,799.891 588.449,799.891 588.44,799.89C585.35,799.58 584.67,801.64 584.67,804.32C584.643,819.72 584.63,828.12 584.63,829.52C584.637,832.6 585.95,834.123 588.57,834.09C588.855,834.09 589.09,834.325 589.09,834.61L589.09,836.49C589.09,836.843 588.917,837.02 588.57,837.02C581.543,837.073 574.68,837.087 567.98,837.06C560.31,837.03 555.43,837.22 551.51,831.04C549.463,827.813 547.887,824.817 546.78,822.05C546.13,820.45 544.97,819.41 543.84,818.42C543.58,818.2 543.45,818.26 543.45,818.6ZM553.53,817.1C557.917,816.2 560.36,813.553 560.86,809.16C561.7,801.75 555.04,799.66 549.15,799.2C547.143,799.047 547.11,799.283 549.05,799.91C550.19,800.27 551.51,800.83 552.32,802C555.68,806.85 554.17,815.42 548.31,817.85C547.903,818.023 547.847,818.273 548.14,818.6L548.54,819.05C548.767,819.303 548.93,819.593 549.03,819.92C550.36,824.29 553.2,830.35 557.35,833.01C559.11,834.14 562.33,834.31 564.34,834.63C564.9,834.723 565.01,834.54 564.67,834.08C562.597,831.287 560.15,827.703 557.33,823.33C556.677,822.317 555.703,821.467 554.41,820.78C553.25,820.167 552.757,819.16 552.93,817.76C552.977,817.393 553.177,817.173 553.53,817.1ZM575.6,816.96C575.6,824.453 575.613,828.987 575.64,830.56C575.65,831.63 576.41,833.05 575.38,834.09C575,834.477 575.08,834.67 575.62,834.67L583.16,834.67C583.327,834.67 583.36,834.603 583.26,834.47C583.173,834.363 583.103,834.297 583.05,834.27C582.477,833.997 582.203,833.633 582.23,833.18C582.303,831.76 582.337,826.353 582.33,816.96C582.323,807.56 582.28,802.153 582.2,800.74C582.173,800.28 582.447,799.913 583.02,799.64C583.073,799.613 583.143,799.547 583.23,799.44C583.33,799.307 583.297,799.24 583.13,799.24L575.59,799.26C575.05,799.26 574.97,799.453 575.35,799.84C576.38,800.88 575.63,802.3 575.62,803.37C575.6,804.943 575.593,809.473 575.6,816.96ZM534.36,816.95C534.333,824.477 534.327,829.033 534.34,830.62C534.35,831.7 535.1,833.13 534.06,834.17C533.68,834.55 533.76,834.743 534.3,834.75L541.88,834.79C542.047,834.79 542.08,834.723 541.98,834.59C541.893,834.483 541.823,834.417 541.77,834.39C541.197,834.11 540.923,833.743 540.95,833.29C541.037,831.863 541.1,826.427 541.14,816.98C541.18,807.533 541.163,802.093 541.09,800.66C541.063,800.207 541.34,799.843 541.92,799.57C541.973,799.543 542.043,799.477 542.13,799.37C542.23,799.237 542.197,799.17 542.03,799.17L534.45,799.15C533.91,799.143 533.83,799.337 534.21,799.73C535.24,800.78 534.47,802.2 534.46,803.28C534.427,804.867 534.393,809.423 534.36,816.95ZM543.5,802.2L543.38,815.42C543.38,815.568 543.502,815.69 543.65,815.69L544.93,815.7L544.935,815.7C548.21,815.729 550.925,813.409 550.95,810.562L550.95,810.56L550.97,807.18C550.994,804.335 548.322,801.971 545.05,801.94L543.77,801.93C543.622,801.93 543.5,802.052 543.5,802.2Z" style="fill:rgb(98,223,230);fill-rule:nonzero;"/>
        </g>
    </g>
</svg>
