<?xml version="1.0" encoding="UTF-8" standalone="no"?>
<!DOCTYPE svg PUBLIC "-//W3C//DTD SVG 1.1//EN" "http://www.w3.org/Graphics/SVG/1.1/DTD/svg11.dtd">
<svg width="100%" height="100%" viewBox="0 0 745 81" version="1.1" xmlns="http://www.w3.org/2000/svg" xmlns:xlink="http://www.w3.org/1999/xlink" xml:space="preserve" xmlns:serif="http://www.serif.com/" style="fill-rule:evenodd;clip-rule:evenodd;stroke-linejoin:round;stroke-miterlimit:2;">
    <path d="M54.33,10.08C54.077,10.093 53.95,10.23 53.95,10.49C53.977,28.71 53.973,46.943 53.94,65.19C53.933,67.91 54.253,69.727 54.9,70.64C56.14,72.387 58.097,73.25 60.77,73.23C61.017,73.23 61.077,73.337 60.95,73.55L60.72,73.95C60.68,74.017 60.62,74.05 60.54,74.05L32.58,74.05C32.44,74.05 32.37,73.98 32.37,73.84L32.37,73.56C32.37,73.453 32.423,73.393 32.53,73.38C36.863,72.987 39.03,70.61 39.03,66.25C39.037,49.143 39.027,30.61 39,10.65C39,10.337 38.847,10.167 38.54,10.14C32.147,9.62 26.767,9.94 22.4,11.1C20.393,11.633 18.77,13.04 17.53,15.32C16.7,16.84 16.71,18.79 15.95,20.3C15.357,21.46 15.06,21.387 15.06,20.08L15.06,6.29C15.06,5.197 15.593,4.773 16.66,5.02C19.113,5.573 21.33,5.88 23.31,5.94C25.577,6.013 39.64,6.047 65.5,6.04C68.807,6.04 72.257,5.723 75.85,5.09C76.392,4.993 76.924,5.329 77.07,5.86C78.28,10.29 77.46,14.34 77.44,18.02C77.433,18.673 77.29,19.263 77.01,19.79C76.783,20.237 76.613,20.217 76.5,19.73C76.15,18.18 75.99,16.05 75.16,14.8C73.187,11.793 70.25,10.227 66.35,10.1C61.57,9.94 57.563,9.933 54.33,10.08Z" style="fill-rule:nonzero;"/>
    <path d="M208.59,70.03C208.93,70.037 212.807,70.06 220.22,70.1C224.227,70.127 227.513,69.43 230.08,68.01C234.58,65.523 237.797,61.43 239.73,55.73C239.788,55.569 239.901,55.431 240.05,55.34L240.67,54.97C240.917,54.83 241.01,54.897 240.95,55.17L236.98,73.01C236.853,73.597 236.326,74.02 235.72,74.02L187.59,74.02C186.437,74.02 186.407,73.843 187.5,73.49C191.73,72.13 193.73,70.8 193.81,66C194.063,49.633 194.103,33.117 193.93,16.45C193.87,10.23 192.5,8.86 187.06,6.84C185.753,6.347 185.797,6.097 187.19,6.09C199.57,6.03 211.847,6.017 224.02,6.05C227.2,6.057 230.543,5.733 234.05,5.08C234.079,5.074 234.108,5.07 234.137,5.068C234.623,5.022 235.061,5.39 235.106,5.882C235.109,5.911 235.11,5.94 235.11,5.97L235.11,20.87C235.11,21.083 235.007,21.167 234.8,21.12L234.4,21.03C234.353,21.023 234.33,20.997 234.33,20.95C234.257,18.39 233.693,16.197 232.64,14.37C229.62,9.16 216.84,9.67 211,10.13C209.773,10.23 209,10.443 208.68,10.77C208.313,11.15 208.12,11.837 208.1,12.83C207.913,21.583 207.92,30.013 208.12,38.12C208.13,38.579 208.502,38.954 208.96,38.97C211.213,39.05 213.5,39.063 215.82,39.01C222.9,38.85 228.37,38.81 229.41,30.27C229.423,30.13 229.5,30.06 229.64,30.06L229.94,30.06C230.033,30.06 230.08,30.107 230.08,30.2L230.08,50.95C230.08,52.91 229.847,52.937 229.38,51.03C229.09,49.82 228.91,48.11 228.21,46.96C226.65,44.407 224.417,43.083 221.51,42.99C219.53,42.93 215.217,42.923 208.57,42.97C208.256,42.975 208,43.236 208,43.55L208,69.43C208,69.823 208.197,70.023 208.59,70.03Z" style="fill-rule:nonzero;"/>
    <path d="M332.19,20.1L331.8,19.88C331.58,19.754 331.432,19.531 331.4,19.28C330.05,7.59 313.47,5.84 306.77,13.75C302.05,19.32 306.82,24.05 312.05,27.45C317.897,31.25 322.133,34.027 324.76,35.78C333.84,41.87 339.51,45.04 339.12,55.75C338.65,68.5 328.79,74.66 316.74,75.68C309.9,76.253 303.207,75.163 296.66,72.41C293.5,71.077 292.07,68.493 292.37,64.66C292.69,60.5 293.523,56.943 294.87,53.99C295.29,53.063 295.57,53.103 295.71,54.11C296.05,56.56 296.34,59.52 297.29,61.41C301.35,69.56 309.13,72.94 318.07,71.16C327.62,69.26 332.09,58.75 322.76,52.53C314.027,46.717 307.923,42.623 304.45,40.25C299.81,37.08 294.75,32.44 293.96,26.71C292.7,17.61 297.34,8.59 306.5,5.96C309.467,5.107 312.81,4.787 316.53,5C322.07,5.32 327.657,5.7 333.29,6.14C333.447,6.156 333.566,6.292 333.56,6.45L332.78,19.78C332.778,19.81 332.772,19.839 332.764,19.867C332.7,20.077 332.48,20.199 332.275,20.137C332.245,20.128 332.217,20.116 332.19,20.1Z" style="fill-rule:nonzero;"/>
    <path d="M476.25,20.11L475.86,19.89C475.64,19.764 475.492,19.541 475.46,19.29C474.1,7.6 457.52,5.87 450.83,13.79C446.11,19.36 450.89,24.09 456.12,27.48C461.967,31.273 466.207,34.047 468.84,35.8C477.92,41.88 483.6,45.04 483.22,55.75C482.76,68.5 472.91,74.67 460.86,75.7C454.02,76.28 447.327,75.197 440.78,72.45C437.613,71.123 436.18,68.543 436.48,64.71C436.793,60.55 437.623,56.993 438.97,54.04C439.39,53.113 439.67,53.153 439.81,54.16C440.15,56.61 440.44,59.56 441.39,61.45C445.46,69.6 453.25,72.97 462.18,71.18C471.73,69.27 476.19,58.76 466.85,52.55C458.117,46.743 452.01,42.657 448.53,40.29C443.89,37.12 438.83,32.49 438.03,26.76C436.76,17.66 441.39,8.64 450.55,6C453.517,5.14 456.86,4.817 460.58,5.03C466.12,5.343 471.707,5.717 477.34,6.15C477.497,6.166 477.616,6.302 477.61,6.46L476.84,19.79C476.838,19.819 476.832,19.848 476.824,19.877C476.761,20.087 476.54,20.209 476.335,20.148C476.306,20.139 476.277,20.126 476.25,20.11Z" style="fill-rule:nonzero;"/>
    <path d="M530.02,6.02C544.74,6.03 552.1,6.56 559.91,5.06C559.941,5.054 559.972,5.05 560.003,5.047C560.549,4.994 561.042,5.405 561.095,5.956C561.098,5.987 561.1,6.019 561.1,6.05L561.1,20.63C561.099,20.705 561.058,20.777 560.99,20.82L560.56,21.08C560.36,21.193 560.26,21.137 560.26,20.91C560.113,14.943 557.503,11.51 552.43,10.61C548.45,9.903 543.63,9.737 537.97,10.11C537.453,10.141 537.044,10.577 537.04,11.1C537.013,14.4 537,30.623 537,59.77C537,63.85 536.51,69.82 540.09,72.27C541.07,72.94 542.36,73.09 543.57,73.51C544.05,73.683 544.04,73.817 543.54,73.91C542.553,74.103 541.373,74.18 540,74.14C536.66,74.047 533.323,74 529.99,74C526.65,74 523.313,74.043 519.98,74.13C518.6,74.17 517.417,74.093 516.43,73.9C515.93,73.8 515.92,73.667 516.4,73.5C517.61,73.08 518.9,72.93 519.88,72.26C523.47,69.81 522.98,63.84 522.99,59.76C523.023,30.613 523.027,14.39 523,11.09C522.996,10.567 522.587,10.131 522.07,10.1C516.41,9.72 511.59,9.883 507.61,10.59C502.537,11.483 499.923,14.913 499.77,20.88C499.77,21.107 499.67,21.163 499.47,21.05L499.04,20.79C498.972,20.747 498.931,20.675 498.93,20.6L498.95,6.02C498.95,5.989 498.952,5.957 498.955,5.926C499.008,5.375 499.501,4.964 500.047,5.017C500.078,5.02 500.109,5.024 500.14,5.03C507.94,6.53 515.31,6.02 530.02,6.02Z" style="fill-rule:nonzero;"/>
    <path d="M598.01,69.43C598.01,69.823 598.207,70.023 598.6,70.03C598.94,70.037 602.817,70.06 610.23,70.1C614.237,70.127 617.52,69.427 620.08,68C624.58,65.513 627.797,61.42 629.73,55.72C629.788,55.559 629.901,55.421 630.05,55.33L630.67,54.96C630.917,54.82 631.01,54.887 630.95,55.16L626.99,73C626.863,73.587 626.336,74.01 625.73,74.01L577.61,74.03C576.457,74.03 576.427,73.853 577.52,73.5C581.74,72.14 583.74,70.81 583.82,66.01C584.067,49.65 584.1,33.137 583.92,16.47C583.86,10.25 582.49,8.88 577.05,6.87C575.743,6.377 575.783,6.127 577.17,6.12C589.55,6.053 601.827,6.033 614,6.06C617.18,6.067 620.523,5.74 624.03,5.08C624.059,5.074 624.088,5.07 624.117,5.068C624.603,5.022 625.041,5.39 625.086,5.882C625.089,5.911 625.09,5.94 625.09,5.97L625.09,20.87C625.09,21.083 624.987,21.167 624.78,21.12L624.38,21.03C624.333,21.023 624.31,20.997 624.31,20.95C624.237,18.39 623.673,16.197 622.62,14.37C619.6,9.17 606.82,9.68 600.98,10.14C599.753,10.247 598.98,10.463 598.66,10.79C598.293,11.17 598.1,11.857 598.08,12.85C597.9,21.597 597.913,30.023 598.12,38.13C598.13,38.589 598.502,38.964 598.96,38.98C601.207,39.06 603.49,39.073 605.81,39.02C612.89,38.85 618.36,38.81 619.4,30.27C619.413,30.13 619.49,30.06 619.63,30.06L619.93,30.06C620.023,30.06 620.07,30.107 620.07,30.2L620.08,50.95C620.08,52.91 619.847,52.937 619.38,51.03C619.09,49.82 618.91,48.11 618.21,46.96C616.643,44.407 614.407,43.083 611.5,42.99C609.527,42.93 605.217,42.927 598.57,42.98C598.256,42.985 598,43.246 598,43.56L598.01,69.43Z" style="fill-rule:nonzero;"/>
    <path d="M709.11,35.24C708.877,34.907 708.657,34.917 708.45,35.27C705.403,40.497 702.4,45.757 699.44,51.05C699.407,51.11 697.55,54.203 693.87,60.33C690.93,65.223 688.593,70.327 686.86,75.64C686.788,75.868 686.575,76.024 686.336,76.024C686.14,76.024 685.958,75.919 685.86,75.75L661.85,35.2C661.779,35.084 661.653,35.012 661.516,35.012C661.322,35.012 661.156,35.157 661.13,35.35C660.063,44.577 659.043,54.383 658.07,64.77C657.843,67.183 657.917,69.353 658.29,71.28C658.45,72.093 659.153,72.837 660.4,73.51C661.087,73.877 661.04,74.06 660.26,74.06L642.86,74.06C642.727,74.06 642.693,74.003 642.76,73.89L643.03,73.43C643.09,73.323 643.183,73.267 643.31,73.26C646.71,73.167 648.96,72.09 650.06,70.03C650.693,68.837 651.183,66.827 651.53,64C653.983,43.833 656.463,24.633 658.97,6.4C659.21,4.66 659.787,4.54 660.7,6.04L689.6,53.42C690.067,54.193 690.527,54.187 690.98,53.4L718.88,5.08C718.959,4.947 719.103,4.865 719.258,4.865C719.441,4.865 719.606,4.979 719.67,5.15C720.157,6.51 720.517,8.047 720.75,9.76C724.577,37.413 726.937,55.75 727.83,64.77C728.377,70.303 731.313,73.16 736.64,73.34C736.788,73.34 736.909,73.462 736.909,73.61C736.909,73.659 736.896,73.708 736.87,73.75L736.71,74.02C736.69,74.053 736.66,74.07 736.62,74.07C729.973,74.037 722.443,74.057 714.03,74.13C712.357,74.143 710.943,74.063 709.79,73.89C709.37,73.823 709.357,73.707 709.75,73.54L711.76,72.68C712.113,72.527 712.337,72.263 712.43,71.89C712.803,70.43 712.957,69.3 712.89,68.5C712.43,62.973 711.593,55.283 710.38,45.43C710.147,43.55 709.997,40.897 709.93,37.47C709.92,36.63 709.56,35.86 709.11,35.24Z" style="fill-rule:nonzero;"/>
    <path d="M130.49,38.01C140.303,38.003 145.28,38 145.42,38C145.76,37.993 145.933,37.827 145.94,37.5C146.06,28.547 146.1,21.01 146.06,14.89C146.04,12.223 145.643,10.42 144.87,9.48C143.57,7.9 141.703,7.01 139.27,6.81C139.23,6.803 139.2,6.783 139.18,6.75L139.01,6.46C138.997,6.439 138.987,6.416 138.98,6.392C138.942,6.255 139.029,6.109 139.171,6.07C139.194,6.064 139.217,6.06 139.24,6.06L167.5,6.06C168.353,6.06 168.407,6.263 167.66,6.67C166.107,7.503 164.83,8.113 163.83,8.5C162.28,9.09 161,11.09 161,12.27C160.953,27.423 160.95,46.003 160.99,68.01C161,71.39 164.7,72.85 167.85,73.56C167.997,73.593 168.08,73.67 168.1,73.79L168.1,73.89C168.073,74.01 168.027,74.07 167.96,74.07L139.14,74.03C138.98,74.03 138.9,73.95 138.9,73.79L138.9,73.49C138.9,73.343 138.973,73.27 139.12,73.27C141.693,73.317 143.63,72.58 144.93,71.06C145.677,70.18 146.057,68.413 146.07,65.76C146.09,60.793 146.067,53.387 146,43.54C145.993,43.207 145.823,43.037 145.49,43.03C139.583,42.97 134.583,42.94 130.49,42.94C126.397,42.94 121.397,42.97 115.49,43.03C115.157,43.037 114.987,43.207 114.98,43.54C114.913,53.387 114.893,60.793 114.92,65.76C114.933,68.413 115.313,70.18 116.06,71.06C117.36,72.58 119.297,73.317 121.87,73.27C122.017,73.27 122.09,73.343 122.09,73.49L122.09,73.79C122.09,73.95 122.01,74.03 121.85,74.03L93.03,74.08C92.963,74.08 92.917,74.02 92.89,73.9L92.89,73.8C92.91,73.68 92.993,73.603 93.14,73.57C96.29,72.86 99.99,71.4 100,68.02C100.033,46.013 100.023,27.433 99.97,12.28C99.97,11.1 98.69,9.1 97.14,8.51C96.14,8.123 94.863,7.513 93.31,6.68C92.563,6.273 92.617,6.07 93.47,6.07L121.73,6.06C121.753,6.06 121.776,6.064 121.798,6.07C121.941,6.109 122.028,6.254 121.99,6.392C121.984,6.416 121.973,6.439 121.96,6.46L121.79,6.75C121.77,6.783 121.74,6.803 121.7,6.81C119.267,7.01 117.4,7.9 116.1,9.48C115.327,10.42 114.93,12.223 114.91,14.89C114.877,21.01 114.92,28.547 115.04,37.5C115.047,37.827 115.22,37.993 115.56,38C115.7,38.007 120.677,38.01 130.49,38.01Z" style="fill-rule:nonzero;"/>
    <path d="M391.81,38.26C391.821,38.282 391.835,38.301 391.852,38.318C391.944,38.412 392.101,38.41 392.198,38.314C392.215,38.298 392.229,38.28 392.24,38.26C396.473,30.467 401.073,22.393 406.04,14.04C407.607,11.4 407.097,9.32 404.51,7.8C403.057,6.947 402.327,6.517 402.32,6.51C401.94,6.197 402.017,6.04 402.55,6.04L424.34,6.06C425.413,6.06 425.443,6.237 424.43,6.59C419.33,8.37 416.14,9.26 412.89,14.4C407.057,23.593 401.323,32.783 395.69,41.97C395.251,42.677 395.009,43.489 394.99,44.32C394.83,52.133 394.843,60.27 395.03,68.73C395.05,69.603 395.607,70.62 396.7,71.78C397.54,72.667 399.337,73.193 402.09,73.36C402.097,73.359 402.104,73.359 402.111,73.361C402.142,73.37 402.158,73.413 402.146,73.455C402.144,73.46 402.142,73.465 402.14,73.47L401.92,73.85C401.84,73.99 401.72,74.06 401.56,74.06L373.85,74.06C371.99,74.06 371.967,73.857 373.78,73.45C376.67,72.8 379.74,71.2 379.88,68.01C380.22,60.217 380.21,52.48 379.85,44.8C379.798,43.651 379.461,42.535 378.87,41.55C370.81,28.083 365.34,19.053 362.46,14.46C359.773,10.173 355.91,7.51 350.87,6.47C350.75,6.443 350.677,6.373 350.65,6.26C350.617,6.12 350.64,6.05 350.72,6.05C367.633,6.023 378.227,6.05 382.5,6.13C383.14,6.137 383.18,6.29 382.62,6.59C381.75,7.06 380.44,7.16 379.64,7.8C377.527,9.507 377.203,11.69 378.67,14.35C384.73,25.363 389.11,33.333 391.81,38.26Z" style="fill-rule:nonzero;"/>
</svg>
