<?xml version="1.0" encoding="UTF-8" standalone="no"?>
<!DOCTYPE svg PUBLIC "-//W3C//DTD SVG 1.1//EN" "http://www.w3.org/Graphics/SVG/1.1/DTD/svg11.dtd">
<svg xmlns="http://www.w3.org/2000/svg" version="1.1" viewBox="0.00 0.00 745.00 81.00">
<path fill="#ffffff" d="
  M 54.33 10.08
  Q 53.95 10.10 53.95 10.49
  Q 53.99 37.82 53.94 65.19
  Q 53.93 69.27 54.90 70.64
  Q 56.76 73.26 60.77 73.23
  Q 61.14 73.23 60.95 73.55
  L 60.72 73.95
  Q 60.66 74.05 60.54 74.05
  L 32.58 74.05
  Q 32.37 74.05 32.37 73.84
  L 32.37 73.56
  Q 32.37 73.40 32.53 73.38
  Q 39.03 72.79 39.03 66.25
  Q 39.04 40.59 39.00 10.65
  Q 39.00 10.18 38.54 10.14
  Q 28.95 9.36 22.40 11.10
  Q 19.39 11.90 17.53 15.32
  C 16.70 16.84 16.71 18.79 15.95 20.30
  Q 15.06 22.04 15.06 20.08
  L 15.06 6.29
  Q 15.06 4.65 16.66 5.02
  Q 20.34 5.85 23.31 5.94
  Q 26.71 6.05 65.50 6.04
  Q 70.46 6.04 75.85 5.09
  A 1.07 1.07 0.0 0 1 77.07 5.86
  C 78.28 10.29 77.46 14.34 77.44 18.02
  Q 77.43 19.00 77.01 19.79
  Q 76.67 20.46 76.50 19.73
  C 76.15 18.18 75.99 16.05 75.16 14.80
  Q 72.20 10.29 66.35 10.10
  Q 59.18 9.86 54.33 10.08
  Z"
/>
<path fill="#ffffff" d="
  M 208.59 70.03
  Q 209.10 70.04 220.22 70.10
  Q 226.23 70.14 230.08 68.01
  Q 236.83 64.28 239.73 55.73
  A 0.77 0.75 -6.2 0 1 240.05 55.34
  L 240.67 54.97
  Q 241.04 54.76 240.95 55.17
  L 236.98 73.01
  A 1.29 1.28 6.1 0 1 235.72 74.02
  L 187.59 74.02
  Q 185.86 74.02 187.50 73.49
  C 191.73 72.13 193.73 70.80 193.81 66.00
  Q 194.19 41.45 193.93 16.45
  C 193.87 10.23 192.50 8.86 187.06 6.84
  Q 185.10 6.10 187.19 6.09
  Q 205.76 6.00 224.02 6.05
  Q 228.79 6.06 234.05 5.08
  A 0.90 0.89 84.7 0 1 235.11 5.97
  L 235.11 20.87
  Q 235.11 21.19 234.80 21.12
  L 234.40 21.03
  Q 234.33 21.02 234.33 20.95
  Q 234.22 17.11 232.64 14.37
  C 229.62 9.16 216.84 9.67 211.00 10.13
  Q 209.16 10.28 208.68 10.77
  Q 208.13 11.34 208.10 12.83
  Q 207.82 25.96 208.12 38.12
  A 0.87 0.87 0.0 0 0 208.96 38.97
  Q 212.34 39.09 215.82 39.01
  C 222.90 38.85 228.37 38.81 229.41 30.27
  Q 229.43 30.06 229.64 30.06
  L 229.94 30.06
  Q 230.08 30.06 230.08 30.20
  L 230.08 50.95
  Q 230.08 53.89 229.38 51.03
  C 229.09 49.82 228.91 48.11 228.21 46.96
  Q 225.87 43.13 221.51 42.99
  Q 218.54 42.90 208.57 42.97
  A 0.58 0.58 0.0 0 0 208.00 43.55
  L 208.00 69.43
  Q 208.00 70.02 208.59 70.03
  Z"
/>
<path fill="#ffffff" d="
  M 332.19 20.10
  L 331.80 19.88
  A 0.81 0.81 0.0 0 1 331.40 19.28
  C 330.05 7.59 313.47 5.84 306.77 13.75
  C 302.05 19.32 306.82 24.05 312.05 27.45
  Q 320.82 33.15 324.76 35.78
  C 333.84 41.87 339.51 45.04 339.12 55.75
  C 338.65 68.50 328.79 74.66 316.74 75.68
  Q 306.48 76.54 296.66 72.41
  Q 291.92 70.41 292.37 64.66
  Q 292.85 58.42 294.87 53.99
  Q 295.50 52.60 295.71 54.11
  C 296.05 56.56 296.34 59.52 297.29 61.41
  C 301.35 69.56 309.13 72.94 318.07 71.16
  C 327.62 69.26 332.09 58.75 322.76 52.53
  Q 309.66 43.81 304.45 40.25
  C 299.81 37.08 294.75 32.44 293.96 26.71
  C 292.70 17.61 297.34 8.59 306.50 5.96
  Q 310.95 4.68 316.53 5.00
  Q 324.84 5.48 333.29 6.14
  A 0.30 0.30 0.0 0 1 333.56 6.45
  L 332.78 19.78
  A 0.40 0.39 -73.2 0 1 332.19 20.10
  Z"
/>
<path fill="#ffffff" d="
  M 476.25 20.11
  L 475.86 19.89
  A 0.81 0.81 0.0 0 1 475.46 19.29
  C 474.10 7.60 457.52 5.87 450.83 13.79
  C 446.11 19.36 450.89 24.09 456.12 27.48
  Q 464.89 33.17 468.84 35.80
  C 477.92 41.88 483.60 45.04 483.22 55.75
  C 482.76 68.50 472.91 74.67 460.86 75.70
  Q 450.60 76.57 440.78 72.45
  Q 436.03 70.46 436.48 64.71
  Q 436.95 58.47 438.97 54.04
  Q 439.60 52.65 439.81 54.16
  C 440.15 56.61 440.44 59.56 441.39 61.45
  C 445.46 69.60 453.25 72.97 462.18 71.18
  C 471.73 69.27 476.19 58.76 466.85 52.55
  Q 453.75 43.84 448.53 40.29
  C 443.89 37.12 438.83 32.49 438.03 26.76
  C 436.76 17.66 441.39 8.64 450.55 6.00
  Q 455.00 4.71 460.58 5.03
  Q 468.89 5.50 477.34 6.15
  A 0.30 0.30 0.0 0 1 477.61 6.46
  L 476.84 19.79
  A 0.40 0.39 -73.3 0 1 476.25 20.11
  Z"
/>
<path fill="#ffffff" d="
  M 530.02 6.02
  C 544.74 6.03 552.10 6.56 559.91 5.06
  A 1.01 1.00 84.5 0 1 561.10 6.05
  L 561.10 20.63
  A 0.24 0.22 -17.7 0 1 560.99 20.82
  L 560.56 21.08
  Q 560.26 21.25 560.26 20.91
  Q 560.04 11.96 552.43 10.61
  Q 546.46 9.55 537.97 10.11
  A 1.00 0.99 88.5 0 0 537.04 11.10
  Q 537.00 16.05 537.00 59.77
  C 537.00 63.85 536.51 69.82 540.09 72.27
  C 541.07 72.94 542.36 73.09 543.57 73.51
  Q 544.29 73.77 543.54 73.91
  Q 542.06 74.20 540.00 74.14
  Q 534.99 74.00 529.99 74.00
  Q 524.98 74.00 519.98 74.13
  Q 517.91 74.19 516.43 73.90
  Q 515.68 73.75 516.40 73.50
  C 517.61 73.08 518.90 72.93 519.88 72.26
  C 523.47 69.81 522.98 63.84 522.99 59.76
  Q 523.04 16.04 523.00 11.09
  A 1.00 0.99 -88.4 0 0 522.07 10.10
  Q 513.58 9.53 507.61 10.59
  Q 500.00 11.93 499.77 20.88
  Q 499.77 21.22 499.47 21.05
  L 499.04 20.79
  A 0.24 0.22 17.8 0 1 498.93 20.60
  L 498.95 6.02
  A 1.01 1.00 -84.5 0 1 500.14 5.03
  C 507.94 6.53 515.31 6.02 530.02 6.02
  Z"
/>
<path fill="#ffffff" d="
  M 598.01 69.43
  Q 598.01 70.02 598.60 70.03
  Q 599.11 70.04 610.23 70.10
  Q 616.24 70.14 620.08 68.00
  Q 626.83 64.27 629.73 55.72
  A 0.77 0.75 -6.3 0 1 630.05 55.33
  L 630.67 54.96
  Q 631.04 54.75 630.95 55.16
  L 626.99 73.00
  A 1.29 1.28 6.1 0 1 625.73 74.01
  L 577.61 74.03
  Q 575.88 74.03 577.52 73.50
  C 581.74 72.14 583.74 70.81 583.82 66.01
  Q 584.19 41.47 583.92 16.47
  C 583.86 10.25 582.49 8.88 577.05 6.87
  Q 575.09 6.13 577.17 6.12
  Q 595.74 6.02 614.00 6.06
  Q 618.77 6.07 624.03 5.08
  A 0.90 0.89 84.7 0 1 625.09 5.97
  L 625.09 20.87
  Q 625.09 21.19 624.78 21.12
  L 624.38 21.03
  Q 624.31 21.02 624.31 20.95
  Q 624.20 17.11 622.62 14.37
  C 619.60 9.17 606.82 9.68 600.98 10.14
  Q 599.14 10.30 598.66 10.79
  Q 598.11 11.36 598.08 12.85
  Q 597.81 25.97 598.12 38.13
  A 0.87 0.87 0.0 0 0 598.96 38.98
  Q 602.33 39.10 605.81 39.02
  C 612.89 38.85 618.36 38.81 619.40 30.27
  Q 619.42 30.06 619.63 30.06
  L 619.93 30.06
  Q 620.07 30.06 620.07 30.20
  L 620.08 50.95
  Q 620.08 53.89 619.38 51.03
  C 619.09 49.82 618.91 48.11 618.21 46.96
  Q 615.86 43.13 611.50 42.99
  Q 608.54 42.90 598.57 42.98
  A 0.58 0.58 0.0 0 0 598.00 43.56
  L 598.01 69.43
  Z"
/>
<path fill="#ffffff" d="
  M 709.11 35.24
  Q 708.76 34.74 708.45 35.27
  Q 703.88 43.11 699.44 51.05
  Q 699.39 51.14 693.87 60.33
  Q 689.46 67.67 686.86 75.64
  A 0.55 0.55 0.0 0 1 685.86 75.75
  L 661.85 35.20
  A 0.39 0.39 0.0 0 0 661.13 35.35
  Q 659.53 49.19 658.07 64.77
  Q 657.73 68.39 658.29 71.28
  Q 658.53 72.50 660.40 73.51
  Q 661.43 74.06 660.26 74.06
  L 642.86 74.06
  Q 642.66 74.06 642.76 73.89
  L 643.03 73.43
  Q 643.12 73.27 643.31 73.26
  Q 648.41 73.12 650.06 70.03
  Q 651.01 68.24 651.53 64.00
  Q 655.21 33.75 658.97 6.40
  Q 659.33 3.79 660.70 6.04
  L 689.60 53.42
  Q 690.30 54.58 690.98 53.40
  L 718.88 5.08
  A 0.44 0.44 0.0 0 1 719.67 5.15
  Q 720.40 7.19 720.75 9.76
  Q 726.49 51.24 727.83 64.77
  Q 728.65 73.07 736.64 73.34
  A 0.27 0.27 0.0 0 1 736.87 73.75
  L 736.71 74.02
  Q 736.68 74.07 736.62 74.07
  Q 726.65 74.02 714.03 74.13
  Q 711.52 74.15 709.79 73.89
  Q 709.16 73.79 709.75 73.54
  L 711.76 72.68
  Q 712.29 72.45 712.43 71.89
  Q 712.99 69.70 712.89 68.50
  Q 712.20 60.21 710.38 45.43
  Q 710.03 42.61 709.93 37.47
  C 709.92 36.63 709.56 35.86 709.11 35.24
  Z"
/>
<path fill="#ffffff" d="
  M 130.49 38.01
  Q 145.21 38.00 145.42 38.00
  Q 145.93 37.99 145.94 37.50
  Q 146.12 24.07 146.06 14.89
  Q 146.03 10.89 144.87 9.48
  Q 142.92 7.11 139.27 6.81
  Q 139.21 6.80 139.18 6.75
  L 139.01 6.46
  A 0.27 0.26 -15.4 0 1 139.24 6.06
  L 167.50 6.06
  Q 168.78 6.06 167.66 6.67
  Q 165.33 7.92 163.83 8.50
  C 162.28 9.09 161.00 11.09 161.00 12.27
  Q 160.93 35.00 160.99 68.01
  C 161.00 71.39 164.70 72.85 167.85 73.56
  Q 168.07 73.61 168.10 73.79
  Q 168.10 73.84 168.10 73.89
  Q 168.06 74.07 167.96 74.07
  L 139.14 74.03
  Q 138.90 74.03 138.90 73.79
  L 138.90 73.49
  Q 138.90 73.27 139.12 73.27
  Q 142.98 73.34 144.93 71.06
  Q 146.05 69.74 146.07 65.76
  Q 146.10 58.31 146.00 43.54
  Q 145.99 43.04 145.49 43.03
  Q 136.63 42.94 130.49 42.94
  Q 124.35 42.94 115.49 43.03
  Q 114.99 43.04 114.98 43.54
  Q 114.88 58.31 114.92 65.76
  Q 114.94 69.74 116.06 71.06
  Q 118.01 73.34 121.87 73.27
  Q 122.09 73.27 122.09 73.49
  L 122.09 73.79
  Q 122.09 74.03 121.85 74.03
  L 93.03 74.08
  Q 92.93 74.08 92.89 73.90
  Q 92.89 73.85 92.89 73.80
  Q 92.92 73.62 93.14 73.57
  C 96.29 72.86 99.99 71.40 100.00 68.02
  Q 100.05 35.01 99.97 12.28
  C 99.97 11.10 98.69 9.10 97.14 8.51
  Q 95.64 7.93 93.31 6.68
  Q 92.19 6.07 93.47 6.07
  L 121.73 6.06
  A 0.27 0.26 15.3 0 1 121.96 6.46
  L 121.79 6.75
  Q 121.76 6.80 121.70 6.81
  Q 118.05 7.11 116.10 9.48
  Q 114.94 10.89 114.91 14.89
  Q 114.86 24.07 115.04 37.50
  Q 115.05 37.99 115.56 38.00
  Q 115.77 38.01 130.49 38.01
  Z"
/>
<path fill="#ffffff" d="
  M 391.81 38.26
  A 0.25 0.24 -44.6 0 0 392.24 38.26
  Q 398.59 26.57 406.04 14.04
  Q 408.39 10.08 404.51 7.80
  Q 402.33 6.52 402.32 6.51
  Q 401.75 6.04 402.55 6.04
  L 424.34 6.06
  Q 425.95 6.06 424.43 6.59
  C 419.33 8.37 416.14 9.26 412.89 14.40
  Q 404.14 28.19 395.69 41.97
  A 4.67 4.66 -28.4 0 0 394.99 44.32
  Q 394.75 56.04 395.03 68.73
  Q 395.06 70.04 396.70 71.78
  Q 397.96 73.11 402.09 73.36
  A 0.08 0.06 -73.7 0 1 402.14 73.47
  L 401.92 73.85
  Q 401.80 74.06 401.56 74.06
  L 373.85 74.06
  Q 371.06 74.06 373.78 73.45
  C 376.67 72.80 379.74 71.20 379.88 68.01
  Q 380.39 56.32 379.85 44.80
  A 6.94 6.92 -61.9 0 0 378.87 41.55
  Q 366.78 21.35 362.46 14.46
  Q 358.43 8.03 350.87 6.47
  Q 350.69 6.43 350.65 6.26
  Q 350.60 6.05 350.72 6.05
  Q 376.09 6.01 382.50 6.13
  Q 383.46 6.14 382.62 6.59
  C 381.75 7.06 380.44 7.16 379.64 7.80
  Q 376.47 10.36 378.67 14.35
  Q 387.76 30.87 391.81 38.26
  Z"
/>
</svg>
