<?xml version="1.0" encoding="UTF-8" standalone="no"?>
<!DOCTYPE svg PUBLIC "-//W3C//DTD SVG 1.1//EN" "http://www.w3.org/Graphics/SVG/1.1/DTD/svg11.dtd">
<svg xmlns="http://www.w3.org/2000/svg" version="1.1" viewBox="0.00 0.00 1040.00 1044.00">
<path fill="#fffffe" d="
  M 192.70 408.60
  C 203.35 408.59 215.12 409.57 225.20 406.21
  Q 225.64 406.06 225.64 406.52
  L 225.64 426.86
  Q 225.64 427.41 225.09 427.41
  L 221.52 427.41
  A 0.52 0.51 -88.4 0 1 221.01 426.86
  C 221.31 421.78 219.81 417.51 214.19 416.68
  Q 209.49 415.99 202.33 416.42
  A 0.54 0.54 0.0 0 0 201.83 416.96
  Q 201.88 446.30 201.90 469.96
  C 201.90 474.49 204.58 475.74 208.74 475.92
  A 0.59 0.58 0.6 0 1 209.30 476.48
  L 209.48 479.95
  Q 209.51 480.42 208.80 480.46
  Q 208.17 480.49 192.79 480.51
  Q 177.42 480.53 176.79 480.50
  Q 176.08 480.46 176.11 479.99
  L 176.28 476.52
  A 0.59 0.58 -0.7 0 1 176.84 475.96
  C 181.00 475.77 183.67 474.51 183.66 469.98
  Q 183.62 446.32 183.59 416.98
  A 0.54 0.54 0.0 0 0 183.09 416.44
  Q 175.93 416.03 171.23 416.74
  C 165.62 417.58 164.13 421.85 164.44 426.93
  A 0.52 0.51 88.3 0 1 163.93 427.48
  L 160.36 427.49
  Q 159.81 427.50 159.81 426.95
  L 159.76 406.61
  Q 159.76 406.15 160.19 406.29
  C 170.28 409.62 182.05 408.61 192.70 408.60
  Z
  M 168.29 413.25
  Q 169.67 412.87 169.87 412.82
  Q 172.58 412.20 169.79 412.14
  Q 166.46 412.06 163.90 411.43
  Q 163.36 411.29 163.36 411.84
  L 163.34 415.56
  A 0.26 0.25 -22.5 0 0 163.78 415.73
  Q 165.48 414.05 168.29 413.25
  Z
  M 220.62 411.70
  C 219.23 412.14 217.59 412.01 215.18 412.13
  Q 214.93 412.13 214.84 412.31
  Q 214.63 412.72 215.08 412.76
  Q 218.03 413.00 221.48 415.74
  Q 221.99 416.14 221.99 415.50
  L 221.99 412.03
  Q 221.99 411.37 221.34 411.50
  Q 221.10 411.54 220.62 411.70
  Z
  M 198.24 413.98
  Q 198.24 412.66 199.57 412.66
  L 212.07 412.72
  Q 212.39 412.73 212.36 412.53
  L 212.36 412.52
  Q 212.33 412.36 212.19 412.35
  Q 192.01 412.11 171.82 412.39
  Q 171.75 412.39 171.80 412.62
  Q 171.80 412.64 171.82 412.64
  L 186.00 412.75
  Q 187.24 412.76 187.24 414.00
  Q 187.28 460.16 187.28 472.87
  C 187.28 474.22 186.55 475.31 185.96 476.26
  Q 185.56 476.91 186.32 476.91
  L 199.09 476.91
  Q 199.63 476.91 199.40 476.43
  Q 198.22 474.01 198.22 473.23
  Q 198.20 420.52 198.24 413.98
  Z"
/>
<path fill="#fffffe" d="
  M 356.41 449.70
  L 356.41 471.97
  A 0.67 0.67 0.0 0 0 357.07 472.64
  Q 363.95 472.77 368.06 472.57
  C 377.40 472.13 382.57 465.65 384.96 457.24
  A 0.32 0.32 0.0 0 1 385.27 457.01
  L 389.43 457.01
  Q 389.68 457.01 389.62 457.25
  L 384.51 479.95
  Q 384.39 480.51 383.81 480.51
  L 331.20 480.51
  Q 330.66 480.51 330.66 479.97
  L 330.66 476.30
  Q 330.66 475.72 331.22 475.82
  C 334.61 476.42 338.16 474.19 338.16 470.45
  Q 338.17 429.49 338.15 417.60
  A 2.68 2.66 -63.5 0 0 337.62 416.00
  Q 335.39 413.05 331.01 413.36
  Q 330.67 413.38 330.67 413.04
  L 330.67 409.01
  A 0.31 0.31 0.0 0 1 330.98 408.70
  Q 352.80 408.70 368.25 408.68
  Q 374.99 408.68 382.74 406.29
  Q 383.30 406.12 383.30 406.70
  L 383.30 427.52
  Q 383.30 427.84 382.98 427.81
  L 378.98 427.38
  Q 378.64 427.34 378.65 427.01
  C 378.80 420.82 376.97 416.99 370.22 416.65
  Q 365.56 416.41 357.29 416.60
  A 0.90 0.89 -0.7 0 0 356.41 417.49
  L 356.41 440.61
  A 0.52 0.51 -88.9 0 0 356.90 441.13
  Q 360.94 441.34 366.10 441.17
  Q 369.49 441.05 371.09 439.78
  C 372.80 438.43 374.35 435.11 373.87 432.69
  Q 373.73 431.96 374.48 431.96
  L 377.77 431.96
  Q 378.53 431.96 378.53 432.72
  L 378.53 457.80
  Q 378.53 458.11 378.22 458.11
  L 374.08 458.11
  Q 373.83 458.11 373.85 457.86
  Q 374.22 453.33 371.53 450.74
  Q 369.67 448.94 365.24 448.95
  Q 358.71 448.95 357.02 449.05
  Q 356.41 449.09 356.41 449.70
  Z
  M 353.20 444.87
  A 0.43 0.43 0.0 0 1 352.77 444.44
  L 352.77 413.49
  A 0.65 0.65 0.0 0 1 353.43 412.84
  Q 362.05 412.98 370.52 412.59
  Q 371.47 412.54 373.35 412.79
  Q 374.73 412.98 375.97 413.75
  Q 378.94 415.62 379.09 415.71
  Q 379.71 416.10 379.70 415.51
  L 379.61 412.59
  Q 379.60 412.25 379.26 412.25
  L 340.88 412.25
  Q 340.15 412.25 340.57 412.85
  Q 341.04 413.52 341.47 414.27
  Q 341.88 414.99 341.88 416.34
  Q 341.71 450.47 341.89 472.44
  Q 341.90 473.71 341.48 474.50
  Q 340.86 475.64 340.44 476.29
  Q 340.06 476.85 340.74 476.85
  L 380.96 476.85
  Q 381.47 476.85 381.58 476.36
  L 383.03 469.93
  Q 383.15 469.38 382.76 469.79
  Q 379.44 473.26 375.12 475.06
  Q 372.17 476.30 366.21 476.28
  Q 355.23 476.27 353.43 476.21
  A 0.69 0.68 0.9 0 1 352.76 475.53
  L 352.76 445.94
  Q 352.76 445.37 353.33 445.38
  L 367.56 445.48
  Q 367.61 445.48 367.60 445.42
  L 367.57 445.12
  Q 367.54 444.87 367.29 444.87
  L 353.20 444.87
  Z
  M 369.64 445.10
  Q 369.64 445.35 370.45 445.58
  Q 372.80 446.25 374.58 447.79
  A 0.19 0.18 -69.5 0 0 374.89 447.65
  Q 374.89 446.37 374.87 445.03
  Q 374.85 443.68 374.81 442.41
  A 0.19 0.18 67.8 0 0 374.50 442.27
  Q 372.77 443.86 370.44 444.60
  Q 369.64 444.85 369.64 445.10
  Z"
/>
<path fill="#fffffe" d="
  M 676.27 480.52
  Q 660.89 480.52 660.26 480.49
  Q 659.55 480.45 659.58 479.98
  L 659.76 476.51
  A 0.59 0.58 -0.6 0 1 660.32 475.95
  C 664.48 475.76 667.15 474.51 667.15 469.98
  Q 667.13 446.31 667.14 416.97
  A 0.54 0.54 0.0 0 0 666.64 416.43
  Q 659.48 416.01 654.78 416.71
  C 649.16 417.55 647.67 421.82 647.98 426.90
  A 0.52 0.51 88.3 0 1 647.47 427.45
  L 643.90 427.45
  Q 643.35 427.45 643.35 426.90
  L 643.32 406.56
  Q 643.32 406.10 643.75 406.25
  C 653.84 409.59 665.61 408.60 676.26 408.60
  C 686.92 408.60 698.69 409.59 708.77 406.24
  Q 709.21 406.10 709.21 406.56
  L 709.18 426.90
  Q 709.18 427.45 708.63 427.45
  L 705.06 427.44
  A 0.52 0.51 -88.3 0 1 704.55 426.89
  C 704.86 421.81 703.36 417.54 697.74 416.70
  Q 693.04 416.01 685.88 416.43
  A 0.54 0.54 0.0 0 0 685.38 416.97
  Q 685.40 446.31 685.39 469.98
  C 685.38 474.51 688.06 475.76 692.22 475.94
  A 0.59 0.58 0.6 0 1 692.78 476.50
  L 692.96 479.98
  Q 692.99 480.45 692.28 480.48
  Q 691.65 480.52 676.27 480.52
  Z
  M 652.13 413.30
  Q 653.55 412.90 653.76 412.85
  Q 656.56 412.19 653.67 412.14
  Q 650.23 412.08 647.58 411.44
  Q 647.02 411.30 647.02 411.87
  L 647.02 415.71
  A 0.26 0.26 0.0 0 0 647.47 415.89
  Q 649.22 414.14 652.13 413.30
  Z
  M 704.19 411.69
  C 702.81 412.13 701.17 412.00 698.77 412.12
  Q 698.52 412.13 698.43 412.30
  Q 698.22 412.71 698.67 412.75
  Q 701.61 412.99 705.05 415.72
  Q 705.56 416.12 705.56 415.48
  L 705.56 412.02
  Q 705.56 411.36 704.91 411.49
  Q 704.67 411.53 704.19 411.69
  Z
  M 681.85 413.99
  Q 681.85 412.67 683.18 412.67
  L 695.66 412.74
  Q 695.98 412.75 695.95 412.55
  L 695.95 412.54
  Q 695.92 412.38 695.78 412.37
  Q 675.63 412.11 655.48 412.37
  Q 655.41 412.37 655.46 412.60
  Q 655.46 412.62 655.48 412.62
  L 669.63 412.74
  Q 670.87 412.76 670.87 413.99
  Q 670.86 460.08 670.84 472.77
  C 670.84 474.11 670.11 475.20 669.52 476.15
  Q 669.12 476.80 669.88 476.80
  L 682.63 476.81
  Q 683.17 476.81 682.94 476.33
  Q 681.76 473.92 681.76 473.14
  Q 681.80 420.51 681.85 413.99
  Z"
/>
<path fill="#fffffe" d="
  M 747.01 449.05
  Q 746.40 449.09 746.40 449.70
  L 746.40 471.97
  A 0.67 0.67 0.0 0 0 747.06 472.64
  Q 753.94 472.77 758.05 472.57
  C 767.39 472.13 772.56 465.65 774.95 457.24
  A 0.32 0.32 0.0 0 1 775.26 457.01
  L 779.42 457.01
  Q 779.68 457.01 779.62 457.25
  L 774.50 479.95
  Q 774.38 480.51 773.80 480.51
  L 721.18 480.51
  Q 720.64 480.51 720.64 479.97
  L 720.64 476.30
  Q 720.64 475.72 721.20 475.82
  C 724.59 476.42 728.14 474.19 728.14 470.45
  Q 728.15 429.48 728.13 417.59
  A 2.68 2.66 -63.5 0 0 727.60 415.99
  Q 725.37 413.04 720.99 413.35
  Q 720.65 413.37 720.65 413.03
  L 720.65 409.00
  A 0.31 0.31 0.0 0 1 720.96 408.69
  Q 742.79 408.69 758.24 408.67
  Q 764.98 408.67 772.73 406.28
  Q 773.29 406.11 773.29 406.69
  L 773.29 427.51
  Q 773.29 427.83 772.97 427.80
  L 768.97 427.37
  Q 768.63 427.33 768.64 427.00
  C 768.79 420.81 766.96 416.98 760.21 416.64
  Q 755.55 416.40 747.28 416.59
  A 0.90 0.89 -0.7 0 0 746.40 417.48
  L 746.40 440.60
  A 0.52 0.51 -88.9 0 0 746.89 441.12
  Q 750.93 441.33 756.09 441.16
  Q 759.48 441.04 761.08 439.77
  C 762.79 438.42 764.34 435.10 763.86 432.68
  Q 763.72 431.95 764.47 431.95
  L 767.76 431.95
  Q 768.52 431.95 768.52 432.71
  L 768.52 457.80
  Q 768.52 458.11 768.21 458.11
  L 764.07 458.11
  Q 763.82 458.11 763.84 457.86
  Q 764.21 453.33 761.52 450.74
  Q 759.66 448.94 755.23 448.95
  Q 748.70 448.95 747.01 449.05
  Z
  M 742.75 475.51
  L 742.75 413.54
  A 0.71 0.71 0.0 0 1 743.46 412.83
  Q 751.71 412.82 760.75 412.62
  C 764.77 412.53 765.96 413.74 769.15 415.79
  Q 769.65 416.11 769.65 415.52
  L 769.65 412.56
  Q 769.65 412.24 769.34 412.24
  L 730.91 412.24
  Q 730.29 412.24 730.64 412.76
  Q 732.09 414.86 731.93 417.31
  Q 731.81 419.12 731.81 419.19
  Q 731.78 463.60 731.86 472.64
  Q 731.87 473.74 731.42 474.62
  Q 730.91 475.63 730.34 476.46
  Q 730.08 476.85 730.54 476.85
  L 770.81 476.85
  A 0.81 0.81 0.0 0 0 771.60 476.21
  L 772.95 470.25
  Q 773.23 469.01 772.39 469.96
  Q 766.79 476.30 757.75 476.29
  Q 747.06 476.27 743.50 476.26
  A 0.75 0.75 0.0 0 1 742.75 475.51
  Z
  M 759.84 445.11
  Q 759.85 445.40 760.30 445.54
  Q 762.60 446.24 764.48 447.73
  A 0.28 0.28 0.0 0 0 764.93 447.50
  Q 764.89 446.89 764.86 445.04
  Q 764.84 443.19 764.85 442.57
  A 0.28 0.28 0.0 0 0 764.40 442.36
  Q 762.56 443.90 760.29 444.68
  Q 759.84 444.83 759.84 445.11
  Z
  M 757.4498 445.1892
  A 0.23 0.23 0.0 0 0 757.2214 444.9576
  L 743.5818 444.8624
  A 0.23 0.23 0.0 0 0 743.3502 445.0908
  L 743.3502 445.0908
  A 0.23 0.23 0.0 0 0 743.5786 445.3224
  L 757.2182 445.4176
  A 0.23 0.23 0.0 0 0 757.4498 445.1892
  L 757.4498 445.1892
  Z"
/>
<path fill="#fffffe" d="
  M 444.37 456.13
  Q 444.60 458.04 444.47 459.45
  C 444.00 464.57 447.59 469.79 451.45 471.88
  Q 457.74 475.28 464.79 473.50
  C 469.97 472.20 473.58 467.85 471.47 462.33
  Q 470.73 460.41 466.56 457.46
  Q 462.97 454.91 454.13 449.07
  Q 444.56 442.75 442.17 439.60
  Q 435.15 430.36 440.24 418.57
  C 444.29 409.21 455.16 406.45 465.02 407.41
  Q 474.23 408.30 481.48 408.36
  Q 482.16 408.37 482.09 409.04
  L 480.30 425.87
  Q 480.25 426.28 479.84 426.28
  L 476.44 426.28
  Q 475.99 426.28 475.99 425.83
  Q 476.00 416.95 466.78 415.38
  Q 460.63 414.33 456.36 417.32
  Q 452.62 419.93 454.11 425.24
  Q 454.60 426.99 458.60 429.69
  Q 466.15 434.77 477.75 442.24
  Q 489.59 449.88 486.75 464.24
  C 483.03 482.96 458.66 484.48 444.40 479.47
  Q 440.33 478.03 438.21 475.84
  C 434.66 472.16 437.47 461.32 439.26 457.73
  Q 440.67 454.92 444.26 456.00
  A 0.16 0.15 5.9 0 1 444.37 456.13
  Z
  M 462.48 477.82
  Q 462.20 477.83 462.11 477.87
  Q 461.56 478.08 462.15 478.08
  C 470.52 478.03 480.05 473.88 482.62 465.19
  Q 485.08 456.87 481.44 450.93
  Q 479.42 447.62 471.45 442.42
  Q 470.46 441.77 455.87 432.41
  C 450.96 429.26 446.84 423.97 450.54 418.04
  Q 454.69 411.40 462.84 411.68
  Q 462.98 411.69 463.00 411.52
  Q 463.02 411.38 462.88 411.35
  C 453.83 409.87 444.56 414.28 442.48 423.59
  Q 439.94 435.04 449.85 441.73
  Q 456.38 446.13 470.38 455.36
  Q 476.02 459.08 476.07 465.07
  C 476.12 472.66 469.70 477.36 462.48 477.82
  Z
  M 478.07 412.55
  A 0.56 0.55 5.0 0 0 477.55 411.94
  L 468.82 411.38
  Q 468.61 411.36 468.57 411.50
  Q 468.51 411.68 468.72 411.73
  Q 473.83 412.97 477.23 416.70
  A 0.24 0.24 0.0 0 0 477.65 416.56
  L 478.07 412.55
  Z
  M 459.17 477.82
  C 450.73 477.39 444.44 473.41 441.46 465.53
  Q 441.22 464.89 441.01 465.55
  Q 440.00 468.70 441.06 472.30
  Q 441.48 473.73 443.60 474.75
  Q 451.03 478.28 459.17 477.85
  A 0.02 0.02 0.0 0 0 459.17 477.82
  Z
  M 460.28 478.13
  Q 460.62 478.20 460.81 478.01
  Q 460.46 477.83 460.28 478.13
  Z"
/>
<path fill="#fffffe" d="
  M 588.48 456.12
  Q 588.71 458.03 588.58 459.44
  C 588.11 464.56 591.70 469.78 595.56 471.87
  Q 601.85 475.27 608.90 473.50
  C 614.08 472.20 617.69 467.85 615.58 462.33
  Q 614.84 460.41 610.67 457.46
  Q 607.08 454.91 598.24 449.07
  Q 588.67 442.75 586.29 439.60
  Q 579.27 430.36 584.36 418.57
  C 588.41 409.21 599.28 406.45 609.14 407.41
  Q 618.35 408.30 625.60 408.36
  Q 626.28 408.37 626.21 409.04
  L 624.41 425.87
  Q 624.36 426.28 623.95 426.28
  L 620.55 426.28
  Q 620.10 426.28 620.10 425.83
  Q 620.12 416.95 610.90 415.38
  Q 604.75 414.33 600.48 417.32
  Q 596.74 419.93 598.23 425.24
  Q 598.72 426.99 602.71 429.69
  Q 610.26 434.77 621.86 442.24
  Q 633.70 449.88 630.86 464.24
  C 627.13 482.96 602.77 484.47 588.51 479.46
  Q 584.44 478.02 582.32 475.83
  C 578.77 472.15 581.58 461.31 583.37 457.72
  Q 584.78 454.91 588.37 455.99
  A 0.16 0.15 6.0 0 1 588.48 456.12
  Z
  M 606.71 477.74
  Q 606.43 477.75 606.35 477.79
  Q 605.80 478.00 606.39 478.00
  C 614.73 477.92 624.22 473.74 626.75 465.06
  Q 629.17 456.75 625.52 450.84
  Q 623.49 447.55 615.52 442.40
  Q 614.53 441.75 599.94 432.47
  C 595.03 429.35 590.90 424.09 594.57 418.16
  Q 598.68 411.52 606.81 411.77
  Q 606.95 411.78 606.97 411.61
  Q 606.99 411.47 606.85 411.44
  C 597.82 410.00 588.59 414.44 586.55 423.73
  Q 584.06 435.16 593.97 441.79
  Q 600.50 446.16 614.50 455.31
  Q 620.14 458.99 620.22 464.97
  C 620.30 472.54 613.91 477.25 606.71 477.74
  Z
  M 622.10 412.53
  A 0.55 0.54 5.3 0 0 621.59 411.93
  L 613.05 411.33
  Q 612.84 411.31 612.80 411.45
  Q 612.74 411.62 612.95 411.67
  Q 617.94 412.92 621.25 416.59
  A 0.24 0.24 0.0 0 0 621.66 416.46
  L 622.10 412.53
  Z
  M 604.71 477.92
  C 595.72 477.70 588.91 473.64 585.52 465.34
  Q 585.24 464.67 585.04 465.37
  Q 584.05 468.76 585.28 472.56
  Q 585.77 474.07 588.05 475.09
  Q 596.06 478.64 604.71 477.96
  A 0.02 0.02 0.0 0 0 604.71 477.92
  Z"
/>
<path fill="#fffffe" d="
  M 854.48 445.31
  Q 854.35 444.08 853.72 445.15
  C 849.17 452.88 844.64 461.11 839.68 469.22
  Q 836.07 475.12 835.33 481.83
  Q 835.27 482.34 834.78 482.45
  Q 831.71 483.18 830.36 480.56
  Q 829.76 479.40 829.74 479.36
  Q 819.61 462.37 809.49 445.34
  Q 808.80 444.18 808.66 445.52
  Q 805.80 471.86 805.76 472.26
  C 805.40 475.21 807.42 476.36 810.07 475.98
  Q 810.89 475.86 810.89 476.69
  L 810.89 479.64
  Q 810.89 480.52 810.02 480.52
  L 787.43 480.52
  A 0.57 0.57 0.0 0 1 786.86 479.95
  L 786.86 476.30
  Q 786.86 475.84 787.33 475.87
  C 792.05 476.24 795.10 474.41 795.75 469.51
  Q 799.50 441.12 803.76 407.82
  Q 803.82 407.34 804.31 407.34
  L 806.84 407.34
  A 0.92 0.92 0.0 0 1 807.62 407.77
  L 836.09 454.65
  A 0.52 0.52 0.0 0 0 836.99 454.64
  L 864.03 407.81
  A 0.94 0.93 -75.0 0 1 864.84 407.34
  L 867.47 407.34
  Q 867.99 407.34 868.05 407.85
  Q 875.33 462.62 876.37 470.37
  Q 877.12 475.90 884.58 475.87
  Q 885.16 475.87 885.16 476.45
  L 885.16 480.05
  Q 885.16 480.51 884.69 480.51
  L 852.98 480.51
  Q 852.28 480.51 852.28 479.81
  L 852.28 476.73
  Q 852.28 476.15 852.86 476.08
  L 854.81 475.87
  A 2.98 2.98 0.0 0 0 857.45 472.58
  L 854.48 445.31
  Z
  M 856.87 433.37
  L 861.33 474.27
  Q 861.38 474.71 861.22 475.12
  Q 861.00 475.68 861.01 476.33
  Q 861.01 476.87 861.55 476.87
  L 874.27 476.87
  Q 874.78 476.87 874.55 476.41
  C 873.92 475.15 873.21 474.50 873.00 472.93
  Q 866.42 423.24 865.36 415.17
  Q 865.13 413.42 864.24 414.94
  L 836.66 462.15
  A 0.16 0.16 0.0 0 1 836.38 462.15
  L 807.47 414.54
  Q 806.73 413.33 806.55 414.74
  L 798.93 473.71
  Q 798.88 474.07 798.70 474.39
  L 797.55 476.38
  Q 797.27 476.87 797.83 476.87
  L 801.29 476.87
  Q 801.65 476.87 801.69 476.51
  L 806.23 433.77
  Q 806.33 432.86 806.79 433.64
  L 831.70 475.54
  A 0.52 0.52 0.0 0 0 832.65 475.41
  Q 833.14 473.60 834.14 471.85
  Q 850.54 443.03 856.45 433.27
  Q 856.80 432.69 856.87 433.37
  Z"
/>
<path fill="#fffffe" d="
  M 276.77 440.75
  Q 286.04 440.75 290.27 440.72
  A 0.44 0.44 0.0 0 0 290.71 440.28
  Q 290.73 433.41 290.69 418.52
  C 290.69 416.73 289.71 414.68 287.69 413.99
  Q 285.38 413.21 283.92 413.33
  Q 283.23 413.38 283.23 412.69
  L 283.23 409.17
  Q 283.23 408.71 283.69 408.71
  L 315.97 408.71
  Q 316.48 408.71 316.48 409.22
  L 316.48 412.78
  Q 316.48 413.31 315.95 413.28
  C 314.38 413.20 310.78 413.81 309.89 415.66
  Q 309.00 417.51 308.99 418.52
  Q 308.94 447.06 309.02 470.74
  Q 309.02 472.27 309.99 473.71
  C 311.15 475.43 314.02 476.01 315.93 475.92
  Q 316.50 475.89 316.50 476.46
  L 316.50 480.02
  Q 316.50 480.53 315.99 480.53
  L 283.71 480.53
  Q 283.26 480.53 283.26 480.08
  L 283.26 476.45
  A 0.58 0.58 0.0 0 1 283.91 475.87
  C 286.77 476.25 290.57 474.56 290.62 471.19
  Q 290.87 456.49 290.67 449.27
  A 0.62 0.62 0.0 0 0 290.06 448.67
  Q 286.88 448.59 276.78 448.59
  Q 266.67 448.59 263.49 448.68
  A 0.62 0.62 0.0 0 0 262.88 449.28
  Q 262.69 456.50 262.95 471.20
  C 263.00 474.57 266.80 476.26 269.66 475.87
  A 0.58 0.58 0.0 0 1 270.31 476.45
  L 270.31 480.08
  Q 270.31 480.53 269.86 480.53
  L 237.58 480.55
  Q 237.07 480.56 237.07 480.05
  L 237.07 476.49
  Q 237.07 475.92 237.64 475.94
  C 239.55 476.03 242.42 475.45 243.58 473.73
  Q 244.55 472.29 244.55 470.76
  Q 244.61 447.08 244.54 418.54
  Q 244.53 417.53 243.64 415.68
  C 242.75 413.83 239.15 413.22 237.58 413.30
  Q 237.05 413.34 237.05 412.81
  L 237.05 409.25
  Q 237.05 408.74 237.56 408.73
  L 269.84 408.71
  Q 270.30 408.71 270.30 409.17
  L 270.30 412.69
  Q 270.30 413.38 269.61 413.33
  Q 268.15 413.22 265.84 414.00
  C 263.82 414.69 262.84 416.74 262.84 418.53
  Q 262.81 433.42 262.84 440.29
  A 0.44 0.44 0.0 0 0 263.28 440.73
  Q 267.51 440.76 276.77 440.75
  Z
  M 248.20 444.60
  Q 248.20 456.90 248.20 469.20
  C 248.21 472.02 248.69 473.80 246.88 476.29
  A 0.37 0.37 0.0 0 0 247.18 476.87
  L 260.18 476.87
  Q 260.71 476.87 260.47 476.40
  C 259.55 474.63 259.10 474.14 259.10 471.93
  Q 259.17 447.58 259.25 445.51
  Q 259.27 445.02 259.76 444.99
  Q 261.78 444.87 276.76 444.87
  Q 291.73 444.88 293.76 445.00
  Q 294.25 445.03 294.27 445.52
  Q 294.35 447.59 294.40 471.94
  C 294.40 474.15 293.95 474.64 293.03 476.41
  Q 292.79 476.88 293.32 476.88
  L 306.32 476.89
  A 0.37 0.37 0.0 0 0 306.62 476.31
  C 304.81 473.82 305.29 472.04 305.30 469.22
  Q 305.31 456.92 305.32 444.62
  Q 305.32 432.33 305.31 420.03
  C 305.31 417.21 304.83 415.43 306.64 412.94
  A 0.37 0.37 0.0 0 0 306.34 412.36
  L 293.34 412.36
  Q 292.81 412.36 293.05 412.83
  C 293.97 414.60 294.42 415.09 294.42 417.30
  Q 294.35 441.65 294.27 443.72
  Q 294.25 444.21 293.76 444.24
  Q 291.73 444.36 276.76 444.35
  Q 261.78 444.35 259.76 444.23
  Q 259.27 444.19 259.25 443.70
  Q 259.17 441.63 259.12 417.28
  C 259.12 415.07 259.57 414.58 260.49 412.82
  Q 260.73 412.35 260.20 412.35
  L 247.20 412.34
  A 0.37 0.37 0.0 0 0 246.90 412.92
  C 248.71 415.41 248.23 417.19 248.22 420.01
  Q 248.21 432.31 248.20 444.60
  Z"
/>
<path fill="#fffffe" d="
  M 527.50 413.63
  A 2.05 2.04 72.5 0 0 525.93 416.65
  L 537.98 438.56
  A 0.39 0.39 0.0 0 0 538.66 438.56
  Q 543.35 430.11 550.35 418.10
  Q 551.19 416.67 551.05 415.04
  Q 551.00 414.54 550.55 414.30
  Q 548.25 413.12 546.88 413.32
  Q 546.23 413.42 546.23 412.77
  L 546.23 409.22
  Q 546.23 408.69 546.76 408.69
  L 572.53 408.69
  A 0.55 0.55 0.0 0 1 573.08 409.24
  L 573.08 412.93
  Q 573.08 413.41 572.59 413.40
  Q 564.90 413.15 561.00 419.26
  Q 557.74 424.36 543.71 446.76
  A 5.90 5.87 -29.2 0 0 542.82 449.87
  Q 542.78 464.28 542.82 470.50
  C 542.85 474.40 546.06 476.10 549.55 475.88
  Q 549.99 475.85 550.04 476.29
  L 550.45 480.01
  Q 550.50 480.51 549.99 480.51
  L 517.52 480.51
  Q 517.03 480.51 517.03 480.02
  L 517.03 476.45
  Q 517.03 475.84 517.64 475.90
  Q 519.49 476.08 521.85 475.11
  C 524.15 474.17 524.17 472.71 524.45 470.70
  Q 524.58 469.79 524.56 450.28
  Q 524.55 448.34 523.63 446.73
  Q 520.93 442.06 507.12 419.58
  C 504.17 414.78 500.77 413.57 495.21 413.28
  Q 494.92 413.27 494.92 412.98
  L 494.92 409.02
  A 0.33 0.33 0.0 0 1 495.25 408.69
  L 530.27 408.69
  Q 530.82 408.69 530.82 409.24
  L 530.82 412.72
  Q 530.82 413.26 530.28 413.32
  L 527.50 413.63
  Z
  M 538.01 445.90
  Q 536.50 443.51 522.87 418.77
  Q 521.93 417.07 521.95 415.96
  Q 521.97 414.45 522.16 412.83
  Q 522.21 412.33 521.71 412.33
  L 507.03 412.33
  Q 506.19 412.33 506.82 412.90
  C 507.41 413.43 508.02 413.94 508.41 414.58
  Q 518.07 430.50 527.68 446.27
  A 3.21 3.20 29.4 0 1 528.15 447.94
  Q 528.18 471.19 528.23 472.48
  Q 528.32 474.52 527.09 475.88
  A 0.60 0.59 -69.1 0 0 527.53 476.87
  L 540.19 476.87
  Q 540.78 476.87 540.49 476.36
  L 539.36 474.44
  Q 539.12 474.02 539.12 473.54
  L 539.12 447.76
  Q 539.12 447.25 539.39 446.81
  Q 554.40 422.87 559.54 414.66
  C 559.89 414.10 560.61 413.38 561.21 412.93
  Q 562.03 412.32 561.01 412.32
  L 555.19 412.32
  Q 554.65 412.32 554.76 412.85
  Q 555.47 416.54 554.82 417.67
  Q 539.55 444.19 538.53 445.89
  Q 538.27 446.32 538.01 445.90
  Z"
/>
<path fill="#7ad8df" d="
  M 502.05 553.33
  C 501.01 552.65 499.74 552.20 498.66 551.56
  Q 464.11 531.27 461.98 530.01
  Q 459.88 528.76 457.00 528.80
  Q 443.11 528.98 294.79 528.93
  A 1.13 1.11 -80.5 0 0 293.73 529.70
  C 291.64 535.97 283.53 537.48 279.60 531.97
  Q 276.42 527.51 279.35 522.83
  C 283.22 516.64 291.73 518.43 293.89 525.04
  A 0.62 0.62 0.0 0 0 294.48 525.47
  Q 321.36 525.45 459.50 525.46
  Q 461.11 525.46 463.27 526.72
  Q 504.15 550.62 527.69 564.48
  A 3.80 3.74 59.7 0 0 529.58 564.99
  L 612.72 564.99
  Q 613.75 564.99 612.86 564.47
  L 564.98 536.45
  A 0.72 0.71 -46.7 0 0 564.21 536.48
  Q 558.08 540.75 553.42 536.97
  Q 550.94 534.96 550.48 531.87
  C 548.72 520.10 567.44 518.36 566.33 532.46
  Q 566.25 533.41 567.08 533.89
  L 620.33 564.63
  A 2.68 2.66 -29.7 0 0 621.67 564.99
  L 701.94 564.99
  A 0.73 0.72 22.2 0 0 702.45 564.78
  L 746.30 520.92
  A 0.82 0.81 54.8 0 0 746.46 519.98
  C 743.85 514.66 746.69 508.11 752.98 507.88
  C 766.29 507.42 762.92 528.20 749.89 523.17
  Q 749.12 522.88 748.54 523.46
  L 735.37 536.63
  A 0.55 0.54 -67.4 0 0 735.75 537.56
  L 895.50 537.56
  A 0.77 0.76 -78.2 0 0 896.20 537.09
  C 896.51 536.35 897.32 534.26 898.21 533.50
  C 907.71 525.42 917.65 539.61 908.52 546.01
  Q 906.32 547.55 903.04 547.35
  Q 898.85 547.10 896.32 541.85
  Q 895.93 541.03 895.02 541.03
  L 731.80 541.03
  A 1.58 1.54 -67.0 0 0 730.70 541.49
  Q 710.62 561.90 688.31 584.32
  C 687.28 585.35 685.17 585.13 683.67 585.13
  Q 620.45 585.13 557.46 585.12
  A 4.82 4.78 59.9 0 1 555.05 584.47
  Q 528.19 568.81 510.26 558.33
  Q 508.75 557.44 506.05 557.45
  Q 484.76 557.49 427.77 557.45
  A 5.27 5.23 -60.0 0 0 425.12 558.17
  L 321.71 618.65
  Q 319.95 619.68 321.98 619.68
  L 404.21 619.68
  A 5.47 5.45 -60.1 0 0 406.97 618.93
  L 462.83 586.26
  Q 463.57 585.82 463.48 584.96
  Q 462.84 579.46 466.52 576.92
  Q 471.38 573.56 475.64 576.40
  C 485.27 582.84 474.88 597.07 465.90 589.35
  A 0.90 0.89 49.8 0 0 464.86 589.26
  L 408.07 622.47
  A 5.22 5.20 29.9 0 1 405.46 623.17
  L 109.26 623.17
  A 0.94 0.93 -82.2 0 0 108.36 623.86
  C 106.73 629.75 99.45 631.40 95.08 627.20
  C 88.79 621.15 95.97 609.73 104.49 614.23
  Q 107.48 615.81 108.50 619.15
  A 0.79 0.78 -8.5 0 0 109.25 619.70
  L 311.73 619.70
  A 4.71 4.64 -59.7 0 0 314.07 619.07
  L 362.18 590.93
  Q 363.26 590.29 362.01 590.29
  L 181.01 590.29
  A 0.75 0.74 -80.6 0 0 180.31 590.80
  C 177.98 597.81 169.02 599.06 165.45 592.22
  Q 163.17 587.87 166.10 583.88
  C 170.27 578.20 178.45 579.80 180.39 586.39
  A 0.60 0.60 0.0 0 0 180.97 586.83
  L 368.26 586.83
  A 3.11 3.05 29.0 0 0 369.85 586.39
  Q 388.19 575.60 423.31 555.07
  Q 425.19 553.98 427.00 553.98
  Q 469.12 553.94 501.87 553.94
  A 0.33 0.33 0.0 0 0 502.05 553.33
  Z
  M 698.73 568.99
  A 0.31 0.31 0.0 0 0 698.51 568.46
  L 535.47 568.46
  A 0.31 0.31 0.0 0 0 535.31 569.04
  L 557.18 581.66
  A 0.31 0.31 0.0 0 0 557.33 581.70
  L 685.88 581.70
  A 0.31 0.31 0.0 0 0 686.10 581.61
  L 698.73 568.99
  Z"
/>
</svg>
