<?xml version="1.0" encoding="UTF-8" standalone="no"?>
<!DOCTYPE svg PUBLIC "-//W3C//DTD SVG 1.1//EN" "http://www.w3.org/Graphics/SVG/1.1/DTD/svg11.dtd">
<svg width="100%" height="100%" viewBox="0 0 1067 1064" version="1.1" xmlns="http://www.w3.org/2000/svg" xmlns:xlink="http://www.w3.org/1999/xlink" xml:space="preserve" xmlns:serif="http://www.serif.com/" style="fill-rule:evenodd;clip-rule:evenodd;stroke-linejoin:round;stroke-miterlimit:2;">
    <g transform="matrix(1,0,0,1,-1,0)">
        <g transform="matrix(1.47095,0,0,1.47095,-251.252,-172.347)">
            <path d="M606.47,551.14C609.677,553.127 611.23,556.38 611.13,560.9C611.117,561.367 611.343,561.603 611.81,561.61C648.57,562.197 684.23,570 718.79,585.02C718.802,585.025 718.815,585.03 718.827,585.035C719.066,585.117 719.328,584.992 719.409,584.759C719.413,584.746 719.417,584.733 719.42,584.72L782.88,338.38C782.891,338.336 782.896,338.29 782.896,338.244C782.896,337.977 782.711,337.742 782.45,337.68L768.85,334.57C768.63,334.523 768.547,334.393 768.6,334.18L771.68,321.44C771.74,321.187 771.9,321.073 772.16,321.1L798.65,323.51C798.66,323.511 798.671,323.513 798.681,323.515C798.951,323.563 799.135,323.82 799.088,324.085C799.086,324.097 799.083,324.108 799.08,324.12L729.92,600.3C729.885,600.449 729.752,600.555 729.599,600.555C729.547,600.555 729.496,600.543 729.45,600.52C692.39,582.41 652.46,569.75 611.34,565.32C611.193,565.307 611.12,565.373 611.12,565.52L611.12,574.29C611.12,574.497 611.223,574.613 611.43,574.64C621.323,575.947 629.71,577.367 636.59,578.9C672.25,586.84 706.07,599.763 738.05,617.67C738.123,617.709 738.204,617.73 738.287,617.73C738.513,617.73 738.711,617.578 738.77,617.36L804.18,363.41C804.193,363.36 804.2,363.308 804.2,363.256C804.2,362.975 804.004,362.731 803.73,362.67L792.72,360.16C792.595,360.126 792.518,359.996 792.55,359.87L795.84,346.74C795.938,346.347 796.313,346.084 796.71,346.13L819.41,348.76C819.93,348.82 820.127,349.107 820,349.62L747.88,637.63C747.829,637.834 747.644,637.978 747.434,637.978C747.331,637.978 747.231,637.943 747.15,637.88C723.43,619.813 697.567,605.23 669.56,594.13C650.587,586.61 631.44,580.497 612.12,575.79C612.089,575.782 612.057,575.777 612.025,575.773C611.589,575.72 611.188,576.031 611.136,576.461C611.132,576.494 611.13,576.527 611.13,576.56C611.137,586.113 611.123,591.41 611.09,592.45C610.983,595.703 609.747,598.223 607.38,600.01C606.027,601.023 603.66,601.903 600.28,602.65C595.387,603.723 590.51,604.763 585.65,605.77C548.017,613.543 509.807,613.613 471.02,605.98C470.44,605.86 464.963,604.69 454.59,602.47C450.877,601.67 448.367,600.637 447.06,599.37C444.907,597.283 443.893,594.507 444.02,591.04C444.053,590.033 444.083,585.897 444.11,578.63C444.11,578.615 444.109,578.601 444.107,578.586C444.084,578.412 443.917,578.289 443.738,578.313C443.725,578.314 443.712,578.317 443.7,578.32C398.4,590.39 355.34,609.4 318.57,637.86C318.473,637.934 318.353,637.974 318.231,637.974C317.978,637.974 317.756,637.804 317.69,637.56L245.56,349.51C245.407,348.883 245.65,348.543 246.29,348.49L269.24,346.37C269.448,346.354 269.636,346.491 269.68,346.69L273.06,359.8C273.067,359.825 273.07,359.852 273.07,359.878C273.07,360.017 272.975,360.138 272.84,360.17L261.87,362.68C261.457,362.773 261.303,363.027 261.41,363.44L326.79,617.2C326.797,617.227 326.805,617.253 326.815,617.279C326.94,617.595 327.308,617.75 327.629,617.623C327.653,617.614 327.677,617.603 327.7,617.59C364.173,597.17 402.88,583.307 443.82,576C443.98,575.973 444.06,575.877 444.06,575.71L444.06,566.79C444.06,566.637 443.983,566.57 443.83,566.59C406.74,571.83 370.13,584.01 336.15,600.5C336.103,600.523 336.052,600.535 335.999,600.535C335.845,600.535 335.709,600.43 335.67,600.28L266.59,324.42C266.45,323.86 266.667,323.553 267.24,323.5L293.32,321.1C293.568,321.079 293.797,321.245 293.86,321.49L297,334.01C297.001,334.013 297.001,334.016 297.002,334.019C297.063,334.275 296.897,334.537 296.636,334.599C296.634,334.599 296.632,334.6 296.63,334.6L282.99,337.72C282.988,337.72 282.986,337.721 282.984,337.721C282.761,337.778 282.623,338.004 282.678,338.222C282.679,338.225 282.679,338.227 282.68,338.23L346.24,584.94C346.242,584.946 346.244,584.952 346.246,584.958C346.294,585.092 346.439,585.165 346.568,585.119C346.576,585.116 346.583,585.113 346.59,585.11C377.463,571.61 409.75,563.87 443.45,561.89L443.456,561.89C443.822,561.865 444.104,561.548 444.08,561.187L444.08,561.18C443.72,556.427 445.503,552.92 449.43,550.66C449.817,550.44 449.79,550.327 449.35,550.32C417.403,549.78 386.427,555.313 356.42,566.92C356.407,566.925 356.394,566.93 356.381,566.934C356.104,567.024 355.802,566.866 355.71,566.585C355.706,566.573 355.703,566.562 355.7,566.55L288.92,290.12C288.912,290.087 288.908,290.053 288.908,290.018C288.908,289.797 289.079,289.609 289.3,289.59L319.56,286.8C319.92,286.767 320.143,286.923 320.23,287.27L323.31,299.59C323.312,299.6 323.315,299.609 323.317,299.619C323.4,300.022 323.142,300.421 322.744,300.504C322.733,300.506 322.721,300.508 322.71,300.51L305.03,303.37C304.81,303.408 304.647,303.6 304.647,303.823C304.647,303.859 304.652,303.895 304.66,303.93L366.42,550.59C366.52,550.97 366.763,551.127 367.15,551.06C370.477,550.5 374.343,549.84 378.75,549.08C406.01,544.38 433.223,543.907 460.39,547.66C460.677,547.7 460.82,547.573 460.82,547.28L460.82,535.46C460.819,535.195 460.627,534.969 460.37,534.93C433.483,531.003 406.76,531.467 380.2,536.32C379.973,536.36 379.833,536.267 379.78,536.04L316.24,257.96C316.23,257.916 316.225,257.871 316.225,257.825C316.225,257.524 316.451,257.267 316.75,257.23C348.477,253.763 379.983,255.383 411.27,262.09C411.659,262.17 412.061,262.018 412.3,261.7C414.667,258.533 416.92,256.067 419.06,254.3C422.12,251.76 426.05,249.75 428.98,246.51C431.887,243.283 435.31,239.737 439.25,235.87C439.7,235.427 439.899,234.788 439.78,234.17C438.133,225.457 436.753,216.37 435.64,206.91C434.84,200.043 434.603,194.83 434.93,191.27C435.48,185.35 441.36,186.8 445.51,188.3C454.83,191.67 462.84,197.8 470.98,204.48C472.558,205.774 474.871,205.714 476.38,204.34C480.753,200.353 483.667,197.65 485.12,196.23C490,191.45 494.26,189.13 500.6,192.11C522.48,202.37 534.897,208.183 537.85,209.55C546.563,213.577 555.907,219.987 565.88,228.78C581.973,242.96 594.507,259.847 603.48,279.44C603.481,279.442 603.481,279.443 603.482,279.445C603.553,279.599 603.746,279.664 603.91,279.59C648.31,258.02 700.21,251.9 749.02,257.25C749.347,257.29 749.473,257.467 749.4,257.78L685.85,535.86C685.791,536.143 685.51,536.33 685.22,536.28C654.873,530.807 624.713,530.96 594.74,536.74C594.427,536.8 594.27,536.99 594.27,537.31L594.27,548.93C594.271,549.165 594.465,549.358 594.7,549.358C594.727,549.358 594.754,549.355 594.78,549.35C629.48,543.217 664.073,543.857 698.56,551.27C698.84,551.33 699.017,551.22 699.09,550.94L760.88,304.19C760.895,304.131 760.902,304.071 760.902,304.01C760.902,303.654 760.642,303.347 760.29,303.29L742.63,300.51C742.627,300.509 742.623,300.509 742.62,300.508C742.405,300.464 742.263,300.255 742.306,300.046C742.308,300.04 742.309,300.035 742.31,300.03L745.2,287.38C745.293,286.96 745.553,286.77 745.98,286.81L776.45,289.59C776.683,289.61 776.773,289.737 776.72,289.97L709.88,566.64C709.877,566.651 709.874,566.661 709.871,566.672C709.793,566.912 709.536,567.047 709.301,566.971C709.291,566.968 709.28,566.964 709.27,566.96C675.99,554.073 641.757,548.667 606.57,550.74C606.459,550.752 606.375,550.847 606.375,550.959C606.375,551.031 606.41,551.099 606.47,551.14ZM444.21,199.61C444.209,199.557 444.213,199.504 444.221,199.452C444.304,198.92 444.813,198.552 445.35,198.635C445.401,198.643 445.451,198.654 445.5,198.67C447.933,199.45 450.28,200.567 452.54,202.02C457.94,205.493 462.887,208.867 467.38,212.14C467.433,212.18 467.483,212.193 467.53,212.18C467.617,212.153 467.64,212.123 467.6,212.09C460.853,206.53 453.657,201.617 446.01,197.35C445.696,197.176 445.343,197.084 444.984,197.084C444.108,197.084 443.319,197.63 443.01,198.45C442.22,200.54 442.61,203.12 443.35,205.37C445.87,212.95 447.23,220.873 447.43,229.14C447.443,229.493 447.603,229.76 447.91,229.94C448.163,230.087 448.437,230.11 448.73,230.01C449.043,229.897 449.263,229.687 449.39,229.38C449.677,228.673 449.83,227.717 449.85,226.51C449.97,220.47 449.43,215.72 447.42,209.89C446.76,207.96 444.25,203.18 444.21,199.61ZM511.17,220.51C524.357,227.937 536.74,236.043 548.32,244.83C562.46,255.55 572.8,268.06 582.95,282.63C592.257,295.97 598.133,310.703 600.58,326.83C601.267,331.363 602.537,341.683 604.39,357.79C605.223,365.003 606.43,371.333 608.01,376.78C612.91,393.65 623.37,407.49 635.39,420.75C635.477,420.85 635.567,420.85 635.66,420.75L635.67,420.75C635.75,420.67 635.75,420.58 635.67,420.48C631.65,415.493 627.1,409.333 622.02,402C613.347,389.473 608.113,375.58 606.32,360.32C604.38,343.85 603.28,328.28 599.42,313.82C595.67,299.76 588.45,287.25 579.76,274.9C574.52,267.46 568.517,260.593 561.75,254.3C546.657,240.26 529.703,228.97 510.89,220.43C510.87,220.423 510.867,220.413 510.88,220.4L510.88,220.38L510.89,220.38C510.937,220.4 510.973,220.413 511,220.42C511.053,220.447 511.11,220.477 511.17,220.51ZM428.79,275.61C421.27,274 420.1,267.36 420.95,260.72C420.993,260.413 420.858,260.104 420.6,259.92C419.993,259.487 419.497,259.58 419.11,260.2C415.817,265.513 413.8,271.193 413.06,277.24C412.924,278.328 413.62,279.36 414.68,279.64C415.947,279.98 417.453,280.07 419.2,279.91C424.967,279.383 430.983,278.283 437.25,276.61C437.35,276.583 437.39,276.52 437.37,276.42L437.33,276.14C437.317,276.06 437.27,276.023 437.19,276.03C434.137,276.297 431.337,276.157 428.79,275.61ZM594.27,525.04L594.27,531.46C594.27,531.833 594.45,531.963 594.81,531.85C620.597,523.857 646.903,521 673.73,523.28C674.023,523.303 674.292,523.106 674.36,522.82L734.24,272.2C734.24,272.198 734.241,272.196 734.241,272.194C734.297,271.942 734.132,271.688 733.875,271.631C733.873,271.631 733.872,271.63 733.87,271.63C690.037,263.11 647.48,267.327 606.2,284.28C605.902,284.409 605.758,284.754 605.88,285.05C609.24,293.357 611.927,301.977 613.94,310.91C614.8,314.743 615.887,321.317 617.2,330.63C619.087,344.023 620.883,356.297 622.59,367.45C624.043,376.923 626.027,385.287 628.54,392.54C629.28,394.673 630.693,397.957 632.78,402.39C636.08,409.39 638.44,414.86 639.63,421.54C639.665,421.738 639.683,421.939 639.683,422.14C639.683,424.016 638.139,425.56 636.263,425.56L617.18,425.56C617.03,425.56 616.88,425.568 616.73,425.585C614.533,425.831 612.929,427.847 613.176,430.049C613.192,430.197 613.217,430.345 613.25,430.49C617.81,450.6 620.91,470.63 620.25,490.62C620.11,494.98 620.06,500.1 618.45,503C617.303,505.06 615.5,506.593 613.04,507.6C599.85,513 590.57,512.51 572.75,512.52C536.497,512.547 500.247,512.553 464,512.54C459.327,512.54 452.623,511.44 443.89,509.24C437.76,507.7 433.53,504.84 432.04,499C431.507,496.907 431.857,493.24 433.09,488C435.73,476.82 438.987,466.35 442.86,456.59C447.32,445.36 453.25,433.71 461.3,425.3C475.08,410.91 487.81,394.14 496.25,375.78C500.937,365.58 503.413,354.903 503.68,343.75C503.713,342.31 503.34,338.643 502.56,332.75C502.04,328.77 500.58,325.96 496.69,325.31C495.223,325.057 493.073,325.577 490.24,326.87C484.873,329.317 480.56,331.2 477.3,332.52C467.31,336.57 456.76,336.77 445.58,336.32C442.97,336.22 438.93,336.94 436.76,338.23C422.433,346.743 412.733,352.46 407.66,355.38C403.227,357.94 398.357,358.74 393.05,357.78C385.85,356.487 380.543,355.34 377.13,354.34C373.31,353.22 364.02,350.29 367.26,344.78C375.213,331.22 385.47,313.69 398.03,292.19C401.4,286.42 402.86,282.01 404.78,276.28C405.14,275.2 405.967,273.227 407.26,270.36C407.289,270.295 407.304,270.225 407.304,270.154C407.304,269.908 407.123,269.697 406.88,269.66C381.68,266.007 356.57,266.69 331.55,271.71C331.417,271.739 331.322,271.858 331.322,271.993C331.322,272.016 331.325,272.038 331.33,272.06L391.24,522.82C391.308,523.101 391.572,523.293 391.86,523.27C415.053,521.337 437.84,523.19 460.22,528.83C460.259,528.84 460.3,528.845 460.34,528.845C460.612,528.845 460.837,528.622 460.84,528.35L460.84,525.08C460.84,524.753 461.003,524.59 461.33,524.59L593.83,524.59C594.123,524.59 594.27,524.74 594.27,525.04ZM401.48,299.12C402.753,296.567 402.65,296.51 401.17,298.95C391.81,314.397 382.833,329.8 374.24,345.16C374.203,345.223 374.184,345.294 374.184,345.367C374.184,345.592 374.369,345.777 374.594,345.777C374.644,345.777 374.693,345.768 374.74,345.75C374.78,345.73 374.897,345.597 375.09,345.35C377.87,341.717 380.617,337.547 383.33,332.84C389.83,321.58 395.88,310.34 401.48,299.12ZM433.72,326.35C433.693,326.357 433.667,326.367 433.64,326.38C441.787,325.467 450.167,324.203 458.78,322.59C466.57,321.13 471.96,318.01 478.8,313.48C478.893,313.42 478.917,313.34 478.87,313.24L478.86,313.23C478.807,313.117 478.723,313.087 478.61,313.14C467.39,318.37 459.2,321.63 447.79,323.53C442.937,324.337 438.247,325.277 433.72,326.35ZM457.46,499.2C453.44,494.85 450.17,493.01 451.61,486.06C452.437,482.067 454.007,477.32 456.32,471.82C462.72,456.573 470.03,440.86 478.25,424.68C478.29,424.593 478.263,424.51 478.17,424.43C478.077,424.35 477.993,424.37 477.92,424.49C470.68,435.59 464.19,445.997 458.45,455.71C455.283,461.077 453.033,465.49 451.7,468.95C449.407,474.897 448.607,481.583 449.3,489.01C449.75,493.84 453.38,497.24 457.26,499.46C457.887,499.82 457.953,499.733 457.46,499.2ZM594.63,436.2L594.63,436.15C594.63,436.143 594.627,436.14 594.62,436.14L594.6,436.14C594.587,436.14 594.58,436.147 594.58,436.16C597.31,454.63 599.58,470.15 600.65,486.04C601.17,493.71 601.7,498.03 599.4,503.82C598.587,505.873 598.823,506 600.11,504.2C603.31,499.74 603.01,495.95 602.68,489.84C601.72,472.1 599.147,454.557 594.96,437.21C594.853,436.757 594.753,436.45 594.66,436.29C594.64,436.257 594.63,436.227 594.63,436.2ZM498.669,534.452C498.68,534.376 497.787,534.181 496.69,534.021C495.594,533.862 494.683,533.792 494.671,533.868C494.66,533.944 495.553,534.139 496.65,534.298C497.746,534.458 498.657,534.528 498.669,534.452ZM530.68,537.83C542.62,539.277 552.897,540.713 561.51,542.14C561.522,542.136 561.529,542.124 561.529,542.112C561.529,542.104 561.526,542.096 561.52,542.09C560.253,541.677 558.91,541.323 557.49,541.03C549.19,539.303 540.297,537.863 530.81,536.71C521.323,535.563 512.347,534.837 503.88,534.53C502.427,534.477 501.037,534.5 499.71,534.6C499.702,534.606 499.697,534.615 499.697,534.625C499.697,534.635 499.702,534.644 499.71,534.65C508.41,535.317 518.733,536.377 530.68,537.83ZM575.971,545.382C575.993,545.308 575.59,545.125 575.079,544.976C574.569,544.826 574.131,544.764 574.109,544.838C574.087,544.912 574.49,545.095 575.001,545.244C575.511,545.394 575.949,545.456 575.971,545.382ZM580.28,546.416C580.308,546.315 579.632,546.036 578.781,545.797C577.931,545.558 577.209,545.444 577.18,545.544C577.152,545.645 577.828,545.924 578.679,546.163C579.529,546.402 580.251,546.516 580.28,546.416ZM456.94,580.17L458.8,560.11C458.801,560.103 458.801,560.096 458.801,560.089C458.801,559.97 458.709,559.87 458.59,559.86L458.41,559.85C457.575,559.771 456.464,564.262 455.95,569.8C455.95,569.8 455.92,570.121 455.92,570.122C455.406,575.661 455.671,580.282 456.507,580.36L456.51,580.36L456.69,580.37C456.813,580.382 456.924,580.292 456.94,580.17ZM597.142,590.622L597.142,590.623C597.515,590.641 598.145,584.028 598.539,575.973C598.933,567.919 598.951,561.276 598.578,561.258L598.578,561.257C598.205,561.239 597.575,567.852 597.181,575.907C596.787,583.961 596.769,590.604 597.142,590.622ZM460.53,593.56C462.137,593.7 467.017,594.043 475.17,594.59C493.943,595.857 511.97,596.82 529.25,597.48C540.79,597.92 554.2,598.02 565.17,592.89C566.597,592.223 566.523,591.937 564.95,592.03C533.223,593.89 499.917,594.247 465.03,593.1C464.29,593.08 462.79,593.137 460.53,593.27C459.27,593.35 459.27,593.447 460.53,593.56Z" style="fill:rgb(217,174,92);fill-rule:nonzero;"/>
        </g>
        <g transform="matrix(1.47095,0,0,1.47095,-251.252,-172.347)">
            <path d="M867.46,717.46C867.36,716.493 867.063,716.43 866.57,717.27C857.257,733.203 851.027,743.99 847.88,749.63C846.52,752.063 845.68,754.617 845.36,757.29C845.167,758.87 844.663,758.977 843.85,757.61L819.88,717.34C819.46,716.633 819.207,716.69 819.12,717.51C818.567,722.777 817.387,733.777 815.58,750.51C815.15,754.46 817,754.81 820.25,755.67C820.497,755.737 820.58,755.89 820.5,756.13C820.46,756.257 820.38,756.34 820.26,756.38C820.207,756.407 820.147,756.42 820.08,756.42L801.02,756.42C800.773,756.42 800.65,756.297 800.65,756.05L800.65,755.69C800.65,755.517 800.737,755.43 800.91,755.43C805.85,755.47 808.627,753.003 809.24,748.03C810.113,740.997 812.693,721.01 816.98,688.07C817.187,686.497 817.703,686.387 818.53,687.74L847.73,735.8C847.828,735.962 848.003,736.061 848.192,736.061C848.385,736.061 848.564,735.957 848.66,735.79C864.073,709.31 873.5,693.197 876.94,687.45C877.08,687.21 877.243,687.043 877.43,686.95C877.5,686.915 877.577,686.897 877.654,686.897C877.904,686.897 878.117,687.083 878.15,687.33C883.143,724.943 885.863,745.403 886.31,748.71C886.917,753.177 889.643,755.393 894.49,755.36C894.737,755.353 894.86,755.477 894.86,755.73L894.86,756.03C894.86,756.238 894.688,756.41 894.48,756.41L866.37,756.41C866.237,756.41 866.17,756.347 866.17,756.22L866.17,755.88C866.17,755.667 866.277,755.557 866.49,755.55C869.92,755.46 871.3,753.55 870.93,750.08C869.283,734.827 868.127,723.953 867.46,717.46Z" style="fill:white;fill-rule:nonzero;"/>
        </g>
        <g transform="matrix(1.47095,0,0,1.47095,-251.252,-172.347)">
            <path d="M756.82,752.04C762.88,752.34 767.413,752.377 770.42,752.15C779.73,751.46 785.28,745.3 788.03,736.76C788.076,736.62 788.213,736.528 788.36,736.54L788.7,736.57C788.885,736.586 789.029,736.743 789.029,736.929C789.029,736.956 789.026,736.983 789.02,737.01L784.72,755.81C784.637,756.165 784.325,756.418 783.97,756.42L734.68,756.42C734.455,756.42 734.27,756.235 734.27,756.01L734.27,755.73C734.27,755.597 734.377,755.485 734.51,755.48C740.41,755.39 741.65,751.79 741.65,746.42C741.663,716.693 741.697,699.887 741.75,696C741.81,691.44 738.66,689.65 734.58,689.11C734.273,689.07 734.153,688.9 734.22,688.6C734.247,688.493 734.293,688.407 734.36,688.34C734.427,688.28 734.527,688.25 734.66,688.25C755.66,688.27 767.857,688.277 771.25,688.27C774.963,688.263 778.77,687.753 782.67,686.74C782.99,686.653 783.15,686.777 783.15,687.11L783.15,703.445C783.15,703.533 783.078,703.605 782.99,703.605C782.977,703.605 782.963,703.603 782.95,703.6L782.55,703.51C782.323,703.457 782.207,703.313 782.2,703.08C782.18,693.33 775.77,692.27 767.39,692.39C763.77,692.437 760.17,692.463 756.59,692.47C756.42,692.47 756.28,692.605 756.28,692.77L756.28,720.46C756.28,720.615 756.409,720.745 756.57,720.75C761.83,720.87 766.21,720.837 769.71,720.65C772.62,720.5 776.78,717.9 777.03,714.26C777.083,713.54 777.147,713.08 777.22,712.88C778,710.733 778.39,710.78 778.39,713.02L778.37,733.63C778.372,733.723 778.305,733.807 778.21,733.83L777.94,733.89C777.904,733.899 777.867,733.903 777.829,733.903C777.576,733.903 777.364,733.703 777.35,733.45C776.97,725.86 772.11,724.88 765.34,724.87C762.44,724.863 759.563,724.86 756.71,724.86C756.474,724.86 756.28,725.05 756.28,725.28L756.28,751.48C756.28,751.833 756.46,752.02 756.82,752.04Z" style="fill:white;fill-rule:nonzero;"/>
        </g>
        <g transform="matrix(1.47095,0,0,1.47095,-251.252,-172.347)">
            <path d="M687.99,688.15C696.123,688.143 702.377,688.143 706.75,688.15C710.83,688.15 714.79,687.633 718.63,686.6C718.95,686.513 719.11,686.633 719.11,686.96L719.11,702.97C719.11,703.21 718.987,703.33 718.74,703.33L718.43,703.33C718.33,703.33 718.273,703.283 718.26,703.19C718.153,702.55 718.013,701.557 717.84,700.21C717.21,695.24 713.24,692.44 708.25,692.31C704.21,692.197 700.077,692.177 695.85,692.25C695.483,692.257 695.3,692.447 695.3,692.82C695.3,714.607 695.31,733.163 695.33,748.49C695.33,751.51 697.34,755.24 700.73,755.2C701.277,755.2 701.597,755.22 701.69,755.26C703.37,755.967 703.3,756.33 701.48,756.35C697.28,756.383 692.79,756.403 688.01,756.41C683.23,756.41 678.743,756.393 674.55,756.36C672.723,756.34 672.65,755.977 674.33,755.27C674.423,755.23 674.743,755.21 675.29,755.21C678.68,755.25 680.69,751.52 680.69,748.5C680.697,733.173 680.693,714.617 680.68,692.83C680.68,692.457 680.497,692.267 680.13,692.26C675.903,692.187 671.77,692.21 667.73,692.33C662.74,692.46 658.77,695.26 658.14,700.23C657.967,701.577 657.827,702.57 657.72,703.21C657.707,703.303 657.65,703.35 657.55,703.35L657.24,703.35C656.993,703.35 656.87,703.23 656.87,702.99L656.86,686.98C656.86,686.653 657.02,686.533 657.34,686.62C661.18,687.653 665.14,688.167 669.22,688.16C673.6,688.153 679.857,688.15 687.99,688.15Z" style="fill:white;fill-rule:nonzero;"/>
        </g>
        <g transform="matrix(1.47095,0,0,1.47095,-251.252,-172.347)">
            <path d="M607.43,702.4C608.077,704.56 609.56,706.417 611.88,707.97C613.12,708.797 620.043,713.35 632.65,721.63C639.557,726.163 642.273,732.627 640.8,741.02C637.56,759.43 612.64,760.3 599.36,754.69C598.22,754.21 596.887,753.323 595.36,752.03C595.1,751.81 594.94,751.53 594.88,751.19C593.94,745.583 594.697,740.547 597.15,736.08C597.79,734.913 598.123,734.997 598.15,736.33C598.43,750.06 610.51,756.32 622.74,752.48C625.07,751.75 628.07,749.47 629.09,746.83C631.01,741.863 629.567,737.747 624.76,734.48C621.787,732.46 615.14,728.003 604.82,721.11C596.99,715.87 593.86,707.45 597.22,698.46C601.24,687.71 612.55,686.14 622.52,687.19C627.247,687.69 631.553,687.923 635.44,687.89L635.46,687.89C635.663,687.9 635.821,688.071 635.812,688.268C635.811,688.275 635.811,688.283 635.81,688.29L634.59,701.7C634.587,701.734 634.58,701.767 634.57,701.799C634.49,702.044 634.219,702.179 633.968,702.099C633.938,702.089 633.908,702.076 633.88,702.06L633.55,701.87C633.502,701.847 633.471,701.797 633.47,701.74C632.97,691.55 621.18,689.46 613.44,692.19C609.61,693.53 606.15,698.1 607.43,702.4Z" style="fill:white;fill-rule:nonzero;"/>
        </g>
        <g transform="matrix(1.47095,0,0,1.47095,-251.252,-172.347)">
            <path d="M549.66,720.01C549.675,720.035 549.692,720.058 549.713,720.079C549.843,720.212 550.057,720.217 550.186,720.09C550.207,720.069 550.225,720.046 550.24,720.02C557.74,706.993 562.213,699.207 563.66,696.66C565.087,694.153 565.007,692.067 563.42,690.4C562.55,689.48 561.31,689.36 560.14,688.99C559.807,688.883 559.76,688.703 560,688.45C560.147,688.297 560.397,688.223 560.75,688.23C565.17,688.297 572.413,688.29 582.48,688.21C582.66,688.21 582.77,688.297 582.81,688.47L582.89,688.79C582.896,688.813 582.898,688.837 582.898,688.86C582.898,689.02 582.77,689.154 582.61,689.16C577.663,689.353 573.88,691.557 571.26,695.77C566.673,703.117 560.637,712.737 553.15,724.63C552.823,725.153 552.65,725.756 552.65,726.37C552.65,735.043 552.657,741.853 552.67,746.8C552.68,751.96 553.96,755.28 559.49,755.37C559.67,755.37 559.78,755.457 559.82,755.63L559.89,755.93C559.897,755.959 559.901,755.99 559.901,756.02C559.901,756.234 559.724,756.41 559.511,756.41L530.66,756.41C530.633,756.41 530.61,756.387 530.61,756.36L530.58,756.04C530.547,755.713 530.69,755.537 531.01,755.51C535.657,755.09 537.993,752.913 538.02,748.98C538.067,742.22 538.07,734.73 538.03,726.51C538.03,725.713 537.808,724.933 537.39,724.26C531.683,714.94 525.963,705.523 520.23,696.01C517.583,691.617 513.757,689.33 508.75,689.15C508.712,689.148 508.674,689.141 508.638,689.128C508.442,689.058 508.336,688.844 508.404,688.652C508.417,688.616 508.436,688.581 508.46,688.55L508.65,688.3C508.677,688.267 508.71,688.25 508.75,688.25L540.12,688.25C540.44,688.25 540.637,688.407 540.71,688.72L540.79,689.05C540.793,689.06 540.794,689.07 540.794,689.08C540.794,689.138 540.748,689.187 540.69,689.19C539.13,689.243 538.093,689.46 537.58,689.84C535.447,691.433 534.96,693.293 536.12,695.42C540.913,704.213 545.427,712.41 549.66,720.01Z" style="fill:white;fill-rule:nonzero;"/>
        </g>
        <g transform="matrix(1.47095,0,0,1.47095,-251.252,-172.347)">
            <path d="M463.32,702.4C463.967,704.56 465.45,706.417 467.77,707.97C469.01,708.797 475.93,713.35 488.53,721.63C495.437,726.163 498.153,732.627 496.68,741.02C493.44,759.43 468.52,760.29 455.24,754.68C454.1,754.2 452.767,753.313 451.24,752.02C450.98,751.8 450.82,751.52 450.76,751.18C449.827,745.573 450.587,740.54 453.04,736.08C453.68,734.913 454.013,734.997 454.04,736.33C454.31,750.05 466.39,756.31 478.62,752.48C480.95,751.75 483.95,749.47 484.97,746.83C486.89,741.863 485.447,737.747 480.64,734.48C477.667,732.46 471.023,728.003 460.71,721.11C452.88,715.87 449.75,707.45 453.11,698.46C457.13,687.71 468.44,686.15 478.41,687.2C483.137,687.7 487.443,687.933 491.33,687.9L491.35,687.9C491.553,687.91 491.711,688.081 491.702,688.278C491.701,688.285 491.701,688.293 491.7,688.3L490.47,701.71C490.467,701.744 490.46,701.777 490.45,701.809C490.37,702.054 490.099,702.189 489.848,702.109C489.818,702.099 489.788,702.086 489.76,702.07L489.43,701.88C489.382,701.857 489.351,701.807 489.35,701.75C488.86,691.56 477.07,689.47 469.33,692.2C465.5,693.53 462.04,698.1 463.32,702.4Z" style="fill:white;fill-rule:nonzero;"/>
        </g>
        <g transform="matrix(1.47095,0,0,1.47095,-251.252,-172.347)">
            <path d="M366.28,751.48C366.273,751.833 366.45,752.02 366.81,752.04C372.877,752.34 377.413,752.377 380.42,752.15C389.73,751.46 395.28,745.3 398.03,736.76C398.076,736.62 398.213,736.528 398.36,736.54L398.7,736.57C398.885,736.586 399.029,736.743 399.029,736.929C399.029,736.956 399.026,736.983 399.02,737.01L394.72,755.81C394.637,756.165 394.325,756.418 393.97,756.42L344.67,756.41C344.445,756.41 344.26,756.225 344.26,756L344.26,755.72C344.26,755.587 344.367,755.475 344.5,755.47C350.4,755.38 351.64,751.78 351.64,746.41C351.667,716.683 351.707,699.877 351.76,695.99C351.82,691.43 348.67,689.64 344.59,689.09C344.283,689.05 344.163,688.88 344.23,688.58C344.257,688.473 344.303,688.387 344.37,688.32C344.437,688.26 344.537,688.23 344.67,688.23C365.67,688.257 377.867,688.267 381.26,688.26C384.973,688.26 388.78,687.753 392.68,686.74C393,686.653 393.16,686.777 393.16,687.11L393.16,703.445C393.16,703.533 393.088,703.605 393,703.605C392.987,703.605 392.973,703.603 392.96,703.6L392.56,703.51C392.333,703.457 392.217,703.313 392.21,703.08C392.19,693.33 385.78,692.27 377.4,692.38C373.78,692.427 370.18,692.453 366.6,692.46C366.43,692.46 366.29,692.595 366.29,692.76L366.28,720.45C366.28,720.605 366.409,720.735 366.57,720.74C371.83,720.867 376.21,720.837 379.71,720.65C382.62,720.5 386.79,717.9 387.04,714.26C387.093,713.54 387.157,713.08 387.23,712.88C388.01,710.733 388.4,710.78 388.4,713.02L388.37,733.63C388.372,733.723 388.305,733.807 388.21,733.83L387.94,733.89C387.904,733.899 387.867,733.903 387.829,733.903C387.576,733.903 387.364,733.703 387.35,733.45C386.97,725.86 382.11,724.88 375.34,724.87C372.44,724.857 369.563,724.85 366.71,724.85C366.474,724.85 366.28,725.04 366.28,725.27L366.28,751.48Z" style="fill:white;fill-rule:nonzero;"/>
        </g>
        <g transform="matrix(1.47095,0,0,1.47095,-251.252,-172.347)">
            <path d="M288.47,720.28C296.897,720.28 301.947,720.267 303.62,720.24C303.987,720.24 304.17,720.057 304.17,719.69C304.283,707.903 304.283,699.92 304.17,695.74C304.063,691.647 301.703,689.453 297.09,689.16C296.958,689.153 296.853,689.042 296.853,688.91C296.853,688.864 296.866,688.819 296.89,688.78L297.08,688.44C297.136,688.347 297.235,688.29 297.34,688.29L325.94,688.29C326.027,688.29 326.09,688.327 326.13,688.4L326.27,688.65C326.306,688.71 326.325,688.78 326.325,688.85C326.325,689.062 326.152,689.237 325.94,689.24C323.133,689.293 321.103,690.263 319.85,692.15C319.23,693.09 318.903,695.033 318.87,697.98C318.857,698.84 318.85,706.97 318.85,722.37C318.85,737.763 318.857,745.893 318.87,746.76C318.903,749.707 319.23,751.65 319.85,752.59C321.11,754.477 323.143,755.447 325.95,755.5C326.162,755.503 326.335,755.678 326.335,755.89C326.335,755.96 326.316,756.03 326.28,756.09L326.14,756.34C326.1,756.413 326.037,756.45 325.95,756.45L297.35,756.45C297.245,756.45 297.146,756.393 297.09,756.3L296.9,755.96C296.876,755.921 296.863,755.876 296.863,755.83C296.863,755.698 296.968,755.587 297.1,755.58C301.713,755.287 304.07,753.093 304.17,749C304.283,744.82 304.283,736.837 304.17,725.05C304.17,724.683 303.987,724.5 303.62,724.5C301.947,724.473 296.897,724.46 288.47,724.46C280.043,724.467 274.993,724.48 273.32,724.5C272.953,724.5 272.77,724.683 272.77,725.05C272.657,736.837 272.657,744.82 272.77,749C272.877,753.093 275.237,755.287 279.85,755.58C279.982,755.587 280.087,755.698 280.087,755.83C280.087,755.876 280.074,755.921 280.05,755.96L279.86,756.3C279.804,756.393 279.705,756.45 279.6,756.45L251,756.45C250.913,756.45 250.85,756.413 250.81,756.34L250.67,756.09C250.634,756.03 250.615,755.96 250.615,755.89C250.615,755.678 250.788,755.503 251,755.5C253.807,755.447 255.837,754.477 257.09,752.59C257.71,751.65 258.037,749.707 258.07,746.76C258.083,745.9 258.09,737.77 258.09,722.37C258.09,706.977 258.083,698.847 258.07,697.98C258.037,695.033 257.71,693.09 257.09,692.15C255.837,690.263 253.807,689.293 251,689.24C250.788,689.237 250.615,689.062 250.615,688.85C250.615,688.78 250.634,688.71 250.67,688.65L250.81,688.4C250.85,688.327 250.913,688.29 251,688.29L279.6,688.29C279.705,688.29 279.804,688.347 279.86,688.44L280.05,688.78C280.074,688.819 280.087,688.864 280.087,688.91C280.087,689.042 279.982,689.153 279.85,689.16C275.237,689.453 272.877,691.647 272.77,695.74C272.657,699.92 272.657,707.903 272.77,719.69C272.77,720.057 272.953,720.24 273.32,720.24C274.993,720.267 280.043,720.28 288.47,720.28Z" style="fill:white;fill-rule:nonzero;"/>
        </g>
        <g transform="matrix(1.47095,0,0,1.47095,-251.252,-172.347)">
            <path d="M204.43,756.41C199.65,756.41 195.16,756.393 190.96,756.36C189.14,756.34 189.07,755.977 190.75,755.27C190.843,755.23 191.163,755.21 191.71,755.21C195.1,755.25 197.11,751.52 197.11,748.5C197.123,733.167 197.123,714.607 197.11,692.82C197.11,692.447 196.927,692.257 196.56,692.25C192.333,692.183 188.2,692.207 184.16,692.32C179.17,692.45 175.2,695.25 174.57,700.22C174.397,701.567 174.257,702.56 174.15,703.2C174.137,703.293 174.08,703.343 173.98,703.35L173.67,703.35C173.423,703.35 173.3,703.23 173.3,702.99L173.29,686.97C173.29,686.643 173.45,686.523 173.77,686.61C177.61,687.643 181.573,688.16 185.66,688.16C190.033,688.153 196.287,688.15 204.42,688.15L223.19,688.15C227.27,688.15 231.23,687.633 235.07,686.6C235.39,686.513 235.55,686.637 235.55,686.97L235.54,702.98C235.54,703.22 235.417,703.34 235.17,703.34L234.86,703.34C234.76,703.34 234.703,703.293 234.69,703.2C234.583,702.56 234.443,701.567 234.27,700.22C233.65,695.25 229.68,692.44 224.69,692.31C220.643,692.197 216.507,692.177 212.28,692.25C211.913,692.257 211.73,692.447 211.73,692.82C211.73,714.607 211.737,733.163 211.75,748.49C211.75,751.51 213.76,755.25 217.15,755.21C217.697,755.21 218.017,755.23 218.11,755.27C219.79,755.977 219.72,756.337 217.9,756.35C213.7,756.39 209.21,756.41 204.43,756.41Z" style="fill:white;fill-rule:nonzero;"/>
        </g>
    </g>
</svg>
