<?xml version="1.0" encoding="UTF-8" standalone="no"?>
<!DOCTYPE svg PUBLIC "-//W3C//DTD SVG 1.1//EN" "http://www.w3.org/Graphics/SVG/1.1/DTD/svg11.dtd">
<svg xmlns="http://www.w3.org/2000/svg" version="1.1" viewBox="0.00 0.00 1773.00 1773.00">
<path fill="#d9ae5c" d="
  M 685.07 1097.92
  Q 685.75 1097.23 684.78 1097.23
  C 667.64 1097.19 648.83 1097.46 631.02 1098.70
  Q 540.54 1104.99 454.87 1138.20
  A 1.35 1.35 0.0 0 1 453.07 1137.26
  L 288.65 456.67
  A 1.04 1.03 79.5 0 1 289.52 455.40
  Q 326.83 450.72 364.10 448.65
  A 2.15 2.15 0.0 0 1 366.31 450.31
  L 373.32 480.99
  A 1.03 1.03 0.0 0 1 372.43 482.24
  Q 349.90 484.87 331.04 488.83
  Q 330.92 488.86 329.01 488.92
  Q 327.65 488.97 327.44 489.78
  C 327.15 490.93 328.03 493.70 328.24 494.52
  Q 337.18 530.18 478.77 1094.51
  Q 479.37 1096.90 479.60 1098.89
  A 0.83 0.83 0.0 0 0 480.60 1099.60
  Q 548.47 1085.21 619.04 1084.57
  Q 665.57 1084.16 710.86 1091.03
  A 0.98 0.98 0.0 0 0 711.99 1090.06
  L 711.99 1060.44
  A 0.95 0.95 0.0 0 0 711.17 1059.50
  Q 616.60 1045.69 523.15 1061.09
  Q 518.75 1061.82 513.60 1063.09
  A 0.96 0.96 0.0 0 1 512.44 1062.38
  L 355.62 376.10
  A 0.59 0.58 80.7 0 1 356.12 375.39
  Q 427.25 367.65 499.14 373.68
  Q 546.43 377.65 588.90 387.32
  Q 591.59 387.93 592.97 385.96
  Q 601.86 373.32 612.73 365.23
  Q 615.19 363.40 624.68 357.16
  C 626.51 355.95 628.76 354.12 630.38 352.37
  Q 647.68 333.67 658.84 322.83
  Q 660.60 321.12 660.19 318.83
  Q 654.96 289.97 652.08 268.50
  Q 649.15 246.69 648.29 231.78
  Q 647.66 220.92 648.01 213.03
  C 648.36 205.28 655.72 200.71 663.15 202.38
  C 690.51 208.53 714.78 226.78 736.50 244.99
  Q 741.05 248.81 745.96 247.48
  Q 748.75 246.72 753.33 242.47
  Q 766.54 230.22 772.22 224.81
  Q 781.49 215.98 785.87 214.08
  Q 793.22 210.91 800.94 212.20
  Q 805.16 212.90 814.68 217.32
  Q 852.89 235.03 895.91 255.03
  C 916.35 264.54 934.99 276.42 953.13 290.57
  Q 1025.26 346.83 1063.59 430.54
  Q 1063.72 430.83 1064.01 430.69
  C 1116.66 404.72 1174.39 387.90 1232.25 379.22
  Q 1327.43 364.95 1422.48 375.48
  Q 1423.13 375.55 1422.99 376.19
  L 1266.16 1062.44
  A 0.74 0.73 -77.9 0 1 1265.30 1063.00
  Q 1250.75 1060.13 1235.56 1058.16
  Q 1137.63 1045.42 1041.90 1063.85
  A 1.40 1.40 0.0 0 0 1040.77 1065.22
  L 1040.77 1094.25
  Q 1040.77 1095.04 1041.55 1094.94
  Q 1050.38 1093.84 1054.02 1093.20
  C 1120.81 1081.39 1188.97 1082.24 1256.54 1092.09
  Q 1275.56 1094.86 1294.52 1099.09
  Q 1296.20 1099.46 1297.75 1100.00
  A 0.62 0.62 0.0 0 0 1298.55 1099.57
  Q 1301.28 1089.07 1305.55 1072.03
  Q 1409.35 657.89 1450.66 493.43
  Q 1451.17 491.38 1450.71 489.82
  Q 1450.57 489.33 1450.06 489.23
  Q 1429.39 485.06 1407.86 482.45
  Q 1406.58 482.30 1405.90 482.01
  Q 1405.14 481.69 1405.32 480.89
  L 1412.56 449.22
  A 0.60 0.59 7.2 0 1 1413.15 448.77
  Q 1422.81 448.98 1437.84 450.19
  Q 1467.92 452.60 1489.10 455.56
  A 1.04 1.04 0.0 0 1 1489.97 456.83
  L 1325.53 1137.38
  A 1.21 1.19 -72.4 0 1 1323.93 1138.22
  Q 1203.87 1091.77 1074.61 1098.12
  Q 1072.76 1098.21 1071.66 1098.14
  Q 1069.52 1098.01 1071.23 1099.30
  C 1076.69 1103.42 1081.14 1109.63 1081.95 1116.50
  Q 1082.46 1120.85 1082.37 1124.76
  A 0.53 0.52 -89.5 0 0 1082.89 1125.30
  Q 1121.80 1125.29 1161.56 1130.71
  Q 1249.84 1142.74 1332.58 1176.44
  Q 1338.75 1178.95 1347.66 1183.16
  A 0.86 0.86 0.0 0 0 1348.86 1182.60
  L 1505.29 575.33
  Q 1505.79 573.41 1503.84 573.01
  L 1470.71 566.33
  Q 1469.84 566.15 1470.05 565.30
  L 1477.71 533.60
  A 1.36 1.34 -81.3 0 1 1479.10 532.57
  Q 1511.34 534.53 1543.55 539.66
  Q 1544.88 539.87 1544.55 541.18
  L 1375.21 1220.81
  A 0.65 0.64 20.0 0 1 1374.30 1221.23
  C 1296.21 1183.33 1212.38 1154.37 1128.06 1140.52
  Q 1101.79 1136.20 1089.47 1135.18
  Q 1086.23 1134.91 1083.43 1134.05
  A 0.89 0.89 0.0 0 0 1082.28 1134.90
  L 1082.28 1156.79
  A 0.85 0.84 -1.0 0 0 1083.16 1157.63
  Q 1087.01 1157.47 1094.35 1158.59
  C 1116.34 1161.97 1137.34 1165.68 1158.34 1170.71
  Q 1271.98 1197.89 1376.27 1253.02
  Q 1386.67 1258.51 1395.06 1263.43
  A 1.03 1.03 0.0 0 0 1396.57 1262.80
  L 1557.74 637.13
  A 2.01 2.00 -77.0 0 0 1556.20 634.66
  L 1530.04 629.39
  A 0.88 0.88 0.0 0 1 1529.34 628.55
  Q 1529.33 627.56 1529.65 626.18
  Q 1531.18 619.74 1536.78 597.80
  Q 1537.20 596.17 1537.95 595.03
  Q 1538.23 594.61 1538.74 594.64
  Q 1568.06 596.71 1595.62 601.30
  Q 1597.13 601.55 1596.76 603.04
  L 1419.05 1312.69
  A 1.11 1.10 -63.8 0 1 1417.30 1313.29
  Q 1360.17 1268.82 1294.10 1235.83
  C 1227.77 1202.72 1157.35 1177.83 1085.53 1160.28
  Q 1084.01 1159.91 1082.99 1159.83
  A 0.74 0.73 1.8 0 0 1082.20 1160.57
  Q 1082.36 1178.23 1082.31 1197.79
  C 1082.28 1207.52 1079.22 1216.03 1071.03 1221.15
  Q 1067.47 1223.37 1058.19 1225.23
  C 1048.44 1227.19 1034.04 1230.93 1024.44 1232.97
  Q 908.43 1257.56 790.32 1242.91
  Q 745.07 1237.30 700.83 1226.42
  Q 697.72 1225.65 694.28 1225.06
  C 690.62 1224.43 688.16 1224.18 685.58 1223.11
  C 676.19 1219.21 670.81 1210.05 670.73 1199.77
  Q 670.63 1185.41 670.62 1167.01
  A 0.89 0.89 0.0 0 0 669.45 1166.17
  Q 667.98 1166.66 666.64 1167.03
  C 600.71 1185.28 538.12 1208.46 478.41 1238.91
  Q 416.18 1270.65 362.10 1312.63
  A 3.46 3.39 18.2 0 1 360.82 1313.26
  Q 359.76 1313.54 359.45 1312.29
  Q 271.59 961.41 183.77 610.52
  Q 182.70 606.21 181.50 602.53
  Q 181.20 601.59 182.17 601.43
  Q 210.02 596.72 239.76 594.73
  A 1.61 1.60 80.9 0 1 241.42 595.94
  L 249.51 628.41
  A 0.78 0.77 -12.6 0 1 248.91 629.35
  L 221.88 634.78
  A 1.50 1.50 0.0 0 0 220.72 636.62
  L 382.13 1263.08
  A 0.92 0.92 0.0 0 0 383.52 1263.62
  Q 386.21 1261.86 386.60 1261.64
  Q 489.11 1204.42 605.56 1174.31
  Q 636.45 1166.33 669.84 1160.94
  Q 670.67 1160.81 670.67 1159.97
  L 670.67 1138.21
  A 0.86 0.86 0.0 0 0 669.66 1137.36
  Q 668.99 1137.47 652.54 1140.14
  C 569.33 1153.60 484.71 1182.16 408.20 1219.44
  Q 406.03 1220.50 403.97 1220.90
  Q 403.46 1221.00 403.33 1220.49
  L 234.02 540.93
  A 0.86 0.85 74.9 0 1 234.61 539.90
  Q 236.17 539.45 237.05 539.32
  Q 268.49 534.45 299.58 532.58
  A 1.32 1.32 0.0 0 1 300.95 533.59
  L 308.43 564.54
  Q 308.83 566.19 307.16 566.52
  L 273.56 573.27
  A 0.70 0.70 0.0 0 0 273.01 574.14
  L 429.85 1182.89
  A 0.48 0.48 0.0 0 0 430.51 1183.21
  Q 468.35 1166.13 512.04 1153.26
  Q 570.61 1136.00 628.51 1129.23
  Q 648.71 1126.87 669.61 1125.98
  Q 670.47 1125.94 670.52 1125.08
  C 670.74 1120.89 670.58 1117.12 671.67 1113.41
  Q 674.24 1104.64 681.80 1099.42
  C 682.79 1098.73 684.39 1098.61 685.07 1097.92
  Z
  M 671.24 231.72
  A 1.48 1.48 0.0 0 1 672.89 230.58
  C 678.52 231.38 684.68 235.35 689.58 238.23
  Q 694.84 241.32 718.08 257.06
  C 721.82 259.59 724.78 261.97 729.27 264.87
  Q 733.15 267.39 736.55 270.45
  Q 737.60 271.39 737.66 271.36
  Q 737.83 271.28 736.88 270.41
  Q 733.82 267.58 730.48 265.11
  Q 724.74 260.88 723.67 260.04
  Q 713.90 252.47 702.56 244.54
  Q 689.96 235.73 681.69 231.46
  Q 675.08 228.05 672.73 227.58
  C 665.96 226.24 667.05 240.71 667.92 243.58
  Q 673.52 262.14 674.23 265.33
  Q 678.69 285.39 679.10 306.38
  A 1.81 1.80 -0.5 0 0 680.91 308.15
  Q 684.42 308.14 684.71 304.15
  Q 685.59 292.02 684.00 279.48
  Q 682.69 269.13 680.73 263.79
  Q 673.67 244.55 672.25 241.10
  Q 670.22 236.17 671.24 231.72
  Z
  M 919.57 333.99
  C 892.59 313.50 861.37 297.67 832.11 282.55
  Q 832.00 282.49 831.78 282.52
  L 831.76 282.53
  Q 831.43 282.58 831.93 282.86
  Q 857.48 297.42 864.47 301.70
  Q 905.56 326.81 939.34 354.22
  Q 962.51 373.01 983.54 398.73
  C 998.55 417.08 1012.44 436.42 1024.76 456.48
  Q 1029.55 464.29 1033.48 472.74
  Q 1051.63 511.83 1057.31 553.01
  C 1061.15 580.83 1063.97 618.02 1069.74 649.36
  C 1076.24 684.62 1091.47 715.74 1113.44 743.88
  Q 1125.34 759.12 1139.14 775.20
  Q 1140.83 777.17 1142.69 778.72
  Q 1142.83 778.84 1142.97 778.72
  Q 1143.21 778.49 1143.03 778.25
  Q 1126.70 756.81 1117.34 743.94
  Q 1099.45 719.32 1087.60 693.68
  Q 1078.40 673.76 1074.38 652.19
  C 1065.61 605.17 1065.33 564.51 1055.29 521.66
  C 1050.24 500.10 1041.42 478.47 1031.12 460.14
  Q 1013.69 429.14 992.87 402.82
  Q 974.57 379.68 950.90 359.50
  Q 932.46 343.78 919.57 333.99
  Z
  M 619.72 413.24
  C 613.16 405.98 612.15 395.11 613.84 385.71
  C 614.20 383.72 614.16 382.06 611.92 381.58
  C 610.12 381.19 608.92 382.88 608.16 384.18
  Q 602.53 393.83 598.69 405.59
  C 596.22 413.17 594.51 418.96 594.58 426.15
  C 594.62 429.77 599.00 431.28 602.01 431.31
  C 618.02 431.45 633.20 427.99 648.81 424.18
  C 650.65 423.73 653.14 423.77 655.09 422.94
  Q 656.45 422.37 654.98 422.24
  C 653.66 422.12 651.10 421.85 649.34 421.97
  C 639.31 422.67 626.84 421.13 619.72 413.24
  Z
  M 712.00 1034.16
  A 0.30 0.30 0.0 0 1 712.30 1033.86
  Q 982.69 1033.95 1032.59 1033.83
  Q 1036.57 1033.82 1040.01 1033.32
  A 0.71 0.71 0.0 0 1 1040.82 1034.02
  L 1040.82 1051.21
  A 0.90 0.90 0.0 0 0 1042.05 1052.05
  Q 1044.87 1050.94 1049.36 1049.60
  Q 1136.17 1023.72 1229.53 1030.06
  Q 1234.25 1030.38 1236.58 1030.96
  A 1.05 1.04 -76.4 0 0 1237.85 1030.18
  L 1385.43 412.51
  A 1.40 1.39 12.3 0 0 1384.34 410.82
  Q 1222.57 379.36 1070.29 441.96
  Q 1068.82 442.56 1069.41 444.03
  C 1082.31 476.22 1091.00 509.50 1095.54 543.86
  Q 1100.32 579.97 1108.62 635.04
  Q 1112.98 663.96 1118.14 685.25
  Q 1122.74 704.24 1130.78 722.82
  Q 1131.15 723.67 1138.21 738.40
  C 1143.96 750.40 1149.12 763.44 1151.88 776.51
  Q 1153.06 782.14 1151.79 785.09
  Q 1149.71 789.91 1142.75 789.93
  Q 1122.17 789.99 1101.59 789.92
  C 1095.20 789.90 1090.80 790.37 1088.07 796.24
  C 1086.63 799.36 1087.68 803.82 1088.45 807.02
  Q 1101.04 859.05 1104.56 912.51
  Q 1106.16 936.87 1103.81 964.62
  Q 1102.89 975.50 1100.96 979.66
  Q 1097.43 987.27 1089.37 990.87
  Q 1064.60 1001.93 1038.00 1003.80
  Q 1032.35 1004.20 1017.99 1004.20
  Q 731.29 1004.16 719.26 1004.08
  Q 710.59 1004.02 703.34 1002.88
  Q 684.57 999.94 665.42 994.89
  C 651.25 991.15 641.35 979.58 640.33 964.90
  Q 640.04 960.65 641.68 952.81
  C 645.18 936.11 649.80 919.49 654.70 903.47
  Q 663.21 875.67 674.76 849.99
  Q 683.77 829.94 695.11 812.45
  Q 699.22 806.12 704.08 800.11
  C 714.91 786.71 728.55 773.23 737.37 762.62
  Q 749.63 747.89 764.73 726.73
  Q 783.63 700.24 797.32 672.10
  Q 798.97 668.72 805.96 650.85
  Q 808.80 643.60 810.77 635.43
  C 812.92 626.49 814.98 620.59 815.58 614.51
  Q 817.06 599.34 817.58 588.99
  C 817.92 582.23 816.31 573.47 814.64 559.93
  C 813.96 554.42 812.72 550.26 808.69 547.02
  Q 799.82 539.91 789.00 544.88
  Q 788.69 545.02 765.17 555.50
  Q 753.60 560.66 746.62 562.98
  Q 728.01 569.17 708.35 570.38
  C 699.64 570.91 689.06 570.57 679.97 570.34
  C 667.07 570.02 658.70 571.07 648.16 577.42
  Q 634.14 585.87 580.95 617.19
  Q 567.28 625.24 552.34 623.76
  Q 530.52 621.61 502.97 613.60
  C 497.03 611.88 484.44 607.20 481.34 601.51
  Q 478.49 596.26 481.63 590.89
  Q 520.77 523.97 558.92 458.81
  C 562.44 452.80 565.73 446.42 567.68 440.68
  C 572.90 425.33 575.26 418.35 580.31 407.47
  A 0.96 0.96 0.0 0 0 579.58 406.12
  Q 500.20 394.37 420.08 406.37
  Q 405.33 408.58 393.85 410.92
  A 0.99 0.99 0.0 0 0 393.09 412.11
  L 540.81 1030.34
  A 0.51 0.51 0.0 0 0 541.34 1030.73
  Q 627.32 1023.31 710.88 1044.48
  A 0.90 0.90 0.0 0 0 712.00 1043.61
  L 712.00 1034.16
  Z
  M 569.23 471.46
  Q 568.00 473.14 564.59 478.85
  Q 534.90 528.52 515.18 562.67
  Q 506.66 577.44 499.63 590.91
  Q 498.94 592.24 498.89 592.68
  Q 498.58 595.14 500.14 593.26
  Q 504.37 588.16 506.27 585.29
  C 529.33 550.45 548.57 512.38 569.31 471.82
  Q 569.42 471.60 569.40 471.21
  A 0.04 0.04 0.0 0 0 569.33 471.20
  Q 569.26 471.43 569.23 471.46
  Z
  M 640.84 546.22
  Q 644.19 546.19 648.52 545.46
  C 654.00 544.53 659.16 544.23 664.69 543.36
  Q 666.00 543.16 670.54 542.46
  Q 698.42 538.16 709.66 535.81
  Q 718.32 533.99 724.43 531.70
  C 734.83 527.81 743.27 522.14 753.21 515.82
  Q 763.00 509.59 752.52 514.58
  Q 742.92 519.16 730.75 524.25
  Q 717.98 529.58 710.68 531.67
  Q 698.94 535.02 681.47 538.37
  Q 673.49 539.91 665.70 541.44
  Q 665.38 541.51 655.21 543.22
  Q 650.19 544.07 644.84 545.57
  C 643.47 545.95 642.10 545.76 640.82 546.06
  A 0.08 0.08 0.0 0 0 640.84 546.22
  Z
  M 704.87 972.14
  C 696.36 964.96 687.87 957.22 688.39 945.20
  Q 688.54 941.65 691.08 931.89
  Q 692.90 924.87 695.15 918.89
  Q 703.52 896.69 714.58 872.31
  Q 733.28 831.07 753.96 789.40
  Q 757.88 781.50 753.11 788.91
  Q 727.94 827.99 710.02 857.53
  Q 698.79 876.03 690.72 893.89
  C 683.89 909.01 681.92 928.77 683.39 945.18
  C 684.55 958.27 693.23 966.15 704.12 972.65
  Q 704.25 972.73 704.38 972.65
  L 704.85 972.36
  Q 705.01 972.26 704.87 972.14
  Z
  M 1040.89 812.21
  Q 1040.83 811.95 1040.69 812.18
  L 1040.52 812.48
  Q 1040.49 812.52 1040.50 812.57
  Q 1042.14 819.29 1042.79 824.23
  Q 1044.95 840.79 1047.37 857.31
  Q 1049.13 869.34 1053.55 907.32
  C 1055.33 922.62 1056.84 943.40 1057.48 953.31
  C 1058.20 964.62 1057.09 976.11 1051.78 986.16
  Q 1050.99 987.65 1052.44 986.89
  C 1054.77 985.65 1058.30 978.62 1059.60 975.54
  Q 1061.83 970.22 1061.99 963.24
  C 1062.19 954.63 1061.60 945.93 1060.46 936.67
  Q 1060.06 933.35 1059.69 925.83
  Q 1058.54 902.78 1055.35 884.39
  Q 1050.29 855.17 1044.22 825.75
  Q 1043.50 822.24 1043.48 822.18
  Q 1041.96 816.80 1040.89 812.21
  Z
  M 970.05 1079.30
  Q 958.83 1076.84 957.72 1076.45
  C 954.14 1075.21 950.28 1074.86 946.53 1073.97
  C 925.17 1068.90 903.16 1065.58 880.48 1063.42
  Q 847.60 1060.29 814.65 1057.83
  Q 814.17 1057.80 804.33 1057.41
  Q 799.16 1057.21 794.02 1056.37
  Q 793.88 1056.34 793.88 1056.49
  L 793.88 1056.77
  Q 793.88 1057.00 794.10 1057.02
  Q 868.07 1063.40 939.01 1074.06
  C 943.37 1074.72 949.56 1076.23 955.00 1076.71
  C 956.33 1076.83 957.94 1077.61 959.44 1077.78
  Q 964.78 1078.36 970.06 1079.38
  L 970.07 1079.38
  A 0.05 0.05 0.0 0 0 970.05 1079.30
  Z
  M 699.37 1152.00
  Q 699.55 1167.42 700.37 1170.80
  A 1.23 1.23 0.0 0 0 700.88 1171.54
  Q 701.41 1171.91 701.78 1171.57
  Q 702.33 1171.06 702.35 1170.93
  Q 702.87 1167.27 703.61 1160.09
  Q 704.94 1147.28 706.57 1121.50
  Q 706.62 1120.75 706.52 1120.45
  Q 706.10 1119.17 705.68 1120.45
  Q 703.96 1125.62 702.51 1130.26
  Q 699.23 1140.75 699.37 1152.00
  Z
  M 1048.38 1154.19
  Q 1046.89 1173.65 1046.45 1195.63
  A 0.67 0.66 85.1 0 0 1047.24 1196.30
  L 1047.75 1196.20
  A 0.67 0.66 89.5 0 0 1048.27 1195.66
  Q 1050.87 1180.79 1051.31 1168.87
  Q 1052.18 1145.50 1051.39 1120.37
  Q 1051.39 1120.23 1051.25 1120.21
  L 1051.24 1120.21
  Q 1051.10 1120.19 1051.09 1120.36
  Q 1049.41 1140.61 1048.38 1154.19
  Z
  M 705.49 1203.52
  Q 704.17 1203.64 703.63 1203.62
  Q 703.63 1203.63 703.62 1203.63
  Q 703.68 1203.60 703.74 1203.64
  Q 703.85 1203.70 703.91 1203.70
  C 711.11 1204.11 717.52 1204.19 725.32 1204.78
  Q 791.37 1209.71 860.00 1212.70
  Q 888.53 1213.94 909.73 1213.61
  C 930.65 1213.28 952.25 1211.05 970.23 1201.43
  Q 971.02 1201.00 971.48 1200.16
  A 0.56 0.56 0.0 0 0 970.94 1199.33
  C 949.62 1201.10 926.78 1202.61 904.51 1203.13
  Q 813.65 1205.25 721.41 1202.89
  Q 714.39 1202.71 705.49 1203.52
  Z"
/>
<path fill="#ffffff" d="
  M 1146.12 1401.70
  Q 1173.38 1401.68 1173.50 1401.69
  Q 1186.04 1402.00 1197.61 1399.06
  A 0.33 0.32 83.1 0 1 1198.01 1399.38
  L 1198.01 1426.42
  A 0.56 0.55 75.0 0 1 1197.74 1426.90
  L 1197.25 1427.21
  A 0.37 0.37 0.0 0 1 1196.70 1426.95
  Q 1196.33 1424.61 1196.14 1422.97
  C 1194.89 1412.18 1187.10 1408.43 1177.26 1408.47
  Q 1162.80 1408.53 1158.85 1408.56
  A 0.56 0.55 -90.0 0 0 1158.30 1409.12
  Q 1158.34 1496.42 1158.40 1501.75
  Q 1158.54 1513.25 1170.00 1514.03
  Q 1171.06 1514.10 1170.78 1515.09
  A 0.57 0.55 -81.4 0 1 1170.24 1515.50
  Q 1158.09 1515.51 1146.18 1515.52
  Q 1134.28 1515.52 1122.12 1515.52
  A 0.57 0.55 81.3 0 1 1121.59 1515.12
  Q 1121.31 1514.13 1122.37 1514.05
  Q 1133.83 1513.26 1133.95 1501.76
  Q 1134.01 1496.43 1133.96 1409.13
  A 0.56 0.55 89.9 0 0 1133.41 1408.57
  Q 1129.46 1408.55 1115.00 1408.50
  C 1105.16 1408.47 1097.37 1412.23 1096.13 1423.02
  Q 1095.94 1424.66 1095.58 1427.00
  A 0.37 0.37 0.0 0 1 1095.03 1427.26
  L 1094.54 1426.95
  A 0.56 0.55 -75.1 0 1 1094.26 1426.47
  L 1094.24 1399.43
  A 0.33 0.32 -83.2 0 1 1094.64 1399.11
  Q 1106.21 1402.04 1118.75 1401.71
  Q 1118.87 1401.71 1146.12 1401.70
  Z"
/>
<path fill="#ffffff" d="
  M 340.00 1515.48
  Q 328.10 1515.48 315.95 1515.48
  A 0.57 0.55 81.3 0 1 315.42 1515.07
  Q 315.13 1514.08 316.19 1514.01
  Q 327.65 1513.22 327.78 1501.73
  Q 327.84 1496.40 327.82 1409.13
  A 0.56 0.55 90.0 0 0 327.27 1408.57
  Q 323.32 1408.54 308.86 1408.49
  C 299.03 1408.46 291.24 1412.22 290.00 1423.00
  Q 289.81 1424.64 289.44 1426.98
  A 0.37 0.37 0.0 0 1 288.89 1427.24
  L 288.40 1426.93
  A 0.56 0.55 -75.0 0 1 288.13 1426.45
  L 288.11 1399.42
  A 0.33 0.32 -83.2 0 1 288.51 1399.10
  Q 300.08 1402.03 312.62 1401.71
  Q 312.73 1401.71 339.98 1401.70
  Q 367.23 1401.70 367.34 1401.70
  Q 379.88 1402.02 391.45 1399.08
  A 0.33 0.32 83.1 0 1 391.85 1399.40
  L 391.84 1426.43
  A 0.56 0.55 75.0 0 1 391.57 1426.91
  L 391.08 1427.22
  A 0.37 0.37 0.0 0 1 390.53 1426.96
  Q 390.16 1424.62 389.97 1422.98
  C 388.73 1412.20 380.94 1408.45 371.10 1408.48
  Q 356.65 1408.54 352.70 1408.57
  A 0.56 0.55 -90.0 0 0 352.15 1409.13
  Q 352.16 1496.40 352.22 1501.72
  Q 352.35 1513.22 363.81 1514.00
  Q 364.87 1514.07 364.59 1515.06
  A 0.57 0.55 -81.4 0 1 364.05 1515.47
  Q 351.90 1515.48 340.00 1515.48
  Z"
/>
<path fill="#ffffff" d="
  M 610.35 1408.97
  Q 609.85 1408.98 609.85 1409.48
  L 609.85 1455.54
  A 0.52 0.51 90.0 0 0 610.36 1456.06
  Q 622.48 1456.11 628.73 1456.11
  Q 643.83 1456.11 645.18 1441.47
  Q 645.25 1440.70 646.00 1440.55
  L 646.28 1440.50
  A 0.34 0.33 84.4 0 1 646.68 1440.83
  L 646.68 1477.59
  A 0.35 0.35 0.0 0 1 646.33 1477.94
  L 645.93 1477.94
  Q 645.17 1477.94 645.11 1477.18
  Q 643.97 1463.19 629.73 1462.95
  Q 623.94 1462.86 610.35 1462.94
  A 0.52 0.51 90.0 0 0 609.84 1463.46
  L 609.84 1507.97
  A 0.38 0.37 -89.2 0 0 610.20 1508.35
  Q 623.92 1508.89 634.23 1508.26
  C 646.80 1507.49 656.66 1498.70 661.08 1487.31
  Q 662.86 1482.72 663.21 1482.29
  Q 663.59 1481.84 663.92 1482.25
  Q 664.44 1482.91 663.97 1484.98
  Q 660.27 1501.07 657.18 1515.01
  A 0.65 0.64 -83.9 0 1 656.55 1515.52
  L 573.94 1515.52
  A 0.73 0.72 84.1 0 1 573.23 1514.94
  L 573.16 1514.60
  A 0.56 0.55 -7.1 0 1 573.68 1513.94
  Q 585.38 1513.51 585.44 1501.52
  Q 585.45 1500.07 585.44 1419.38
  Q 585.44 1412.47 585.27 1411.62
  C 584.12 1406.04 578.87 1403.85 573.46 1403.12
  A 0.44 0.43 3.8 0 1 573.08 1402.69
  L 573.08 1402.30
  Q 573.08 1401.81 573.58 1401.81
  Q 599.06 1401.91 624.58 1401.85
  C 637.27 1401.82 644.44 1401.99 654.08 1399.16
  A 0.45 0.45 0.0 0 1 654.66 1399.59
  Q 654.62 1411.13 654.68 1425.00
  Q 654.69 1426.21 654.67 1426.29
  Q 653.81 1429.09 653.14 1426.23
  C 652.77 1424.61 652.95 1422.51 652.53 1420.90
  C 649.76 1410.36 642.02 1408.81 631.75 1408.80
  Q 619.43 1408.78 610.35 1408.97
  Z"
/>
<path fill="#ffffff" d="
  M 1260.51 1408.97
  Q 1260.01 1408.98 1260.01 1409.48
  L 1260.01 1455.54
  A 0.52 0.51 90.0 0 0 1260.52 1456.06
  Q 1272.64 1456.11 1278.89 1456.11
  Q 1293.99 1456.10 1295.34 1441.46
  Q 1295.41 1440.69 1296.16 1440.54
  L 1296.44 1440.49
  A 0.34 0.33 84.4 0 1 1296.84 1440.82
  L 1296.84 1477.58
  A 0.35 0.35 0.0 0 1 1296.49 1477.93
  L 1296.09 1477.93
  Q 1295.33 1477.93 1295.27 1477.17
  Q 1294.13 1463.18 1279.89 1462.95
  Q 1274.10 1462.86 1260.51 1462.94
  A 0.52 0.51 90.0 0 0 1260.00 1463.46
  L 1260.01 1507.97
  A 0.38 0.37 -89.2 0 0 1260.37 1508.35
  Q 1274.09 1508.89 1284.40 1508.25
  C 1296.97 1507.48 1306.83 1498.69 1311.25 1487.30
  Q 1313.02 1482.71 1313.37 1482.28
  Q 1313.75 1481.83 1314.08 1482.24
  Q 1314.60 1482.90 1314.14 1484.97
  Q 1310.44 1501.06 1307.35 1515.00
  A 0.65 0.64 -83.9 0 1 1306.72 1515.51
  L 1224.11 1515.52
  A 0.73 0.72 84.1 0 1 1223.40 1514.94
  L 1223.33 1514.60
  A 0.56 0.55 -7.1 0 1 1223.85 1513.94
  Q 1235.55 1513.51 1235.61 1501.52
  Q 1235.62 1500.07 1235.60 1419.38
  Q 1235.60 1412.47 1235.43 1411.62
  C 1234.28 1406.04 1229.03 1403.85 1223.62 1403.12
  A 0.44 0.43 3.8 0 1 1223.24 1402.69
  L 1223.24 1402.30
  Q 1223.24 1401.81 1223.74 1401.81
  Q 1249.22 1401.91 1274.74 1401.85
  C 1287.43 1401.82 1294.60 1401.99 1304.23 1399.15
  A 0.45 0.45 0.0 0 1 1304.81 1399.58
  Q 1304.78 1411.12 1304.84 1424.99
  Q 1304.85 1426.20 1304.83 1426.28
  Q 1303.97 1429.08 1303.30 1426.22
  C 1302.93 1424.60 1303.11 1422.50 1302.69 1420.89
  C 1299.92 1410.36 1292.18 1408.81 1281.91 1408.80
  Q 1269.59 1408.78 1260.51 1408.97
  Z"
/>
<path fill="#ffffff" d="
  M 1445.46 1450.24
  Q 1445.09 1448.07 1444.00 1449.95
  Q 1416.93 1496.70 1414.56 1500.59
  Q 1409.51 1508.88 1408.19 1518.66
  A 0.54 0.54 0.0 0 1 1407.24 1518.94
  Q 1405.68 1517.07 1404.64 1515.33
  Q 1388.06 1487.33 1365.89 1450.11
  Q 1365.00 1448.62 1364.82 1450.34
  Q 1361.63 1480.02 1358.91 1504.81
  C 1358.21 1511.17 1360.76 1513.92 1367.17 1514.26
  A 0.44 0.44 0.0 0 1 1367.59 1514.70
  L 1367.59 1515.08
  Q 1367.59 1515.52 1367.15 1515.52
  L 1334.12 1515.52
  A 0.51 0.48 73.2 0 1 1333.70 1515.28
  L 1333.46 1514.89
  A 0.63 0.63 0.0 0 1 1334.00 1513.94
  Q 1346.63 1514.02 1348.08 1502.78
  Q 1352.40 1469.23 1361.18 1401.54
  Q 1361.69 1397.60 1363.75 1400.99
  L 1412.35 1480.95
  Q 1413.22 1482.38 1414.06 1480.93
  L 1461.56 1399.65
  A 0.83 0.83 0.0 0 1 1463.10 1399.96
  Q 1465.45 1417.40 1476.62 1501.83
  Q 1478.20 1513.80 1490.52 1513.91
  A 0.58 0.58 0.0 0 1 1491.08 1514.35
  L 1491.18 1514.71
  Q 1491.38 1515.51 1490.56 1515.51
  L 1443.12 1515.51
  A 0.17 0.17 0.0 0 1 1443.00 1515.46
  L 1442.66 1515.13
  A 0.46 0.46 0.0 0 1 1442.92 1514.34
  C 1447.69 1513.70 1451.90 1512.14 1451.27 1506.25
  Q 1446.56 1462.69 1445.57 1451.46
  Q 1445.47 1450.33 1445.46 1450.24
  Z"
/>
<path fill="#ffffff" d="
  M 778.26 1410.21
  C 770.96 1415.01 768.24 1424.51 775.02 1431.23
  Q 778.52 1434.69 782.67 1437.36
  Q 807.86 1453.57 813.06 1457.06
  C 825.76 1465.58 830.53 1477.65 826.59 1492.63
  C 822.85 1506.83 810.15 1514.51 796.46 1516.73
  Q 777.87 1519.74 760.12 1513.46
  Q 755.45 1511.81 751.38 1508.10
  Q 751.01 1507.76 750.88 1507.27
  Q 750.12 1504.53 750.01 1501.75
  Q 749.57 1490.46 754.62 1481.07
  Q 755.68 1479.09 755.90 1481.32
  C 756.30 1485.40 756.35 1487.78 757.20 1490.60
  C 762.09 1506.84 777.25 1513.01 793.04 1510.03
  C 806.79 1507.43 815.10 1493.41 803.96 1481.81
  Q 802.13 1479.90 795.17 1475.28
  Q 770.12 1458.63 769.92 1458.50
  C 757.51 1450.25 749.81 1439.92 753.10 1424.21
  Q 757.52 1403.07 781.26 1399.87
  C 786.55 1399.15 793.25 1399.78 800.25 1400.45
  Q 809.32 1401.31 818.39 1401.28
  A 0.49 0.48 2.7 0 1 818.88 1401.81
  L 816.84 1424.62
  A 0.63 0.63 0.0 0 1 815.90 1425.11
  L 815.58 1424.93
  A 0.66 0.64 14.3 0 1 815.26 1424.41
  C 814.57 1414.51 807.55 1408.76 798.41 1407.22
  C 791.38 1406.03 784.25 1406.27 778.26 1410.21
  Z"
/>
<path fill="#ffffff" d="
  M 1015.28 1431.23
  Q 1018.78 1434.69 1022.93 1437.36
  Q 1048.13 1453.57 1053.33 1457.06
  C 1066.03 1465.58 1070.80 1477.65 1066.86 1492.63
  C 1063.13 1506.83 1050.43 1514.51 1036.73 1516.74
  Q 1018.14 1519.75 1000.39 1513.47
  Q 995.72 1511.82 991.65 1508.11
  Q 991.28 1507.77 991.15 1507.28
  Q 990.39 1504.54 990.28 1501.76
  Q 989.84 1490.47 994.89 1481.08
  Q 995.95 1479.10 996.17 1481.33
  C 996.57 1485.41 996.62 1487.79 997.47 1490.61
  C 1002.36 1506.85 1017.52 1513.02 1033.31 1510.03
  C 1047.06 1507.43 1055.37 1493.41 1044.23 1481.81
  Q 1042.40 1479.90 1035.44 1475.28
  Q 1010.39 1458.63 1010.19 1458.50
  C 997.77 1450.25 990.07 1439.92 993.36 1424.21
  Q 997.78 1403.07 1021.52 1399.87
  C 1026.81 1399.14 1033.51 1399.77 1040.51 1400.44
  Q 1049.58 1401.30 1058.65 1401.27
  A 0.49 0.48 2.7 0 1 1059.14 1401.80
  L 1057.11 1424.61
  A 0.63 0.63 0.0 0 1 1056.17 1425.10
  L 1055.85 1424.92
  A 0.66 0.64 14.3 0 1 1055.53 1424.40
  C 1054.84 1414.50 1047.81 1408.75 1038.67 1407.21
  C 1031.64 1406.02 1024.51 1406.27 1018.52 1410.21
  C 1011.22 1415.01 1008.50 1424.51 1015.28 1431.23
  Z"
/>
<path fill="#ffffff" d="
  M 480.09 1455.40
  Q 505.06 1455.40 505.85 1455.39
  Q 506.37 1455.38 506.37 1454.87
  Q 506.41 1436.86 506.38 1423.05
  Q 506.36 1412.93 505.79 1411.01
  Q 503.73 1403.95 494.61 1403.20
  A 0.66 0.66 0.0 0 1 494.00 1402.54
  L 494.00 1402.17
  A 0.32 0.31 0.0 0 1 494.32 1401.86
  L 542.79 1401.86
  Q 543.36 1401.86 543.36 1402.43
  L 543.36 1402.72
  A 0.30 0.29 -4.6 0 1 543.11 1403.01
  Q 538.39 1403.77 537.17 1404.38
  Q 530.81 1407.56 530.77 1414.50
  Q 530.67 1433.48 530.78 1502.25
  C 530.79 1508.46 533.92 1512.54 539.86 1513.66
  Q 542.51 1514.15 542.73 1514.21
  Q 543.61 1514.44 543.51 1515.06
  A 0.51 0.51 0.0 0 1 543.01 1515.49
  L 494.86 1515.54
  A 1.00 0.88 -0.6 0 1 493.86 1514.68
  Q 493.85 1514.42 494.60 1514.24
  Q 496.36 1513.81 498.49 1513.36
  Q 503.74 1512.26 505.59 1507.03
  Q 506.67 1503.94 506.57 1499.75
  Q 506.48 1495.86 506.35 1462.97
  A 0.59 0.58 89.8 0 0 505.76 1462.38
  Q 493.00 1462.45 480.09 1462.45
  Q 467.19 1462.45 454.42 1462.39
  A 0.59 0.58 -89.8 0 0 453.84 1462.97
  Q 453.71 1495.86 453.62 1499.75
  Q 453.52 1503.94 454.60 1507.03
  Q 456.45 1512.26 461.70 1513.36
  Q 463.83 1513.81 465.59 1514.24
  Q 466.34 1514.42 466.33 1514.68
  A 1.00 0.88 0.6 0 1 465.33 1515.54
  L 417.18 1515.49
  A 0.51 0.51 0.0 0 1 416.68 1515.06
  Q 416.58 1514.44 417.46 1514.21
  Q 417.68 1514.15 420.33 1513.66
  C 426.27 1512.54 429.40 1508.46 429.41 1502.25
  Q 429.51 1433.48 429.41 1414.50
  Q 429.37 1407.56 423.01 1404.38
  Q 421.79 1403.77 417.07 1403.01
  A 0.30 0.29 4.6 0 1 416.82 1402.72
  L 416.82 1402.43
  Q 416.82 1401.86 417.39 1401.86
  L 465.86 1401.86
  A 0.32 0.31 -0.0 0 1 466.18 1402.17
  L 466.18 1402.54
  A 0.66 0.66 0.0 0 1 465.57 1403.20
  Q 456.45 1403.95 454.39 1411.01
  Q 453.82 1412.93 453.80 1423.05
  Q 453.77 1436.86 453.82 1454.87
  Q 453.82 1455.38 454.33 1455.39
  Q 455.12 1455.40 480.09 1455.40
  Z"
/>
<path fill="#ffffff" d="
  M 915.82 1455.02
  Q 916.49 1454.87 916.91 1454.14
  Q 931.77 1428.21 939.36 1414.88
  Q 942.66 1409.09 938.18 1405.13
  C 936.59 1403.72 934.48 1403.63 932.69 1402.88
  A 0.51 0.50 11.2 0 1 932.37 1402.41
  Q 932.37 1402.08 932.57 1401.91
  Q 932.68 1401.81 932.91 1401.81
  Q 952.34 1401.92 970.19 1401.80
  Q 970.84 1401.79 970.84 1402.45
  L 970.84 1402.82
  A 0.44 0.43 89.3 0 1 970.42 1403.26
  Q 958.35 1403.72 951.81 1414.07
  Q 937.19 1437.21 922.02 1461.51
  Q 920.69 1463.64 920.64 1465.75
  Q 920.52 1470.89 920.54 1497.96
  Q 920.54 1505.96 921.75 1508.29
  Q 924.50 1513.60 932.13 1513.94
  A 0.58 0.57 1.0 0 1 932.69 1514.51
  L 932.69 1515.09
  Q 932.69 1515.51 932.27 1515.51
  L 884.13 1515.51
  A 0.55 0.53 -17.4 0 1 883.69 1515.29
  Q 883.30 1514.74 883.61 1514.37
  Q 883.73 1514.23 883.91 1514.17
  Q 884.36 1514.01 886.64 1513.70
  C 892.97 1512.81 896.10 1508.53 896.13 1502.00
  Q 896.26 1475.15 896.22 1467.33
  Q 896.20 1464.03 895.10 1462.13
  Q 891.62 1456.18 866.33 1414.62
  Q 861.53 1406.75 853.83 1404.27
  Q 852.33 1403.78 847.16 1403.07
  Q 846.84 1403.02 846.84 1402.70
  L 846.84 1402.18
  Q 846.84 1401.85 847.16 1401.85
  L 900.11 1401.85
  A 0.51 0.50 -90.0 0 1 900.61 1402.36
  L 900.61 1402.83
  Q 900.61 1403.24 900.20 1403.25
  Q 892.72 1403.38 892.12 1410.67
  Q 891.98 1412.41 894.21 1416.40
  Q 905.46 1436.50 915.47 1454.86
  A 0.32 0.31 -19.4 0 0 915.82 1455.02
  Z"
/>
</svg>
