<?xml version="1.0" encoding="UTF-8" standalone="no"?>
<!DOCTYPE svg PUBLIC "-//W3C//DTD SVG 1.1//EN" "http://www.w3.org/Graphics/SVG/1.1/DTD/svg11.dtd">
<svg width="100%" height="100%" viewBox="0 0 256 256" version="1.1" xmlns="http://www.w3.org/2000/svg" xmlns:xlink="http://www.w3.org/1999/xlink" xml:space="preserve" xmlns:serif="http://www.serif.com/" style="fill-rule:evenodd;clip-rule:evenodd;stroke-linejoin:round;stroke-miterlimit:2;">
    <g transform="matrix(2.84444,0,0,2.84444,-0.143407,3.13083e-14)">
        <path d="M45,0C27.677,0 13.584,14.093 13.584,31.416C13.584,36.234 14.647,40.858 16.759,45.189C19.664,51.02 28.168,65.397 37.171,80.617L41.556,88.034C42.275,89.252 43.585,90 45,90C46.415,90 47.725,89.252 48.444,88.034L52.826,80.621C61.768,65.505 70.218,51.221 73.179,45.312C73.206,45.261 73.234,45.209 73.259,45.157C75.354,40.854 76.416,36.231 76.416,31.416C76.416,14.093 62.323,0 45,0ZM45,42.81C38.108,42.81 32.5,37.203 32.5,30.31C32.5,23.417 38.108,17.81 45,17.81C51.892,17.81 57.5,23.418 57.5,30.31C57.5,37.202 51.892,42.81 45,42.81Z" style="fill:white;fill-rule:nonzero;"/>
    </g>
</svg>
