<?xml version="1.0" encoding="UTF-8" standalone="no"?>
<!DOCTYPE svg PUBLIC "-//W3C//DTD SVG 1.1//EN" "http://www.w3.org/Graphics/SVG/1.1/DTD/svg11.dtd">
<svg width="100%" height="100%" viewBox="0 0 256 256" version="1.1" xmlns="http://www.w3.org/2000/svg" xmlns:xlink="http://www.w3.org/1999/xlink" xml:space="preserve" xmlns:serif="http://www.serif.com/" style="fill-rule:evenodd;clip-rule:evenodd;stroke-linejoin:round;stroke-miterlimit:2;">
    <g transform="matrix(2.84444,0,0,2.84444,0.000417388,0.000738816)">
        <path d="M83.576,87.253C56.503,104.918 -15.416,32.615 3.794,6.316C4.696,5.081 6.052,4.251 7.53,3.862L21.518,0.181C24.03,-0.48 26.662,0.711 27.824,3.034L35.299,17.983C36.097,19.578 36.069,21.462 35.226,23.034L29.371,33.941C28.226,36.074 28.614,38.706 30.326,40.418L49.886,59.978C51.557,61.649 54.109,62.063 56.222,61.006L67.535,55.349C69.012,54.611 70.743,54.576 72.247,55.255L86.193,61.549C88.488,62.585 89.784,65.046 89.337,67.523C88.321,73.158 87.233,79.189 86.612,82.635C86.271,84.525 85.183,86.205 83.576,87.253Z" style="fill-rule:nonzero;"/>
    </g>
</svg>
