<?xml version="1.0" encoding="UTF-8" standalone="no"?>
<!DOCTYPE svg PUBLIC "-//W3C//DTD SVG 1.1//EN" "http://www.w3.org/Graphics/SVG/1.1/DTD/svg11.dtd">
<svg width="100%" height="100%" viewBox="0 0 1000 1000" version="1.1" xmlns="http://www.w3.org/2000/svg" xmlns:xlink="http://www.w3.org/1999/xlink" xml:space="preserve" xmlns:serif="http://www.serif.com/" style="fill-rule:evenodd;clip-rule:evenodd;stroke-linejoin:round;stroke-miterlimit:2;">
    <g id="Artboard">
        <path id="Oval" d="M500,0C775.958,0 1000,224.042 1000,500C1000,775.958 775.958,1000 500,1000C224.042,1000 0,775.958 0,500C0,224.042 224.042,0 500,0ZM226.328,494.722C202.659,504.135 190.26,513.343 189.132,522.346C186.964,539.633 211.851,545.014 243.164,555.192C268.693,563.491 303.034,573.199 320.887,573.585C337.081,573.935 355.155,567.259 375.11,553.556C511.298,461.625 581.599,415.159 586.012,414.157C589.126,413.45 593.441,412.562 596.365,415.16C599.288,417.759 599.001,422.68 598.691,424C596.215,434.556 468.282,550.921 460.919,558.569C432.786,587.789 400.784,605.669 450.15,638.2C492.866,666.349 517.727,684.306 561.733,713.153C589.856,731.588 611.905,753.449 640.941,750.777C654.301,749.548 668.102,736.984 675.111,699.515C691.675,610.965 724.234,419.102 731.759,340.041C732.418,333.114 731.589,324.249 730.923,320.357C730.257,316.466 728.865,310.921 723.806,306.817C717.816,301.956 708.568,300.931 704.431,301.004C685.625,301.335 656.773,311.367 517.917,369.122C469.285,389.35 372.089,431.217 226.328,494.722Z" style="fill:white;"/>
    </g>
</svg>
