<?xml version="1.0" encoding="UTF-8" standalone="no"?>
<!DOCTYPE svg PUBLIC "-//W3C//DTD SVG 1.1//EN" "http://www.w3.org/Graphics/SVG/1.1/DTD/svg11.dtd">
<svg width="100%" height="100%" viewBox="0 0 1000 1000" version="1.1" xmlns="http://www.w3.org/2000/svg" xmlns:xlink="http://www.w3.org/1999/xlink" xml:space="preserve" xmlns:serif="http://www.serif.com/" style="fill-rule:evenodd;clip-rule:evenodd;stroke-linejoin:round;stroke-miterlimit:2;">
    <g transform="matrix(1.66967,0,0,1.66967,805.771,799.553)">
        <path d="M0,-358.818C-32.263,-379.853 -55.548,-413.509 -62.812,-452.743C-64.381,-461.22 -65.242,-469.944 -65.242,-478.87L-168.209,-478.87L-168.375,-66.214C-170.106,-20.004 -208.139,17.085 -254.764,17.085C-269.255,17.085 -282.9,13.462 -294.913,7.14C-322.463,-7.358 -341.318,-36.236 -341.318,-69.468C-341.318,-117.196 -302.487,-156.026 -254.764,-156.026C-245.854,-156.026 -237.309,-154.556 -229.225,-152.024L-229.225,-257.142C-237.59,-258.281 -246.09,-258.993 -254.764,-258.993C-359.268,-258.993 -444.284,-173.972 -444.284,-69.468C-444.284,-5.35 -412.249,51.392 -363.376,85.703C-332.593,107.315 -295.148,120.052 -254.764,120.052C-150.26,120.052 -65.242,35.036 -65.242,-69.468L-65.242,-278.72C-24.857,-249.734 24.62,-232.653 78.011,-232.653L78.011,-335.62C49.251,-335.62 22.464,-344.17 0,-358.818" style="fill:rgb(8,6,5);fill-rule:nonzero;"/>
    </g>
</svg>
