<?xml version="1.0" encoding="UTF-8" standalone="no"?>
<!DOCTYPE svg PUBLIC "-//W3C//DTD SVG 1.1//EN" "http://www.w3.org/Graphics/SVG/1.1/DTD/svg11.dtd">
<svg width="100%" height="100%" viewBox="0 0 1000 1000" version="1.1" xmlns="http://www.w3.org/2000/svg" xmlns:xlink="http://www.w3.org/1999/xlink" xml:space="preserve" xmlns:serif="http://www.serif.com/" style="fill-rule:evenodd;clip-rule:evenodd;stroke-linejoin:round;stroke-miterlimit:2;">
    <g id="LOGOS">
        <g transform="matrix(1.63769,0,0,1.63769,402.258,860.301)">
            <path d="M0,-284.291L0,-308.706C-8.173,-309.817 -16.477,-310.514 -24.95,-310.514C-127.04,-310.514 -210.094,-227.457 -210.094,-125.367C-210.094,-62.729 -178.798,-7.296 -131.054,26.223C-161.869,-6.858 -180.168,-51.173 -180.168,-99.842C-180.168,-200.466 -100.072,-281.953 0,-284.291" style="fill:rgb(37,244,238);fill-rule:nonzero;"/>
        </g>
        <g transform="matrix(1.63769,0,0,1.63769,409.416,-2.27374e-13)">
            <path d="M0,510.637C45.548,510.637 83.346,473.794 85.037,428.652L85.174,26.143L158.199,25.525C156.666,17.242 155.824,8.72 155.824,0L55.235,0L55.073,403.127C53.382,448.269 16.228,484.501 -29.32,484.501C-43.477,484.501 -56.807,480.962 -68.542,474.786C-53.174,496.085 -28.211,510.637 0,510.637" style="fill:rgb(37,244,238);fill-rule:nonzero;"/>
        </g>
        <g transform="matrix(1.63769,0,0,1.63769,893.794,192.068)">
            <path d="M0,45.743L0,22.662C-28.096,22.662 -54.263,14.31 -76.209,0C-56.669,22.444 -30.126,39.294 0,45.743" style="fill:rgb(37,244,238);fill-rule:nonzero;"/>
        </g>
        <g transform="matrix(1.63769,0,0,1.63769,768.986,41.8023)">
            <path d="M0,91.755C-21.408,67.168 -34.415,35.084 -34.415,0L-61.36,0C-54.264,38.326 -31.517,71.206 0,91.755" style="fill:rgb(254,44,85);fill-rule:nonzero;"/>
        </g>
        <g transform="matrix(1.63769,0,0,1.63769,361.398,654.623)">
            <path d="M0,-84.334C-46.622,-84.334 -84.555,-46.401 -84.555,0.224C-84.555,32.689 -66.136,60.9 -39.222,75.064C-49.252,61.164 -55.235,44.16 -55.235,25.749C-55.235,-20.876 -17.301,-58.81 29.32,-58.81C38.024,-58.81 46.373,-57.374 54.271,-54.899L54.271,-157.59C46.098,-158.702 37.794,-159.398 29.32,-159.398C27.854,-159.398 26.407,-159.322 24.95,-159.288L24.95,-80.425C17.052,-82.898 8.703,-84.334 0,-84.334" style="fill:rgb(254,44,85);fill-rule:nonzero;"/>
        </g>
        <g transform="matrix(1.63769,0,0,1.63769,893.794,1000)">
            <path d="M0,-448.263L0,-370.084C-52.158,-370.084 -100.492,-386.77 -139.944,-415.088L-139.944,-210.669C-139.944,-108.578 -222.999,-25.524 -325.089,-25.524C-364.541,-25.524 -401.121,-37.968 -431.193,-59.079C-397.369,-22.769 -349.189,0 -295.769,0C-193.678,0 -110.625,-83.054 -110.625,-185.144L-110.625,-389.562C-71.172,-361.246 -22.838,-344.559 29.32,-344.559L29.32,-445.149C19.264,-445.149 9.461,-446.238 0,-448.263" style="fill:rgb(254,44,85);fill-rule:nonzero;"/>
        </g>
        <g transform="matrix(1.63769,0,0,1.63769,664.608,345.013)">
            <path d="M0,189.276L0,-15.143C39.452,13.174 87.787,29.86 139.944,29.86L139.944,-48.318C109.818,-54.767 83.275,-70.947 63.735,-93.39C32.218,-113.939 9.471,-146.819 2.375,-185.145L-71.269,-185.145L-71.431,217.982C-73.122,263.124 -110.276,299.357 -155.824,299.357C-184.035,299.357 -208.998,285.415 -224.367,264.116C-251.281,249.953 -269.7,221.742 -269.7,189.276C-269.7,142.651 -231.767,104.718 -185.145,104.718C-176.441,104.718 -168.093,106.154 -160.195,108.628L-160.195,29.765C-260.267,32.103 -340.968,114.177 -340.968,214.801C-340.968,263.47 -322.064,307.785 -291.249,340.865C-261.176,361.977 -224.597,374.421 -185.145,374.421C-83.055,374.421 0,291.366 0,189.276" style="fill-rule:nonzero;"/>
        </g>
    </g>
</svg>
