<?xml version="1.0" encoding="UTF-8" standalone="no"?>
<!DOCTYPE svg PUBLIC "-//W3C//DTD SVG 1.1//EN" "http://www.w3.org/Graphics/SVG/1.1/DTD/svg11.dtd">
<svg width="100%" height="100%" viewBox="0 0 1000 1000" version="1.1" xmlns="http://www.w3.org/2000/svg" xmlns:xlink="http://www.w3.org/1999/xlink" xml:space="preserve" xmlns:serif="http://www.serif.com/" style="fill-rule:evenodd;clip-rule:evenodd;stroke-linejoin:round;stroke-miterlimit:2;">
    <g id="ICONS">
        <g transform="matrix(2.45451,0,0,2.45451,408.033,860.312)">
            <path d="M0,-189.693L0,-205.979C-5.453,-206.721 -10.993,-207.185 -16.646,-207.185C-84.763,-207.185 -140.178,-151.768 -140.178,-83.652C-140.178,-41.858 -119.297,-4.874 -87.441,17.492C-108.001,-4.581 -120.204,-34.148 -120.204,-66.622C-120.204,-133.759 -66.77,-188.133 0,-189.693" style="fill:rgb(37,244,238);fill-rule:nonzero;"/>
        </g>
        <g transform="matrix(2.45451,0,0,2.45451,415.191,-1.98952e-13)">
            <path d="M0,340.647C30.391,340.647 55.537,316.125 56.665,286.003L56.921,17.416L105.629,17.434L105.554,17.03C104.53,11.504 103.969,5.818 103.969,0L36.854,0L36.746,268.973C35.617,299.093 10.828,323.268 -19.563,323.268C-29.008,323.268 -37.903,320.907 -45.733,316.786C-35.479,330.997 -18.823,340.647 0,340.647" style="fill:rgb(37,244,238);fill-rule:nonzero;"/>
        </g>
        <g transform="matrix(2.45451,0,0,2.45451,899.568,192.069)">
            <path d="M0,30.877L0,15.12C-18.745,15.12 -36.205,9.547 -50.848,0C-37.811,14.974 -20.101,26.574 0,30.877" style="fill:rgb(37,244,238);fill-rule:nonzero;"/>
        </g>
        <g transform="matrix(2.45451,0,0,2.45451,774.762,41.8015)">
            <path d="M0,61.221C-14.284,44.816 -22.963,23.408 -22.963,0L-41.248,0C-36.514,25.572 -21.029,47.51 0,61.221" style="fill:rgb(254,44,85);fill-rule:nonzero;"/>
        </g>
        <g transform="matrix(2.45451,0,0,2.45451,367.174,655.874)">
            <path d="M0,-57.291C-31.107,-57.291 -56.791,-31.471 -56.791,-0.361C-56.791,21.301 -44.127,40.123 -26.17,49.573C-32.862,40.299 -36.854,28.954 -36.854,16.669C-36.854,-14.439 -11.544,-39.749 19.563,-39.749C25.37,-39.749 30.941,-38.791 36.21,-37.141L36.21,-105.658C30.757,-106.399 25.217,-106.864 19.563,-106.864C18.585,-106.864 17.619,-106.813 16.646,-106.79L16.388,-106.777L16.206,-54.913C10.937,-56.563 5.807,-57.291 0,-57.291" style="fill:rgb(254,44,85);fill-rule:nonzero;"/>
        </g>
        <g transform="matrix(2.45451,0,0,2.45451,899.568,999.85)">
            <path d="M0,-299.029L-0.312,-299.09L-0.328,-247.268C-35.128,-247.268 -67.463,-258.722 -93.786,-277.616L-93.765,-140.502C-93.765,-72.384 -148.789,-17.312 -216.905,-17.312C-243.228,-17.312 -267.635,-25.272 -287.7,-39.358C-265.131,-15.132 -232.985,0.061 -197.342,0.061C-129.226,0.061 -73.811,-55.354 -73.811,-123.471L-73.811,-259.863C-47.487,-240.969 -15.237,-229.836 19.563,-229.836L19.563,-296.951C12.854,-296.951 6.312,-297.677 0,-299.029" style="fill:rgb(254,44,85);fill-rule:nonzero;"/>
        </g>
        <g transform="matrix(2.45451,0,0,2.45451,670.383,345.011)">
            <path d="M0,126.289L0,-10.103C26.323,8.791 58.573,19.924 93.373,19.924L93.373,-32.238C73.272,-36.542 55.563,-47.336 42.525,-62.311C21.496,-76.022 6.319,-97.96 1.585,-123.532L-47.552,-123.532L-47.66,145.441C-48.788,175.562 -73.578,199.736 -103.969,199.736C-122.792,199.736 -139.448,190.435 -149.702,176.224C-167.659,166.773 -179.949,147.951 -179.949,126.289C-179.949,95.18 -154.639,69.871 -123.532,69.871C-117.725,69.871 -112.155,70.828 -106.885,72.478L-106.885,19.86C-173.655,21.42 -227.5,76.182 -227.5,143.319C-227.5,175.793 -214.887,205.36 -194.327,227.433C-174.262,241.518 -149.855,249.821 -123.532,249.821C-55.416,249.821 0,194.406 0,126.289" style="fill:white;fill-rule:nonzero;"/>
        </g>
    </g>
</svg>
