<?xml version="1.0" encoding="UTF-8" standalone="no"?>
<!DOCTYPE svg PUBLIC "-//W3C//DTD SVG 1.1//EN" "http://www.w3.org/Graphics/SVG/1.1/DTD/svg11.dtd">
<svg width="100%" height="100%" viewBox="0 0 256 256" version="1.1" xmlns="http://www.w3.org/2000/svg" xmlns:xlink="http://www.w3.org/1999/xlink" xml:space="preserve" xmlns:serif="http://www.serif.com/" style="fill-rule:evenodd;clip-rule:evenodd;stroke-linejoin:round;stroke-miterlimit:2;">
    <g transform="matrix(2.84444,0,0,2.84444,1.73195e-14,-0.143407)">
        <path d="M45,0C20.187,0 0,20.187 0,45C0,69.813 20.187,90 45,90C69.813,90 90,69.813 90,45C90,20.187 69.813,0 45,0ZM48,31.559C52.885,31.32 57.636,30.5 62.088,29.156C62.971,33.151 63.535,37.48 63.71,42L48,42L48,31.559ZM48,25.551L48,6.53C53.139,8.33 57.651,14.641 60.517,23.37C56.579,24.572 52.358,25.316 48,25.551ZM42,6.53L42,25.551C37.642,25.316 33.421,24.573 29.483,23.371C32.349,14.641 36.861,8.33 42,6.53ZM42,31.559L42,42L26.29,42C26.465,37.48 27.029,33.151 27.912,29.157C32.364,30.5 37.115,31.32 42,31.559ZM20.284,42L6.127,42C6.692,34.61 9.322,27.792 13.445,22.121C16.097,24.045 19.036,25.711 22.203,27.08C21.131,31.684 20.468,36.704 20.284,42ZM20.284,48C20.468,53.296 21.131,58.317 22.203,62.921C19.036,64.29 16.097,65.956 13.445,67.88C9.322,62.208 6.692,55.39 6.127,48L20.284,48ZM26.29,48L42,48L42,58.441C37.115,58.68 32.364,59.5 27.913,60.844C27.029,56.85 26.465,52.52 26.29,48ZM42,64.45L42,83.47C36.861,81.67 32.35,75.359 29.483,66.63C33.421,65.428 37.642,64.685 42,64.45ZM48,83.47L48,64.45C52.358,64.685 56.579,65.428 60.517,66.63C57.651,75.359 53.139,81.67 48,83.47ZM48,58.441L48,48L63.71,48C63.535,52.52 62.971,56.85 62.087,60.844C57.636,59.5 52.886,58.68 48,58.441ZM69.716,48L83.873,48C83.308,55.39 80.678,62.208 76.555,67.879C73.903,65.955 70.964,64.29 67.797,62.92C68.87,58.317 69.533,53.296 69.716,48ZM69.716,42C69.532,36.704 68.869,31.684 67.797,27.079C70.964,25.71 73.903,24.044 76.555,22.12C80.679,27.792 83.308,34.61 83.873,42L69.716,42ZM72.66,17.536C70.667,18.945 68.484,20.186 66.15,21.248C64.554,16.499 62.485,12.359 60.052,9.025C64.804,11.02 69.08,13.931 72.66,17.536ZM29.949,9.024C27.516,12.358 25.447,16.499 23.851,21.248C21.516,20.186 19.333,18.946 17.34,17.536C20.92,13.931 25.196,11.02 29.949,9.024ZM17.34,72.464C19.333,71.055 21.516,69.814 23.851,68.752C25.447,73.501 27.517,77.641 29.949,80.976C25.196,78.98 20.92,76.069 17.34,72.464ZM60.051,80.976C62.484,77.642 64.553,73.502 66.149,68.753C68.483,69.815 70.666,71.055 72.659,72.465C69.08,76.069 64.804,78.98 60.051,80.976Z" style="fill:white;fill-rule:nonzero;"/>
    </g>
</svg>
